ISO-10303-21;
HEADER;
/* Generated by software containing ST-Developer
 * from STEP Tools, Inc. (www.steptools.com) 
 */

FILE_DESCRIPTION(
/* description */ (''),
/* implementation_level */ '2;1');

FILE_NAME(
/* name */ 'foot.step',
/* time_stamp */ '2026-10-07T11:32:17+09:00',
/* author */ (''),
/* organization */ (''),
/* preprocessor_version */ 'ST-DEVELOPER v20.2',
/* originating_system */ 'Autodesk Translation Framework v15.15.0.0',
/* authorisation */ '');

FILE_SCHEMA (('AUTOMOTIVE_DESIGN { 1 0 10303 214 3 1 1 }'));
ENDSEC;

DATA;
#10=MECHANICAL_DESIGN_GEOMETRIC_PRESENTATION_REPRESENTATION('',(#13),#1590);
#11=SHAPE_REPRESENTATION_RELATIONSHIP('SRR','None',#1597,#12);
#12=ADVANCED_BREP_SHAPE_REPRESENTATION('',(#14),#1589);
#13=STYLED_ITEM('',(#1607),#14);
#14=MANIFOLD_SOLID_BREP('foot',#874);
#15=TOROIDAL_SURFACE('',#936,4.5,2.);
#16=TOROIDAL_SURFACE('',#952,4.5,2.);
#17=TOROIDAL_SURFACE('',#956,4.,2.);
#18=TOROIDAL_SURFACE('',#960,4.,2.);
#19=ELLIPSE('',#924,4.7887999761416,4.5);
#20=ELLIPSE('',#926,4.7887999761416,4.5);
#21=(
BOUNDED_SURFACE()
B_SPLINE_SURFACE(2,2,((#1291,#1292,#1293),(#1294,#1295,#1296),(#1297,#1298,
#1299)),.UNSPECIFIED.,.F.,.F.,.F.)
B_SPLINE_SURFACE_WITH_KNOTS((3,3),(3,3),(-1.5707963267949,0.),(-3.14159265358979,
-1.5707963267949),.UNSPECIFIED.)
GEOMETRIC_REPRESENTATION_ITEM()
RATIONAL_B_SPLINE_SURFACE(((1.,0.707106781186548,1.),(0.707106781186543,
0.499999999999997,0.707106781186543),(1.,0.707106781186548,1.)))
REPRESENTATION_ITEM('')
SURFACE()
);
#22=(
BOUNDED_SURFACE()
B_SPLINE_SURFACE(2,2,((#1311,#1312,#1313),(#1314,#1315,#1316),(#1317,#1318,
#1319)),.UNSPECIFIED.,.F.,.F.,.F.)
B_SPLINE_SURFACE_WITH_KNOTS((3,3),(3,3),(-1.5707963267949,1.11022302462515E-15),
(-1.5707963267949,0.),.UNSPECIFIED.)
GEOMETRIC_REPRESENTATION_ITEM()
RATIONAL_B_SPLINE_SURFACE(((1.,0.707106781186548,1.),(0.707106781186547,
0.5,0.707106781186547),(1.,0.707106781186548,1.)))
REPRESENTATION_ITEM('')
SURFACE()
);
#23=(
BOUNDED_SURFACE()
B_SPLINE_SURFACE(2,2,((#1331,#1332,#1333),(#1334,#1335,#1336),(#1337,#1338,
#1339)),.UNSPECIFIED.,.F.,.F.,.F.)
B_SPLINE_SURFACE_WITH_KNOTS((3,3),(3,3),(-1.5707963267949,0.),(0.,1.5707963267949),
 .UNSPECIFIED.)
GEOMETRIC_REPRESENTATION_ITEM()
RATIONAL_B_SPLINE_SURFACE(((1.,0.707106781186548,1.),(0.707106781186545,
0.499999999999998,0.707106781186545),(1.,0.707106781186548,1.)))
REPRESENTATION_ITEM('')
SURFACE()
);
#24=(
BOUNDED_SURFACE()
B_SPLINE_SURFACE(2,2,((#1351,#1352,#1353),(#1354,#1355,#1356),(#1357,#1358,
#1359)),.UNSPECIFIED.,.F.,.F.,.F.)
B_SPLINE_SURFACE_WITH_KNOTS((3,3),(3,3),(-1.5707963267949,0.),(1.5707963267949,
3.14159265358979),.UNSPECIFIED.)
GEOMETRIC_REPRESENTATION_ITEM()
RATIONAL_B_SPLINE_SURFACE(((1.,0.707106781186548,1.),(0.707106781186545,
0.499999999999998,0.707106781186545),(1.,0.707106781186548,1.)))
REPRESENTATION_ITEM('')
SURFACE()
);
#25=(
BOUNDED_SURFACE()
B_SPLINE_SURFACE(2,2,((#1443,#1444,#1445),(#1446,#1447,#1448),(#1449,#1450,
#1451)),.UNSPECIFIED.,.F.,.F.,.F.)
B_SPLINE_SURFACE_WITH_KNOTS((3,3),(3,3),(-1.5707963267949,2.97676330402101E-16),
(-4.74648297507192E-17,1.5707963267949),.UNSPECIFIED.)
GEOMETRIC_REPRESENTATION_ITEM()
RATIONAL_B_SPLINE_SURFACE(((1.,0.707106781186548,1.),(0.707106781186548,
0.500000000000001,0.707106781186548),(1.,0.707106781186548,1.)))
REPRESENTATION_ITEM('')
SURFACE()
);
#26=(
BOUNDED_SURFACE()
B_SPLINE_SURFACE(2,2,((#1463,#1464,#1465),(#1466,#1467,#1468),(#1469,#1470,
#1471)),.UNSPECIFIED.,.F.,.F.,.F.)
B_SPLINE_SURFACE_WITH_KNOTS((3,3),(3,3),(-1.5707963267949,2.91596054574123E-16),
(1.5707963267949,3.14159265358979),.UNSPECIFIED.)
GEOMETRIC_REPRESENTATION_ITEM()
RATIONAL_B_SPLINE_SURFACE(((1.,0.707106781186548,1.),(0.707106781186548,
0.500000000000001,0.707106781186548),(1.,0.707106781186548,1.)))
REPRESENTATION_ITEM('')
SURFACE()
);
#27=(
BOUNDED_SURFACE()
B_SPLINE_SURFACE(2,2,((#1509,#1510,#1511),(#1512,#1513,#1514),(#1515,#1516,
#1517)),.UNSPECIFIED.,.F.,.F.,.F.)
B_SPLINE_SURFACE_WITH_KNOTS((3,3),(3,3),(-1.5707963267949,1.80270565967838E-15),
(-1.5707963267949,3.31391096706883E-15),.UNSPECIFIED.)
GEOMETRIC_REPRESENTATION_ITEM()
RATIONAL_B_SPLINE_SURFACE(((1.,0.707106781186546,1.),(0.707106781186546,
0.499999999999998,0.707106781186546),(1.,0.707106781186546,1.)))
REPRESENTATION_ITEM('')
SURFACE()
);
#28=(
BOUNDED_SURFACE()
B_SPLINE_SURFACE(2,2,((#1529,#1530,#1531),(#1532,#1533,#1534),(#1535,#1536,
#1537)),.UNSPECIFIED.,.F.,.F.,.F.)
B_SPLINE_SURFACE_WITH_KNOTS((3,3),(3,3),(-1.5707963267949,4.16333634234434E-16),
(-3.14159265358979,-1.5707963267949),.UNSPECIFIED.)
GEOMETRIC_REPRESENTATION_ITEM()
RATIONAL_B_SPLINE_SURFACE(((1.,0.707106781186548,1.),(0.707106781186546,
0.499999999999999,0.707106781186546),(1.,0.707106781186548,1.)))
REPRESENTATION_ITEM('')
SURFACE()
);
#29=LINE('',#1287,#92);
#30=LINE('',#1290,#93);
#31=LINE('',#1309,#94);
#32=LINE('',#1310,#95);
#33=LINE('',#1329,#96);
#34=LINE('',#1330,#97);
#35=LINE('',#1349,#98);
#36=LINE('',#1350,#99);
#37=LINE('',#1364,#100);
#38=LINE('',#1367,#101);
#39=LINE('',#1370,#102);
#40=LINE('',#1371,#103);
#41=LINE('',#1374,#104);
#42=LINE('',#1378,#105);
#43=LINE('',#1382,#106);
#44=LINE('',#1384,#107);
#45=LINE('',#1386,#108);
#46=LINE('',#1388,#109);
#47=LINE('',#1390,#110);
#48=LINE('',#1395,#111);
#49=LINE('',#1397,#112);
#50=LINE('',#1399,#113);
#51=LINE('',#1400,#114);
#52=LINE('',#1403,#115);
#53=LINE('',#1407,#116);
#54=LINE('',#1412,#117);
#55=LINE('',#1416,#118);
#56=LINE('',#1422,#119);
#57=LINE('',#1426,#120);
#58=LINE('',#1430,#121);
#59=LINE('',#1441,#122);
#60=LINE('',#1442,#123);
#61=LINE('',#1461,#124);
#62=LINE('',#1462,#125);
#63=LINE('',#1479,#126);
#64=LINE('',#1483,#127);
#65=LINE('',#1501,#128);
#66=LINE('',#1502,#129);
#67=LINE('',#1507,#130);
#68=LINE('',#1508,#131);
#69=LINE('',#1527,#132);
#70=LINE('',#1528,#133);
#71=LINE('',#1543,#134);
#72=LINE('',#1545,#135);
#73=LINE('',#1546,#136);
#74=LINE('',#1548,#137);
#75=LINE('',#1550,#138);
#76=LINE('',#1551,#139);
#77=LINE('',#1553,#140);
#78=LINE('',#1555,#141);
#79=LINE('',#1559,#142);
#80=LINE('',#1561,#143);
#81=LINE('',#1564,#144);
#82=LINE('',#1566,#145);
#83=LINE('',#1568,#146);
#84=LINE('',#1569,#147);
#85=LINE('',#1572,#148);
#86=LINE('',#1574,#149);
#87=LINE('',#1576,#150);
#88=LINE('',#1577,#151);
#89=LINE('',#1579,#152);
#90=LINE('',#1583,#153);
#91=LINE('',#1585,#154);
#92=VECTOR('',#1012,10.);
#93=VECTOR('',#1015,10.);
#94=VECTOR('',#1026,10.);
#95=VECTOR('',#1027,10.);
#96=VECTOR('',#1038,10.);
#97=VECTOR('',#1039,10.);
#98=VECTOR('',#1050,10.);
#99=VECTOR('',#1051,10.);
#100=VECTOR('',#1058,10.);
#101=VECTOR('',#1061,10.);
#102=VECTOR('',#1064,10.);
#103=VECTOR('',#1065,10.);
#104=VECTOR('',#1068,10.);
#105=VECTOR('',#1073,10.);
#106=VECTOR('',#1076,10.);
#107=VECTOR('',#1077,10.);
#108=VECTOR('',#1078,10.);
#109=VECTOR('',#1079,10.);
#110=VECTOR('',#1080,10.);
#111=VECTOR('',#1085,10.);
#112=VECTOR('',#1086,10.);
#113=VECTOR('',#1087,10.);
#114=VECTOR('',#1088,10.);
#115=VECTOR('',#1091,4.5);
#116=VECTOR('',#1096,4.5);
#117=VECTOR('',#1103,1.75);
#118=VECTOR('',#1108,1.75);
#119=VECTOR('',#1113,10.);
#120=VECTOR('',#1116,10.);
#121=VECTOR('',#1121,10.);
#122=VECTOR('',#1134,10.);
#123=VECTOR('',#1135,10.);
#124=VECTOR('',#1146,10.);
#125=VECTOR('',#1147,10.);
#126=VECTOR('',#1158,10.);
#127=VECTOR('',#1165,10.);
#128=VECTOR('',#1188,10.);
#129=VECTOR('',#1189,10.);
#130=VECTOR('',#1194,10.);
#131=VECTOR('',#1195,10.);
#132=VECTOR('',#1206,10.);
#133=VECTOR('',#1207,10.);
#134=VECTOR('',#1216,10.);
#135=VECTOR('',#1219,10.);
#136=VECTOR('',#1220,10.);
#137=VECTOR('',#1223,10.);
#138=VECTOR('',#1226,10.);
#139=VECTOR('',#1227,10.);
#140=VECTOR('',#1230,10.);
#141=VECTOR('',#1233,10.);
#142=VECTOR('',#1240,10.);
#143=VECTOR('',#1243,10.);
#144=VECTOR('',#1246,10.);
#145=VECTOR('',#1247,10.);
#146=VECTOR('',#1248,10.);
#147=VECTOR('',#1249,10.);
#148=VECTOR('',#1252,10.);
#149=VECTOR('',#1253,10.);
#150=VECTOR('',#1254,10.);
#151=VECTOR('',#1255,10.);
#152=VECTOR('',#1258,10.);
#153=VECTOR('',#1265,10.);
#154=VECTOR('',#1268,10.);
#155=CYLINDRICAL_SURFACE('',#894,1.);
#156=CYLINDRICAL_SURFACE('',#900,1.);
#157=CYLINDRICAL_SURFACE('',#905,1.);
#158=CYLINDRICAL_SURFACE('',#910,1.);
#159=CYLINDRICAL_SURFACE('',#914,2.);
#160=CYLINDRICAL_SURFACE('',#917,2.);
#161=CYLINDRICAL_SURFACE('',#923,4.5);
#162=CYLINDRICAL_SURFACE('',#925,4.5);
#163=CYLINDRICAL_SURFACE('',#927,1.75);
#164=CYLINDRICAL_SURFACE('',#929,1.75);
#165=CYLINDRICAL_SURFACE('',#940,2.);
#166=CYLINDRICAL_SURFACE('',#945,2.);
#167=CYLINDRICAL_SURFACE('',#950,2.);
#168=CYLINDRICAL_SURFACE('',#955,2.5);
#169=CYLINDRICAL_SURFACE('',#965,2.);
#170=CYLINDRICAL_SURFACE('',#966,2.);
#171=CYLINDRICAL_SURFACE('',#971,2.);
#172=CYLINDRICAL_SURFACE('',#976,2.);
#173=CYLINDRICAL_SURFACE('',#977,2.);
#174=CYLINDRICAL_SURFACE('',#978,2.);
#175=CYLINDRICAL_SURFACE('',#980,4.);
#176=CYLINDRICAL_SURFACE('',#983,4.);
#177=CYLINDRICAL_SURFACE('',#984,4.);
#178=CYLINDRICAL_SURFACE('',#985,4.);
#179=FACE_BOUND('',#241,.T.);
#180=FACE_BOUND('',#243,.T.);
#181=FACE_BOUND('',#257,.T.);
#182=FACE_BOUND('',#263,.T.);
#183=FACE_BOUND('',#264,.T.);
#184=FACE_BOUND('',#298,.T.);
#185=FACE_BOUND('',#299,.T.);
#186=FACE_OUTER_BOUND('',#240,.T.);
#187=FACE_OUTER_BOUND('',#242,.T.);
#188=FACE_OUTER_BOUND('',#244,.T.);
#189=FACE_OUTER_BOUND('',#245,.T.);
#190=FACE_OUTER_BOUND('',#246,.T.);
#191=FACE_OUTER_BOUND('',#247,.T.);
#192=FACE_OUTER_BOUND('',#248,.T.);
#193=FACE_OUTER_BOUND('',#249,.T.);
#194=FACE_OUTER_BOUND('',#250,.T.);
#195=FACE_OUTER_BOUND('',#251,.T.);
#196=FACE_OUTER_BOUND('',#252,.T.);
#197=FACE_OUTER_BOUND('',#253,.T.);
#198=FACE_OUTER_BOUND('',#254,.T.);
#199=FACE_OUTER_BOUND('',#255,.T.);
#200=FACE_OUTER_BOUND('',#256,.T.);
#201=FACE_OUTER_BOUND('',#258,.T.);
#202=FACE_OUTER_BOUND('',#259,.T.);
#203=FACE_OUTER_BOUND('',#260,.T.);
#204=FACE_OUTER_BOUND('',#261,.T.);
#205=FACE_OUTER_BOUND('',#262,.T.);
#206=FACE_OUTER_BOUND('',#265,.T.);
#207=FACE_OUTER_BOUND('',#266,.T.);
#208=FACE_OUTER_BOUND('',#267,.T.);
#209=FACE_OUTER_BOUND('',#268,.T.);
#210=FACE_OUTER_BOUND('',#269,.T.);
#211=FACE_OUTER_BOUND('',#270,.T.);
#212=FACE_OUTER_BOUND('',#271,.T.);
#213=FACE_OUTER_BOUND('',#272,.T.);
#214=FACE_OUTER_BOUND('',#273,.T.);
#215=FACE_OUTER_BOUND('',#274,.T.);
#216=FACE_OUTER_BOUND('',#275,.T.);
#217=FACE_OUTER_BOUND('',#276,.T.);
#218=FACE_OUTER_BOUND('',#277,.T.);
#219=FACE_OUTER_BOUND('',#278,.T.);
#220=FACE_OUTER_BOUND('',#279,.T.);
#221=FACE_OUTER_BOUND('',#280,.T.);
#222=FACE_OUTER_BOUND('',#281,.T.);
#223=FACE_OUTER_BOUND('',#282,.T.);
#224=FACE_OUTER_BOUND('',#283,.T.);
#225=FACE_OUTER_BOUND('',#284,.T.);
#226=FACE_OUTER_BOUND('',#285,.T.);
#227=FACE_OUTER_BOUND('',#286,.T.);
#228=FACE_OUTER_BOUND('',#287,.T.);
#229=FACE_OUTER_BOUND('',#288,.T.);
#230=FACE_OUTER_BOUND('',#289,.T.);
#231=FACE_OUTER_BOUND('',#290,.T.);
#232=FACE_OUTER_BOUND('',#291,.T.);
#233=FACE_OUTER_BOUND('',#292,.T.);
#234=FACE_OUTER_BOUND('',#293,.T.);
#235=FACE_OUTER_BOUND('',#294,.T.);
#236=FACE_OUTER_BOUND('',#295,.T.);
#237=FACE_OUTER_BOUND('',#296,.T.);
#238=FACE_OUTER_BOUND('',#297,.T.);
#239=FACE_OUTER_BOUND('',#300,.T.);
#240=EDGE_LOOP('',(#556));
#241=EDGE_LOOP('',(#557));
#242=EDGE_LOOP('',(#558));
#243=EDGE_LOOP('',(#559));
#244=EDGE_LOOP('',(#560,#561,#562,#563));
#245=EDGE_LOOP('',(#564,#565,#566,#567));
#246=EDGE_LOOP('',(#568,#569,#570,#571));
#247=EDGE_LOOP('',(#572,#573,#574,#575));
#248=EDGE_LOOP('',(#576,#577,#578,#579));
#249=EDGE_LOOP('',(#580,#581,#582,#583));
#250=EDGE_LOOP('',(#584,#585,#586,#587));
#251=EDGE_LOOP('',(#588,#589,#590,#591));
#252=EDGE_LOOP('',(#592,#593,#594,#595));
#253=EDGE_LOOP('',(#596,#597,#598,#599));
#254=EDGE_LOOP('',(#600,#601,#602,#603));
#255=EDGE_LOOP('',(#604,#605,#606,#607,#608,#609,#610,#611,#612,#613));
#256=EDGE_LOOP('',(#614,#615,#616,#617,#618,#619,#620,#621));
#257=EDGE_LOOP('',(#622,#623,#624,#625));
#258=EDGE_LOOP('',(#626,#627,#628,#629));
#259=EDGE_LOOP('',(#630,#631,#632,#633));
#260=EDGE_LOOP('',(#634,#635,#636,#637));
#261=EDGE_LOOP('',(#638,#639,#640,#641));
#262=EDGE_LOOP('',(#642,#643,#644,#645,#646,#647,#648,#649));
#263=EDGE_LOOP('',(#650));
#264=EDGE_LOOP('',(#651));
#265=EDGE_LOOP('',(#652,#653,#654,#655));
#266=EDGE_LOOP('',(#656,#657,#658,#659));
#267=EDGE_LOOP('',(#660,#661,#662,#663));
#268=EDGE_LOOP('',(#664,#665,#666,#667));
#269=EDGE_LOOP('',(#668,#669,#670,#671));
#270=EDGE_LOOP('',(#672,#673,#674,#675));
#271=EDGE_LOOP('',(#676,#677,#678,#679));
#272=EDGE_LOOP('',(#680,#681,#682,#683,#684,#685));
#273=EDGE_LOOP('',(#686,#687,#688,#689));
#274=EDGE_LOOP('',(#690,#691,#692,#693));
#275=EDGE_LOOP('',(#694,#695,#696,#697));
#276=EDGE_LOOP('',(#698,#699,#700,#701));
#277=EDGE_LOOP('',(#702,#703,#704,#705));
#278=EDGE_LOOP('',(#706,#707,#708,#709));
#279=EDGE_LOOP('',(#710,#711,#712,#713));
#280=EDGE_LOOP('',(#714,#715,#716,#717));
#281=EDGE_LOOP('',(#718,#719,#720,#721));
#282=EDGE_LOOP('',(#722,#723,#724,#725));
#283=EDGE_LOOP('',(#726,#727,#728,#729));
#284=EDGE_LOOP('',(#730,#731,#732,#733));
#285=EDGE_LOOP('',(#734,#735,#736,#737));
#286=EDGE_LOOP('',(#738,#739,#740,#741,#742,#743,#744,#745,#746,#747));
#287=EDGE_LOOP('',(#748,#749,#750,#751,#752,#753));
#288=EDGE_LOOP('',(#754,#755,#756,#757));
#289=EDGE_LOOP('',(#758,#759,#760,#761));
#290=EDGE_LOOP('',(#762,#763,#764,#765));
#291=EDGE_LOOP('',(#766,#767,#768,#769,#770));
#292=EDGE_LOOP('',(#771,#772,#773,#774,#775));
#293=EDGE_LOOP('',(#776,#777,#778,#779));
#294=EDGE_LOOP('',(#780,#781,#782,#783));
#295=EDGE_LOOP('',(#784,#785,#786,#787));
#296=EDGE_LOOP('',(#788,#789,#790,#791));
#297=EDGE_LOOP('',(#792,#793,#794,#795));
#298=EDGE_LOOP('',(#796));
#299=EDGE_LOOP('',(#797));
#300=EDGE_LOOP('',(#798,#799,#800,#801));
#301=CIRCLE('',#889,4.5);
#302=CIRCLE('',#890,1.75);
#303=CIRCLE('',#892,4.5);
#304=CIRCLE('',#893,1.75);
#305=CIRCLE('',#895,1.);
#306=CIRCLE('',#896,0.999999999999999);
#307=CIRCLE('',#897,1.);
#308=CIRCLE('',#898,2.);
#309=CIRCLE('',#899,1.);
#310=CIRCLE('',#901,1.);
#311=CIRCLE('',#902,1.);
#312=CIRCLE('',#903,2.);
#313=CIRCLE('',#904,1.);
#314=CIRCLE('',#906,0.999999999999999);
#315=CIRCLE('',#907,1.);
#316=CIRCLE('',#908,2.);
#317=CIRCLE('',#909,1.);
#318=CIRCLE('',#911,1.);
#319=CIRCLE('',#912,2.);
#320=CIRCLE('',#913,1.);
#321=CIRCLE('',#915,2.);
#322=CIRCLE('',#918,2.);
#323=CIRCLE('',#920,4.);
#324=CIRCLE('',#921,4.5);
#325=CIRCLE('',#928,1.75);
#326=CIRCLE('',#930,1.75);
#327=CIRCLE('',#932,4.);
#328=CIRCLE('',#933,4.);
#329=CIRCLE('',#934,4.);
#330=CIRCLE('',#935,4.);
#331=CIRCLE('',#937,2.);
#332=CIRCLE('',#938,4.5);
#333=CIRCLE('',#939,2.5);
#334=CIRCLE('',#941,2.);
#335=CIRCLE('',#942,2.);
#336=CIRCLE('',#943,4.);
#337=CIRCLE('',#944,2.);
#338=CIRCLE('',#946,2.);
#339=CIRCLE('',#947,2.);
#340=CIRCLE('',#948,4.);
#341=CIRCLE('',#949,2.);
#342=CIRCLE('',#951,2.);
#343=CIRCLE('',#953,2.5);
#344=CIRCLE('',#957,2.);
#345=CIRCLE('',#958,2.);
#346=CIRCLE('',#959,2.);
#347=CIRCLE('',#961,2.);
#348=CIRCLE('',#962,2.);
#349=CIRCLE('',#963,4.);
#350=CIRCLE('',#964,2.);
#351=CIRCLE('',#967,2.);
#352=CIRCLE('',#968,1.99999999999999);
#353=CIRCLE('',#969,2.);
#354=CIRCLE('',#970,4.);
#355=CIRCLE('',#972,2.);
#356=CIRCLE('',#973,2.);
#357=CIRCLE('',#974,2.);
#358=CIRCLE('',#975,4.);
#359=VERTEX_POINT('',#1273);
#360=VERTEX_POINT('',#1275);
#361=VERTEX_POINT('',#1278);
#362=VERTEX_POINT('',#1280);
#363=VERTEX_POINT('',#1283);
#364=VERTEX_POINT('',#1284);
#365=VERTEX_POINT('',#1286);
#366=VERTEX_POINT('',#1288);
#367=VERTEX_POINT('',#1300);
#368=VERTEX_POINT('',#1301);
#369=VERTEX_POINT('',#1306);
#370=VERTEX_POINT('',#1307);
#371=VERTEX_POINT('',#1320);
#372=VERTEX_POINT('',#1321);
#373=VERTEX_POINT('',#1326);
#374=VERTEX_POINT('',#1327);
#375=VERTEX_POINT('',#1340);
#376=VERTEX_POINT('',#1341);
#377=VERTEX_POINT('',#1346);
#378=VERTEX_POINT('',#1347);
#379=VERTEX_POINT('',#1363);
#380=VERTEX_POINT('',#1365);
#381=VERTEX_POINT('',#1369);
#382=VERTEX_POINT('',#1373);
#383=VERTEX_POINT('',#1377);
#384=VERTEX_POINT('',#1379);
#385=VERTEX_POINT('',#1381);
#386=VERTEX_POINT('',#1383);
#387=VERTEX_POINT('',#1385);
#388=VERTEX_POINT('',#1387);
#389=VERTEX_POINT('',#1389);
#390=VERTEX_POINT('',#1393);
#391=VERTEX_POINT('',#1394);
#392=VERTEX_POINT('',#1396);
#393=VERTEX_POINT('',#1398);
#394=VERTEX_POINT('',#1402);
#395=VERTEX_POINT('',#1406);
#396=VERTEX_POINT('',#1410);
#397=VERTEX_POINT('',#1414);
#398=VERTEX_POINT('',#1418);
#399=VERTEX_POINT('',#1419);
#400=VERTEX_POINT('',#1421);
#401=VERTEX_POINT('',#1423);
#402=VERTEX_POINT('',#1425);
#403=VERTEX_POINT('',#1428);
#404=VERTEX_POINT('',#1432);
#405=VERTEX_POINT('',#1433);
#406=VERTEX_POINT('',#1438);
#407=VERTEX_POINT('',#1439);
#408=VERTEX_POINT('',#1452);
#409=VERTEX_POINT('',#1453);
#410=VERTEX_POINT('',#1458);
#411=VERTEX_POINT('',#1459);
#412=VERTEX_POINT('',#1472);
#413=VERTEX_POINT('',#1477);
#414=VERTEX_POINT('',#1486);
#415=VERTEX_POINT('',#1488);
#416=VERTEX_POINT('',#1492);
#417=VERTEX_POINT('',#1493);
#418=VERTEX_POINT('',#1495);
#419=VERTEX_POINT('',#1497);
#420=VERTEX_POINT('',#1504);
#421=VERTEX_POINT('',#1505);
#422=VERTEX_POINT('',#1518);
#423=VERTEX_POINT('',#1519);
#424=VERTEX_POINT('',#1524);
#425=VERTEX_POINT('',#1525);
#426=VERTEX_POINT('',#1538);
#427=VERTEX_POINT('',#1563);
#428=VERTEX_POINT('',#1565);
#429=VERTEX_POINT('',#1567);
#430=VERTEX_POINT('',#1571);
#431=VERTEX_POINT('',#1573);
#432=VERTEX_POINT('',#1575);
#433=EDGE_CURVE('',#359,#359,#301,.T.);
#434=EDGE_CURVE('',#360,#360,#302,.T.);
#435=EDGE_CURVE('',#361,#361,#303,.T.);
#436=EDGE_CURVE('',#362,#362,#304,.T.);
#437=EDGE_CURVE('',#363,#364,#305,.T.);
#438=EDGE_CURVE('',#364,#365,#29,.T.);
#439=EDGE_CURVE('',#365,#366,#306,.T.);
#440=EDGE_CURVE('',#366,#363,#30,.T.);
#441=EDGE_CURVE('',#367,#368,#307,.T.);
#442=EDGE_CURVE('',#368,#366,#308,.T.);
#443=EDGE_CURVE('',#365,#367,#309,.T.);
#444=EDGE_CURVE('',#369,#370,#310,.T.);
#445=EDGE_CURVE('',#370,#368,#31,.T.);
#446=EDGE_CURVE('',#367,#369,#32,.T.);
#447=EDGE_CURVE('',#371,#372,#311,.T.);
#448=EDGE_CURVE('',#372,#370,#312,.T.);
#449=EDGE_CURVE('',#369,#371,#313,.T.);
#450=EDGE_CURVE('',#373,#374,#314,.T.);
#451=EDGE_CURVE('',#374,#372,#33,.T.);
#452=EDGE_CURVE('',#371,#373,#34,.T.);
#453=EDGE_CURVE('',#375,#376,#315,.T.);
#454=EDGE_CURVE('',#376,#374,#316,.T.);
#455=EDGE_CURVE('',#373,#375,#317,.T.);
#456=EDGE_CURVE('',#377,#378,#318,.T.);
#457=EDGE_CURVE('',#378,#376,#35,.T.);
#458=EDGE_CURVE('',#375,#377,#36,.T.);
#459=EDGE_CURVE('',#363,#378,#319,.T.);
#460=EDGE_CURVE('',#377,#364,#320,.T.);
#461=EDGE_CURVE('',#376,#379,#37,.T.);
#462=EDGE_CURVE('',#379,#380,#321,.T.);
#463=EDGE_CURVE('',#380,#374,#38,.T.);
#464=EDGE_CURVE('',#381,#378,#39,.T.);
#465=EDGE_CURVE('',#379,#381,#40,.T.);
#466=EDGE_CURVE('',#363,#382,#41,.T.);
#467=EDGE_CURVE('',#381,#382,#322,.T.);
#468=EDGE_CURVE('',#383,#366,#42,.T.);
#469=EDGE_CURVE('',#384,#383,#323,.T.);
#470=EDGE_CURVE('',#385,#384,#43,.T.);
#471=EDGE_CURVE('',#385,#386,#44,.T.);
#472=EDGE_CURVE('',#387,#386,#45,.T.);
#473=EDGE_CURVE('',#388,#387,#46,.T.);
#474=EDGE_CURVE('',#389,#388,#47,.T.);
#475=EDGE_CURVE('',#382,#389,#324,.T.);
#476=EDGE_CURVE('',#390,#391,#48,.T.);
#477=EDGE_CURVE('',#392,#390,#49,.F.);
#478=EDGE_CURVE('',#392,#393,#50,.T.);
#479=EDGE_CURVE('',#393,#391,#51,.T.);
#480=EDGE_CURVE('',#361,#394,#52,.T.);
#481=EDGE_CURVE('',#394,#394,#19,.T.);
#482=EDGE_CURVE('',#359,#395,#53,.T.);
#483=EDGE_CURVE('',#395,#395,#20,.T.);
#484=EDGE_CURVE('',#396,#396,#325,.T.);
#485=EDGE_CURVE('',#396,#362,#54,.T.);
#486=EDGE_CURVE('',#397,#397,#326,.T.);
#487=EDGE_CURVE('',#397,#360,#55,.T.);
#488=EDGE_CURVE('',#398,#399,#327,.T.);
#489=EDGE_CURVE('',#399,#400,#56,.T.);
#490=EDGE_CURVE('',#400,#401,#328,.T.);
#491=EDGE_CURVE('',#401,#402,#57,.T.);
#492=EDGE_CURVE('',#402,#387,#329,.T.);
#493=EDGE_CURVE('',#386,#403,#330,.T.);
#494=EDGE_CURVE('',#403,#398,#58,.T.);
#495=EDGE_CURVE('',#404,#405,#331,.T.);
#496=EDGE_CURVE('',#405,#380,#332,.T.);
#497=EDGE_CURVE('',#379,#404,#333,.T.);
#498=EDGE_CURVE('',#406,#407,#334,.T.);
#499=EDGE_CURVE('',#407,#405,#59,.T.);
#500=EDGE_CURVE('',#404,#406,#60,.T.);
#501=EDGE_CURVE('',#408,#409,#335,.T.);
#502=EDGE_CURVE('',#409,#407,#336,.T.);
#503=EDGE_CURVE('',#406,#408,#337,.T.);
#504=EDGE_CURVE('',#410,#411,#338,.T.);
#505=EDGE_CURVE('',#411,#409,#61,.T.);
#506=EDGE_CURVE('',#408,#410,#62,.T.);
#507=EDGE_CURVE('',#412,#388,#339,.T.);
#508=EDGE_CURVE('',#388,#411,#340,.T.);
#509=EDGE_CURVE('',#410,#412,#341,.T.);
#510=EDGE_CURVE('',#413,#389,#342,.T.);
#511=EDGE_CURVE('',#412,#413,#63,.T.);
#512=EDGE_CURVE('',#413,#381,#343,.T.);
#513=EDGE_CURVE('',#413,#404,#64,.T.);
#514=EDGE_CURVE('',#414,#383,#344,.T.);
#515=EDGE_CURVE('',#415,#414,#345,.F.);
#516=EDGE_CURVE('',#384,#415,#346,.T.);
#517=EDGE_CURVE('',#416,#417,#347,.F.);
#518=EDGE_CURVE('',#418,#416,#348,.T.);
#519=EDGE_CURVE('',#418,#419,#349,.T.);
#520=EDGE_CURVE('',#417,#419,#350,.T.);
#521=EDGE_CURVE('',#372,#418,#65,.T.);
#522=EDGE_CURVE('',#416,#370,#66,.T.);
#523=EDGE_CURVE('',#420,#421,#351,.T.);
#524=EDGE_CURVE('',#421,#417,#67,.T.);
#525=EDGE_CURVE('',#419,#420,#68,.T.);
#526=EDGE_CURVE('',#422,#423,#352,.T.);
#527=EDGE_CURVE('',#423,#421,#353,.T.);
#528=EDGE_CURVE('',#420,#422,#354,.T.);
#529=EDGE_CURVE('',#424,#425,#355,.T.);
#530=EDGE_CURVE('',#425,#423,#69,.T.);
#531=EDGE_CURVE('',#422,#424,#70,.T.);
#532=EDGE_CURVE('',#385,#426,#356,.T.);
#533=EDGE_CURVE('',#426,#425,#357,.T.);
#534=EDGE_CURVE('',#424,#385,#358,.T.);
#535=EDGE_CURVE('',#415,#426,#71,.T.);
#536=EDGE_CURVE('',#414,#416,#72,.T.);
#537=EDGE_CURVE('',#417,#415,#73,.T.);
#538=EDGE_CURVE('',#368,#414,#74,.T.);
#539=EDGE_CURVE('',#422,#398,#75,.T.);
#540=EDGE_CURVE('',#424,#403,#76,.T.);
#541=EDGE_CURVE('',#420,#399,#77,.T.);
#542=EDGE_CURVE('',#400,#407,#78,.T.);
#543=EDGE_CURVE('',#409,#401,#79,.T.);
#544=EDGE_CURVE('',#402,#411,#80,.T.);
#545=EDGE_CURVE('',#427,#390,#81,.F.);
#546=EDGE_CURVE('',#428,#427,#82,.F.);
#547=EDGE_CURVE('',#429,#428,#83,.F.);
#548=EDGE_CURVE('',#392,#429,#84,.F.);
#549=EDGE_CURVE('',#430,#391,#85,.T.);
#550=EDGE_CURVE('',#393,#431,#86,.T.);
#551=EDGE_CURVE('',#431,#432,#87,.T.);
#552=EDGE_CURVE('',#432,#430,#88,.T.);
#553=EDGE_CURVE('',#431,#429,#89,.T.);
#554=EDGE_CURVE('',#427,#430,#90,.T.);
#555=EDGE_CURVE('',#428,#432,#91,.T.);
#556=ORIENTED_EDGE('',*,*,#433,.F.);
#557=ORIENTED_EDGE('',*,*,#434,.F.);
#558=ORIENTED_EDGE('',*,*,#435,.F.);
#559=ORIENTED_EDGE('',*,*,#436,.F.);
#560=ORIENTED_EDGE('',*,*,#437,.T.);
#561=ORIENTED_EDGE('',*,*,#438,.T.);
#562=ORIENTED_EDGE('',*,*,#439,.T.);
#563=ORIENTED_EDGE('',*,*,#440,.T.);
#564=ORIENTED_EDGE('',*,*,#441,.T.);
#565=ORIENTED_EDGE('',*,*,#442,.T.);
#566=ORIENTED_EDGE('',*,*,#439,.F.);
#567=ORIENTED_EDGE('',*,*,#443,.T.);
#568=ORIENTED_EDGE('',*,*,#444,.T.);
#569=ORIENTED_EDGE('',*,*,#445,.T.);
#570=ORIENTED_EDGE('',*,*,#441,.F.);
#571=ORIENTED_EDGE('',*,*,#446,.T.);
#572=ORIENTED_EDGE('',*,*,#447,.T.);
#573=ORIENTED_EDGE('',*,*,#448,.T.);
#574=ORIENTED_EDGE('',*,*,#444,.F.);
#575=ORIENTED_EDGE('',*,*,#449,.T.);
#576=ORIENTED_EDGE('',*,*,#450,.T.);
#577=ORIENTED_EDGE('',*,*,#451,.T.);
#578=ORIENTED_EDGE('',*,*,#447,.F.);
#579=ORIENTED_EDGE('',*,*,#452,.T.);
#580=ORIENTED_EDGE('',*,*,#453,.T.);
#581=ORIENTED_EDGE('',*,*,#454,.T.);
#582=ORIENTED_EDGE('',*,*,#450,.F.);
#583=ORIENTED_EDGE('',*,*,#455,.T.);
#584=ORIENTED_EDGE('',*,*,#456,.T.);
#585=ORIENTED_EDGE('',*,*,#457,.T.);
#586=ORIENTED_EDGE('',*,*,#453,.F.);
#587=ORIENTED_EDGE('',*,*,#458,.T.);
#588=ORIENTED_EDGE('',*,*,#437,.F.);
#589=ORIENTED_EDGE('',*,*,#459,.T.);
#590=ORIENTED_EDGE('',*,*,#456,.F.);
#591=ORIENTED_EDGE('',*,*,#460,.T.);
#592=ORIENTED_EDGE('',*,*,#454,.F.);
#593=ORIENTED_EDGE('',*,*,#461,.T.);
#594=ORIENTED_EDGE('',*,*,#462,.T.);
#595=ORIENTED_EDGE('',*,*,#463,.T.);
#596=ORIENTED_EDGE('',*,*,#457,.F.);
#597=ORIENTED_EDGE('',*,*,#464,.F.);
#598=ORIENTED_EDGE('',*,*,#465,.F.);
#599=ORIENTED_EDGE('',*,*,#461,.F.);
#600=ORIENTED_EDGE('',*,*,#459,.F.);
#601=ORIENTED_EDGE('',*,*,#466,.T.);
#602=ORIENTED_EDGE('',*,*,#467,.F.);
#603=ORIENTED_EDGE('',*,*,#464,.T.);
#604=ORIENTED_EDGE('',*,*,#440,.F.);
#605=ORIENTED_EDGE('',*,*,#468,.F.);
#606=ORIENTED_EDGE('',*,*,#469,.F.);
#607=ORIENTED_EDGE('',*,*,#470,.F.);
#608=ORIENTED_EDGE('',*,*,#471,.T.);
#609=ORIENTED_EDGE('',*,*,#472,.F.);
#610=ORIENTED_EDGE('',*,*,#473,.F.);
#611=ORIENTED_EDGE('',*,*,#474,.F.);
#612=ORIENTED_EDGE('',*,*,#475,.F.);
#613=ORIENTED_EDGE('',*,*,#466,.F.);
#614=ORIENTED_EDGE('',*,*,#438,.F.);
#615=ORIENTED_EDGE('',*,*,#460,.F.);
#616=ORIENTED_EDGE('',*,*,#458,.F.);
#617=ORIENTED_EDGE('',*,*,#455,.F.);
#618=ORIENTED_EDGE('',*,*,#452,.F.);
#619=ORIENTED_EDGE('',*,*,#449,.F.);
#620=ORIENTED_EDGE('',*,*,#446,.F.);
#621=ORIENTED_EDGE('',*,*,#443,.F.);
#622=ORIENTED_EDGE('',*,*,#476,.F.);
#623=ORIENTED_EDGE('',*,*,#477,.F.);
#624=ORIENTED_EDGE('',*,*,#478,.T.);
#625=ORIENTED_EDGE('',*,*,#479,.T.);
#626=ORIENTED_EDGE('',*,*,#435,.T.);
#627=ORIENTED_EDGE('',*,*,#480,.T.);
#628=ORIENTED_EDGE('',*,*,#481,.F.);
#629=ORIENTED_EDGE('',*,*,#480,.F.);
#630=ORIENTED_EDGE('',*,*,#433,.T.);
#631=ORIENTED_EDGE('',*,*,#482,.T.);
#632=ORIENTED_EDGE('',*,*,#483,.F.);
#633=ORIENTED_EDGE('',*,*,#482,.F.);
#634=ORIENTED_EDGE('',*,*,#484,.F.);
#635=ORIENTED_EDGE('',*,*,#485,.T.);
#636=ORIENTED_EDGE('',*,*,#436,.T.);
#637=ORIENTED_EDGE('',*,*,#485,.F.);
#638=ORIENTED_EDGE('',*,*,#486,.F.);
#639=ORIENTED_EDGE('',*,*,#487,.T.);
#640=ORIENTED_EDGE('',*,*,#434,.T.);
#641=ORIENTED_EDGE('',*,*,#487,.F.);
#642=ORIENTED_EDGE('',*,*,#488,.T.);
#643=ORIENTED_EDGE('',*,*,#489,.T.);
#644=ORIENTED_EDGE('',*,*,#490,.T.);
#645=ORIENTED_EDGE('',*,*,#491,.T.);
#646=ORIENTED_EDGE('',*,*,#492,.T.);
#647=ORIENTED_EDGE('',*,*,#472,.T.);
#648=ORIENTED_EDGE('',*,*,#493,.T.);
#649=ORIENTED_EDGE('',*,*,#494,.T.);
#650=ORIENTED_EDGE('',*,*,#481,.T.);
#651=ORIENTED_EDGE('',*,*,#483,.T.);
#652=ORIENTED_EDGE('',*,*,#495,.T.);
#653=ORIENTED_EDGE('',*,*,#496,.T.);
#654=ORIENTED_EDGE('',*,*,#462,.F.);
#655=ORIENTED_EDGE('',*,*,#497,.T.);
#656=ORIENTED_EDGE('',*,*,#498,.T.);
#657=ORIENTED_EDGE('',*,*,#499,.T.);
#658=ORIENTED_EDGE('',*,*,#495,.F.);
#659=ORIENTED_EDGE('',*,*,#500,.T.);
#660=ORIENTED_EDGE('',*,*,#501,.T.);
#661=ORIENTED_EDGE('',*,*,#502,.T.);
#662=ORIENTED_EDGE('',*,*,#498,.F.);
#663=ORIENTED_EDGE('',*,*,#503,.T.);
#664=ORIENTED_EDGE('',*,*,#504,.T.);
#665=ORIENTED_EDGE('',*,*,#505,.T.);
#666=ORIENTED_EDGE('',*,*,#501,.F.);
#667=ORIENTED_EDGE('',*,*,#506,.T.);
#668=ORIENTED_EDGE('',*,*,#507,.T.);
#669=ORIENTED_EDGE('',*,*,#508,.T.);
#670=ORIENTED_EDGE('',*,*,#504,.F.);
#671=ORIENTED_EDGE('',*,*,#509,.T.);
#672=ORIENTED_EDGE('',*,*,#510,.T.);
#673=ORIENTED_EDGE('',*,*,#474,.T.);
#674=ORIENTED_EDGE('',*,*,#507,.F.);
#675=ORIENTED_EDGE('',*,*,#511,.T.);
#676=ORIENTED_EDGE('',*,*,#467,.T.);
#677=ORIENTED_EDGE('',*,*,#475,.T.);
#678=ORIENTED_EDGE('',*,*,#510,.F.);
#679=ORIENTED_EDGE('',*,*,#512,.T.);
#680=ORIENTED_EDGE('',*,*,#511,.F.);
#681=ORIENTED_EDGE('',*,*,#509,.F.);
#682=ORIENTED_EDGE('',*,*,#506,.F.);
#683=ORIENTED_EDGE('',*,*,#503,.F.);
#684=ORIENTED_EDGE('',*,*,#500,.F.);
#685=ORIENTED_EDGE('',*,*,#513,.F.);
#686=ORIENTED_EDGE('',*,*,#512,.F.);
#687=ORIENTED_EDGE('',*,*,#513,.T.);
#688=ORIENTED_EDGE('',*,*,#497,.F.);
#689=ORIENTED_EDGE('',*,*,#465,.T.);
#690=ORIENTED_EDGE('',*,*,#514,.F.);
#691=ORIENTED_EDGE('',*,*,#515,.F.);
#692=ORIENTED_EDGE('',*,*,#516,.F.);
#693=ORIENTED_EDGE('',*,*,#469,.T.);
#694=ORIENTED_EDGE('',*,*,#517,.F.);
#695=ORIENTED_EDGE('',*,*,#518,.F.);
#696=ORIENTED_EDGE('',*,*,#519,.T.);
#697=ORIENTED_EDGE('',*,*,#520,.F.);
#698=ORIENTED_EDGE('',*,*,#448,.F.);
#699=ORIENTED_EDGE('',*,*,#521,.T.);
#700=ORIENTED_EDGE('',*,*,#518,.T.);
#701=ORIENTED_EDGE('',*,*,#522,.T.);
#702=ORIENTED_EDGE('',*,*,#523,.T.);
#703=ORIENTED_EDGE('',*,*,#524,.T.);
#704=ORIENTED_EDGE('',*,*,#520,.T.);
#705=ORIENTED_EDGE('',*,*,#525,.T.);
#706=ORIENTED_EDGE('',*,*,#526,.T.);
#707=ORIENTED_EDGE('',*,*,#527,.T.);
#708=ORIENTED_EDGE('',*,*,#523,.F.);
#709=ORIENTED_EDGE('',*,*,#528,.T.);
#710=ORIENTED_EDGE('',*,*,#529,.T.);
#711=ORIENTED_EDGE('',*,*,#530,.T.);
#712=ORIENTED_EDGE('',*,*,#526,.F.);
#713=ORIENTED_EDGE('',*,*,#531,.T.);
#714=ORIENTED_EDGE('',*,*,#532,.T.);
#715=ORIENTED_EDGE('',*,*,#533,.T.);
#716=ORIENTED_EDGE('',*,*,#529,.F.);
#717=ORIENTED_EDGE('',*,*,#534,.T.);
#718=ORIENTED_EDGE('',*,*,#532,.F.);
#719=ORIENTED_EDGE('',*,*,#470,.T.);
#720=ORIENTED_EDGE('',*,*,#516,.T.);
#721=ORIENTED_EDGE('',*,*,#535,.T.);
#722=ORIENTED_EDGE('',*,*,#515,.T.);
#723=ORIENTED_EDGE('',*,*,#536,.T.);
#724=ORIENTED_EDGE('',*,*,#517,.T.);
#725=ORIENTED_EDGE('',*,*,#537,.T.);
#726=ORIENTED_EDGE('',*,*,#442,.F.);
#727=ORIENTED_EDGE('',*,*,#538,.T.);
#728=ORIENTED_EDGE('',*,*,#514,.T.);
#729=ORIENTED_EDGE('',*,*,#468,.T.);
#730=ORIENTED_EDGE('',*,*,#531,.F.);
#731=ORIENTED_EDGE('',*,*,#539,.T.);
#732=ORIENTED_EDGE('',*,*,#494,.F.);
#733=ORIENTED_EDGE('',*,*,#540,.F.);
#734=ORIENTED_EDGE('',*,*,#528,.F.);
#735=ORIENTED_EDGE('',*,*,#541,.T.);
#736=ORIENTED_EDGE('',*,*,#488,.F.);
#737=ORIENTED_EDGE('',*,*,#539,.F.);
#738=ORIENTED_EDGE('',*,*,#451,.F.);
#739=ORIENTED_EDGE('',*,*,#463,.F.);
#740=ORIENTED_EDGE('',*,*,#496,.F.);
#741=ORIENTED_EDGE('',*,*,#499,.F.);
#742=ORIENTED_EDGE('',*,*,#542,.F.);
#743=ORIENTED_EDGE('',*,*,#489,.F.);
#744=ORIENTED_EDGE('',*,*,#541,.F.);
#745=ORIENTED_EDGE('',*,*,#525,.F.);
#746=ORIENTED_EDGE('',*,*,#519,.F.);
#747=ORIENTED_EDGE('',*,*,#521,.F.);
#748=ORIENTED_EDGE('',*,*,#524,.F.);
#749=ORIENTED_EDGE('',*,*,#527,.F.);
#750=ORIENTED_EDGE('',*,*,#530,.F.);
#751=ORIENTED_EDGE('',*,*,#533,.F.);
#752=ORIENTED_EDGE('',*,*,#535,.F.);
#753=ORIENTED_EDGE('',*,*,#537,.F.);
#754=ORIENTED_EDGE('',*,*,#534,.F.);
#755=ORIENTED_EDGE('',*,*,#540,.T.);
#756=ORIENTED_EDGE('',*,*,#493,.F.);
#757=ORIENTED_EDGE('',*,*,#471,.F.);
#758=ORIENTED_EDGE('',*,*,#502,.F.);
#759=ORIENTED_EDGE('',*,*,#543,.T.);
#760=ORIENTED_EDGE('',*,*,#490,.F.);
#761=ORIENTED_EDGE('',*,*,#542,.T.);
#762=ORIENTED_EDGE('',*,*,#508,.F.);
#763=ORIENTED_EDGE('',*,*,#473,.T.);
#764=ORIENTED_EDGE('',*,*,#492,.F.);
#765=ORIENTED_EDGE('',*,*,#544,.T.);
#766=ORIENTED_EDGE('',*,*,#545,.F.);
#767=ORIENTED_EDGE('',*,*,#546,.F.);
#768=ORIENTED_EDGE('',*,*,#547,.F.);
#769=ORIENTED_EDGE('',*,*,#548,.F.);
#770=ORIENTED_EDGE('',*,*,#477,.T.);
#771=ORIENTED_EDGE('',*,*,#549,.T.);
#772=ORIENTED_EDGE('',*,*,#479,.F.);
#773=ORIENTED_EDGE('',*,*,#550,.T.);
#774=ORIENTED_EDGE('',*,*,#551,.T.);
#775=ORIENTED_EDGE('',*,*,#552,.T.);
#776=ORIENTED_EDGE('',*,*,#553,.F.);
#777=ORIENTED_EDGE('',*,*,#550,.F.);
#778=ORIENTED_EDGE('',*,*,#478,.F.);
#779=ORIENTED_EDGE('',*,*,#548,.T.);
#780=ORIENTED_EDGE('',*,*,#505,.F.);
#781=ORIENTED_EDGE('',*,*,#544,.F.);
#782=ORIENTED_EDGE('',*,*,#491,.F.);
#783=ORIENTED_EDGE('',*,*,#543,.F.);
#784=ORIENTED_EDGE('',*,*,#445,.F.);
#785=ORIENTED_EDGE('',*,*,#522,.F.);
#786=ORIENTED_EDGE('',*,*,#536,.F.);
#787=ORIENTED_EDGE('',*,*,#538,.F.);
#788=ORIENTED_EDGE('',*,*,#476,.T.);
#789=ORIENTED_EDGE('',*,*,#549,.F.);
#790=ORIENTED_EDGE('',*,*,#554,.F.);
#791=ORIENTED_EDGE('',*,*,#545,.T.);
#792=ORIENTED_EDGE('',*,*,#554,.T.);
#793=ORIENTED_EDGE('',*,*,#552,.F.);
#794=ORIENTED_EDGE('',*,*,#555,.F.);
#795=ORIENTED_EDGE('',*,*,#546,.T.);
#796=ORIENTED_EDGE('',*,*,#484,.T.);
#797=ORIENTED_EDGE('',*,*,#486,.T.);
#798=ORIENTED_EDGE('',*,*,#555,.T.);
#799=ORIENTED_EDGE('',*,*,#551,.F.);
#800=ORIENTED_EDGE('',*,*,#553,.T.);
#801=ORIENTED_EDGE('',*,*,#547,.T.);
#802=PLANE('',#888);
#803=PLANE('',#891);
#804=PLANE('',#916);
#805=PLANE('',#919);
#806=PLANE('',#922);
#807=PLANE('',#931);
#808=PLANE('',#954);
#809=PLANE('',#979);
#810=PLANE('',#981);
#811=PLANE('',#982);
#812=PLANE('',#986);
#813=PLANE('',#987);
#814=PLANE('',#988);
#815=PLANE('',#989);
#816=PLANE('',#990);
#817=PLANE('',#991);
#818=PLANE('',#992);
#819=PLANE('',#993);
#820=ADVANCED_FACE('',(#186,#179),#802,.F.);
#821=ADVANCED_FACE('',(#187,#180),#803,.F.);
#822=ADVANCED_FACE('',(#188),#155,.T.);
#823=ADVANCED_FACE('',(#189),#21,.F.);
#824=ADVANCED_FACE('',(#190),#156,.T.);
#825=ADVANCED_FACE('',(#191),#22,.F.);
#826=ADVANCED_FACE('',(#192),#157,.T.);
#827=ADVANCED_FACE('',(#193),#23,.F.);
#828=ADVANCED_FACE('',(#194),#158,.T.);
#829=ADVANCED_FACE('',(#195),#24,.F.);
#830=ADVANCED_FACE('',(#196),#159,.T.);
#831=ADVANCED_FACE('',(#197),#804,.T.);
#832=ADVANCED_FACE('',(#198),#160,.T.);
#833=ADVANCED_FACE('',(#199),#805,.T.);
#834=ADVANCED_FACE('',(#200,#181),#806,.T.);
#835=ADVANCED_FACE('',(#201),#161,.F.);
#836=ADVANCED_FACE('',(#202),#162,.F.);
#837=ADVANCED_FACE('',(#203),#163,.F.);
#838=ADVANCED_FACE('',(#204),#164,.F.);
#839=ADVANCED_FACE('',(#205,#182,#183),#807,.T.);
#840=ADVANCED_FACE('',(#206),#15,.T.);
#841=ADVANCED_FACE('',(#207),#165,.T.);
#842=ADVANCED_FACE('',(#208),#25,.F.);
#843=ADVANCED_FACE('',(#209),#166,.T.);
#844=ADVANCED_FACE('',(#210),#26,.F.);
#845=ADVANCED_FACE('',(#211),#167,.T.);
#846=ADVANCED_FACE('',(#212),#16,.T.);
#847=ADVANCED_FACE('',(#213),#808,.T.);
#848=ADVANCED_FACE('',(#214),#168,.F.);
#849=ADVANCED_FACE('',(#215),#17,.T.);
#850=ADVANCED_FACE('',(#216),#18,.T.);
#851=ADVANCED_FACE('',(#217),#169,.T.);
#852=ADVANCED_FACE('',(#218),#170,.T.);
#853=ADVANCED_FACE('',(#219),#27,.F.);
#854=ADVANCED_FACE('',(#220),#171,.T.);
#855=ADVANCED_FACE('',(#221),#28,.F.);
#856=ADVANCED_FACE('',(#222),#172,.T.);
#857=ADVANCED_FACE('',(#223),#173,.F.);
#858=ADVANCED_FACE('',(#224),#174,.T.);
#859=ADVANCED_FACE('',(#225),#809,.T.);
#860=ADVANCED_FACE('',(#226),#175,.T.);
#861=ADVANCED_FACE('',(#227),#810,.F.);
#862=ADVANCED_FACE('',(#228),#811,.T.);
#863=ADVANCED_FACE('',(#229),#176,.T.);
#864=ADVANCED_FACE('',(#230),#177,.T.);
#865=ADVANCED_FACE('',(#231),#178,.T.);
#866=ADVANCED_FACE('',(#232),#812,.T.);
#867=ADVANCED_FACE('',(#233),#813,.F.);
#868=ADVANCED_FACE('',(#234),#814,.T.);
#869=ADVANCED_FACE('',(#235),#815,.T.);
#870=ADVANCED_FACE('',(#236),#816,.T.);
#871=ADVANCED_FACE('',(#237),#817,.T.);
#872=ADVANCED_FACE('',(#238,#184,#185),#818,.T.);
#873=ADVANCED_FACE('',(#239),#819,.T.);
#874=CLOSED_SHELL('',(#820,#821,#822,#823,#824,#825,#826,#827,#828,#829,
#830,#831,#832,#833,#834,#835,#836,#837,#838,#839,#840,#841,#842,#843,#844,
#845,#846,#847,#848,#849,#850,#851,#852,#853,#854,#855,#856,#857,#858,#859,
#860,#861,#862,#863,#864,#865,#866,#867,#868,#869,#870,#871,#872,#873));
#875=DERIVED_UNIT_ELEMENT(#877,1.);
#876=DERIVED_UNIT_ELEMENT(#1592,-3.);
#877=(
MASS_UNIT()
NAMED_UNIT(*)
SI_UNIT(.KILO.,.GRAM.)
);
#878=DERIVED_UNIT((#875,#876));
#879=MEASURE_REPRESENTATION_ITEM('density measure',
POSITIVE_RATIO_MEASURE(7850.),#878);
#880=PROPERTY_DEFINITION_REPRESENTATION(#885,#882);
#881=PROPERTY_DEFINITION_REPRESENTATION(#886,#883);
#882=REPRESENTATION('material name',(#884),#1589);
#883=REPRESENTATION('density',(#879),#1589);
#884=DESCRIPTIVE_REPRESENTATION_ITEM('\X2\AC15CCA0\X0\','\X2\AC15CCA0\X0\');
#885=PROPERTY_DEFINITION('material property','material name',#1599);
#886=PROPERTY_DEFINITION('material property','density of part',#1599);
#887=AXIS2_PLACEMENT_3D('',#1271,#994,#995);
#888=AXIS2_PLACEMENT_3D('',#1272,#996,#997);
#889=AXIS2_PLACEMENT_3D('',#1274,#998,#999);
#890=AXIS2_PLACEMENT_3D('',#1276,#1000,#1001);
#891=AXIS2_PLACEMENT_3D('',#1277,#1002,#1003);
#892=AXIS2_PLACEMENT_3D('',#1279,#1004,#1005);
#893=AXIS2_PLACEMENT_3D('',#1281,#1006,#1007);
#894=AXIS2_PLACEMENT_3D('',#1282,#1008,#1009);
#895=AXIS2_PLACEMENT_3D('',#1285,#1010,#1011);
#896=AXIS2_PLACEMENT_3D('',#1289,#1013,#1014);
#897=AXIS2_PLACEMENT_3D('',#1302,#1016,#1017);
#898=AXIS2_PLACEMENT_3D('',#1303,#1018,#1019);
#899=AXIS2_PLACEMENT_3D('',#1304,#1020,#1021);
#900=AXIS2_PLACEMENT_3D('',#1305,#1022,#1023);
#901=AXIS2_PLACEMENT_3D('',#1308,#1024,#1025);
#902=AXIS2_PLACEMENT_3D('',#1322,#1028,#1029);
#903=AXIS2_PLACEMENT_3D('',#1323,#1030,#1031);
#904=AXIS2_PLACEMENT_3D('',#1324,#1032,#1033);
#905=AXIS2_PLACEMENT_3D('',#1325,#1034,#1035);
#906=AXIS2_PLACEMENT_3D('',#1328,#1036,#1037);
#907=AXIS2_PLACEMENT_3D('',#1342,#1040,#1041);
#908=AXIS2_PLACEMENT_3D('',#1343,#1042,#1043);
#909=AXIS2_PLACEMENT_3D('',#1344,#1044,#1045);
#910=AXIS2_PLACEMENT_3D('',#1345,#1046,#1047);
#911=AXIS2_PLACEMENT_3D('',#1348,#1048,#1049);
#912=AXIS2_PLACEMENT_3D('',#1360,#1052,#1053);
#913=AXIS2_PLACEMENT_3D('',#1361,#1054,#1055);
#914=AXIS2_PLACEMENT_3D('',#1362,#1056,#1057);
#915=AXIS2_PLACEMENT_3D('',#1366,#1059,#1060);
#916=AXIS2_PLACEMENT_3D('',#1368,#1062,#1063);
#917=AXIS2_PLACEMENT_3D('',#1372,#1066,#1067);
#918=AXIS2_PLACEMENT_3D('',#1375,#1069,#1070);
#919=AXIS2_PLACEMENT_3D('',#1376,#1071,#1072);
#920=AXIS2_PLACEMENT_3D('',#1380,#1074,#1075);
#921=AXIS2_PLACEMENT_3D('',#1391,#1081,#1082);
#922=AXIS2_PLACEMENT_3D('',#1392,#1083,#1084);
#923=AXIS2_PLACEMENT_3D('',#1401,#1089,#1090);
#924=AXIS2_PLACEMENT_3D('',#1404,#1092,#1093);
#925=AXIS2_PLACEMENT_3D('',#1405,#1094,#1095);
#926=AXIS2_PLACEMENT_3D('',#1408,#1097,#1098);
#927=AXIS2_PLACEMENT_3D('',#1409,#1099,#1100);
#928=AXIS2_PLACEMENT_3D('',#1411,#1101,#1102);
#929=AXIS2_PLACEMENT_3D('',#1413,#1104,#1105);
#930=AXIS2_PLACEMENT_3D('',#1415,#1106,#1107);
#931=AXIS2_PLACEMENT_3D('',#1417,#1109,#1110);
#932=AXIS2_PLACEMENT_3D('',#1420,#1111,#1112);
#933=AXIS2_PLACEMENT_3D('',#1424,#1114,#1115);
#934=AXIS2_PLACEMENT_3D('',#1427,#1117,#1118);
#935=AXIS2_PLACEMENT_3D('',#1429,#1119,#1120);
#936=AXIS2_PLACEMENT_3D('',#1431,#1122,#1123);
#937=AXIS2_PLACEMENT_3D('',#1434,#1124,#1125);
#938=AXIS2_PLACEMENT_3D('',#1435,#1126,#1127);
#939=AXIS2_PLACEMENT_3D('',#1436,#1128,#1129);
#940=AXIS2_PLACEMENT_3D('',#1437,#1130,#1131);
#941=AXIS2_PLACEMENT_3D('',#1440,#1132,#1133);
#942=AXIS2_PLACEMENT_3D('',#1454,#1136,#1137);
#943=AXIS2_PLACEMENT_3D('',#1455,#1138,#1139);
#944=AXIS2_PLACEMENT_3D('',#1456,#1140,#1141);
#945=AXIS2_PLACEMENT_3D('',#1457,#1142,#1143);
#946=AXIS2_PLACEMENT_3D('',#1460,#1144,#1145);
#947=AXIS2_PLACEMENT_3D('',#1473,#1148,#1149);
#948=AXIS2_PLACEMENT_3D('',#1474,#1150,#1151);
#949=AXIS2_PLACEMENT_3D('',#1475,#1152,#1153);
#950=AXIS2_PLACEMENT_3D('',#1476,#1154,#1155);
#951=AXIS2_PLACEMENT_3D('',#1478,#1156,#1157);
#952=AXIS2_PLACEMENT_3D('',#1480,#1159,#1160);
#953=AXIS2_PLACEMENT_3D('',#1481,#1161,#1162);
#954=AXIS2_PLACEMENT_3D('',#1482,#1163,#1164);
#955=AXIS2_PLACEMENT_3D('',#1484,#1166,#1167);
#956=AXIS2_PLACEMENT_3D('',#1485,#1168,#1169);
#957=AXIS2_PLACEMENT_3D('',#1487,#1170,#1171);
#958=AXIS2_PLACEMENT_3D('',#1489,#1172,#1173);
#959=AXIS2_PLACEMENT_3D('',#1490,#1174,#1175);
#960=AXIS2_PLACEMENT_3D('',#1491,#1176,#1177);
#961=AXIS2_PLACEMENT_3D('',#1494,#1178,#1179);
#962=AXIS2_PLACEMENT_3D('',#1496,#1180,#1181);
#963=AXIS2_PLACEMENT_3D('',#1498,#1182,#1183);
#964=AXIS2_PLACEMENT_3D('',#1499,#1184,#1185);
#965=AXIS2_PLACEMENT_3D('',#1500,#1186,#1187);
#966=AXIS2_PLACEMENT_3D('',#1503,#1190,#1191);
#967=AXIS2_PLACEMENT_3D('',#1506,#1192,#1193);
#968=AXIS2_PLACEMENT_3D('',#1520,#1196,#1197);
#969=AXIS2_PLACEMENT_3D('',#1521,#1198,#1199);
#970=AXIS2_PLACEMENT_3D('',#1522,#1200,#1201);
#971=AXIS2_PLACEMENT_3D('',#1523,#1202,#1203);
#972=AXIS2_PLACEMENT_3D('',#1526,#1204,#1205);
#973=AXIS2_PLACEMENT_3D('',#1539,#1208,#1209);
#974=AXIS2_PLACEMENT_3D('',#1540,#1210,#1211);
#975=AXIS2_PLACEMENT_3D('',#1541,#1212,#1213);
#976=AXIS2_PLACEMENT_3D('',#1542,#1214,#1215);
#977=AXIS2_PLACEMENT_3D('',#1544,#1217,#1218);
#978=AXIS2_PLACEMENT_3D('',#1547,#1221,#1222);
#979=AXIS2_PLACEMENT_3D('',#1549,#1224,#1225);
#980=AXIS2_PLACEMENT_3D('',#1552,#1228,#1229);
#981=AXIS2_PLACEMENT_3D('',#1554,#1231,#1232);
#982=AXIS2_PLACEMENT_3D('',#1556,#1234,#1235);
#983=AXIS2_PLACEMENT_3D('',#1557,#1236,#1237);
#984=AXIS2_PLACEMENT_3D('',#1558,#1238,#1239);
#985=AXIS2_PLACEMENT_3D('',#1560,#1241,#1242);
#986=AXIS2_PLACEMENT_3D('',#1562,#1244,#1245);
#987=AXIS2_PLACEMENT_3D('',#1570,#1250,#1251);
#988=AXIS2_PLACEMENT_3D('',#1578,#1256,#1257);
#989=AXIS2_PLACEMENT_3D('',#1580,#1259,#1260);
#990=AXIS2_PLACEMENT_3D('',#1581,#1261,#1262);
#991=AXIS2_PLACEMENT_3D('',#1582,#1263,#1264);
#992=AXIS2_PLACEMENT_3D('',#1584,#1266,#1267);
#993=AXIS2_PLACEMENT_3D('',#1586,#1269,#1270);
#994=DIRECTION('axis',(0.,0.,1.));
#995=DIRECTION('refdir',(1.,0.,0.));
#996=DIRECTION('center_axis',(0.,1.,0.));
#997=DIRECTION('ref_axis',(1.,0.,0.));
#998=DIRECTION('center_axis',(0.,1.,0.));
#999=DIRECTION('ref_axis',(1.,0.,0.));
#1000=DIRECTION('center_axis',(0.,-1.,0.));
#1001=DIRECTION('ref_axis',(-1.,2.74505692901824E-16,-1.97215226305253E-31));
#1002=DIRECTION('center_axis',(0.,1.,0.));
#1003=DIRECTION('ref_axis',(1.,0.,0.));
#1004=DIRECTION('center_axis',(0.,1.,0.));
#1005=DIRECTION('ref_axis',(1.,0.,0.));
#1006=DIRECTION('center_axis',(0.,-1.,0.));
#1007=DIRECTION('ref_axis',(-1.,2.74505692901824E-16,-1.97215226305253E-31));
#1008=DIRECTION('center_axis',(-1.,0.,0.));
#1009=DIRECTION('ref_axis',(0.,0.707106781186547,0.707106781186548));
#1010=DIRECTION('center_axis',(-1.,0.,0.));
#1011=DIRECTION('ref_axis',(0.,0.,1.));
#1012=DIRECTION('',(-1.,0.,0.));
#1013=DIRECTION('center_axis',(1.,0.,0.));
#1014=DIRECTION('ref_axis',(0.,1.,0.));
#1015=DIRECTION('',(1.,0.,0.));
#1016=DIRECTION('center_axis',(0.,0.,1.));
#1017=DIRECTION('ref_axis',(0.,1.,0.));
#1018=DIRECTION('center_axis',(0.,1.,0.));
#1019=DIRECTION('ref_axis',(-0.707106781186546,0.,0.707106781186549));
#1020=DIRECTION('center_axis',(0.,-1.,0.));
#1021=DIRECTION('ref_axis',(-0.707106781186546,0.,0.707106781186549));
#1022=DIRECTION('center_axis',(0.,0.,1.));
#1023=DIRECTION('ref_axis',(-0.707106781186548,0.707106781186548,0.));
#1024=DIRECTION('center_axis',(0.,0.,1.));
#1025=DIRECTION('ref_axis',(0.,1.,0.));
#1026=DIRECTION('',(0.,0.,1.));
#1027=DIRECTION('',(0.,0.,-1.));
#1028=DIRECTION('center_axis',(-1.,0.,0.));
#1029=DIRECTION('ref_axis',(0.,1.,0.));
#1030=DIRECTION('center_axis',(0.,1.,0.));
#1031=DIRECTION('ref_axis',(-0.707106781186546,0.,-0.707106781186549));
#1032=DIRECTION('center_axis',(0.,-1.,0.));
#1033=DIRECTION('ref_axis',(-0.707106781186546,0.,-0.707106781186549));
#1034=DIRECTION('center_axis',(-1.,0.,0.));
#1035=DIRECTION('ref_axis',(0.,0.707106781186547,-0.707106781186548));
#1036=DIRECTION('center_axis',(-1.,0.,0.));
#1037=DIRECTION('ref_axis',(0.,1.,0.));
#1038=DIRECTION('',(-1.,0.,0.));
#1039=DIRECTION('',(1.,0.,0.));
#1040=DIRECTION('center_axis',(0.,0.,-1.));
#1041=DIRECTION('ref_axis',(0.,1.,0.));
#1042=DIRECTION('center_axis',(0.,1.,0.));
#1043=DIRECTION('ref_axis',(0.707106781186548,0.,-0.707106781186548));
#1044=DIRECTION('center_axis',(0.,-1.,0.));
#1045=DIRECTION('ref_axis',(0.707106781186548,0.,-0.707106781186548));
#1046=DIRECTION('center_axis',(0.,0.,1.));
#1047=DIRECTION('ref_axis',(0.707106781186547,0.707106781186548,0.));
#1048=DIRECTION('center_axis',(0.,0.,-1.));
#1049=DIRECTION('ref_axis',(0.,1.,0.));
#1050=DIRECTION('',(0.,0.,-1.));
#1051=DIRECTION('',(0.,0.,1.));
#1052=DIRECTION('center_axis',(0.,1.,0.));
#1053=DIRECTION('ref_axis',(0.707106781186548,0.,0.707106781186548));
#1054=DIRECTION('center_axis',(0.,-1.,0.));
#1055=DIRECTION('ref_axis',(0.707106781186548,0.,0.707106781186548));
#1056=DIRECTION('center_axis',(0.,1.,0.));
#1057=DIRECTION('ref_axis',(0.707106781186548,0.,-0.707106781186548));
#1058=DIRECTION('',(0.,-1.,0.));
#1059=DIRECTION('center_axis',(-2.77555756156289E-16,1.,0.));
#1060=DIRECTION('ref_axis',(1.,2.77555756156289E-16,0.));
#1061=DIRECTION('',(0.,1.,0.));
#1062=DIRECTION('center_axis',(1.,0.,0.));
#1063=DIRECTION('ref_axis',(0.,1.,0.));
#1064=DIRECTION('',(0.,1.,0.));
#1065=DIRECTION('',(0.,0.,1.));
#1066=DIRECTION('center_axis',(0.,1.,0.));
#1067=DIRECTION('ref_axis',(0.707106781186548,0.,0.707106781186548));
#1068=DIRECTION('',(0.,-1.,0.));
#1069=DIRECTION('center_axis',(-1.38777878078145E-16,-1.,0.));
#1070=DIRECTION('ref_axis',(1.,-1.38777878078145E-16,0.));
#1071=DIRECTION('center_axis',(0.,0.,1.));
#1072=DIRECTION('ref_axis',(1.,0.,0.));
#1073=DIRECTION('',(-2.65419244781391E-16,1.,0.));
#1074=DIRECTION('center_axis',(0.,0.,1.));
#1075=DIRECTION('ref_axis',(0.819152044288992,-0.573576436351045,0.));
#1076=DIRECTION('',(0.939692620785909,0.342020143325669,0.));
#1077=DIRECTION('',(0.342020143325668,-0.939692620785909,0.));
#1078=DIRECTION('',(-0.939692620785909,-0.342020143325669,0.));
#1079=DIRECTION('',(0.342020143325668,-0.939692620785909,0.));
#1080=DIRECTION('',(0.939692620785909,0.342020143325669,0.));
#1081=DIRECTION('center_axis',(0.,0.,1.));
#1082=DIRECTION('ref_axis',(-0.573576436351046,-0.819152044288992,0.));
#1083=DIRECTION('center_axis',(0.,1.,0.));
#1084=DIRECTION('ref_axis',(-1.,0.,0.));
#1085=DIRECTION('',(0.,0.,1.));
#1086=DIRECTION('',(1.,0.,0.));
#1087=DIRECTION('',(0.,0.,1.));
#1088=DIRECTION('',(-1.,0.,0.));
#1089=DIRECTION('center_axis',(0.,-1.,0.));
#1090=DIRECTION('ref_axis',(1.,0.,0.));
#1091=DIRECTION('',(0.,-1.,0.));
#1092=DIRECTION('center_axis',(-0.342020143325669,0.939692620785908,0.));
#1093=DIRECTION('ref_axis',(0.939692620785909,0.342020143325669,0.));
#1094=DIRECTION('center_axis',(0.,-1.,0.));
#1095=DIRECTION('ref_axis',(1.,0.,0.));
#1096=DIRECTION('',(0.,-1.,0.));
#1097=DIRECTION('center_axis',(-0.342020143325669,0.939692620785908,0.));
#1098=DIRECTION('ref_axis',(0.939692620785909,0.342020143325669,0.));
#1099=DIRECTION('center_axis',(-2.74505692901824E-16,-1.,0.));
#1100=DIRECTION('ref_axis',(-1.,2.74505692901824E-16,-1.97215226305253E-31));
#1101=DIRECTION('center_axis',(0.,-1.,0.));
#1102=DIRECTION('ref_axis',(-1.,2.74505692901824E-16,-1.97215226305253E-31));
#1103=DIRECTION('',(-2.74505692901824E-16,-1.,0.));
#1104=DIRECTION('center_axis',(-2.74505692901824E-16,-1.,0.));
#1105=DIRECTION('ref_axis',(-1.,2.74505692901824E-16,-1.97215226305253E-31));
#1106=DIRECTION('center_axis',(0.,-1.,0.));
#1107=DIRECTION('ref_axis',(-1.,2.74505692901824E-16,-1.97215226305253E-31));
#1108=DIRECTION('',(-2.74505692901824E-16,-1.,0.));
#1109=DIRECTION('center_axis',(0.342020143325669,-0.939692620785908,0.));
#1110=DIRECTION('ref_axis',(0.939692620785909,0.342020143325669,0.));
#1111=DIRECTION('center_axis',(0.342020143325669,-0.939692620785908,0.));
#1112=DIRECTION('ref_axis',(-0.664463024388675,-0.241844762647975,-0.707106781186548));
#1113=DIRECTION('',(0.939692620785909,0.342020143325669,0.));
#1114=DIRECTION('center_axis',(0.342020143325669,-0.939692620785908,0.));
#1115=DIRECTION('ref_axis',(0.664463024388675,0.241844762647975,-0.707106781186548));
#1116=DIRECTION('',(0.,0.,1.));
#1117=DIRECTION('center_axis',(0.342020143325669,-0.939692620785908,0.));
#1118=DIRECTION('ref_axis',(0.664463024388674,0.241844762647975,0.707106781186548));
#1119=DIRECTION('center_axis',(0.342020143325669,-0.939692620785908,0.));
#1120=DIRECTION('ref_axis',(-0.664463024388674,-0.241844762647975,0.707106781186548));
#1121=DIRECTION('',(0.,0.,-1.));
#1122=DIRECTION('center_axis',(0.,0.,-1.));
#1123=DIRECTION('ref_axis',(-1.,0.,0.));
#1124=DIRECTION('center_axis',(-0.939692620785909,-0.342020143325668,0.));
#1125=DIRECTION('ref_axis',(-0.342020143325668,0.939692620785909,0.));
#1126=DIRECTION('center_axis',(0.,0.,-1.));
#1127=DIRECTION('ref_axis',(-0.573576436351046,-0.819152044288992,0.));
#1128=DIRECTION('center_axis',(0.,0.,1.));
#1129=DIRECTION('ref_axis',(-0.573576436351046,-0.819152044288992,0.));
#1130=DIRECTION('center_axis',(-0.939692620785908,-0.342020143325669,0.));
#1131=DIRECTION('ref_axis',(-0.241844762647974,0.664463024388675,-0.707106781186548));
#1132=DIRECTION('center_axis',(-0.939692620785909,-0.342020143325668,9.49296595014381E-17));
#1133=DIRECTION('ref_axis',(-0.342020143325668,0.939692620785909,0.));
#1134=DIRECTION('',(-0.939692620785909,-0.342020143325669,0.));
#1135=DIRECTION('',(0.939692620785909,0.342020143325669,0.));
#1136=DIRECTION('center_axis',(0.,0.,-1.));
#1137=DIRECTION('ref_axis',(-0.342020143325668,0.939692620785909,0.));
#1138=DIRECTION('center_axis',(-0.342020143325669,0.939692620785908,0.));
#1139=DIRECTION('ref_axis',(0.664463024388675,0.241844762647975,-0.707106781186548));
#1140=DIRECTION('center_axis',(0.342020143325669,-0.939692620785908,0.));
#1141=DIRECTION('ref_axis',(0.664463024388675,0.241844762647975,-0.707106781186548));
#1142=DIRECTION('center_axis',(0.,0.,1.));
#1143=DIRECTION('ref_axis',(0.422618261740698,0.906307787036651,0.));
#1144=DIRECTION('center_axis',(0.,0.,-1.));
#1145=DIRECTION('ref_axis',(-0.342020143325668,0.939692620785909,0.));
#1146=DIRECTION('',(0.,0.,-1.));
#1147=DIRECTION('',(0.,0.,1.));
#1148=DIRECTION('center_axis',(0.939692620785909,0.342020143325668,9.49296595014381E-17));
#1149=DIRECTION('ref_axis',(-0.342020143325668,0.939692620785909,0.));
#1150=DIRECTION('center_axis',(-0.342020143325669,0.939692620785908,0.));
#1151=DIRECTION('ref_axis',(0.664463024388674,0.241844762647975,0.707106781186548));
#1152=DIRECTION('center_axis',(0.342020143325669,-0.939692620785908,0.));
#1153=DIRECTION('ref_axis',(0.664463024388674,0.241844762647975,0.707106781186548));
#1154=DIRECTION('center_axis',(-0.939692620785908,-0.342020143325669,0.));
#1155=DIRECTION('ref_axis',(-0.241844762647974,0.664463024388675,0.707106781186548));
#1156=DIRECTION('center_axis',(0.939692620785909,0.342020143325669,0.));
#1157=DIRECTION('ref_axis',(-0.342020143325669,0.939692620785909,0.));
#1158=DIRECTION('',(-0.939692620785909,-0.342020143325669,0.));
#1159=DIRECTION('center_axis',(0.,0.,1.));
#1160=DIRECTION('ref_axis',(1.,0.,0.));
#1161=DIRECTION('center_axis',(0.,0.,-1.));
#1162=DIRECTION('ref_axis',(-0.573576436351046,-0.819152044288992,0.));
#1163=DIRECTION('center_axis',(-0.342020143325669,0.939692620785908,0.));
#1164=DIRECTION('ref_axis',(-0.939692620785909,-0.342020143325669,0.));
#1165=DIRECTION('',(0.,0.,-1.));
#1166=DIRECTION('center_axis',(0.,0.,1.));
#1167=DIRECTION('ref_axis',(-0.573576436351047,-0.819152044288991,0.));
#1168=DIRECTION('center_axis',(-2.02044067180275E-16,5.55111512312578E-16,
-1.));
#1169=DIRECTION('ref_axis',(-1.,0.,0.));
#1170=DIRECTION('center_axis',(-5.55111512312578E-16,1.,5.55111512312578E-16));
#1171=DIRECTION('ref_axis',(-1.,-5.55111512312578E-16,0.));
#1172=DIRECTION('center_axis',(0.,0.,-1.));
#1173=DIRECTION('ref_axis',(0.342020143325669,-0.939692620785908,0.));
#1174=DIRECTION('center_axis',(-0.939692620785908,-0.342020143325669,0.));
#1175=DIRECTION('ref_axis',(0.,0.,1.));
#1176=DIRECTION('center_axis',(0.,0.,1.));
#1177=DIRECTION('ref_axis',(1.,0.,0.));
#1178=DIRECTION('center_axis',(0.,0.,1.));
#1179=DIRECTION('ref_axis',(1.,0.,0.));
#1180=DIRECTION('center_axis',(0.,1.,0.));
#1181=DIRECTION('ref_axis',(0.,0.,-1.));
#1182=DIRECTION('center_axis',(0.,0.,-1.));
#1183=DIRECTION('ref_axis',(0.819152044288992,-0.573576436351046,0.));
#1184=DIRECTION('center_axis',(-0.939692620785908,-0.342020143325669,0.));
#1185=DIRECTION('ref_axis',(-0.342020143325669,0.939692620785908,0.));
#1186=DIRECTION('center_axis',(2.65419244781391E-16,-1.,0.));
#1187=DIRECTION('ref_axis',(-0.707106781186547,-1.96261557335472E-16,-0.707106781186548));
#1188=DIRECTION('',(2.65419244781391E-16,-1.,0.));
#1189=DIRECTION('',(-2.65419244781391E-16,1.,0.));
#1190=DIRECTION('center_axis',(-0.939692620785908,-0.342020143325669,0.));
#1191=DIRECTION('ref_axis',(-0.241844762647975,0.664463024388674,-0.707106781186548));
#1192=DIRECTION('center_axis',(0.939692620785909,0.342020143325667,0.));
#1193=DIRECTION('ref_axis',(0.,0.,-1.));
#1194=DIRECTION('',(0.939692620785909,0.342020143325669,0.));
#1195=DIRECTION('',(-0.939692620785909,-0.342020143325669,0.));
#1196=DIRECTION('center_axis',(-1.04326838366687E-15,-3.79718638005754E-16,
-1.));
#1197=DIRECTION('ref_axis',(-0.939692620785908,-0.342020143325669,1.11022302462516E-15));
#1198=DIRECTION('center_axis',(0.342020143325669,-0.939692620785908,0.));
#1199=DIRECTION('ref_axis',(-0.664463024388675,-0.241844762647975,-0.707106781186548));
#1200=DIRECTION('center_axis',(-0.342020143325669,0.939692620785908,0.));
#1201=DIRECTION('ref_axis',(-0.664463024388675,-0.241844762647975,-0.707106781186548));
#1202=DIRECTION('center_axis',(0.,0.,1.));
#1203=DIRECTION('ref_axis',(-0.906307787036649,0.4226182617407,0.));
#1204=DIRECTION('center_axis',(0.,0.,-1.));
#1205=DIRECTION('ref_axis',(-0.939692620785909,-0.342020143325668,0.));
#1206=DIRECTION('',(0.,0.,-1.));
#1207=DIRECTION('',(0.,0.,1.));
#1208=DIRECTION('center_axis',(-0.939692620785909,-0.342020143325668,0.));
#1209=DIRECTION('ref_axis',(0.,0.,1.));
#1210=DIRECTION('center_axis',(0.342020143325669,-0.939692620785908,0.));
#1211=DIRECTION('ref_axis',(-0.664463024388674,-0.241844762647975,0.707106781186548));
#1212=DIRECTION('center_axis',(-0.342020143325669,0.939692620785908,0.));
#1213=DIRECTION('ref_axis',(-0.664463024388674,-0.241844762647975,0.707106781186548));
#1214=DIRECTION('center_axis',(-0.939692620785908,-0.342020143325669,0.));
#1215=DIRECTION('ref_axis',(-0.241844762647975,0.664463024388674,0.707106781186548));
#1216=DIRECTION('',(-0.939692620785909,-0.342020143325669,0.));
#1217=DIRECTION('center_axis',(0.,0.,1.));
#1218=DIRECTION('ref_axis',(0.819152044288992,-0.573576436351046,0.));
#1219=DIRECTION('',(0.,0.,-1.));
#1220=DIRECTION('',(0.,0.,1.));
#1221=DIRECTION('center_axis',(2.65419244781391E-16,-1.,0.));
#1222=DIRECTION('ref_axis',(-0.707106781186547,-1.96261557335472E-16,0.707106781186548));
#1223=DIRECTION('',(2.65419244781391E-16,-1.,0.));
#1224=DIRECTION('center_axis',(-0.939692620785909,-0.342020143325668,0.));
#1225=DIRECTION('ref_axis',(0.342020143325668,-0.939692620785909,0.));
#1226=DIRECTION('',(0.342020143325668,-0.939692620785909,0.));
#1227=DIRECTION('',(0.342020143325668,-0.939692620785909,0.));
#1228=DIRECTION('center_axis',(0.342020143325668,-0.939692620785909,0.));
#1229=DIRECTION('ref_axis',(-0.664463024388675,-0.241844762647975,-0.707106781186548));
#1230=DIRECTION('',(0.342020143325668,-0.939692620785909,0.));
#1231=DIRECTION('center_axis',(0.,0.,1.));
#1232=DIRECTION('ref_axis',(1.,0.,0.));
#1233=DIRECTION('',(-0.342020143325668,0.939692620785909,0.));
#1234=DIRECTION('center_axis',(-0.342020143325669,0.939692620785908,0.));
#1235=DIRECTION('ref_axis',(-0.939692620785909,-0.342020143325669,0.));
#1236=DIRECTION('center_axis',(0.342020143325668,-0.939692620785909,0.));
#1237=DIRECTION('ref_axis',(-0.664463024388674,-0.241844762647975,0.707106781186548));
#1238=DIRECTION('center_axis',(-0.342020143325668,0.939692620785909,0.));
#1239=DIRECTION('ref_axis',(0.664463024388675,0.241844762647975,-0.707106781186548));
#1240=DIRECTION('',(0.342020143325668,-0.939692620785909,0.));
#1241=DIRECTION('center_axis',(-0.342020143325668,0.939692620785909,0.));
#1242=DIRECTION('ref_axis',(0.664463024388674,0.241844762647975,0.707106781186548));
#1243=DIRECTION('',(-0.342020143325668,0.939692620785909,0.));
#1244=DIRECTION('center_axis',(0.,0.,1.));
#1245=DIRECTION('ref_axis',(1.,0.,0.));
#1246=DIRECTION('',(0.,-1.,0.));
#1247=DIRECTION('',(1.,0.,0.));
#1248=DIRECTION('',(0.707106781186548,0.707106781186548,0.));
#1249=DIRECTION('',(0.,1.,0.));
#1250=DIRECTION('center_axis',(0.,0.,1.));
#1251=DIRECTION('ref_axis',(1.,0.,0.));
#1252=DIRECTION('',(0.,1.,0.));
#1253=DIRECTION('',(0.,-1.,0.));
#1254=DIRECTION('',(-0.707106781186548,-0.707106781186548,0.));
#1255=DIRECTION('',(-1.,0.,0.));
#1256=DIRECTION('center_axis',(-1.,0.,0.));
#1257=DIRECTION('ref_axis',(0.,-1.,0.));
#1258=DIRECTION('',(0.,0.,-1.));
#1259=DIRECTION('center_axis',(0.939692620785909,0.342020143325668,0.));
#1260=DIRECTION('ref_axis',(-0.342020143325668,0.939692620785909,0.));
#1261=DIRECTION('center_axis',(-1.,-2.65419244781391E-16,0.));
#1262=DIRECTION('ref_axis',(2.65419244781391E-16,-1.,0.));
#1263=DIRECTION('center_axis',(1.,0.,0.));
#1264=DIRECTION('ref_axis',(0.,1.,0.));
#1265=DIRECTION('',(0.,0.,1.));
#1266=DIRECTION('center_axis',(0.,1.,0.));
#1267=DIRECTION('ref_axis',(-1.,0.,0.));
#1268=DIRECTION('',(0.,0.,1.));
#1269=DIRECTION('center_axis',(-0.707106781186548,0.707106781186548,0.));
#1270=DIRECTION('ref_axis',(-0.707106781186548,-0.707106781186548,0.));
#1271=CARTESIAN_POINT('',(0.,0.,0.));
#1272=CARTESIAN_POINT('Origin',(-5.00000000000001,-8.,7.49999999999999));
#1273=CARTESIAN_POINT('',(-9.50000000000001,-8.,7.49999999999999));
#1274=CARTESIAN_POINT('Origin',(-5.00000000000001,-8.,7.49999999999999));
#1275=CARTESIAN_POINT('',(-3.25,-8.,7.49999999999999));
#1276=CARTESIAN_POINT('Origin',(-5.,-8.,7.49999999999999));
#1277=CARTESIAN_POINT('Origin',(-5.00000000000001,-8.,-7.50000000000001));
#1278=CARTESIAN_POINT('',(-9.50000000000001,-8.,-7.50000000000001));
#1279=CARTESIAN_POINT('Origin',(-5.00000000000001,-8.,-7.50000000000001));
#1280=CARTESIAN_POINT('',(-3.25000000000001,-8.,-7.50000000000001));
#1281=CARTESIAN_POINT('Origin',(-5.00000000000001,-8.,-7.50000000000001));
#1282=CARTESIAN_POINT('Origin',(-4.57247482084292,5.,18.));
#1283=CARTESIAN_POINT('',(11.,5.,19.));
#1284=CARTESIAN_POINT('',(11.,6.,18.));
#1285=CARTESIAN_POINT('Origin',(11.,5.,18.));
#1286=CARTESIAN_POINT('',(-11.,6.,18.));
#1287=CARTESIAN_POINT('',(-4.57247482084292,6.,18.));
#1288=CARTESIAN_POINT('',(-11.,5.,19.));
#1289=CARTESIAN_POINT('Origin',(-11.,5.,18.));
#1290=CARTESIAN_POINT('',(-4.57247482084292,5.,19.));
#1291=CARTESIAN_POINT('Ctrl Pts',(-11.,6.,18.));
#1292=CARTESIAN_POINT('Ctrl Pts',(-12.,6.,18.));
#1293=CARTESIAN_POINT('Ctrl Pts',(-12.,6.,17.));
#1294=CARTESIAN_POINT('Ctrl Pts',(-11.,6.,19.));
#1295=CARTESIAN_POINT('Ctrl Pts',(-13.,6.,19.));
#1296=CARTESIAN_POINT('Ctrl Pts',(-13.,6.,17.));
#1297=CARTESIAN_POINT('Ctrl Pts',(-11.,5.,19.));
#1298=CARTESIAN_POINT('Ctrl Pts',(-13.,5.,19.));
#1299=CARTESIAN_POINT('Ctrl Pts',(-13.,5.,17.));
#1300=CARTESIAN_POINT('',(-12.,6.,17.));
#1301=CARTESIAN_POINT('',(-13.,5.,17.));
#1302=CARTESIAN_POINT('Origin',(-12.,5.,17.));
#1303=CARTESIAN_POINT('Origin',(-11.,5.,17.));
#1304=CARTESIAN_POINT('Origin',(-11.,6.,17.));
#1305=CARTESIAN_POINT('Origin',(-12.,5.,0.));
#1306=CARTESIAN_POINT('',(-12.,6.,-17.));
#1307=CARTESIAN_POINT('',(-13.,5.,-17.));
#1308=CARTESIAN_POINT('Origin',(-12.,5.,-17.));
#1309=CARTESIAN_POINT('',(-13.,5.,0.));
#1310=CARTESIAN_POINT('',(-12.,6.,0.));
#1311=CARTESIAN_POINT('Ctrl Pts',(-12.,6.,-17.));
#1312=CARTESIAN_POINT('Ctrl Pts',(-12.,6.,-18.));
#1313=CARTESIAN_POINT('Ctrl Pts',(-11.,6.,-18.));
#1314=CARTESIAN_POINT('Ctrl Pts',(-13.,6.,-17.));
#1315=CARTESIAN_POINT('Ctrl Pts',(-13.,6.,-19.));
#1316=CARTESIAN_POINT('Ctrl Pts',(-11.,6.,-19.));
#1317=CARTESIAN_POINT('Ctrl Pts',(-13.,5.,-17.));
#1318=CARTESIAN_POINT('Ctrl Pts',(-13.,5.,-19.));
#1319=CARTESIAN_POINT('Ctrl Pts',(-11.,5.,-19.));
#1320=CARTESIAN_POINT('',(-11.,6.,-18.));
#1321=CARTESIAN_POINT('',(-11.,5.,-19.));
#1322=CARTESIAN_POINT('Origin',(-11.,5.,-18.));
#1323=CARTESIAN_POINT('Origin',(-11.,5.,-17.));
#1324=CARTESIAN_POINT('Origin',(-11.,6.,-17.));
#1325=CARTESIAN_POINT('Origin',(-4.57247482084292,5.,-18.));
#1326=CARTESIAN_POINT('',(11.,6.,-18.));
#1327=CARTESIAN_POINT('',(11.,5.,-19.));
#1328=CARTESIAN_POINT('Origin',(11.,5.,-18.));
#1329=CARTESIAN_POINT('',(-4.57247482084292,5.,-19.));
#1330=CARTESIAN_POINT('',(-4.57247482084292,6.,-18.));
#1331=CARTESIAN_POINT('Ctrl Pts',(11.,6.,-18.));
#1332=CARTESIAN_POINT('Ctrl Pts',(12.,6.,-18.));
#1333=CARTESIAN_POINT('Ctrl Pts',(12.,6.,-17.));
#1334=CARTESIAN_POINT('Ctrl Pts',(11.,6.,-19.));
#1335=CARTESIAN_POINT('Ctrl Pts',(13.,6.,-19.));
#1336=CARTESIAN_POINT('Ctrl Pts',(13.,6.,-17.));
#1337=CARTESIAN_POINT('Ctrl Pts',(11.,5.,-19.));
#1338=CARTESIAN_POINT('Ctrl Pts',(13.,5.,-19.));
#1339=CARTESIAN_POINT('Ctrl Pts',(13.,5.,-17.));
#1340=CARTESIAN_POINT('',(12.,6.,-17.));
#1341=CARTESIAN_POINT('',(13.,5.,-17.));
#1342=CARTESIAN_POINT('Origin',(12.,5.,-17.));
#1343=CARTESIAN_POINT('Origin',(11.,5.,-17.));
#1344=CARTESIAN_POINT('Origin',(11.,6.,-17.));
#1345=CARTESIAN_POINT('Origin',(12.,5.,0.));
#1346=CARTESIAN_POINT('',(12.,6.,17.));
#1347=CARTESIAN_POINT('',(13.,5.,17.));
#1348=CARTESIAN_POINT('Origin',(12.,5.,17.));
#1349=CARTESIAN_POINT('',(13.,5.,0.));
#1350=CARTESIAN_POINT('',(12.,6.,0.));
#1351=CARTESIAN_POINT('Ctrl Pts',(12.,6.,17.));
#1352=CARTESIAN_POINT('Ctrl Pts',(12.,6.,18.));
#1353=CARTESIAN_POINT('Ctrl Pts',(11.,6.,18.));
#1354=CARTESIAN_POINT('Ctrl Pts',(13.,6.,17.));
#1355=CARTESIAN_POINT('Ctrl Pts',(13.,6.,19.));
#1356=CARTESIAN_POINT('Ctrl Pts',(11.,6.,19.));
#1357=CARTESIAN_POINT('Ctrl Pts',(13.,5.,17.));
#1358=CARTESIAN_POINT('Ctrl Pts',(13.,5.,19.));
#1359=CARTESIAN_POINT('Ctrl Pts',(11.,5.,19.));
#1360=CARTESIAN_POINT('Origin',(11.,5.,17.));
#1361=CARTESIAN_POINT('Origin',(11.,6.,17.));
#1362=CARTESIAN_POINT('Origin',(11.,-4.80148550735167,-17.));
#1363=CARTESIAN_POINT('',(13.,2.30198306231591,-17.));
#1364=CARTESIAN_POINT('',(13.,-4.80148550735167,-17.));
#1365=CARTESIAN_POINT('',(11.,2.30198306231591,-19.));
#1366=CARTESIAN_POINT('Origin',(11.,2.30198306231591,-17.));
#1367=CARTESIAN_POINT('',(11.,-4.80148550735167,-19.));
#1368=CARTESIAN_POINT('Origin',(13.,-1.26838695453937,0.));
#1369=CARTESIAN_POINT('',(13.,2.30198306231591,17.));
#1370=CARTESIAN_POINT('',(13.,-4.80148550735167,17.));
#1371=CARTESIAN_POINT('',(13.,2.30198306231591,0.));
#1372=CARTESIAN_POINT('Origin',(11.,-4.80148550735167,17.));
#1373=CARTESIAN_POINT('',(11.,2.30198306231591,19.));
#1374=CARTESIAN_POINT('',(11.,-4.80148550735167,19.));
#1375=CARTESIAN_POINT('Origin',(11.,2.30198306231591,17.));
#1376=CARTESIAN_POINT('Origin',(0.855050358314169,-8.33458406016397,19.));
#1377=CARTESIAN_POINT('',(-11.,-9.33119796904121,19.));
#1378=CARTESIAN_POINT('',(-11.,-1.16729203008199,19.));
#1379=CARTESIAN_POINT('',(-13.6319194266973,-13.0899684521848,19.));
#1380=CARTESIAN_POINT('Origin',(-15.,-9.33119796904121,19.));
#1381=CARTESIAN_POINT('',(-28.4464309577118,-18.4820096846675,19.));
#1382=CARTESIAN_POINT('',(-5.81360590678803,-10.2443350487768,19.));
#1383=CARTESIAN_POINT('',(-26.7363302410835,-23.1804727885971,19.));
#1384=CARTESIAN_POINT('',(-27.4203705277348,-21.3010875470253,19.));
#1385=CARTESIAN_POINT('',(31.5246122476429,-1.97522390240563,19.));
#1386=CARTESIAN_POINT('',(-30.4951007242271,-24.5485533618998,19.));
#1387=CARTESIAN_POINT('',(29.8145115310145,2.72323920152392,19.));
#1388=CARTESIAN_POINT('',(30.4106929752738,1.08524414552368,19.));
#1389=CARTESIAN_POINT('',(17.0390906449655,-1.92663373122067,19.));
#1390=CARTESIAN_POINT('',(17.1310149569654,-1.89317601784732,19.));
#1391=CARTESIAN_POINT('Origin',(15.5,2.30198306231591,19.));
#1392=CARTESIAN_POINT('Origin',(-10.,6.,0.));
#1393=CARTESIAN_POINT('',(-10.,6.,-16.025));
#1394=CARTESIAN_POINT('',(-10.,6.,16.025));
#1395=CARTESIAN_POINT('',(-10.,6.,0.));
#1396=CARTESIAN_POINT('',(10.,6.,-16.025));
#1397=CARTESIAN_POINT('',(-4.57247482084292,6.,-16.025));
#1398=CARTESIAN_POINT('',(10.,6.,16.025));
#1399=CARTESIAN_POINT('',(10.,6.,0.));
#1400=CARTESIAN_POINT('',(-4.57247482084292,6.,16.025));
#1401=CARTESIAN_POINT('Origin',(-5.00000000000001,-9.,-7.50000000000001));
#1402=CARTESIAN_POINT('',(-9.50000000000001,-16.9069616328603,-7.50000000000001));
#1403=CARTESIAN_POINT('',(-9.50000000000001,-9.,-7.50000000000001));
#1404=CARTESIAN_POINT('Origin',(-5.00000000000001,-15.2690955786624,-7.50000000000001));
#1405=CARTESIAN_POINT('Origin',(-5.00000000000001,-9.,7.49999999999999));
#1406=CARTESIAN_POINT('',(-9.50000000000001,-16.9069616328603,7.49999999999999));
#1407=CARTESIAN_POINT('',(-9.50000000000001,-9.,7.49999999999999));
#1408=CARTESIAN_POINT('Origin',(-5.00000000000001,-15.2690955786624,7.49999999999999));
#1409=CARTESIAN_POINT('Origin',(-5.,6.00000000000002,-7.50000000000001));
#1410=CARTESIAN_POINT('',(-3.25000000000001,-6.,-7.50000000000001));
#1411=CARTESIAN_POINT('Origin',(-5.00000000000001,-6.,-7.50000000000001));
#1412=CARTESIAN_POINT('',(-3.25,6.00000000000002,-7.50000000000001));
#1413=CARTESIAN_POINT('Origin',(-5.,6.00000000000002,7.49999999999999));
#1414=CARTESIAN_POINT('',(-3.25,-6.,7.49999999999999));
#1415=CARTESIAN_POINT('Origin',(-5.,-6.,7.49999999999999));
#1416=CARTESIAN_POINT('',(-3.25,6.00000000000002,7.49999999999999));
#1417=CARTESIAN_POINT('Origin',(-30.4951007242271,-24.5485533618998,0.));
#1418=CARTESIAN_POINT('',(-30.4951007242271,-24.5485533618998,-15.));
#1419=CARTESIAN_POINT('',(-26.7363302410835,-23.1804727885971,-19.));
#1420=CARTESIAN_POINT('Origin',(-26.7363302410835,-23.1804727885971,-15.));
#1421=CARTESIAN_POINT('',(31.5246122476429,-1.97522390240563,-19.));
#1422=CARTESIAN_POINT('',(-30.4951007242271,-24.5485533618998,-19.));
#1423=CARTESIAN_POINT('',(35.2833827307865,-0.607143329102957,-15.));
#1424=CARTESIAN_POINT('Origin',(31.5246122476429,-1.97522390240564,-15.));
#1425=CARTESIAN_POINT('',(35.2833827307865,-0.607143329102957,15.));
#1426=CARTESIAN_POINT('',(35.2833827307865,-0.607143329102953,0.));
#1427=CARTESIAN_POINT('Origin',(31.5246122476429,-1.97522390240564,15.));
#1428=CARTESIAN_POINT('',(-30.4951007242271,-24.5485533618998,15.));
#1429=CARTESIAN_POINT('Origin',(-26.7363302410835,-23.1804727885971,15.));
#1430=CARTESIAN_POINT('',(-30.4951007242271,-24.5485533618998,0.));
#1431=CARTESIAN_POINT('Origin',(15.5,2.30198306231591,-17.));
#1432=CARTESIAN_POINT('',(16.3550503583142,-0.0472484896488556,-17.));
#1433=CARTESIAN_POINT('',(17.0390906449655,-1.92663373122067,-19.));
#1434=CARTESIAN_POINT('Origin',(17.0390906449655,-1.92663373122067,-17.));
#1435=CARTESIAN_POINT('Origin',(15.5,2.30198306231591,-19.));
#1436=CARTESIAN_POINT('Origin',(15.5,2.30198306231591,-17.));
#1437=CARTESIAN_POINT('Origin',(17.1310149569654,-1.89317601784732,-17.));
#1438=CARTESIAN_POINT('',(29.1304712443632,4.60262444309573,-17.));
#1439=CARTESIAN_POINT('',(29.8145115310145,2.72323920152392,-19.));
#1440=CARTESIAN_POINT('Origin',(29.8145115310145,2.72323920152392,-17.));
#1441=CARTESIAN_POINT('',(17.1310149569654,-1.89317601784732,-19.));
#1442=CARTESIAN_POINT('',(16.446974670314,-0.013790776275506,-17.));
#1443=CARTESIAN_POINT('Ctrl Pts',(29.1304712443632,4.60262444309573,-17.));
#1444=CARTESIAN_POINT('Ctrl Pts',(31.009856485935,5.28666472974707,-17.));
#1445=CARTESIAN_POINT('Ctrl Pts',(31.009856485935,5.28666472974707,-15.));
#1446=CARTESIAN_POINT('Ctrl Pts',(29.1304712443632,4.60262444309573,-19.));
#1447=CARTESIAN_POINT('Ctrl Pts',(32.8892417275068,5.97070501639841,-19.));
#1448=CARTESIAN_POINT('Ctrl Pts',(32.8892417275068,5.97070501639841,-15.));
#1449=CARTESIAN_POINT('Ctrl Pts',(29.8145115310145,2.72323920152392,-19.));
#1450=CARTESIAN_POINT('Ctrl Pts',(33.5732820141581,4.09131977482659,-19.));
#1451=CARTESIAN_POINT('Ctrl Pts',(33.5732820141581,4.09131977482659,-15.));
#1452=CARTESIAN_POINT('',(31.009856485935,5.28666472974707,-15.));
#1453=CARTESIAN_POINT('',(33.5732820141581,4.09131977482659,-15.));
#1454=CARTESIAN_POINT('Origin',(31.6938967725863,3.40727948817525,-15.));
#1455=CARTESIAN_POINT('Origin',(29.8145115310145,2.72323920152392,-15.));
#1456=CARTESIAN_POINT('Origin',(29.1304712443632,4.60262444309573,-15.));
#1457=CARTESIAN_POINT('Origin',(31.6938967725863,3.40727948817525,0.));
#1458=CARTESIAN_POINT('',(31.009856485935,5.28666472974707,15.));
#1459=CARTESIAN_POINT('',(33.5732820141581,4.09131977482659,15.));
#1460=CARTESIAN_POINT('Origin',(31.6938967725863,3.40727948817525,15.));
#1461=CARTESIAN_POINT('',(33.5732820141581,4.09131977482659,0.));
#1462=CARTESIAN_POINT('',(31.009856485935,5.28666472974707,0.));
#1463=CARTESIAN_POINT('Ctrl Pts',(31.009856485935,5.28666472974707,15.));
#1464=CARTESIAN_POINT('Ctrl Pts',(31.009856485935,5.28666472974707,17.));
#1465=CARTESIAN_POINT('Ctrl Pts',(29.1304712443632,4.60262444309573,17.));
#1466=CARTESIAN_POINT('Ctrl Pts',(32.8892417275068,5.97070501639841,15.));
#1467=CARTESIAN_POINT('Ctrl Pts',(32.8892417275068,5.97070501639841,19.));
#1468=CARTESIAN_POINT('Ctrl Pts',(29.1304712443632,4.60262444309573,19.));
#1469=CARTESIAN_POINT('Ctrl Pts',(33.5732820141581,4.09131977482659,15.));
#1470=CARTESIAN_POINT('Ctrl Pts',(33.5732820141581,4.09131977482659,19.));
#1471=CARTESIAN_POINT('Ctrl Pts',(29.8145115310145,2.72323920152392,19.));
#1472=CARTESIAN_POINT('',(29.1304712443632,4.60262444309573,17.));
#1473=CARTESIAN_POINT('Origin',(29.8145115310145,2.72323920152392,17.));
#1474=CARTESIAN_POINT('Origin',(29.8145115310145,2.72323920152392,15.));
#1475=CARTESIAN_POINT('Origin',(29.1304712443632,4.60262444309573,15.));
#1476=CARTESIAN_POINT('Origin',(17.1310149569654,-1.89317601784732,17.));
#1477=CARTESIAN_POINT('',(16.3550503583142,-0.0472484896488556,17.));
#1478=CARTESIAN_POINT('Origin',(17.0390906449655,-1.92663373122067,17.));
#1479=CARTESIAN_POINT('',(16.446974670314,-0.013790776275506,17.));
#1480=CARTESIAN_POINT('Origin',(15.5,2.30198306231591,17.));
#1481=CARTESIAN_POINT('Origin',(15.5,2.30198306231591,17.));
#1482=CARTESIAN_POINT('Origin',(32.8892417275068,5.97070501639841,0.));
#1483=CARTESIAN_POINT('',(16.3550503583142,-0.0472484896488556,0.));
#1484=CARTESIAN_POINT('Origin',(15.5,2.30198306231591,0.));
#1485=CARTESIAN_POINT('Origin',(-15.,-9.33119796904121,17.));
#1486=CARTESIAN_POINT('',(-13.,-9.33119796904121,17.));
#1487=CARTESIAN_POINT('Origin',(-11.,-9.33119796904121,17.));
#1488=CARTESIAN_POINT('',(-14.3159597133487,-11.210583210613,17.));
#1489=CARTESIAN_POINT('Origin',(-15.,-9.33119796904121,17.));
#1490=CARTESIAN_POINT('Origin',(-13.6319194266973,-13.0899684521848,17.));
#1491=CARTESIAN_POINT('Origin',(-15.,-9.33119796904121,-17.));
#1492=CARTESIAN_POINT('',(-13.,-9.33119796904121,-17.));
#1493=CARTESIAN_POINT('',(-14.3159597133487,-11.210583210613,-17.));
#1494=CARTESIAN_POINT('Origin',(-15.,-9.33119796904121,-17.));
#1495=CARTESIAN_POINT('',(-11.,-9.33119796904121,-19.));
#1496=CARTESIAN_POINT('Origin',(-11.,-9.33119796904121,-17.));
#1497=CARTESIAN_POINT('',(-13.6319194266973,-13.0899684521848,-19.));
#1498=CARTESIAN_POINT('Origin',(-15.,-9.33119796904121,-19.));
#1499=CARTESIAN_POINT('Origin',(-13.6319194266973,-13.0899684521848,-17.));
#1500=CARTESIAN_POINT('Origin',(-11.,-1.16729203008199,-17.));
#1501=CARTESIAN_POINT('',(-11.,-1.16729203008199,-19.));
#1502=CARTESIAN_POINT('',(-13.,-1.16729203008199,-17.));
#1503=CARTESIAN_POINT('Origin',(-5.81360590678803,-10.2443350487768,-17.));
#1504=CARTESIAN_POINT('',(-28.4464309577118,-18.4820096846675,-19.));
#1505=CARTESIAN_POINT('',(-29.1304712443632,-16.6026244430957,-17.));
#1506=CARTESIAN_POINT('Origin',(-28.4464309577118,-18.4820096846675,-17.));
#1507=CARTESIAN_POINT('',(-6.49764619343936,-8.36494980720502,-17.));
#1508=CARTESIAN_POINT('',(-5.81360590678803,-10.2443350487768,-19.));
#1509=CARTESIAN_POINT('Ctrl Pts',(-31.009856485935,-17.2866647297471,-15.));
#1510=CARTESIAN_POINT('Ctrl Pts',(-31.009856485935,-17.2866647297471,-17.));
#1511=CARTESIAN_POINT('Ctrl Pts',(-29.1304712443632,-16.6026244430957,-17.));
#1512=CARTESIAN_POINT('Ctrl Pts',(-32.8892417275068,-17.9707050163984,-15.));
#1513=CARTESIAN_POINT('Ctrl Pts',(-32.8892417275068,-17.9707050163984,-19.));
#1514=CARTESIAN_POINT('Ctrl Pts',(-29.1304712443632,-16.6026244430957,-19.));
#1515=CARTESIAN_POINT('Ctrl Pts',(-32.2052014408555,-19.8500902579702,-15.));
#1516=CARTESIAN_POINT('Ctrl Pts',(-32.2052014408555,-19.8500902579702,-19.));
#1517=CARTESIAN_POINT('Ctrl Pts',(-28.4464309577118,-18.4820096846675,-19.));
#1518=CARTESIAN_POINT('',(-32.2052014408555,-19.8500902579702,-15.));
#1519=CARTESIAN_POINT('',(-31.009856485935,-17.2866647297471,-15.));
#1520=CARTESIAN_POINT('Origin',(-30.3258161992836,-19.1660499713189,-15.));
#1521=CARTESIAN_POINT('Origin',(-29.1304712443632,-16.6026244430957,-15.));
#1522=CARTESIAN_POINT('Origin',(-28.4464309577118,-18.4820096846675,-15.));
#1523=CARTESIAN_POINT('Origin',(-30.3258161992836,-19.1660499713189,0.));
#1524=CARTESIAN_POINT('',(-32.2052014408555,-19.8500902579702,15.));
#1525=CARTESIAN_POINT('',(-31.009856485935,-17.2866647297471,15.));
#1526=CARTESIAN_POINT('Origin',(-30.3258161992836,-19.1660499713189,15.));
#1527=CARTESIAN_POINT('',(-31.009856485935,-17.2866647297471,0.));
#1528=CARTESIAN_POINT('',(-32.2052014408555,-19.8500902579702,0.));
#1529=CARTESIAN_POINT('Ctrl Pts',(-29.1304712443632,-16.6026244430957,17.));
#1530=CARTESIAN_POINT('Ctrl Pts',(-31.009856485935,-17.2866647297471,17.));
#1531=CARTESIAN_POINT('Ctrl Pts',(-31.009856485935,-17.2866647297471,15.));
#1532=CARTESIAN_POINT('Ctrl Pts',(-29.1304712443632,-16.6026244430957,19.));
#1533=CARTESIAN_POINT('Ctrl Pts',(-32.8892417275068,-17.9707050163984,19.));
#1534=CARTESIAN_POINT('Ctrl Pts',(-32.8892417275068,-17.9707050163984,15.));
#1535=CARTESIAN_POINT('Ctrl Pts',(-28.4464309577118,-18.4820096846675,19.));
#1536=CARTESIAN_POINT('Ctrl Pts',(-32.2052014408555,-19.8500902579702,19.));
#1537=CARTESIAN_POINT('Ctrl Pts',(-32.2052014408555,-19.8500902579702,15.));
#1538=CARTESIAN_POINT('',(-29.1304712443632,-16.6026244430957,17.));
#1539=CARTESIAN_POINT('Origin',(-28.4464309577118,-18.4820096846675,17.));
#1540=CARTESIAN_POINT('Origin',(-29.1304712443632,-16.6026244430957,15.));
#1541=CARTESIAN_POINT('Origin',(-28.4464309577118,-18.4820096846675,15.));
#1542=CARTESIAN_POINT('Origin',(-5.81360590678803,-10.2443350487768,17.));
#1543=CARTESIAN_POINT('',(-6.49764619343936,-8.36494980720502,17.));
#1544=CARTESIAN_POINT('Origin',(-15.,-9.33119796904121,0.));
#1545=CARTESIAN_POINT('',(-13.,-9.33119796904121,0.));
#1546=CARTESIAN_POINT('',(-14.3159597133487,-11.210583210613,0.));
#1547=CARTESIAN_POINT('Origin',(-11.,-1.16729203008199,17.));
#1548=CARTESIAN_POINT('',(-13.,-1.16729203008199,17.));
#1549=CARTESIAN_POINT('Origin',(-32.8892417275068,-17.9707050163984,0.));
#1550=CARTESIAN_POINT('',(-31.1791410108785,-22.6691681203279,-15.));
#1551=CARTESIAN_POINT('',(-31.1791410108785,-22.6691681203279,15.));
#1552=CARTESIAN_POINT('Origin',(-28.7052998717667,-17.770773188703,-15.));
#1553=CARTESIAN_POINT('',(-28.7052998717667,-17.770773188703,-19.));
#1554=CARTESIAN_POINT('Origin',(0.855050358314169,-8.33458406016397,-19.));
#1555=CARTESIAN_POINT('',(30.4106929752738,1.08524414552368,-19.));
#1556=CARTESIAN_POINT('Origin',(-13.,-10.7316130454606,0.));
#1557=CARTESIAN_POINT('Origin',(-28.7052998717667,-17.770773188703,15.));
#1558=CARTESIAN_POINT('Origin',(30.4106929752738,1.08524414552368,-15.));
#1559=CARTESIAN_POINT('',(34.1694634584174,2.45332471882635,-15.));
#1560=CARTESIAN_POINT('Origin',(30.4106929752738,1.08524414552368,15.));
#1561=CARTESIAN_POINT('',(34.1694634584174,2.45332471882635,15.));
#1562=CARTESIAN_POINT('Origin',(0.855050358314169,-8.33458406016397,-16.025));
#1563=CARTESIAN_POINT('',(-10.,-6.,-16.025));
#1564=CARTESIAN_POINT('',(-10.,-7.16729203008199,-16.025));
#1565=CARTESIAN_POINT('',(-4.44089209850063E-15,-6.,-16.025));
#1566=CARTESIAN_POINT('',(0.427525179157082,-6.,-16.025));
#1567=CARTESIAN_POINT('',(10.,4.,-16.025));
#1568=CARTESIAN_POINT('',(4.63011657453755,-1.36988342546245,-16.025));
#1569=CARTESIAN_POINT('',(10.,-1.16729203008199,-16.025));
#1570=CARTESIAN_POINT('Origin',(0.855050358314169,-8.33458406016397,16.025));
#1571=CARTESIAN_POINT('',(-10.,-6.,16.025));
#1572=CARTESIAN_POINT('',(-10.,-7.16729203008199,16.025));
#1573=CARTESIAN_POINT('',(10.,4.,16.025));
#1574=CARTESIAN_POINT('',(10.,-1.16729203008199,16.025));
#1575=CARTESIAN_POINT('',(-4.44089209850063E-15,-6.,16.025));
#1576=CARTESIAN_POINT('',(4.63011657453755,-1.36988342546245,16.025));
#1577=CARTESIAN_POINT('',(0.427525179157082,-6.,16.025));
#1578=CARTESIAN_POINT('Origin',(10.,6.,0.));
#1579=CARTESIAN_POINT('',(10.,4.,0.));
#1580=CARTESIAN_POINT('Origin',(34.5993424441351,1.27224191246886,0.));
#1581=CARTESIAN_POINT('Origin',(-13.,6.,0.));
#1582=CARTESIAN_POINT('Origin',(-10.,-6.,0.));
#1583=CARTESIAN_POINT('',(-10.,-6.,0.));
#1584=CARTESIAN_POINT('Origin',(-4.44089209850063E-15,-6.,0.));
#1585=CARTESIAN_POINT('',(-4.44089209850063E-15,-6.,0.));
#1586=CARTESIAN_POINT('Origin',(10.,4.,0.));
#1587=UNCERTAINTY_MEASURE_WITH_UNIT(LENGTH_MEASURE(0.01),#1591,
'DISTANCE_ACCURACY_VALUE',
'Maximum model space distance between geometric entities at asserted c
onnectivities');
#1588=UNCERTAINTY_MEASURE_WITH_UNIT(LENGTH_MEASURE(0.01),#1591,
'DISTANCE_ACCURACY_VALUE',
'Maximum model space distance between geometric entities at asserted c
onnectivities');
#1589=(
GEOMETRIC_REPRESENTATION_CONTEXT(3)
GLOBAL_UNCERTAINTY_ASSIGNED_CONTEXT((#1587))
GLOBAL_UNIT_ASSIGNED_CONTEXT((#1591,#1593,#1594))
REPRESENTATION_CONTEXT('','3D')
);
#1590=(
GEOMETRIC_REPRESENTATION_CONTEXT(3)
GLOBAL_UNCERTAINTY_ASSIGNED_CONTEXT((#1588))
GLOBAL_UNIT_ASSIGNED_CONTEXT((#1591,#1593,#1594))
REPRESENTATION_CONTEXT('','3D')
);
#1591=(
LENGTH_UNIT()
NAMED_UNIT(*)
SI_UNIT(.MILLI.,.METRE.)
);
#1592=(
LENGTH_UNIT()
NAMED_UNIT(*)
SI_UNIT($,.METRE.)
);
#1593=(
NAMED_UNIT(*)
PLANE_ANGLE_UNIT()
SI_UNIT($,.RADIAN.)
);
#1594=(
NAMED_UNIT(*)
SI_UNIT($,.STERADIAN.)
SOLID_ANGLE_UNIT()
);
#1595=SHAPE_DEFINITION_REPRESENTATION(#1596,#1597);
#1596=PRODUCT_DEFINITION_SHAPE('',$,#1599);
#1597=SHAPE_REPRESENTATION('',(#887),#1589);
#1598=PRODUCT_DEFINITION_CONTEXT('part definition',#1603,'design');
#1599=PRODUCT_DEFINITION('foot','foot v9',#1600,#1598);
#1600=PRODUCT_DEFINITION_FORMATION('',$,#1605);
#1601=PRODUCT_RELATED_PRODUCT_CATEGORY('foot v9','foot v9',(#1605));
#1602=APPLICATION_PROTOCOL_DEFINITION('international standard',
'automotive_design',2009,#1603);
#1603=APPLICATION_CONTEXT(
'Core Data for Automotive Mechanical Design Process');
#1604=PRODUCT_CONTEXT('part definition',#1603,'mechanical');
#1605=PRODUCT('foot','foot v9',$,(#1604));
#1606=PRESENTATION_STYLE_ASSIGNMENT((#1608));
#1607=PRESENTATION_STYLE_ASSIGNMENT((#1609));
#1608=SURFACE_STYLE_USAGE(.BOTH.,#1610);
#1609=SURFACE_STYLE_USAGE(.BOTH.,#1611);
#1610=SURFACE_SIDE_STYLE('',(#1612));
#1611=SURFACE_SIDE_STYLE('',(#1613));
#1612=SURFACE_STYLE_FILL_AREA(#1614);
#1613=SURFACE_STYLE_FILL_AREA(#1615);
#1614=FILL_AREA_STYLE('\X2\AC15CCA0\X0\ - \X2\C0C8D2F4\X0\',(#1616));
#1615=FILL_AREA_STYLE('ABS(\X2\D770C0C9\X0\)',(#1617));
#1616=FILL_AREA_STYLE_COLOUR('\X2\AC15CCA0\X0\ - \X2\C0C8D2F4\X0\',#1618);
#1617=FILL_AREA_STYLE_COLOUR('ABS(\X2\D770C0C9\X0\)',#1619);
#1618=COLOUR_RGB('\X2\AC15CCA0\X0\ - \X2\C0C8D2F4\X0\',0.627450980392157,
0.627450980392157,0.627450980392157);
#1619=COLOUR_RGB('ABS(\X2\D770C0C9\X0\)',0.215686274509804,0.215686274509804,
0.215686274509804);
ENDSEC;
END-ISO-10303-21;
