ISO-10303-21;
HEADER;
/* Generated by software containing ST-Developer
 * from STEP Tools, Inc. (www.steptools.com) 
 */

FILE_DESCRIPTION(
/* description */ (''),
/* implementation_level */ '2;1');

FILE_NAME(
/* name */ 'ear.step',
/* time_stamp */ '2026-10-07T11:31:51+09:00',
/* author */ (''),
/* organization */ (''),
/* preprocessor_version */ 'ST-DEVELOPER v20.2',
/* originating_system */ 'Autodesk Translation Framework v15.15.0.0',
/* authorisation */ '');

FILE_SCHEMA (('AUTOMOTIVE_DESIGN { 1 0 10303 214 3 1 1 }'));
ENDSEC;

DATA;
#10=MECHANICAL_DESIGN_GEOMETRIC_PRESENTATION_REPRESENTATION('',(#13),#1050);
#11=SHAPE_REPRESENTATION_RELATIONSHIP('SRR','None',#1057,#12);
#12=ADVANCED_BREP_SHAPE_REPRESENTATION('',(#14),#1049);
#13=STYLED_ITEM('',(#1067),#14);
#14=MANIFOLD_SOLID_BREP('ear prototype',#404);
#15=FACE_BOUND('',#119,.T.);
#16=FACE_BOUND('',#129,.T.);
#17=(
BOUNDED_SURFACE()
B_SPLINE_SURFACE(5,1,((#752,#753),(#754,#755),(#756,#757),(#758,#759),(#760,
#761),(#762,#763),(#764,#765),(#766,#767),(#768,#769),(#770,#771),(#772,
#773),(#774,#775),(#776,#777),(#778,#779),(#780,#781),(#782,#783),(#784,
#785),(#786,#787),(#788,#789),(#790,#791),(#792,#793),(#794,#795),(#796,
#797),(#798,#799),(#800,#801)),.UNSPECIFIED.,.F.,.F.,.F.)
B_SPLINE_SURFACE_WITH_KNOTS((6,1,1,1,1,1,1,1,1,1,1,1,1,1,1,1,1,1,1,1,6),
(2,2),(-1.,-0.95,-0.9,-0.85,-0.8,-0.75,-0.7,-0.65,-0.6,-0.55,-0.5,-0.45,
-0.4,-0.35,-0.3,-0.25,-0.2,-0.15,-0.1,-0.05,0.),(0.,2.6),.UNSPECIFIED.)
GEOMETRIC_REPRESENTATION_ITEM()
RATIONAL_B_SPLINE_SURFACE(((1.,1.),(1.,1.),(1.,1.),(1.,1.),(1.,1.),(1.,
1.),(1.,1.),(1.,1.),(1.,1.),(1.,1.),(1.,1.),(1.,1.),(1.,1.),(1.,1.),(1.,
1.),(1.,1.),(1.,1.),(1.,1.),(1.,1.),(1.,1.),(1.,1.),(1.,1.),(1.,1.),(1.,
1.),(1.,1.)))
REPRESENTATION_ITEM('')
SURFACE()
);
#18=(
BOUNDED_SURFACE()
B_SPLINE_SURFACE(5,1,((#966,#967),(#968,#969),(#970,#971),(#972,#973),(#974,
#975),(#976,#977),(#978,#979),(#980,#981),(#982,#983),(#984,#985),(#986,
#987),(#988,#989),(#990,#991),(#992,#993),(#994,#995),(#996,#997),(#998,
#999),(#1000,#1001),(#1002,#1003),(#1004,#1005),(#1006,#1007),(#1008,#1009),
(#1010,#1011),(#1012,#1013),(#1014,#1015)),.UNSPECIFIED.,.F.,.F.,.F.)
B_SPLINE_SURFACE_WITH_KNOTS((6,1,1,1,1,1,1,1,1,1,1,1,1,1,1,1,1,1,1,1,6),
(2,2),(0.,0.05,0.1,0.15,0.2,0.25,0.3,0.35,0.4,0.45,0.5,0.55,0.6,0.65,0.7,
0.75,0.8,0.85,0.9,0.95,1.),(0.,2.6),.UNSPECIFIED.)
GEOMETRIC_REPRESENTATION_ITEM()
RATIONAL_B_SPLINE_SURFACE(((1.,1.),(1.,1.),(1.,1.),(1.,1.),(1.,1.),(1.,
1.),(1.,1.),(1.,1.),(1.,1.),(1.,1.),(1.,1.),(1.,1.),(1.,1.),(1.,1.),(1.,
1.),(1.,1.),(1.,1.),(1.,1.),(1.,1.),(1.,1.),(1.,1.),(1.,1.),(1.,1.),(1.,
1.),(1.,1.)))
REPRESENTATION_ITEM('')
SURFACE()
);
#19=PLANE('',#434);
#20=PLANE('',#435);
#21=PLANE('',#450);
#22=PLANE('',#451);
#23=PLANE('',#456);
#24=PLANE('',#459);
#25=PLANE('',#461);
#26=TOROIDAL_SURFACE('',#422,9.,1.);
#27=TOROIDAL_SURFACE('',#429,4.85246410626216,1.);
#28=TOROIDAL_SURFACE('',#441,9.,1.);
#29=TOROIDAL_SURFACE('',#447,4.85246410626216,1.);
#30=LINE('',#659,#53);
#31=LINE('',#660,#54);
#32=LINE('',#671,#55);
#33=LINE('',#672,#56);
#34=LINE('',#744,#57);
#35=LINE('',#747,#58);
#36=LINE('',#750,#59);
#37=LINE('',#751,#60);
#38=LINE('',#803,#61);
#39=LINE('',#895,#62);
#40=LINE('',#896,#63);
#41=LINE('',#904,#64);
#42=LINE('',#965,#65);
#43=LINE('',#1016,#66);
#44=LINE('',#1024,#67);
#45=LINE('',#1027,#68);
#46=LINE('',#1034,#69);
#47=LINE('',#1037,#70);
#48=LINE('',#1039,#71);
#49=LINE('',#1040,#72);
#50=LINE('',#1042,#73);
#51=LINE('',#1044,#74);
#52=LINE('',#1046,#75);
#53=VECTOR('',#473,10.);
#54=VECTOR('',#474,10.);
#55=VECTOR('',#487,10.);
#56=VECTOR('',#488,10.);
#57=VECTOR('',#499,10.);
#58=VECTOR('',#502,10.);
#59=VECTOR('',#505,10.);
#60=VECTOR('',#506,10.);
#61=VECTOR('',#507,10.);
#62=VECTOR('',#520,10.);
#63=VECTOR('',#521,10.);
#64=VECTOR('',#532,10.);
#65=VECTOR('',#543,10.);
#66=VECTOR('',#544,10.);
#67=VECTOR('',#551,10.);
#68=VECTOR('',#554,10.);
#69=VECTOR('',#561,10.);
#70=VECTOR('',#564,10.);
#71=VECTOR('',#567,10.);
#72=VECTOR('',#568,10.);
#73=VECTOR('',#571,10.);
#74=VECTOR('',#574,10.);
#75=VECTOR('',#577,3.75);
#76=CYLINDRICAL_SURFACE('',#420,1.);
#77=CYLINDRICAL_SURFACE('',#426,1.);
#78=CYLINDRICAL_SURFACE('',#432,10.);
#79=CYLINDRICAL_SURFACE('',#439,1.);
#80=CYLINDRICAL_SURFACE('',#444,1.);
#81=CYLINDRICAL_SURFACE('',#455,5.85246410626216);
#82=CYLINDRICAL_SURFACE('',#460,2.7);
#83=CYLINDRICAL_SURFACE('',#462,4.05);
#84=FACE_OUTER_BOUND('',#109,.T.);
#85=FACE_OUTER_BOUND('',#110,.T.);
#86=FACE_OUTER_BOUND('',#111,.T.);
#87=FACE_OUTER_BOUND('',#112,.T.);
#88=FACE_OUTER_BOUND('',#113,.T.);
#89=FACE_OUTER_BOUND('',#114,.T.);
#90=FACE_OUTER_BOUND('',#115,.T.);
#91=FACE_OUTER_BOUND('',#116,.T.);
#92=FACE_OUTER_BOUND('',#117,.T.);
#93=FACE_OUTER_BOUND('',#118,.T.);
#94=FACE_OUTER_BOUND('',#120,.T.);
#95=FACE_OUTER_BOUND('',#121,.T.);
#96=FACE_OUTER_BOUND('',#122,.T.);
#97=FACE_OUTER_BOUND('',#123,.T.);
#98=FACE_OUTER_BOUND('',#124,.T.);
#99=FACE_OUTER_BOUND('',#125,.T.);
#100=FACE_OUTER_BOUND('',#126,.T.);
#101=FACE_OUTER_BOUND('',#127,.T.);
#102=FACE_OUTER_BOUND('',#128,.T.);
#103=FACE_OUTER_BOUND('',#130,.T.);
#104=FACE_OUTER_BOUND('',#131,.T.);
#105=FACE_OUTER_BOUND('',#132,.T.);
#106=FACE_OUTER_BOUND('',#133,.T.);
#107=FACE_OUTER_BOUND('',#134,.T.);
#108=FACE_OUTER_BOUND('',#135,.T.);
#109=EDGE_LOOP('',(#261,#262,#263,#264));
#110=EDGE_LOOP('',(#265,#266,#267,#268));
#111=EDGE_LOOP('',(#269,#270,#271,#272));
#112=EDGE_LOOP('',(#273,#274,#275,#276));
#113=EDGE_LOOP('',(#277,#278,#279,#280));
#114=EDGE_LOOP('',(#281,#282,#283,#284));
#115=EDGE_LOOP('',(#285,#286,#287,#288));
#116=EDGE_LOOP('',(#289,#290,#291,#292));
#117=EDGE_LOOP('',(#293,#294,#295,#296));
#118=EDGE_LOOP('',(#297,#298,#299,#300,#301,#302));
#119=EDGE_LOOP('',(#303));
#120=EDGE_LOOP('',(#304,#305,#306,#307));
#121=EDGE_LOOP('',(#308,#309,#310,#311));
#122=EDGE_LOOP('',(#312,#313,#314,#315));
#123=EDGE_LOOP('',(#316,#317,#318,#319));
#124=EDGE_LOOP('',(#320,#321,#322,#323));
#125=EDGE_LOOP('',(#324,#325,#326,#327));
#126=EDGE_LOOP('',(#328,#329,#330,#331));
#127=EDGE_LOOP('',(#332,#333,#334,#335));
#128=EDGE_LOOP('',(#336,#337,#338,#339,#340,#341));
#129=EDGE_LOOP('',(#342,#343,#344,#345,#346));
#130=EDGE_LOOP('',(#347,#348,#349,#350));
#131=EDGE_LOOP('',(#351,#352,#353,#354));
#132=EDGE_LOOP('',(#355,#356,#357,#358));
#133=EDGE_LOOP('',(#359,#360,#361,#362));
#134=EDGE_LOOP('',(#363,#364,#365,#366));
#135=EDGE_LOOP('',(#367,#368,#369,#370,#371,#372,#373,#374));
#136=B_SPLINE_CURVE_WITH_KNOTS('',3,(#633,#634,#635,#636,#637,#638,#639,
#640,#641,#642),.UNSPECIFIED.,.F.,.F.,(4,1,1,1,1,1,1,4),(-6.10236504435137,
-5.23059860944403,-4.35883217453669,-2.61529930472201,-1.74353286981468,
-0.871766434907338,-0.435883217453669,0.),.UNSPECIFIED.);
#137=B_SPLINE_CURVE_WITH_KNOTS('',3,(#645,#646,#647,#648,#649,#650,#651,
#652,#653,#654),.UNSPECIFIED.,.F.,.F.,(4,1,1,1,1,1,1,4),(0.,0.435883217453669,
0.871766434907338,1.74353286981468,2.61529930472201,4.35883217453669,5.23059860944403,
6.10236504435137),.UNSPECIFIED.);
#138=B_SPLINE_CURVE_WITH_KNOTS('',3,(#721,#722,#723,#724,#725,#726,#727,
#728,#729),.UNSPECIFIED.,.F.,.F.,(4,1,1,1,1,1,4),(-6.10443632840279,-5.66840516208831,
-5.23237399577382,-4.36031166314485,-2.61618699788691,-0.872062332628971,
-4.24357725930678E-16),.UNSPECIFIED.);
#139=B_SPLINE_CURVE_WITH_KNOTS('',3,(#730,#731,#732,#733,#734,#735,#736,
#737,#738),.UNSPECIFIED.,.F.,.F.,(4,1,1,1,1,1,4),(4.24357725930678E-16,
0.872062332628971,2.61618699788691,4.36031166314485,5.23237399577382,5.66840516208831,
6.10443632840279),.UNSPECIFIED.);
#140=B_SPLINE_CURVE_WITH_KNOTS('',3,(#804,#805,#806,#807,#808,#809,#810,
#811,#812),.UNSPECIFIED.,.F.,.F.,(4,1,1,1,1,1,4),(9.61323328797981E-35,
0.87206233262897,2.61618699788691,4.36031166314485,5.23237399577382,5.66840516208831,
6.10443632840279),.UNSPECIFIED.);
#141=B_SPLINE_CURVE_WITH_KNOTS('',3,(#870,#871,#872,#873,#874,#875,#876,
#877,#878,#879),.UNSPECIFIED.,.F.,.F.,(4,1,1,1,1,1,1,4),(-6.10236504435137,
-5.23059860944403,-4.35883217453669,-2.61529930472201,-1.74353286981468,
-0.871766434907338,-0.435883217453669,0.),.UNSPECIFIED.);
#142=B_SPLINE_CURVE_WITH_KNOTS('',3,(#882,#883,#884,#885,#886,#887,#888,
#889,#890,#891),.UNSPECIFIED.,.F.,.F.,(4,1,1,1,1,1,1,4),(0.,0.435883217453669,
0.871766434907338,1.74353286981468,2.61529930472201,4.35883217453669,5.23059860944403,
6.10236504435137),.UNSPECIFIED.);
#143=B_SPLINE_CURVE_WITH_KNOTS('',3,(#952,#953,#954,#955,#956,#957,#958,
#959,#960),.UNSPECIFIED.,.F.,.F.,(4,1,1,1,1,1,4),(-6.10443632840279,-5.66840516208831,
-5.23237399577382,-4.36031166314485,-2.61618699788691,-0.87206233262897,
-9.61323328797981E-35),.UNSPECIFIED.);
#144=CIRCLE('',#418,1.);
#145=CIRCLE('',#419,1.);
#146=CIRCLE('',#421,1.);
#147=CIRCLE('',#423,1.);
#148=CIRCLE('',#424,9.);
#149=CIRCLE('',#425,10.);
#150=CIRCLE('',#427,1.);
#151=CIRCLE('',#428,0.999999999999999);
#152=CIRCLE('',#430,4.85246410626216);
#153=CIRCLE('',#431,5.85246410626216);
#154=CIRCLE('',#433,10.);
#155=CIRCLE('',#436,4.05);
#156=CIRCLE('',#437,1.);
#157=CIRCLE('',#438,1.);
#158=CIRCLE('',#440,1.);
#159=CIRCLE('',#442,1.);
#160=CIRCLE('',#443,9.);
#161=CIRCLE('',#445,1.);
#162=CIRCLE('',#446,0.999999999999999);
#163=CIRCLE('',#448,4.85246410626216);
#164=CIRCLE('',#449,5.85246410626216);
#165=CIRCLE('',#452,4.05);
#166=CIRCLE('',#453,4.05);
#167=CIRCLE('',#454,2.7);
#168=CIRCLE('',#457,4.05);
#169=CIRCLE('',#458,2.7);
#170=VERTEX_POINT('',#629);
#171=VERTEX_POINT('',#630);
#172=VERTEX_POINT('',#632);
#173=VERTEX_POINT('',#643);
#174=VERTEX_POINT('',#656);
#175=VERTEX_POINT('',#657);
#176=VERTEX_POINT('',#662);
#177=VERTEX_POINT('',#663);
#178=VERTEX_POINT('',#668);
#179=VERTEX_POINT('',#669);
#180=VERTEX_POINT('',#718);
#181=VERTEX_POINT('',#719);
#182=VERTEX_POINT('',#743);
#183=VERTEX_POINT('',#745);
#184=VERTEX_POINT('',#749);
#185=VERTEX_POINT('',#802);
#186=VERTEX_POINT('',#814);
#187=VERTEX_POINT('',#866);
#188=VERTEX_POINT('',#867);
#189=VERTEX_POINT('',#869);
#190=VERTEX_POINT('',#880);
#191=VERTEX_POINT('',#893);
#192=VERTEX_POINT('',#898);
#193=VERTEX_POINT('',#902);
#194=VERTEX_POINT('',#950);
#195=VERTEX_POINT('',#1018);
#196=VERTEX_POINT('',#1019);
#197=VERTEX_POINT('',#1021);
#198=VERTEX_POINT('',#1023);
#199=VERTEX_POINT('',#1025);
#200=VERTEX_POINT('',#1030);
#201=VERTEX_POINT('',#1031);
#202=VERTEX_POINT('',#1033);
#203=VERTEX_POINT('',#1035);
#204=EDGE_CURVE('',#170,#171,#144,.T.);
#205=EDGE_CURVE('',#171,#172,#136,.T.);
#206=EDGE_CURVE('',#172,#173,#145,.T.);
#207=EDGE_CURVE('',#173,#170,#137,.T.);
#208=EDGE_CURVE('',#174,#175,#146,.T.);
#209=EDGE_CURVE('',#175,#171,#30,.T.);
#210=EDGE_CURVE('',#170,#174,#31,.T.);
#211=EDGE_CURVE('',#176,#177,#147,.T.);
#212=EDGE_CURVE('',#177,#175,#148,.T.);
#213=EDGE_CURVE('',#174,#176,#149,.T.);
#214=EDGE_CURVE('',#178,#179,#150,.T.);
#215=EDGE_CURVE('',#179,#177,#32,.T.);
#216=EDGE_CURVE('',#176,#178,#33,.T.);
#217=EDGE_CURVE('',#180,#181,#151,.T.);
#218=EDGE_CURVE('',#181,#179,#138,.T.);
#219=EDGE_CURVE('',#178,#180,#139,.T.);
#220=EDGE_CURVE('',#172,#181,#152,.T.);
#221=EDGE_CURVE('',#180,#173,#153,.T.);
#222=EDGE_CURVE('',#174,#182,#34,.T.);
#223=EDGE_CURVE('',#183,#182,#154,.T.);
#224=EDGE_CURVE('',#183,#176,#35,.T.);
#225=EDGE_CURVE('',#184,#170,#36,.T.);
#226=EDGE_CURVE('',#182,#184,#37,.T.);
#227=EDGE_CURVE('',#185,#173,#38,.T.);
#228=EDGE_CURVE('',#184,#185,#140,.T.);
#229=EDGE_CURVE('',#186,#186,#155,.F.);
#230=EDGE_CURVE('',#187,#188,#156,.T.);
#231=EDGE_CURVE('',#188,#189,#141,.T.);
#232=EDGE_CURVE('',#189,#190,#157,.T.);
#233=EDGE_CURVE('',#190,#187,#142,.T.);
#234=EDGE_CURVE('',#183,#191,#158,.T.);
#235=EDGE_CURVE('',#191,#188,#39,.T.);
#236=EDGE_CURVE('',#187,#183,#40,.T.);
#237=EDGE_CURVE('',#182,#192,#159,.T.);
#238=EDGE_CURVE('',#192,#191,#160,.T.);
#239=EDGE_CURVE('',#184,#193,#161,.T.);
#240=EDGE_CURVE('',#193,#192,#41,.T.);
#241=EDGE_CURVE('',#185,#194,#162,.T.);
#242=EDGE_CURVE('',#194,#193,#143,.T.);
#243=EDGE_CURVE('',#189,#194,#163,.T.);
#244=EDGE_CURVE('',#185,#190,#164,.T.);
#245=EDGE_CURVE('',#187,#178,#42,.T.);
#246=EDGE_CURVE('',#190,#180,#43,.T.);
#247=EDGE_CURVE('',#195,#196,#165,.F.);
#248=EDGE_CURVE('',#196,#197,#166,.F.);
#249=EDGE_CURVE('',#197,#198,#44,.F.);
#250=EDGE_CURVE('',#198,#199,#167,.F.);
#251=EDGE_CURVE('',#199,#195,#45,.F.);
#252=EDGE_CURVE('',#200,#201,#168,.F.);
#253=EDGE_CURVE('',#202,#201,#46,.F.);
#254=EDGE_CURVE('',#203,#202,#169,.F.);
#255=EDGE_CURVE('',#200,#203,#47,.F.);
#256=EDGE_CURVE('',#203,#198,#48,.T.);
#257=EDGE_CURVE('',#200,#197,#49,.T.);
#258=EDGE_CURVE('',#202,#199,#50,.T.);
#259=EDGE_CURVE('',#201,#195,#51,.T.);
#260=EDGE_CURVE('',#196,#186,#52,.T.);
#261=ORIENTED_EDGE('',*,*,#204,.T.);
#262=ORIENTED_EDGE('',*,*,#205,.T.);
#263=ORIENTED_EDGE('',*,*,#206,.T.);
#264=ORIENTED_EDGE('',*,*,#207,.T.);
#265=ORIENTED_EDGE('',*,*,#208,.T.);
#266=ORIENTED_EDGE('',*,*,#209,.T.);
#267=ORIENTED_EDGE('',*,*,#204,.F.);
#268=ORIENTED_EDGE('',*,*,#210,.T.);
#269=ORIENTED_EDGE('',*,*,#211,.T.);
#270=ORIENTED_EDGE('',*,*,#212,.T.);
#271=ORIENTED_EDGE('',*,*,#208,.F.);
#272=ORIENTED_EDGE('',*,*,#213,.T.);
#273=ORIENTED_EDGE('',*,*,#214,.T.);
#274=ORIENTED_EDGE('',*,*,#215,.T.);
#275=ORIENTED_EDGE('',*,*,#211,.F.);
#276=ORIENTED_EDGE('',*,*,#216,.T.);
#277=ORIENTED_EDGE('',*,*,#217,.T.);
#278=ORIENTED_EDGE('',*,*,#218,.T.);
#279=ORIENTED_EDGE('',*,*,#214,.F.);
#280=ORIENTED_EDGE('',*,*,#219,.T.);
#281=ORIENTED_EDGE('',*,*,#206,.F.);
#282=ORIENTED_EDGE('',*,*,#220,.T.);
#283=ORIENTED_EDGE('',*,*,#217,.F.);
#284=ORIENTED_EDGE('',*,*,#221,.T.);
#285=ORIENTED_EDGE('',*,*,#213,.F.);
#286=ORIENTED_EDGE('',*,*,#222,.T.);
#287=ORIENTED_EDGE('',*,*,#223,.F.);
#288=ORIENTED_EDGE('',*,*,#224,.T.);
#289=ORIENTED_EDGE('',*,*,#210,.F.);
#290=ORIENTED_EDGE('',*,*,#225,.F.);
#291=ORIENTED_EDGE('',*,*,#226,.F.);
#292=ORIENTED_EDGE('',*,*,#222,.F.);
#293=ORIENTED_EDGE('',*,*,#207,.F.);
#294=ORIENTED_EDGE('',*,*,#227,.F.);
#295=ORIENTED_EDGE('',*,*,#228,.F.);
#296=ORIENTED_EDGE('',*,*,#225,.T.);
#297=ORIENTED_EDGE('',*,*,#205,.F.);
#298=ORIENTED_EDGE('',*,*,#209,.F.);
#299=ORIENTED_EDGE('',*,*,#212,.F.);
#300=ORIENTED_EDGE('',*,*,#215,.F.);
#301=ORIENTED_EDGE('',*,*,#218,.F.);
#302=ORIENTED_EDGE('',*,*,#220,.F.);
#303=ORIENTED_EDGE('',*,*,#229,.F.);
#304=ORIENTED_EDGE('',*,*,#230,.T.);
#305=ORIENTED_EDGE('',*,*,#231,.T.);
#306=ORIENTED_EDGE('',*,*,#232,.T.);
#307=ORIENTED_EDGE('',*,*,#233,.T.);
#308=ORIENTED_EDGE('',*,*,#234,.T.);
#309=ORIENTED_EDGE('',*,*,#235,.T.);
#310=ORIENTED_EDGE('',*,*,#230,.F.);
#311=ORIENTED_EDGE('',*,*,#236,.T.);
#312=ORIENTED_EDGE('',*,*,#237,.T.);
#313=ORIENTED_EDGE('',*,*,#238,.T.);
#314=ORIENTED_EDGE('',*,*,#234,.F.);
#315=ORIENTED_EDGE('',*,*,#223,.T.);
#316=ORIENTED_EDGE('',*,*,#239,.T.);
#317=ORIENTED_EDGE('',*,*,#240,.T.);
#318=ORIENTED_EDGE('',*,*,#237,.F.);
#319=ORIENTED_EDGE('',*,*,#226,.T.);
#320=ORIENTED_EDGE('',*,*,#241,.T.);
#321=ORIENTED_EDGE('',*,*,#242,.T.);
#322=ORIENTED_EDGE('',*,*,#239,.F.);
#323=ORIENTED_EDGE('',*,*,#228,.T.);
#324=ORIENTED_EDGE('',*,*,#232,.F.);
#325=ORIENTED_EDGE('',*,*,#243,.T.);
#326=ORIENTED_EDGE('',*,*,#241,.F.);
#327=ORIENTED_EDGE('',*,*,#244,.T.);
#328=ORIENTED_EDGE('',*,*,#216,.F.);
#329=ORIENTED_EDGE('',*,*,#224,.F.);
#330=ORIENTED_EDGE('',*,*,#236,.F.);
#331=ORIENTED_EDGE('',*,*,#245,.T.);
#332=ORIENTED_EDGE('',*,*,#219,.F.);
#333=ORIENTED_EDGE('',*,*,#245,.F.);
#334=ORIENTED_EDGE('',*,*,#233,.F.);
#335=ORIENTED_EDGE('',*,*,#246,.T.);
#336=ORIENTED_EDGE('',*,*,#231,.F.);
#337=ORIENTED_EDGE('',*,*,#235,.F.);
#338=ORIENTED_EDGE('',*,*,#238,.F.);
#339=ORIENTED_EDGE('',*,*,#240,.F.);
#340=ORIENTED_EDGE('',*,*,#242,.F.);
#341=ORIENTED_EDGE('',*,*,#243,.F.);
#342=ORIENTED_EDGE('',*,*,#247,.T.);
#343=ORIENTED_EDGE('',*,*,#248,.T.);
#344=ORIENTED_EDGE('',*,*,#249,.T.);
#345=ORIENTED_EDGE('',*,*,#250,.T.);
#346=ORIENTED_EDGE('',*,*,#251,.T.);
#347=ORIENTED_EDGE('',*,*,#221,.F.);
#348=ORIENTED_EDGE('',*,*,#246,.F.);
#349=ORIENTED_EDGE('',*,*,#244,.F.);
#350=ORIENTED_EDGE('',*,*,#227,.T.);
#351=ORIENTED_EDGE('',*,*,#252,.T.);
#352=ORIENTED_EDGE('',*,*,#253,.F.);
#353=ORIENTED_EDGE('',*,*,#254,.F.);
#354=ORIENTED_EDGE('',*,*,#255,.F.);
#355=ORIENTED_EDGE('',*,*,#255,.T.);
#356=ORIENTED_EDGE('',*,*,#256,.T.);
#357=ORIENTED_EDGE('',*,*,#249,.F.);
#358=ORIENTED_EDGE('',*,*,#257,.F.);
#359=ORIENTED_EDGE('',*,*,#254,.T.);
#360=ORIENTED_EDGE('',*,*,#258,.T.);
#361=ORIENTED_EDGE('',*,*,#250,.F.);
#362=ORIENTED_EDGE('',*,*,#256,.F.);
#363=ORIENTED_EDGE('',*,*,#253,.T.);
#364=ORIENTED_EDGE('',*,*,#259,.T.);
#365=ORIENTED_EDGE('',*,*,#251,.F.);
#366=ORIENTED_EDGE('',*,*,#258,.F.);
#367=ORIENTED_EDGE('',*,*,#257,.T.);
#368=ORIENTED_EDGE('',*,*,#248,.F.);
#369=ORIENTED_EDGE('',*,*,#260,.T.);
#370=ORIENTED_EDGE('',*,*,#229,.T.);
#371=ORIENTED_EDGE('',*,*,#260,.F.);
#372=ORIENTED_EDGE('',*,*,#247,.F.);
#373=ORIENTED_EDGE('',*,*,#259,.F.);
#374=ORIENTED_EDGE('',*,*,#252,.F.);
#375=B_SPLINE_SURFACE_WITH_KNOTS('',3,3,((#579,#580,#581,#582,#583,#584,
#585,#586,#587,#588),(#589,#590,#591,#592,#593,#594,#595,#596,#597,#598),
(#599,#600,#601,#602,#603,#604,#605,#606,#607,#608),(#609,#610,#611,#612,
#613,#614,#615,#616,#617,#618),(#619,#620,#621,#622,#623,#624,#625,#626,
#627,#628)),.UNSPECIFIED.,.F.,.F.,.F.,(4,1,4),(4,1,1,1,1,1,1,4),(0.,0.571428571428571,
1.),(0.,0.435883217453669,0.871766434907338,1.74353286981468,2.61529930472201,
4.35883217453669,5.23059860944403,6.10236504435137),.UNSPECIFIED.);
#376=B_SPLINE_SURFACE_WITH_KNOTS('',3,3,((#673,#674,#675,#676,#677,#678,
#679,#680,#681),(#682,#683,#684,#685,#686,#687,#688,#689,#690),(#691,#692,
#693,#694,#695,#696,#697,#698,#699),(#700,#701,#702,#703,#704,#705,#706,
#707,#708),(#709,#710,#711,#712,#713,#714,#715,#716,#717)),
 .UNSPECIFIED.,.F.,.F.,.F.,(4,1,4),(4,1,1,1,1,1,4),(0.,0.571428571428571,
1.),(4.24357725930678E-16,0.872062332628971,2.61618699788691,4.36031166314485,
5.23237399577382,5.66840516208831,6.10443632840279),.UNSPECIFIED.);
#377=B_SPLINE_SURFACE_WITH_KNOTS('',3,3,((#816,#817,#818,#819,#820,#821,
#822,#823,#824,#825),(#826,#827,#828,#829,#830,#831,#832,#833,#834,#835),
(#836,#837,#838,#839,#840,#841,#842,#843,#844,#845),(#846,#847,#848,#849,
#850,#851,#852,#853,#854,#855),(#856,#857,#858,#859,#860,#861,#862,#863,
#864,#865)),.UNSPECIFIED.,.F.,.F.,.F.,(4,1,4),(4,1,1,1,1,1,1,4),(0.,0.571428571428571,
1.),(0.,0.435883217453669,0.871766434907338,1.74353286981468,2.61529930472201,
4.35883217453669,5.23059860944403,6.10236504435137),.UNSPECIFIED.);
#378=B_SPLINE_SURFACE_WITH_KNOTS('',3,3,((#905,#906,#907,#908,#909,#910,
#911,#912,#913),(#914,#915,#916,#917,#918,#919,#920,#921,#922),(#923,#924,
#925,#926,#927,#928,#929,#930,#931),(#932,#933,#934,#935,#936,#937,#938,
#939,#940),(#941,#942,#943,#944,#945,#946,#947,#948,#949)),
 .UNSPECIFIED.,.F.,.F.,.F.,(4,1,4),(4,1,1,1,1,1,4),(0.,0.571428571428571,
1.),(9.61323328797981E-35,0.87206233262897,2.61618699788691,4.36031166314485,
5.23237399577382,5.66840516208831,6.10443632840279),.UNSPECIFIED.);
#379=ADVANCED_FACE('',(#84),#375,.F.);
#380=ADVANCED_FACE('',(#85),#76,.T.);
#381=ADVANCED_FACE('',(#86),#26,.T.);
#382=ADVANCED_FACE('',(#87),#77,.T.);
#383=ADVANCED_FACE('',(#88),#376,.F.);
#384=ADVANCED_FACE('',(#89),#27,.T.);
#385=ADVANCED_FACE('',(#90),#78,.T.);
#386=ADVANCED_FACE('',(#91),#19,.T.);
#387=ADVANCED_FACE('',(#92),#17,.F.);
#388=ADVANCED_FACE('',(#93,#15),#20,.F.);
#389=ADVANCED_FACE('',(#94),#377,.F.);
#390=ADVANCED_FACE('',(#95),#79,.T.);
#391=ADVANCED_FACE('',(#96),#28,.T.);
#392=ADVANCED_FACE('',(#97),#80,.T.);
#393=ADVANCED_FACE('',(#98),#378,.F.);
#394=ADVANCED_FACE('',(#99),#29,.T.);
#395=ADVANCED_FACE('',(#100),#21,.T.);
#396=ADVANCED_FACE('',(#101),#18,.F.);
#397=ADVANCED_FACE('',(#102,#16),#22,.T.);
#398=ADVANCED_FACE('',(#103),#81,.T.);
#399=ADVANCED_FACE('',(#104),#23,.T.);
#400=ADVANCED_FACE('',(#105),#24,.T.);
#401=ADVANCED_FACE('',(#106),#82,.F.);
#402=ADVANCED_FACE('',(#107),#25,.T.);
#403=ADVANCED_FACE('',(#108),#83,.F.);
#404=CLOSED_SHELL('',(#379,#380,#381,#382,#383,#384,#385,#386,#387,#388,
#389,#390,#391,#392,#393,#394,#395,#396,#397,#398,#399,#400,#401,#402,#403));
#405=DERIVED_UNIT_ELEMENT(#407,1.);
#406=DERIVED_UNIT_ELEMENT(#1052,-3.);
#407=(
MASS_UNIT()
NAMED_UNIT(*)
SI_UNIT(.KILO.,.GRAM.)
);
#408=DERIVED_UNIT((#405,#406));
#409=MEASURE_REPRESENTATION_ITEM('density measure',
POSITIVE_RATIO_MEASURE(7850.),#408);
#410=PROPERTY_DEFINITION_REPRESENTATION(#415,#412);
#411=PROPERTY_DEFINITION_REPRESENTATION(#416,#413);
#412=REPRESENTATION('material name',(#414),#1049);
#413=REPRESENTATION('density',(#409),#1049);
#414=DESCRIPTIVE_REPRESENTATION_ITEM('\X2\AC15CCA0\X0\','\X2\AC15CCA0\X0\');
#415=PROPERTY_DEFINITION('material property','material name',#1059);
#416=PROPERTY_DEFINITION('material property','density of part',#1059);
#417=AXIS2_PLACEMENT_3D('',#578,#463,#464);
#418=AXIS2_PLACEMENT_3D('',#631,#465,#466);
#419=AXIS2_PLACEMENT_3D('',#644,#467,#468);
#420=AXIS2_PLACEMENT_3D('',#655,#469,#470);
#421=AXIS2_PLACEMENT_3D('',#658,#471,#472);
#422=AXIS2_PLACEMENT_3D('',#661,#475,#476);
#423=AXIS2_PLACEMENT_3D('',#664,#477,#478);
#424=AXIS2_PLACEMENT_3D('',#665,#479,#480);
#425=AXIS2_PLACEMENT_3D('',#666,#481,#482);
#426=AXIS2_PLACEMENT_3D('',#667,#483,#484);
#427=AXIS2_PLACEMENT_3D('',#670,#485,#486);
#428=AXIS2_PLACEMENT_3D('',#720,#489,#490);
#429=AXIS2_PLACEMENT_3D('',#739,#491,#492);
#430=AXIS2_PLACEMENT_3D('',#740,#493,#494);
#431=AXIS2_PLACEMENT_3D('',#741,#495,#496);
#432=AXIS2_PLACEMENT_3D('',#742,#497,#498);
#433=AXIS2_PLACEMENT_3D('',#746,#500,#501);
#434=AXIS2_PLACEMENT_3D('',#748,#503,#504);
#435=AXIS2_PLACEMENT_3D('',#813,#508,#509);
#436=AXIS2_PLACEMENT_3D('',#815,#510,#511);
#437=AXIS2_PLACEMENT_3D('',#868,#512,#513);
#438=AXIS2_PLACEMENT_3D('',#881,#514,#515);
#439=AXIS2_PLACEMENT_3D('',#892,#516,#517);
#440=AXIS2_PLACEMENT_3D('',#894,#518,#519);
#441=AXIS2_PLACEMENT_3D('',#897,#522,#523);
#442=AXIS2_PLACEMENT_3D('',#899,#524,#525);
#443=AXIS2_PLACEMENT_3D('',#900,#526,#527);
#444=AXIS2_PLACEMENT_3D('',#901,#528,#529);
#445=AXIS2_PLACEMENT_3D('',#903,#530,#531);
#446=AXIS2_PLACEMENT_3D('',#951,#533,#534);
#447=AXIS2_PLACEMENT_3D('',#961,#535,#536);
#448=AXIS2_PLACEMENT_3D('',#962,#537,#538);
#449=AXIS2_PLACEMENT_3D('',#963,#539,#540);
#450=AXIS2_PLACEMENT_3D('',#964,#541,#542);
#451=AXIS2_PLACEMENT_3D('',#1017,#545,#546);
#452=AXIS2_PLACEMENT_3D('',#1020,#547,#548);
#453=AXIS2_PLACEMENT_3D('',#1022,#549,#550);
#454=AXIS2_PLACEMENT_3D('',#1026,#552,#553);
#455=AXIS2_PLACEMENT_3D('',#1028,#555,#556);
#456=AXIS2_PLACEMENT_3D('',#1029,#557,#558);
#457=AXIS2_PLACEMENT_3D('',#1032,#559,#560);
#458=AXIS2_PLACEMENT_3D('',#1036,#562,#563);
#459=AXIS2_PLACEMENT_3D('',#1038,#565,#566);
#460=AXIS2_PLACEMENT_3D('',#1041,#569,#570);
#461=AXIS2_PLACEMENT_3D('',#1043,#572,#573);
#462=AXIS2_PLACEMENT_3D('',#1045,#575,#576);
#463=DIRECTION('axis',(0.,0.,1.));
#464=DIRECTION('refdir',(1.,0.,0.));
#465=DIRECTION('center_axis',(1.,0.,0.));
#466=DIRECTION('ref_axis',(0.,-1.,0.));
#467=DIRECTION('center_axis',(-0.976104297789989,-0.217302553680146,0.));
#468=DIRECTION('ref_axis',(0.,0.,-1.));
#469=DIRECTION('center_axis',(1.,0.,0.));
#470=DIRECTION('ref_axis',(0.,-0.707106781186548,-0.707106781186547));
#471=DIRECTION('center_axis',(1.,0.,0.));
#472=DIRECTION('ref_axis',(0.,-1.,0.));
#473=DIRECTION('',(1.,0.,0.));
#474=DIRECTION('',(-1.,0.,0.));
#475=DIRECTION('center_axis',(0.,0.,1.));
#476=DIRECTION('ref_axis',(-1.,1.77635683940025E-16,0.));
#477=DIRECTION('center_axis',(-1.,0.,0.));
#478=DIRECTION('ref_axis',(0.,1.,0.));
#479=DIRECTION('center_axis',(0.,0.,1.));
#480=DIRECTION('ref_axis',(-1.,0.,0.));
#481=DIRECTION('center_axis',(0.,0.,-1.));
#482=DIRECTION('ref_axis',(-1.,0.,0.));
#483=DIRECTION('center_axis',(-1.,0.,0.));
#484=DIRECTION('ref_axis',(0.,0.707106781186548,-0.707106781186547));
#485=DIRECTION('center_axis',(-1.,-4.44089209850062E-15,0.));
#486=DIRECTION('ref_axis',(-4.44089209850062E-15,1.,-2.77555756156289E-16));
#487=DIRECTION('',(-1.,0.,0.));
#488=DIRECTION('',(1.,0.,0.));
#489=DIRECTION('center_axis',(-0.976104297789989,0.217302553680146,0.));
#490=DIRECTION('ref_axis',(0.217302553680146,0.976104297789989,0.));
#491=DIRECTION('center_axis',(0.,0.,-1.));
#492=DIRECTION('ref_axis',(1.,0.,0.));
#493=DIRECTION('center_axis',(0.,0.,1.));
#494=DIRECTION('ref_axis',(1.,7.5880723364862E-16,0.));
#495=DIRECTION('center_axis',(0.,0.,-1.));
#496=DIRECTION('ref_axis',(1.,7.5880723364862E-16,0.));
#497=DIRECTION('center_axis',(0.,0.,1.));
#498=DIRECTION('ref_axis',(-0.707106781186547,0.707106781186547,0.));
#499=DIRECTION('',(0.,0.,1.));
#500=DIRECTION('center_axis',(0.,0.,1.));
#501=DIRECTION('ref_axis',(-1.,-1.11022302462516E-16,0.));
#502=DIRECTION('',(0.,0.,-1.));
#503=DIRECTION('center_axis',(0.,-1.,0.));
#504=DIRECTION('ref_axis',(1.,0.,0.));
#505=DIRECTION('',(0.,0.,-1.));
#506=DIRECTION('',(1.,0.,0.));
#507=DIRECTION('',(0.,0.,-1.));
#508=DIRECTION('center_axis',(0.,0.,1.));
#509=DIRECTION('ref_axis',(1.,0.,0.));
#510=DIRECTION('center_axis',(0.,0.,1.));
#511=DIRECTION('ref_axis',(1.,0.,0.));
#512=DIRECTION('center_axis',(1.,0.,0.));
#513=DIRECTION('ref_axis',(0.,1.,0.));
#514=DIRECTION('center_axis',(-0.976104297789989,0.217302553680146,0.));
#515=DIRECTION('ref_axis',(0.,0.,1.));
#516=DIRECTION('center_axis',(-1.,0.,0.));
#517=DIRECTION('ref_axis',(0.,0.707106781186548,0.707106781186547));
#518=DIRECTION('center_axis',(1.,0.,0.));
#519=DIRECTION('ref_axis',(0.,1.,0.));
#520=DIRECTION('',(1.,0.,0.));
#521=DIRECTION('',(-1.,0.,0.));
#522=DIRECTION('center_axis',(0.,0.,-1.));
#523=DIRECTION('ref_axis',(-1.,0.,0.));
#524=DIRECTION('center_axis',(-1.,1.11022302462516E-15,0.));
#525=DIRECTION('ref_axis',(-1.11022302462516E-15,-1.,0.));
#526=DIRECTION('center_axis',(0.,0.,-1.));
#527=DIRECTION('ref_axis',(-1.,-1.11022302462516E-16,0.));
#528=DIRECTION('center_axis',(1.,0.,0.));
#529=DIRECTION('ref_axis',(0.,-0.707106781186548,0.707106781186548));
#530=DIRECTION('center_axis',(-1.,0.,0.));
#531=DIRECTION('ref_axis',(0.,-1.,0.));
#532=DIRECTION('',(-1.,0.,0.));
#533=DIRECTION('center_axis',(-0.976104297789989,-0.217302553680146,0.));
#534=DIRECTION('ref_axis',(0.217302553680146,-0.976104297789989,0.));
#535=DIRECTION('center_axis',(0.,0.,1.));
#536=DIRECTION('ref_axis',(1.,0.,0.));
#537=DIRECTION('center_axis',(0.,0.,-1.));
#538=DIRECTION('ref_axis',(1.,7.5880723364862E-16,0.));
#539=DIRECTION('center_axis',(0.,0.,1.));
#540=DIRECTION('ref_axis',(1.,7.5880723364862E-16,0.));
#541=DIRECTION('center_axis',(0.,1.,0.));
#542=DIRECTION('ref_axis',(-1.,0.,0.));
#543=DIRECTION('',(0.,0.,-1.));
#544=DIRECTION('',(0.,0.,-1.));
#545=DIRECTION('center_axis',(0.,0.,1.));
#546=DIRECTION('ref_axis',(1.,0.,0.));
#547=DIRECTION('center_axis',(0.,0.,1.));
#548=DIRECTION('ref_axis',(1.,0.,0.));
#549=DIRECTION('center_axis',(0.,0.,1.));
#550=DIRECTION('ref_axis',(1.,0.,0.));
#551=DIRECTION('',(-0.996366147870238,0.0851733489902997,0.));
#552=DIRECTION('center_axis',(0.,0.,1.));
#553=DIRECTION('ref_axis',(1.,0.,0.));
#554=DIRECTION('',(0.996366147870237,0.0851733489903047,0.));
#555=DIRECTION('center_axis',(0.,0.,-1.));
#556=DIRECTION('ref_axis',(0.217302553680145,-0.976104297789989,0.));
#557=DIRECTION('center_axis',(0.,0.,1.));
#558=DIRECTION('ref_axis',(1.,0.,0.));
#559=DIRECTION('center_axis',(0.,0.,1.));
#560=DIRECTION('ref_axis',(1.,0.,0.));
#561=DIRECTION('',(0.996366147870237,0.0851733489903047,0.));
#562=DIRECTION('center_axis',(0.,0.,1.));
#563=DIRECTION('ref_axis',(1.,0.,0.));
#564=DIRECTION('',(-0.996366147870238,0.0851733489902997,0.));
#565=DIRECTION('center_axis',(-0.0851733489902997,-0.996366147870238,0.));
#566=DIRECTION('ref_axis',(0.996366147870238,-0.0851733489902997,0.));
#567=DIRECTION('',(0.,0.,1.));
#568=DIRECTION('',(0.,0.,1.));
#569=DIRECTION('center_axis',(0.,0.,1.));
#570=DIRECTION('ref_axis',(1.,0.,0.));
#571=DIRECTION('',(0.,0.,1.));
#572=DIRECTION('center_axis',(-0.0851733489903047,0.996366147870237,0.));
#573=DIRECTION('ref_axis',(-0.996366147870237,-0.0851733489903047,0.));
#574=DIRECTION('',(0.,0.,1.));
#575=DIRECTION('center_axis',(0.,0.,1.));
#576=DIRECTION('ref_axis',(1.,0.,0.));
#577=DIRECTION('',(0.,0.,-1.));
#578=CARTESIAN_POINT('',(0.,0.,0.));
#579=CARTESIAN_POINT('Ctrl Pts',(55.41929128935,4.28738463321586,1.));
#580=CARTESIAN_POINT('Ctrl Pts',(53.939943654536,3.9580489059236,1.));
#581=CARTESIAN_POINT('Ctrl Pts',(51.0226310387051,3.5464961618268,1.));
#582=CARTESIAN_POINT('Ctrl Pts',(45.2035903126461,2.96575457609769,1.));
#583=CARTESIAN_POINT('Ctrl Pts',(37.951970336049,2.43702890458484,1.));
#584=CARTESIAN_POINT('Ctrl Pts',(26.3555665541275,1.60066934637961,1.));
#585=CARTESIAN_POINT('Ctrl Pts',(14.7610183138288,0.823580665244977,0.999999999999999));
#586=CARTESIAN_POINT('Ctrl Pts',(3.13570989474182,0.204157675207045,1.));
#587=CARTESIAN_POINT('Ctrl Pts',(-2.68897435681644,-5.70197743955667E-33,
1.));
#588=CARTESIAN_POINT('Ctrl Pts',(-5.62461203503668,0.,1.));
#589=CARTESIAN_POINT('Ctrl Pts',(55.41929128935,4.28738463321586,0.700800699658115));
#590=CARTESIAN_POINT('Ctrl Pts',(53.9397483160021,3.95800541921594,0.700800699658115));
#591=CARTESIAN_POINT('Ctrl Pts',(51.0225409673956,3.54647989193312,0.700800699658115));
#592=CARTESIAN_POINT('Ctrl Pts',(45.2034889077764,2.9657393090274,0.700800699658115));
#593=CARTESIAN_POINT('Ctrl Pts',(37.9519679527758,2.4370290957876,0.700800699658115));
#594=CARTESIAN_POINT('Ctrl Pts',(26.3555471867871,1.60066757350842,0.700800699658115));
#595=CARTESIAN_POINT('Ctrl Pts',(14.7610567686203,0.823582133659047,0.700800699658115));
#596=CARTESIAN_POINT('Ctrl Pts',(3.13569299767054,0.204157321282434,0.700800699658115));
#597=CARTESIAN_POINT('Ctrl Pts',(-2.68887928188919,-5.70216210645011E-33,
0.700800699658115));
#598=CARTESIAN_POINT('Ctrl Pts',(-5.62461203503668,0.,0.700800699658115));
#599=CARTESIAN_POINT('Ctrl Pts',(55.3647031896098,4.53258966123902,0.182894421537265));
#600=CARTESIAN_POINT('Ctrl Pts',(53.9007619919851,4.20668374995305,0.182894421537264));
#601=CARTESIAN_POINT('Ctrl Pts',(50.9936193999888,3.79601139320717,0.182894421537264));
#602=CARTESIAN_POINT('Ctrl Pts',(45.1842443473307,3.21635565014455,0.182894421537264));
#603=CARTESIAN_POINT('Ctrl Pts',(37.9337352866606,2.68752232277442,0.182894421537264));
#604=CARTESIAN_POINT('Ctrl Pts',(26.3381955342816,1.85130253442532,0.182894421537264));
#605=CARTESIAN_POINT('Ctrl Pts',(14.7450106390665,1.0742979466297,0.182894421537264));
#606=CARTESIAN_POINT('Ctrl Pts',(3.12436380390568,0.455096449368895,0.182894421537263));
#607=CARTESIAN_POINT('Ctrl Pts',(-2.69647295868464,0.251207815167226,0.182894421537264));
#608=CARTESIAN_POINT('Ctrl Pts',(-5.62461203503668,0.251207815167226,0.182894421537264));
#609=CARTESIAN_POINT('Ctrl Pts',(55.2507513146876,5.04445163878624,5.68852017267734E-16));
#610=CARTESIAN_POINT('Ctrl Pts',(53.8188385311512,4.72567596572118,5.10834410226375E-16));
#611=CARTESIAN_POINT('Ctrl Pts',(50.9329970153027,4.31685983884236,1.84372575392638E-16));
#612=CARTESIAN_POINT('Ctrl Pts',(45.143791240974,3.73947145597592,5.78815199311025E-17));
#613=CARTESIAN_POINT('Ctrl Pts',(37.8956682685303,3.21042386841216,-1.91773306165664E-16));
#614=CARTESIAN_POINT('Ctrl Pts',(26.3019206621417,2.37449451736803,-1.11104449298325E-16));
#615=CARTESIAN_POINT('Ctrl Pts',(14.7116208930637,1.59766766852826,-2.72900584861097E-16));
#616=CARTESIAN_POINT('Ctrl Pts',(3.10066755773109,0.97892729999443,-6.04035692212816E-16));
#617=CARTESIAN_POINT('Ctrl Pts',(-2.71206178839042,0.775600524743586,-2.13988558372439E-16));
#618=CARTESIAN_POINT('Ctrl Pts',(-5.62461203503668,0.775600524743586,-2.13988558372439E-16));
#619=CARTESIAN_POINT('Ctrl Pts',(55.2019887356699,5.26348893100585,5.55111512312578E-16));
#620=CARTESIAN_POINT('Ctrl Pts',(53.783763796033,4.94776047680918,4.97141020471488E-16));
#621=CARTESIAN_POINT('Ctrl Pts',(50.9070471038748,4.53974115788478,1.52431419040333E-16));
#622=CARTESIAN_POINT('Ctrl Pts',(45.1264711840129,3.96332312119027,-2.47900000536444E-19));
#623=CARTESIAN_POINT('Ctrl Pts',(37.8793783147232,3.43418525842537,-1.98209594943943E-16));
#624=CARTESIAN_POINT('Ctrl Pts',(26.2863960571511,2.59838001270952,-1.55175210119779E-16));
#625=CARTESIAN_POINT('Ctrl Pts',(14.697336178685,1.82162951835804,-2.82261750553997E-16));
#626=CARTESIAN_POINT('Ctrl Pts',(3.09052585624595,1.20308631080679,-4.44031467571964E-16));
#627=CARTESIAN_POINT('Ctrl Pts',(-2.71872391867889,1.,-2.77555756156289E-16));
#628=CARTESIAN_POINT('Ctrl Pts',(-5.62461203503668,1.,-2.77555756156289E-16));
#629=CARTESIAN_POINT('',(-5.62461203503668,1.27464659579618E-31,1.));
#630=CARTESIAN_POINT('',(-5.62461203503668,1.,0.));
#631=CARTESIAN_POINT('Origin',(-5.62461203503668,1.,1.));
#632=CARTESIAN_POINT('',(55.2019887356699,5.26348893100585,0.));
#633=CARTESIAN_POINT('Ctrl Pts',(-5.62461203503668,1.,-2.77555756156289E-16));
#634=CARTESIAN_POINT('Ctrl Pts',(-2.71872391867889,1.,-2.77555756156289E-16));
#635=CARTESIAN_POINT('Ctrl Pts',(3.09052585624595,1.20308631080679,-4.44031467571964E-16));
#636=CARTESIAN_POINT('Ctrl Pts',(14.697336178685,1.82162951835804,-2.82261750553997E-16));
#637=CARTESIAN_POINT('Ctrl Pts',(26.2863960571511,2.59838001270952,-1.55175210119779E-16));
#638=CARTESIAN_POINT('Ctrl Pts',(37.8793783147232,3.43418525842537,-1.98209594943943E-16));
#639=CARTESIAN_POINT('Ctrl Pts',(45.1264711840129,3.96332312119027,-2.47900000536444E-19));
#640=CARTESIAN_POINT('Ctrl Pts',(50.9070471038748,4.53974115788478,1.52431419040333E-16));
#641=CARTESIAN_POINT('Ctrl Pts',(53.783763796033,4.94776047680918,4.97141020471488E-16));
#642=CARTESIAN_POINT('Ctrl Pts',(55.2019887356699,5.26348893100585,5.55111512312578E-16));
#643=CARTESIAN_POINT('',(55.41929128935,4.28738463321586,1.));
#644=CARTESIAN_POINT('Origin',(55.2019887356699,5.26348893100585,1.));
#645=CARTESIAN_POINT('Ctrl Pts',(55.41929128935,4.28738463321586,1.));
#646=CARTESIAN_POINT('Ctrl Pts',(53.939943654536,3.9580489059236,1.));
#647=CARTESIAN_POINT('Ctrl Pts',(51.0226310387051,3.5464961618268,1.));
#648=CARTESIAN_POINT('Ctrl Pts',(45.2035903126461,2.96575457609769,1.));
#649=CARTESIAN_POINT('Ctrl Pts',(37.951970336049,2.43702890458484,1.));
#650=CARTESIAN_POINT('Ctrl Pts',(26.3555665541275,1.60066934637961,1.));
#651=CARTESIAN_POINT('Ctrl Pts',(14.7610183138288,0.823580665244977,0.999999999999999));
#652=CARTESIAN_POINT('Ctrl Pts',(3.13570989474182,0.204157675207045,1.));
#653=CARTESIAN_POINT('Ctrl Pts',(-2.68897435681644,-5.70197743955667E-33,
1.));
#654=CARTESIAN_POINT('Ctrl Pts',(-5.62461203503668,0.,1.));
#655=CARTESIAN_POINT('Origin',(0.,1.,1.));
#656=CARTESIAN_POINT('',(-10.,0.,1.));
#657=CARTESIAN_POINT('',(-10.,1.,0.));
#658=CARTESIAN_POINT('Origin',(-10.,1.,1.));
#659=CARTESIAN_POINT('',(0.,1.,0.));
#660=CARTESIAN_POINT('',(0.,0.,1.));
#661=CARTESIAN_POINT('Origin',(-10.,10.,1.));
#662=CARTESIAN_POINT('',(-10.,20.,1.));
#663=CARTESIAN_POINT('',(-10.,19.,0.));
#664=CARTESIAN_POINT('Origin',(-10.,19.,1.));
#665=CARTESIAN_POINT('Origin',(-10.,10.,0.));
#666=CARTESIAN_POINT('Origin',(-10.,10.,1.));
#667=CARTESIAN_POINT('Origin',(40.,19.,1.));
#668=CARTESIAN_POINT('',(-5.62461203503668,20.,1.));
#669=CARTESIAN_POINT('',(-5.62461203503668,19.,0.));
#670=CARTESIAN_POINT('Origin',(-5.62461203503668,19.,1.));
#671=CARTESIAN_POINT('',(40.,19.,0.));
#672=CARTESIAN_POINT('',(40.,20.,1.));
#673=CARTESIAN_POINT('Ctrl Pts',(-5.62461203503668,20.,1.));
#674=CARTESIAN_POINT('Ctrl Pts',(-2.68797793338725,20.,1.));
#675=CARTESIAN_POINT('Ctrl Pts',(6.05150327572706,19.6872834966599,0.999999999999999));
#676=CARTESIAN_POINT('Ctrl Pts',(20.5728150984913,18.8076733776789,1.));
#677=CARTESIAN_POINT('Ctrl Pts',(35.0656674183346,17.775522461258,0.999999999999999));
#678=CARTESIAN_POINT('Ctrl Pts',(45.1986881927109,17.0341745121557,1.));
#679=CARTESIAN_POINT('Ctrl Pts',(51.0257251599421,16.4537129461132,1.));
#680=CARTESIAN_POINT('Ctrl Pts',(53.9394415296811,16.042062878251,1.));
#681=CARTESIAN_POINT('Ctrl Pts',(55.41929128935,15.7126153667841,1.));
#682=CARTESIAN_POINT('Ctrl Pts',(-5.62461203503668,20.,0.700800699658115));
#683=CARTESIAN_POINT('Ctrl Pts',(-2.68788282618936,20.,0.700800699658115));
#684=CARTESIAN_POINT('Ctrl Pts',(6.05149286251356,19.6872823513835,0.700800699658114));
#685=CARTESIAN_POINT('Ctrl Pts',(20.5728316873582,18.8076747439528,0.700800699658115));
#686=CARTESIAN_POINT('Ctrl Pts',(35.0656598824543,17.7755210753083,0.700800699658115));
#687=CARTESIAN_POINT('Ctrl Pts',(45.198571881651,17.0341924404068,0.700800699658114));
#688=CARTESIAN_POINT('Ctrl Pts',(51.0256123301052,16.4537331684435,0.700800699658115));
#689=CARTESIAN_POINT('Ctrl Pts',(53.9392461248448,16.0421063797191,0.700800699658115));
#690=CARTESIAN_POINT('Ctrl Pts',(55.41929128935,15.7126153667841,0.700800699658115));
#691=CARTESIAN_POINT('Ctrl Pts',(-5.62461203503669,19.7487721063258,0.182918512914043));
#692=CARTESIAN_POINT('Ctrl Pts',(-2.69547908045463,19.7487721063258,0.182918512914043));
#693=CARTESIAN_POINT('Ctrl Pts',(6.03814319535203,19.4364542731384,0.182918512914043));
#694=CARTESIAN_POINT('Ctrl Pts',(20.5557557101249,18.5569465534526,0.182918512914044));
#695=CARTESIAN_POINT('Ctrl Pts',(35.047762601092,17.525023882975,0.182918512914044));
#696=CARTESIAN_POINT('Ctrl Pts',(45.1793862796387,16.7835502553834,0.182918512914044));
#697=CARTESIAN_POINT('Ctrl Pts',(50.9967297944672,16.2041613035971,0.182918512914044));
#698=CARTESIAN_POINT('Ctrl Pts',(53.900260733321,15.7934072713456,0.182918512914044));
#699=CARTESIAN_POINT('Ctrl Pts',(55.3646988264989,15.467390740044,0.182918512914044));
#700=CARTESIAN_POINT('Ctrl Pts',(-5.62461203503668,19.2243994752564,-1.09648251967E-15));
#701=CARTESIAN_POINT('Ctrl Pts',(-2.7110732013703,19.2243994752564,-1.09648251967E-15));
#702=CARTESIAN_POINT('Ctrl Pts',(6.01025066576602,18.9129130085131,-8.15760942663951E-16));
#703=CARTESIAN_POINT('Ctrl Pts',(20.5201596039737,18.0336206728088,1.18917513864186E-16));
#704=CARTESIAN_POINT('Ctrl Pts',(35.0103860127657,17.0021725956281,-3.957782321396E-16));
#705=CARTESIAN_POINT('Ctrl Pts',(45.1390220622618,16.2604493525939,-6.67080343003174E-17));
#706=CARTESIAN_POINT('Ctrl Pts',(50.9361353162887,15.6833007121314,4.68471269052061E-17));
#707=CARTESIAN_POINT('Ctrl Pts',(53.8183525067836,15.2744322341264,2.78665519462183E-16));
#708=CARTESIAN_POINT('Ctrl Pts',(55.2507513146876,14.9555483612138,5.68852017267734E-16));
#709=CARTESIAN_POINT('Ctrl Pts',(-5.62461203503668,19.,-1.11022302462516E-15));
#710=CARTESIAN_POINT('Ctrl Pts',(-2.71773759294012,19.,-1.11022302462516E-15));
#711=CARTESIAN_POINT('Ctrl Pts',(5.99831338697182,18.6888691996855,-8.07024268314757E-16));
#712=CARTESIAN_POINT('Ctrl Pts',(20.5049282029193,17.8096692712664,1.00818974313083E-16));
#713=CARTESIAN_POINT('Ctrl Pts',(34.9943904062681,16.7784240323316,-4.07762999857651E-16));
#714=CARTESIAN_POINT('Ctrl Pts',(45.1217377078781,16.0365957846908,-8.07969361778441E-17));
#715=CARTESIAN_POINT('Ctrl Pts',(50.9101939724985,15.4604060763598,3.32844332286949E-17));
#716=CARTESIAN_POINT('Ctrl Pts',(53.7832824176367,15.0523466887417,2.65160670468319E-16));
#717=CARTESIAN_POINT('Ctrl Pts',(55.2019887356699,14.7365110689942,5.55111512312578E-16));
#718=CARTESIAN_POINT('',(55.41929128935,15.7126153667841,1.));
#719=CARTESIAN_POINT('',(55.2019887356699,14.7365110689942,0.));
#720=CARTESIAN_POINT('Origin',(55.2019887356699,14.7365110689942,1.));
#721=CARTESIAN_POINT('Ctrl Pts',(55.2019887356699,14.7365110689942,5.55111512312578E-16));
#722=CARTESIAN_POINT('Ctrl Pts',(53.7832824176367,15.0523466887417,2.65160670468319E-16));
#723=CARTESIAN_POINT('Ctrl Pts',(50.9101939724985,15.4604060763598,3.32844332286949E-17));
#724=CARTESIAN_POINT('Ctrl Pts',(45.1217377078781,16.0365957846908,-8.07969361778441E-17));
#725=CARTESIAN_POINT('Ctrl Pts',(34.9943904062681,16.7784240323316,-4.07762999857651E-16));
#726=CARTESIAN_POINT('Ctrl Pts',(20.5049282029193,17.8096692712664,1.00818974313083E-16));
#727=CARTESIAN_POINT('Ctrl Pts',(5.99831338697182,18.6888691996855,-8.07024268314757E-16));
#728=CARTESIAN_POINT('Ctrl Pts',(-2.71773759294012,19.,-1.11022302462516E-15));
#729=CARTESIAN_POINT('Ctrl Pts',(-5.62461203503668,19.,-1.11022302462516E-15));
#730=CARTESIAN_POINT('Ctrl Pts',(-5.62461203503668,20.,1.));
#731=CARTESIAN_POINT('Ctrl Pts',(-2.68797793338725,20.,1.));
#732=CARTESIAN_POINT('Ctrl Pts',(6.05150327572706,19.6872834966599,0.999999999999999));
#733=CARTESIAN_POINT('Ctrl Pts',(20.5728150984913,18.8076733776789,1.));
#734=CARTESIAN_POINT('Ctrl Pts',(35.0656674183346,17.775522461258,0.999999999999999));
#735=CARTESIAN_POINT('Ctrl Pts',(45.1986881927109,17.0341745121557,1.));
#736=CARTESIAN_POINT('Ctrl Pts',(51.0257251599421,16.4537129461132,1.));
#737=CARTESIAN_POINT('Ctrl Pts',(53.9394415296811,16.042062878251,1.));
#738=CARTESIAN_POINT('Ctrl Pts',(55.41929128935,15.7126153667841,1.));
#739=CARTESIAN_POINT('Origin',(54.1475358937379,10.,1.));
#740=CARTESIAN_POINT('Origin',(54.1475358937379,10.,0.));
#741=CARTESIAN_POINT('Origin',(54.1475358937379,10.,1.));
#742=CARTESIAN_POINT('Origin',(-10.,10.,0.));
#743=CARTESIAN_POINT('',(-10.,0.,4.1));
#744=CARTESIAN_POINT('',(-10.,0.,0.));
#745=CARTESIAN_POINT('',(-10.,20.,4.1));
#746=CARTESIAN_POINT('Origin',(-10.,10.,4.1));
#747=CARTESIAN_POINT('',(-10.,20.,0.));
#748=CARTESIAN_POINT('Origin',(-20.,0.,0.));
#749=CARTESIAN_POINT('',(-5.62461203503668,1.27464659579618E-31,4.1));
#750=CARTESIAN_POINT('',(-5.62461203503668,1.27464659579618E-31,5.1));
#751=CARTESIAN_POINT('',(0.,0.,4.1));
#752=CARTESIAN_POINT('Ctrl Pts',(-5.62461203503668,1.27464659579618E-31,
5.1));
#753=CARTESIAN_POINT('Ctrl Pts',(-5.62461203503668,1.27464659579618E-31,
-20.9));
#754=CARTESIAN_POINT('Ctrl Pts',(-5.26649028039437,1.26769068914348E-31,
5.1));
#755=CARTESIAN_POINT('Ctrl Pts',(-5.26649028039437,1.26769068914348E-31,
-20.9));
#756=CARTESIAN_POINT('Ctrl Pts',(-4.5186821046619,0.00324922313582861,5.1));
#757=CARTESIAN_POINT('Ctrl Pts',(-4.5186821046619,0.00324922313582861,-20.9));
#758=CARTESIAN_POINT('Ctrl Pts',(-3.30226919198006,0.0178712934305175,5.1));
#759=CARTESIAN_POINT('Ctrl Pts',(-3.30226919198006,0.0178712934305175,-20.9));
#760=CARTESIAN_POINT('Ctrl Pts',(-1.48407051763864,0.0575778797991574,5.1));
#761=CARTESIAN_POINT('Ctrl Pts',(-1.48407051763864,0.0575778797991574,-20.9));
#762=CARTESIAN_POINT('Ctrl Pts',(1.14605315273474,0.14425768692067,5.1));
#763=CARTESIAN_POINT('Ctrl Pts',(1.14605315273474,0.14425768692067,-20.9));
#764=CARTESIAN_POINT('Ctrl Pts',(4.1532620404113,0.270787752594636,5.1));
#765=CARTESIAN_POINT('Ctrl Pts',(4.1532620404113,0.270787752594636,-20.9));
#766=CARTESIAN_POINT('Ctrl Pts',(7.5260646220277,0.437499673251108,5.1));
#767=CARTESIAN_POINT('Ctrl Pts',(7.5260646220277,0.437499673251108,-20.9));
#768=CARTESIAN_POINT('Ctrl Pts',(11.1929758299337,0.639652957622435,5.1));
#769=CARTESIAN_POINT('Ctrl Pts',(11.1929758299337,0.639652957622435,-20.9));
#770=CARTESIAN_POINT('Ctrl Pts',(15.0367219937197,0.868458284178631,5.1));
#771=CARTESIAN_POINT('Ctrl Pts',(15.0367219937197,0.868458284178631,-20.9));
#772=CARTESIAN_POINT('Ctrl Pts',(18.9214301896541,1.11317325580638,5.1));
#773=CARTESIAN_POINT('Ctrl Pts',(18.9214301896541,1.11317325580638,-20.9));
#774=CARTESIAN_POINT('Ctrl Pts',(22.7141764667071,1.36273601960563,5.1));
#775=CARTESIAN_POINT('Ctrl Pts',(22.7141764667071,1.36273601960563,-20.9));
#776=CARTESIAN_POINT('Ctrl Pts',(26.3102558242515,1.60763250521573,5.1));
#777=CARTESIAN_POINT('Ctrl Pts',(26.3102558242515,1.60763250521573,-20.9));
#778=CARTESIAN_POINT('Ctrl Pts',(29.6537489592927,1.84149600941347,5.1));
#779=CARTESIAN_POINT('Ctrl Pts',(29.6537489592927,1.84149600941347,-20.9));
#780=CARTESIAN_POINT('Ctrl Pts',(32.7700051217502,2.06331753751342,5.1));
#781=CARTESIAN_POINT('Ctrl Pts',(32.7700051217502,2.06331753751342,-20.9));
#782=CARTESIAN_POINT('Ctrl Pts',(35.7443157486973,2.27695586721511,5.1));
#783=CARTESIAN_POINT('Ctrl Pts',(35.7443157486973,2.27695586721511,-20.9));
#784=CARTESIAN_POINT('Ctrl Pts',(38.6804099592016,2.48959581674912,5.1));
#785=CARTESIAN_POINT('Ctrl Pts',(38.6804099592016,2.48959581674912,-20.9));
#786=CARTESIAN_POINT('Ctrl Pts',(41.6636662621033,2.71059593938417,5.1));
#787=CARTESIAN_POINT('Ctrl Pts',(41.6636662621033,2.71059593938417,-20.9));
#788=CARTESIAN_POINT('Ctrl Pts',(44.7276911489941,2.95026078400421,5.1));
#789=CARTESIAN_POINT('Ctrl Pts',(44.7276911489941,2.95026078400421,-20.9));
#790=CARTESIAN_POINT('Ctrl Pts',(47.8052961810037,3.21856162293074,5.1));
#791=CARTESIAN_POINT('Ctrl Pts',(47.8052961810037,3.21856162293074,-20.9));
#792=CARTESIAN_POINT('Ctrl Pts',(50.7455875661844,3.52431930484979,5.1));
#793=CARTESIAN_POINT('Ctrl Pts',(50.7455875661844,3.52431930484979,-20.9));
#794=CARTESIAN_POINT('Ctrl Pts',(52.8497384448263,3.80462657891484,5.1));
#795=CARTESIAN_POINT('Ctrl Pts',(52.8497384448263,3.80462657891484,-20.9));
#796=CARTESIAN_POINT('Ctrl Pts',(54.2222324012876,4.03712628079861,5.1));
#797=CARTESIAN_POINT('Ctrl Pts',(54.2222324012876,4.03712628079861,-20.9));
#798=CARTESIAN_POINT('Ctrl Pts',(55.0369811579368,4.20227388424981,5.1));
#799=CARTESIAN_POINT('Ctrl Pts',(55.0369811579368,4.20227388424981,-20.9));
#800=CARTESIAN_POINT('Ctrl Pts',(55.41929128935,4.28738463321586,5.1));
#801=CARTESIAN_POINT('Ctrl Pts',(55.41929128935,4.28738463321586,-20.9));
#802=CARTESIAN_POINT('',(55.41929128935,4.28738463321586,4.1));
#803=CARTESIAN_POINT('',(55.41929128935,4.28738463321586,5.1));
#804=CARTESIAN_POINT('Ctrl Pts',(-5.62461203503668,0.,4.1));
#805=CARTESIAN_POINT('Ctrl Pts',(-2.68797793338725,-5.70391282278044E-33,
4.1));
#806=CARTESIAN_POINT('Ctrl Pts',(6.05146702147373,0.312793901998212,4.1));
#807=CARTESIAN_POINT('Ctrl Pts',(20.5727928563607,1.19232199751041,4.1));
#808=CARTESIAN_POINT('Ctrl Pts',(35.065754463705,2.22444473767975,4.1));
#809=CARTESIAN_POINT('Ctrl Pts',(45.1986445395357,2.96592645629054,4.1));
#810=CARTESIAN_POINT('Ctrl Pts',(51.0257565857267,3.54636648765074,4.1));
#811=CARTESIAN_POINT('Ctrl Pts',(53.9394415296811,3.95793712174901,4.1));
#812=CARTESIAN_POINT('Ctrl Pts',(55.41929128935,4.28738463321586,4.1));
#813=CARTESIAN_POINT('Origin',(20.,10.,0.));
#814=CARTESIAN_POINT('',(-14.05,10.,0.));
#815=CARTESIAN_POINT('Origin',(-10.,10.,0.));
#816=CARTESIAN_POINT('Ctrl Pts',(55.41929128935,15.7126153667841,4.1));
#817=CARTESIAN_POINT('Ctrl Pts',(53.939943654536,16.0419510940764,4.1));
#818=CARTESIAN_POINT('Ctrl Pts',(51.0225882694792,16.4536863581008,4.1));
#819=CARTESIAN_POINT('Ctrl Pts',(45.203553492348,17.0344788487941,4.1));
#820=CARTESIAN_POINT('Ctrl Pts',(37.9519571385737,17.5629009185642,4.1));
#821=CARTESIAN_POINT('Ctrl Pts',(26.3555892377331,18.3993813583864,4.1));
#822=CARTESIAN_POINT('Ctrl Pts',(14.7610360628002,19.176447439066,4.1));
#823=CARTESIAN_POINT('Ctrl Pts',(3.13577342725279,19.7959628584877,4.1));
#824=CARTESIAN_POINT('Ctrl Pts',(-2.68897435681644,20.,4.1));
#825=CARTESIAN_POINT('Ctrl Pts',(-5.62461203503668,20.,4.1));
#826=CARTESIAN_POINT('Ctrl Pts',(55.41929128935,15.7126153667841,4.39919930034188));
#827=CARTESIAN_POINT('Ctrl Pts',(53.9397483160021,16.0419945807841,4.39919930034188));
#828=CARTESIAN_POINT('Ctrl Pts',(51.0224829382367,16.4537054636782,4.39919930034188));
#829=CARTESIAN_POINT('Ctrl Pts',(45.2034369206066,17.03449651808,4.39919930034189));
#830=CARTESIAN_POINT('Ctrl Pts',(37.9519472936467,17.5629017654052,4.39919930034188));
#831=CARTESIAN_POINT('Ctrl Pts',(26.3555695134466,18.3993832652908,4.39919930034189));
#832=CARTESIAN_POINT('Ctrl Pts',(14.7610765952905,19.1764459058959,4.39919930034189));
#833=CARTESIAN_POINT('Ctrl Pts',(3.13576109652332,19.7959631860616,4.39919930034189));
#834=CARTESIAN_POINT('Ctrl Pts',(-2.68887928188919,20.,4.39919930034188));
#835=CARTESIAN_POINT('Ctrl Pts',(-5.62461203503668,20.,4.39919930034188));
#836=CARTESIAN_POINT('Ctrl Pts',(55.3646977311354,15.4673858197659,4.917075438921));
#837=CARTESIAN_POINT('Ctrl Pts',(53.9007565335108,15.7932917310519,4.917075438921));
#838=CARTESIAN_POINT('Ctrl Pts',(50.9935998055309,16.204135467367,4.917075438921));
#839=CARTESIAN_POINT('Ctrl Pts',(45.1842266134344,16.783843510208,4.917075438921));
#840=CARTESIAN_POINT('Ctrl Pts',(37.9337285714847,17.3123816257608,4.917075438921));
#841=CARTESIAN_POINT('Ctrl Pts',(26.3382094617826,18.1487221870913,4.917075438921));
#842=CARTESIAN_POINT('Ctrl Pts',(14.7450217228323,18.9257047416838,4.917075438921));
#843=CARTESIAN_POINT('Ctrl Pts',(3.124408081299,19.5449983359392,4.917075438921));
#844=CARTESIAN_POINT('Ctrl Pts',(-2.69647295868464,19.7487670655959,4.917075438921));
#845=CARTESIAN_POINT('Ctrl Pts',(-5.62461203503668,19.7487670655959,4.917075438921));
#846=CARTESIAN_POINT('Ctrl Pts',(55.2507513146876,14.9555483612138,5.1));
#847=CARTESIAN_POINT('Ctrl Pts',(53.8188385311512,15.2743240342788,5.1));
#848=CARTESIAN_POINT('Ctrl Pts',(50.9330269755351,15.6832910748186,5.1));
#849=CARTESIAN_POINT('Ctrl Pts',(45.1438118815484,16.260734745268,5.1));
#850=CARTESIAN_POINT('Ctrl Pts',(37.8956758981266,16.7895040846683,5.1));
#851=CARTESIAN_POINT('Ctrl Pts',(26.3019219149867,17.6255533870046,5.1));
#852=CARTESIAN_POINT('Ctrl Pts',(14.7116234272835,18.4023593616724,5.1));
#853=CARTESIAN_POINT('Ctrl Pts',(3.1006785418051,19.0211911825283,5.1));
#854=CARTESIAN_POINT('Ctrl Pts',(-2.71206178839042,19.2243994752564,5.1));
#855=CARTESIAN_POINT('Ctrl Pts',(-5.62461203503668,19.2243994752564,5.1));
#856=CARTESIAN_POINT('Ctrl Pts',(55.2019887356699,14.7365110689942,5.1));
#857=CARTESIAN_POINT('Ctrl Pts',(53.783763796033,15.0522395231908,5.1));
#858=CARTESIAN_POINT('Ctrl Pts',(50.9070952804959,15.460401136474,5.1));
#859=CARTESIAN_POINT('Ctrl Pts',(45.1265056406489,16.0368756484731,5.1));
#860=CARTESIAN_POINT('Ctrl Pts',(37.8793905882735,16.5657423458333,5.1));
#861=CARTESIAN_POINT('Ctrl Pts',(26.2863910434708,17.4016671062648,5.1));
#862=CARTESIAN_POINT('Ctrl Pts',(14.6973346956839,18.1783971890853,5.1));
#863=CARTESIAN_POINT('Ctrl Pts',(3.09052248245215,18.7970315733838,5.1));
#864=CARTESIAN_POINT('Ctrl Pts',(-2.71872391867889,19.,5.1));
#865=CARTESIAN_POINT('Ctrl Pts',(-5.62461203503668,19.,5.1));
#866=CARTESIAN_POINT('',(-5.62461203503668,20.,4.1));
#867=CARTESIAN_POINT('',(-5.62461203503668,19.,5.1));
#868=CARTESIAN_POINT('Origin',(-5.62461203503668,19.,4.1));
#869=CARTESIAN_POINT('',(55.2019887356699,14.7365110689942,5.1));
#870=CARTESIAN_POINT('Ctrl Pts',(-5.62461203503668,19.,5.1));
#871=CARTESIAN_POINT('Ctrl Pts',(-2.71872391867889,19.,5.1));
#872=CARTESIAN_POINT('Ctrl Pts',(3.09052248245215,18.7970315733838,5.1));
#873=CARTESIAN_POINT('Ctrl Pts',(14.6973346956839,18.1783971890853,5.1));
#874=CARTESIAN_POINT('Ctrl Pts',(26.2863910434708,17.4016671062648,5.1));
#875=CARTESIAN_POINT('Ctrl Pts',(37.8793905882735,16.5657423458333,5.1));
#876=CARTESIAN_POINT('Ctrl Pts',(45.1265056406489,16.0368756484731,5.1));
#877=CARTESIAN_POINT('Ctrl Pts',(50.9070952804959,15.460401136474,5.1));
#878=CARTESIAN_POINT('Ctrl Pts',(53.783763796033,15.0522395231908,5.1));
#879=CARTESIAN_POINT('Ctrl Pts',(55.2019887356699,14.7365110689942,5.1));
#880=CARTESIAN_POINT('',(55.41929128935,15.7126153667841,4.1));
#881=CARTESIAN_POINT('Origin',(55.2019887356699,14.7365110689942,4.1));
#882=CARTESIAN_POINT('Ctrl Pts',(55.41929128935,15.7126153667841,4.1));
#883=CARTESIAN_POINT('Ctrl Pts',(53.939943654536,16.0419510940764,4.1));
#884=CARTESIAN_POINT('Ctrl Pts',(51.0225882694792,16.4536863581008,4.1));
#885=CARTESIAN_POINT('Ctrl Pts',(45.203553492348,17.0344788487941,4.1));
#886=CARTESIAN_POINT('Ctrl Pts',(37.9519571385737,17.5629009185642,4.1));
#887=CARTESIAN_POINT('Ctrl Pts',(26.3555892377331,18.3993813583864,4.1));
#888=CARTESIAN_POINT('Ctrl Pts',(14.7610360628002,19.176447439066,4.1));
#889=CARTESIAN_POINT('Ctrl Pts',(3.13577342725279,19.7959628584877,4.1));
#890=CARTESIAN_POINT('Ctrl Pts',(-2.68897435681644,20.,4.1));
#891=CARTESIAN_POINT('Ctrl Pts',(-5.62461203503668,20.,4.1));
#892=CARTESIAN_POINT('Origin',(40.,19.,4.1));
#893=CARTESIAN_POINT('',(-10.,19.,5.1));
#894=CARTESIAN_POINT('Origin',(-10.,19.,4.1));
#895=CARTESIAN_POINT('',(40.,19.,5.1));
#896=CARTESIAN_POINT('',(40.,20.,4.1));
#897=CARTESIAN_POINT('Origin',(-10.,10.,4.1));
#898=CARTESIAN_POINT('',(-10.,1.,5.1));
#899=CARTESIAN_POINT('Origin',(-10.,1.,4.1));
#900=CARTESIAN_POINT('Origin',(-10.,10.,5.1));
#901=CARTESIAN_POINT('Origin',(0.,1.,4.1));
#902=CARTESIAN_POINT('',(-5.62461203503668,1.,5.1));
#903=CARTESIAN_POINT('Origin',(-5.62461203503668,1.,4.1));
#904=CARTESIAN_POINT('',(0.,1.,5.1));
#905=CARTESIAN_POINT('Ctrl Pts',(-5.62461203503668,0.,4.1));
#906=CARTESIAN_POINT('Ctrl Pts',(-2.68797793338725,-5.70391282278044E-33,
4.1));
#907=CARTESIAN_POINT('Ctrl Pts',(6.05146702147373,0.312793901998212,4.1));
#908=CARTESIAN_POINT('Ctrl Pts',(20.5727928563607,1.19232199751041,4.1));
#909=CARTESIAN_POINT('Ctrl Pts',(35.065754463705,2.22444473767975,4.1));
#910=CARTESIAN_POINT('Ctrl Pts',(45.1986445395357,2.96592645629054,4.1));
#911=CARTESIAN_POINT('Ctrl Pts',(51.0257565857267,3.54636648765074,4.1));
#912=CARTESIAN_POINT('Ctrl Pts',(53.9394415296811,3.95793712174901,4.1));
#913=CARTESIAN_POINT('Ctrl Pts',(55.41929128935,4.28738463321586,4.1));
#914=CARTESIAN_POINT('Ctrl Pts',(-5.62461203503668,0.,4.39919930034189));
#915=CARTESIAN_POINT('Ctrl Pts',(-2.68788282618937,-5.70409755235409E-33,
4.39919930034189));
#916=CARTESIAN_POINT('Ctrl Pts',(6.05145381887296,0.312795065050238,4.39919930034189));
#917=CARTESIAN_POINT('Ctrl Pts',(20.5728092640601,1.19232053693172,4.39919930034188));
#918=CARTESIAN_POINT('Ctrl Pts',(35.0657495067295,2.22444654145226,4.39919930034189));
#919=CARTESIAN_POINT('Ctrl Pts',(45.1985357882375,2.96590969730873,4.39919930034189));
#920=CARTESIAN_POINT('Ctrl Pts',(51.0256503781221,3.54634749622147,4.39919930034188));
#921=CARTESIAN_POINT('Ctrl Pts',(53.9392461248448,3.95789362028096,4.39919930034188));
#922=CARTESIAN_POINT('Ctrl Pts',(55.41929128935,4.28738463321586,4.39919930034188));
#923=CARTESIAN_POINT('Ctrl Pts',(-5.62461203503668,0.251217085402143,4.9170944554882));
#924=CARTESIAN_POINT('Ctrl Pts',(-2.69547908045462,0.251217085402143,4.9170944554882));
#925=CARTESIAN_POINT('Ctrl Pts',(6.03812073098346,0.563611792936411,4.9170944554882));
#926=CARTESIAN_POINT('Ctrl Pts',(20.5557306151979,1.44303803243444,4.9170944554882));
#927=CARTESIAN_POINT('Ctrl Pts',(35.047849927241,2.47493231774917,4.91709445548819));
#928=CARTESIAN_POINT('Ctrl Pts',(45.1793339155884,3.21653569858107,4.9170944554882));
#929=CARTESIAN_POINT('Ctrl Pts',(50.9967515557618,3.79590276063713,4.9170944554882));
#930=CARTESIAN_POINT('Ctrl Pts',(53.9002630819862,4.20658217865361,4.9170944554882));
#931=CARTESIAN_POINT('Ctrl Pts',(55.364701175164,4.53259870995517,4.9170944554882));
#932=CARTESIAN_POINT('Ctrl Pts',(-5.62461203503668,0.775600524743586,5.1));
#933=CARTESIAN_POINT('Ctrl Pts',(-2.7110732013703,0.775600524743586,5.1));
#934=CARTESIAN_POINT('Ctrl Pts',(6.01025323820013,1.08716274232576,5.1));
#935=CARTESIAN_POINT('Ctrl Pts',(20.5201263410069,1.96637461705514,5.1));
#936=CARTESIAN_POINT('Ctrl Pts',(35.0104731913793,2.99779421377414,5.1));
#937=CARTESIAN_POINT('Ctrl Pts',(45.1389527854348,3.7396391431645,5.1));
#938=CARTESIAN_POINT('Ctrl Pts',(50.936136296639,4.3167650274674,5.1));
#939=CARTESIAN_POINT('Ctrl Pts',(53.8183525067836,4.72556776587361,5.1));
#940=CARTESIAN_POINT('Ctrl Pts',(55.2507513146876,5.04445163878624,5.1));
#941=CARTESIAN_POINT('Ctrl Pts',(-5.62461203503668,1.,5.1));
#942=CARTESIAN_POINT('Ctrl Pts',(-2.71773759294012,1.,5.1));
#943=CARTESIAN_POINT('Ctrl Pts',(5.99832667631925,1.3112060776924,5.1));
#944=CARTESIAN_POINT('Ctrl Pts',(20.5048917178154,2.19032597644672,5.1));
#945=CARTESIAN_POINT('Ctrl Pts',(34.9944781010139,3.22154274174459,5.1));
#946=CARTESIAN_POINT('Ctrl Pts',(45.1216624175021,3.9634893189602,5.1));
#947=CARTESIAN_POINT('Ctrl Pts',(50.9101873706255,4.53965592914287,5.1));
#948=CARTESIAN_POINT('Ctrl Pts',(53.7832824176367,4.94765331125828,5.1));
#949=CARTESIAN_POINT('Ctrl Pts',(55.2019887356699,5.26348893100585,5.1));
#950=CARTESIAN_POINT('',(55.2019887356699,5.26348893100585,5.1));
#951=CARTESIAN_POINT('Origin',(55.2019887356699,5.26348893100585,4.1));
#952=CARTESIAN_POINT('Ctrl Pts',(55.2019887356699,5.26348893100585,5.1));
#953=CARTESIAN_POINT('Ctrl Pts',(53.7832824176367,4.94765331125828,5.1));
#954=CARTESIAN_POINT('Ctrl Pts',(50.9101873706255,4.53965592914287,5.1));
#955=CARTESIAN_POINT('Ctrl Pts',(45.1216624175021,3.9634893189602,5.1));
#956=CARTESIAN_POINT('Ctrl Pts',(34.9944781010139,3.22154274174459,5.1));
#957=CARTESIAN_POINT('Ctrl Pts',(20.5048917178154,2.19032597644672,5.1));
#958=CARTESIAN_POINT('Ctrl Pts',(5.99832667631925,1.3112060776924,5.1));
#959=CARTESIAN_POINT('Ctrl Pts',(-2.71773759294012,1.,5.1));
#960=CARTESIAN_POINT('Ctrl Pts',(-5.62461203503668,1.,5.1));
#961=CARTESIAN_POINT('Origin',(54.1475358937379,10.,4.1));
#962=CARTESIAN_POINT('Origin',(54.1475358937379,10.,5.1));
#963=CARTESIAN_POINT('Origin',(54.1475358937379,10.,4.1));
#964=CARTESIAN_POINT('Origin',(60.,20.,0.));
#965=CARTESIAN_POINT('',(-5.62461203503668,20.,5.1));
#966=CARTESIAN_POINT('Ctrl Pts',(55.41929128935,15.7126153667841,5.1));
#967=CARTESIAN_POINT('Ctrl Pts',(55.41929128935,15.7126153667841,-20.9));
#968=CARTESIAN_POINT('Ctrl Pts',(55.0369811579368,15.7977261157502,5.1));
#969=CARTESIAN_POINT('Ctrl Pts',(55.0369811579368,15.7977261157502,-20.9));
#970=CARTESIAN_POINT('Ctrl Pts',(54.2222324012876,15.9628737192014,5.1));
#971=CARTESIAN_POINT('Ctrl Pts',(54.2222324012876,15.9628737192014,-20.9));
#972=CARTESIAN_POINT('Ctrl Pts',(52.8497384448263,16.1953734210852,5.1));
#973=CARTESIAN_POINT('Ctrl Pts',(52.8497384448263,16.1953734210852,-20.9));
#974=CARTESIAN_POINT('Ctrl Pts',(50.7455875661844,16.4756806951502,5.1));
#975=CARTESIAN_POINT('Ctrl Pts',(50.7455875661844,16.4756806951502,-20.9));
#976=CARTESIAN_POINT('Ctrl Pts',(47.8052961810037,16.7814383770693,5.1));
#977=CARTESIAN_POINT('Ctrl Pts',(47.8052961810037,16.7814383770693,-20.9));
#978=CARTESIAN_POINT('Ctrl Pts',(44.7276911489941,17.0497392159958,5.1));
#979=CARTESIAN_POINT('Ctrl Pts',(44.7276911489941,17.0497392159958,-20.9));
#980=CARTESIAN_POINT('Ctrl Pts',(41.6636662621033,17.2894040606158,5.1));
#981=CARTESIAN_POINT('Ctrl Pts',(41.6636662621033,17.2894040606158,-20.9));
#982=CARTESIAN_POINT('Ctrl Pts',(38.6804099592016,17.5104041832509,5.1));
#983=CARTESIAN_POINT('Ctrl Pts',(38.6804099592016,17.5104041832509,-20.9));
#984=CARTESIAN_POINT('Ctrl Pts',(35.7443157486973,17.7230441327849,5.1));
#985=CARTESIAN_POINT('Ctrl Pts',(35.7443157486973,17.7230441327849,-20.9));
#986=CARTESIAN_POINT('Ctrl Pts',(32.7700051217502,17.9366824624866,5.1));
#987=CARTESIAN_POINT('Ctrl Pts',(32.7700051217502,17.9366824624866,-20.9));
#988=CARTESIAN_POINT('Ctrl Pts',(29.6537489592927,18.1585039905865,5.1));
#989=CARTESIAN_POINT('Ctrl Pts',(29.6537489592927,18.1585039905865,-20.9));
#990=CARTESIAN_POINT('Ctrl Pts',(26.3102558242515,18.3923674947843,5.1));
#991=CARTESIAN_POINT('Ctrl Pts',(26.3102558242515,18.3923674947843,-20.9));
#992=CARTESIAN_POINT('Ctrl Pts',(22.7141764667071,18.6372639803944,5.1));
#993=CARTESIAN_POINT('Ctrl Pts',(22.7141764667071,18.6372639803944,-20.9));
#994=CARTESIAN_POINT('Ctrl Pts',(18.9214301896541,18.8868267441936,5.1));
#995=CARTESIAN_POINT('Ctrl Pts',(18.9214301896541,18.8868267441936,-20.9));
#996=CARTESIAN_POINT('Ctrl Pts',(15.0367219937197,19.1315417158214,5.1));
#997=CARTESIAN_POINT('Ctrl Pts',(15.0367219937197,19.1315417158214,-20.9));
#998=CARTESIAN_POINT('Ctrl Pts',(11.1929758299337,19.3603470423776,5.1));
#999=CARTESIAN_POINT('Ctrl Pts',(11.1929758299337,19.3603470423776,-20.9));
#1000=CARTESIAN_POINT('Ctrl Pts',(7.5260646220277,19.5625003267489,5.1));
#1001=CARTESIAN_POINT('Ctrl Pts',(7.5260646220277,19.5625003267489,-20.9));
#1002=CARTESIAN_POINT('Ctrl Pts',(4.1532620404113,19.7292122474054,5.1));
#1003=CARTESIAN_POINT('Ctrl Pts',(4.1532620404113,19.7292122474054,-20.9));
#1004=CARTESIAN_POINT('Ctrl Pts',(1.14605315273474,19.8557423130793,5.1));
#1005=CARTESIAN_POINT('Ctrl Pts',(1.14605315273474,19.8557423130793,-20.9));
#1006=CARTESIAN_POINT('Ctrl Pts',(-1.48407051763864,19.9424221202008,5.1));
#1007=CARTESIAN_POINT('Ctrl Pts',(-1.48407051763864,19.9424221202008,-20.9));
#1008=CARTESIAN_POINT('Ctrl Pts',(-3.30226919198006,19.9821287065695,5.1));
#1009=CARTESIAN_POINT('Ctrl Pts',(-3.30226919198006,19.9821287065695,-20.9));
#1010=CARTESIAN_POINT('Ctrl Pts',(-4.5186821046619,19.9967507768642,5.1));
#1011=CARTESIAN_POINT('Ctrl Pts',(-4.5186821046619,19.9967507768642,-20.9));
#1012=CARTESIAN_POINT('Ctrl Pts',(-5.26649028039437,20.,5.1));
#1013=CARTESIAN_POINT('Ctrl Pts',(-5.26649028039437,20.,-20.9));
#1014=CARTESIAN_POINT('Ctrl Pts',(-5.62461203503668,20.,5.1));
#1015=CARTESIAN_POINT('Ctrl Pts',(-5.62461203503668,20.,-20.9));
#1016=CARTESIAN_POINT('',(55.41929128935,15.7126153667841,5.1));
#1017=CARTESIAN_POINT('Origin',(20.,10.,5.1));
#1018=CARTESIAN_POINT('',(-9.65504793658927,5.96471710112554,5.1));
#1019=CARTESIAN_POINT('',(-14.05,10.,5.1));
#1020=CARTESIAN_POINT('Origin',(-10.,10.,5.1));
#1021=CARTESIAN_POINT('',(-9.65504750124363,14.0352828616593,5.1));
#1022=CARTESIAN_POINT('Origin',(-10.,10.,5.1));
#1023=CARTESIAN_POINT('',(6.07999643734928,12.6901885992496,5.1));
#1024=CARTESIAN_POINT('',(5.23613479041019,12.7623252557468,5.1));
#1025=CARTESIAN_POINT('',(6.07999643734928,7.30981140075036,5.1));
#1026=CARTESIAN_POINT('Origin',(5.85002839507546,10.,5.1));
#1027=CARTESIAN_POINT('',(13.1036567597066,7.91022187545811,5.1));
#1028=CARTESIAN_POINT('Origin',(54.1475358937379,10.,5.1));
#1029=CARTESIAN_POINT('Origin',(-0.715285773105448,9.99999998139245,1.6));
#1030=CARTESIAN_POINT('',(-9.65504750124363,14.0352828616593,1.6));
#1031=CARTESIAN_POINT('',(-9.65504793658927,5.96471710112554,1.6));
#1032=CARTESIAN_POINT('Origin',(-10.,10.,1.6));
#1033=CARTESIAN_POINT('',(6.07999643734928,7.30981140075036,1.6));
#1034=CARTESIAN_POINT('',(2.82115338624473,7.03123250975766,1.6));
#1035=CARTESIAN_POINT('',(6.07999643734928,12.6901885992496,1.6));
#1036=CARTESIAN_POINT('Origin',(5.85002839507546,10.,1.6));
#1037=CARTESIAN_POINT('',(-5.04636858147262,13.6413146213122,1.6));
#1038=CARTESIAN_POINT('Origin',(-9.65504750124363,14.0352828616593,0.));
#1039=CARTESIAN_POINT('',(6.07999643734928,12.6901885992496,0.));
#1040=CARTESIAN_POINT('',(-9.65504750124363,14.0352828616593,0.));
#1041=CARTESIAN_POINT('Origin',(5.85002839507546,10.,0.));
#1042=CARTESIAN_POINT('',(6.07999643734928,7.30981140075036,0.));
#1043=CARTESIAN_POINT('Origin',(6.07999643734928,7.30981140075036,0.));
#1044=CARTESIAN_POINT('',(-9.65504793658927,5.96471710112554,0.));
#1045=CARTESIAN_POINT('Origin',(-10.,10.,0.));
#1046=CARTESIAN_POINT('',(-14.05,10.,0.));
#1047=UNCERTAINTY_MEASURE_WITH_UNIT(LENGTH_MEASURE(0.01),#1051,
'DISTANCE_ACCURACY_VALUE',
'Maximum model space distance between geometric entities at asserted c
onnectivities');
#1048=UNCERTAINTY_MEASURE_WITH_UNIT(LENGTH_MEASURE(0.01),#1051,
'DISTANCE_ACCURACY_VALUE',
'Maximum model space distance between geometric entities at asserted c
onnectivities');
#1049=(
GEOMETRIC_REPRESENTATION_CONTEXT(3)
GLOBAL_UNCERTAINTY_ASSIGNED_CONTEXT((#1047))
GLOBAL_UNIT_ASSIGNED_CONTEXT((#1051,#1053,#1054))
REPRESENTATION_CONTEXT('','3D')
);
#1050=(
GEOMETRIC_REPRESENTATION_CONTEXT(3)
GLOBAL_UNCERTAINTY_ASSIGNED_CONTEXT((#1048))
GLOBAL_UNIT_ASSIGNED_CONTEXT((#1051,#1053,#1054))
REPRESENTATION_CONTEXT('','3D')
);
#1051=(
LENGTH_UNIT()
NAMED_UNIT(*)
SI_UNIT(.MILLI.,.METRE.)
);
#1052=(
LENGTH_UNIT()
NAMED_UNIT(*)
SI_UNIT($,.METRE.)
);
#1053=(
NAMED_UNIT(*)
PLANE_ANGLE_UNIT()
SI_UNIT($,.RADIAN.)
);
#1054=(
NAMED_UNIT(*)
SI_UNIT($,.STERADIAN.)
SOLID_ANGLE_UNIT()
);
#1055=SHAPE_DEFINITION_REPRESENTATION(#1056,#1057);
#1056=PRODUCT_DEFINITION_SHAPE('',$,#1059);
#1057=SHAPE_REPRESENTATION('',(#417),#1049);
#1058=PRODUCT_DEFINITION_CONTEXT('part definition',#1063,'design');
#1059=PRODUCT_DEFINITION('ear','ear v3',#1060,#1058);
#1060=PRODUCT_DEFINITION_FORMATION('',$,#1065);
#1061=PRODUCT_RELATED_PRODUCT_CATEGORY('ear v3','ear v3',(#1065));
#1062=APPLICATION_PROTOCOL_DEFINITION('international standard',
'automotive_design',2009,#1063);
#1063=APPLICATION_CONTEXT(
'Core Data for Automotive Mechanical Design Process');
#1064=PRODUCT_CONTEXT('part definition',#1063,'mechanical');
#1065=PRODUCT('ear','ear v3',$,(#1064));
#1066=PRESENTATION_STYLE_ASSIGNMENT((#1068));
#1067=PRESENTATION_STYLE_ASSIGNMENT((#1069));
#1068=SURFACE_STYLE_USAGE(.BOTH.,#1070);
#1069=SURFACE_STYLE_USAGE(.BOTH.,#1071);
#1070=SURFACE_SIDE_STYLE('',(#1072));
#1071=SURFACE_SIDE_STYLE('',(#1073));
#1072=SURFACE_STYLE_FILL_AREA(#1074);
#1073=SURFACE_STYLE_FILL_AREA(#1075);
#1074=FILL_AREA_STYLE('\X2\AC15CCA0\X0\ - \X2\C0C8D2F4\X0\',(#1076));
#1075=FILL_AREA_STYLE('ABS(\X2\D770C0C9\X0\)',(#1077));
#1076=FILL_AREA_STYLE_COLOUR('\X2\AC15CCA0\X0\ - \X2\C0C8D2F4\X0\',#1078);
#1077=FILL_AREA_STYLE_COLOUR('ABS(\X2\D770C0C9\X0\)',#1079);
#1078=COLOUR_RGB('\X2\AC15CCA0\X0\ - \X2\C0C8D2F4\X0\',0.627450980392157,
0.627450980392157,0.627450980392157);
#1079=COLOUR_RGB('ABS(\X2\D770C0C9\X0\)',0.215686274509804,0.215686274509804,
0.215686274509804);
ENDSEC;
END-ISO-10303-21;
