ISO-10303-21;
HEADER;
/* Generated by software containing ST-Developer
 * from STEP Tools, Inc. (www.steptools.com) 
 */

FILE_DESCRIPTION(
/* description */ (''),
/* implementation_level */ '2;1');

FILE_NAME(
/* name */ 'arm R v2.step',
/* time_stamp */ '2026-10-07T11:31:03+09:00',
/* author */ (''),
/* organization */ (''),
/* preprocessor_version */ 'ST-DEVELOPER v20.2',
/* originating_system */ 'Autodesk Translation Framework v15.15.0.0',
/* authorisation */ '');

FILE_SCHEMA (('AUTOMOTIVE_DESIGN { 1 0 10303 214 3 1 1 }'));
ENDSEC;

DATA;
#10=MECHANICAL_DESIGN_GEOMETRIC_PRESENTATION_REPRESENTATION('',(#13),#2265);
#11=SHAPE_REPRESENTATION_RELATIONSHIP('SRR','None',#2272,#12);
#12=ADVANCED_BREP_SHAPE_REPRESENTATION('',(#14),#2264);
#13=STYLED_ITEM('',(#2281),#14);
#14=MANIFOLD_SOLID_BREP('arm R v2',#1347);
#15=TOROIDAL_SURFACE('',#1405,4.,1.);
#16=TOROIDAL_SURFACE('',#1413,7.05,1.);
#17=SPHERICAL_SURFACE('',#1376,1.);
#18=SPHERICAL_SURFACE('',#1384,1.);
#19=SPHERICAL_SURFACE('',#1390,1.);
#20=SPHERICAL_SURFACE('',#1394,1.);
#21=SPHERICAL_SURFACE('',#1418,1.);
#22=SPHERICAL_SURFACE('',#1428,1.);
#23=SPHERICAL_SURFACE('',#1430,1.);
#24=CYLINDRICAL_SURFACE('',#1369,1.7);
#25=CYLINDRICAL_SURFACE('',#1371,1.);
#26=CYLINDRICAL_SURFACE('',#1380,1.);
#27=CYLINDRICAL_SURFACE('',#1382,1.);
#28=CYLINDRICAL_SURFACE('',#1388,1.);
#29=CYLINDRICAL_SURFACE('',#1398,1.);
#30=CYLINDRICAL_SURFACE('',#1400,1.);
#31=CYLINDRICAL_SURFACE('',#1401,1.);
#32=CYLINDRICAL_SURFACE('',#1402,1.);
#33=CYLINDRICAL_SURFACE('',#1409,1.);
#34=CYLINDRICAL_SURFACE('',#1410,1.);
#35=CYLINDRICAL_SURFACE('',#1412,1.);
#36=CYLINDRICAL_SURFACE('',#1422,1.);
#37=CYLINDRICAL_SURFACE('',#1424,1.);
#38=CYLINDRICAL_SURFACE('',#1426,1.);
#39=CYLINDRICAL_SURFACE('',#1439,3.);
#40=CYLINDRICAL_SURFACE('',#1441,1.);
#41=CYLINDRICAL_SURFACE('',#1442,6.05);
#42=CYLINDRICAL_SURFACE('',#1444,1.);
#43=CYLINDRICAL_SURFACE('',#1458,1.7);
#44=CYLINDRICAL_SURFACE('',#1467,1.);
#45=CYLINDRICAL_SURFACE('',#1472,0.600000000000001);
#46=FACE_BOUND('',#185,.T.);
#47=FACE_BOUND('',#222,.T.);
#48=FACE_BOUND('',#232,.T.);
#49=FACE_BOUND('',#238,.T.);
#50=FACE_BOUND('',#244,.T.);
#51=FACE_BOUND('',#249,.T.);
#52=FACE_BOUND('',#256,.T.);
#53=CIRCLE('',#1368,1.7);
#54=CIRCLE('',#1370,1.7);
#55=CIRCLE('',#1372,1.);
#56=CIRCLE('',#1373,1.);
#57=CIRCLE('',#1377,1.);
#58=CIRCLE('',#1378,1.);
#59=CIRCLE('',#1379,0.999999999999999);
#60=CIRCLE('',#1381,1.);
#61=CIRCLE('',#1383,1.);
#62=CIRCLE('',#1385,0.999999999999999);
#63=CIRCLE('',#1386,1.);
#64=CIRCLE('',#1387,1.);
#65=CIRCLE('',#1389,1.);
#66=CIRCLE('',#1391,1.);
#67=CIRCLE('',#1392,1.);
#68=CIRCLE('',#1393,1.);
#69=CIRCLE('',#1395,1.);
#70=CIRCLE('',#1396,1.);
#71=CIRCLE('',#1397,1.);
#72=CIRCLE('',#1399,1.);
#73=CIRCLE('',#1403,1.);
#74=CIRCLE('',#1404,1.);
#75=CIRCLE('',#1406,0.999999999999999);
#76=CIRCLE('',#1407,4.);
#77=CIRCLE('',#1408,3.);
#78=CIRCLE('',#1411,1.);
#79=CIRCLE('',#1414,1.);
#80=CIRCLE('',#1415,6.05);
#81=CIRCLE('',#1416,1.);
#82=CIRCLE('',#1417,7.05);
#83=CIRCLE('',#1419,1.);
#84=CIRCLE('',#1420,1.);
#85=CIRCLE('',#1421,1.);
#86=CIRCLE('',#1423,1.);
#87=CIRCLE('',#1425,1.);
#88=CIRCLE('',#1427,1.);
#89=CIRCLE('',#1429,1.);
#90=CIRCLE('',#1431,1.);
#91=CIRCLE('',#1435,3.);
#92=CIRCLE('',#1436,1.);
#93=CIRCLE('',#1437,6.05);
#94=CIRCLE('',#1443,6.05);
#95=CIRCLE('',#1445,1.);
#96=CIRCLE('',#1449,1.);
#97=CIRCLE('',#1457,1.7);
#98=CIRCLE('',#1459,1.7);
#99=CIRCLE('',#1468,1.);
#100=CIRCLE('',#1470,0.600000000000001);
#101=CIRCLE('',#1473,0.600000000000001);
#102=FACE_OUTER_BOUND('',#178,.T.);
#103=FACE_OUTER_BOUND('',#179,.T.);
#104=FACE_OUTER_BOUND('',#180,.T.);
#105=FACE_OUTER_BOUND('',#181,.T.);
#106=FACE_OUTER_BOUND('',#182,.T.);
#107=FACE_OUTER_BOUND('',#183,.T.);
#108=FACE_OUTER_BOUND('',#184,.T.);
#109=FACE_OUTER_BOUND('',#186,.T.);
#110=FACE_OUTER_BOUND('',#187,.T.);
#111=FACE_OUTER_BOUND('',#188,.T.);
#112=FACE_OUTER_BOUND('',#189,.T.);
#113=FACE_OUTER_BOUND('',#190,.T.);
#114=FACE_OUTER_BOUND('',#191,.T.);
#115=FACE_OUTER_BOUND('',#192,.T.);
#116=FACE_OUTER_BOUND('',#193,.T.);
#117=FACE_OUTER_BOUND('',#194,.T.);
#118=FACE_OUTER_BOUND('',#195,.T.);
#119=FACE_OUTER_BOUND('',#196,.T.);
#120=FACE_OUTER_BOUND('',#197,.T.);
#121=FACE_OUTER_BOUND('',#198,.T.);
#122=FACE_OUTER_BOUND('',#199,.T.);
#123=FACE_OUTER_BOUND('',#200,.T.);
#124=FACE_OUTER_BOUND('',#201,.T.);
#125=FACE_OUTER_BOUND('',#202,.T.);
#126=FACE_OUTER_BOUND('',#203,.T.);
#127=FACE_OUTER_BOUND('',#204,.T.);
#128=FACE_OUTER_BOUND('',#205,.T.);
#129=FACE_OUTER_BOUND('',#206,.T.);
#130=FACE_OUTER_BOUND('',#207,.T.);
#131=FACE_OUTER_BOUND('',#208,.T.);
#132=FACE_OUTER_BOUND('',#209,.T.);
#133=FACE_OUTER_BOUND('',#210,.T.);
#134=FACE_OUTER_BOUND('',#211,.T.);
#135=FACE_OUTER_BOUND('',#212,.T.);
#136=FACE_OUTER_BOUND('',#213,.T.);
#137=FACE_OUTER_BOUND('',#214,.T.);
#138=FACE_OUTER_BOUND('',#215,.T.);
#139=FACE_OUTER_BOUND('',#216,.T.);
#140=FACE_OUTER_BOUND('',#217,.T.);
#141=FACE_OUTER_BOUND('',#218,.T.);
#142=FACE_OUTER_BOUND('',#219,.T.);
#143=FACE_OUTER_BOUND('',#220,.T.);
#144=FACE_OUTER_BOUND('',#221,.T.);
#145=FACE_OUTER_BOUND('',#223,.T.);
#146=FACE_OUTER_BOUND('',#224,.T.);
#147=FACE_OUTER_BOUND('',#225,.T.);
#148=FACE_OUTER_BOUND('',#226,.T.);
#149=FACE_OUTER_BOUND('',#227,.T.);
#150=FACE_OUTER_BOUND('',#228,.T.);
#151=FACE_OUTER_BOUND('',#229,.T.);
#152=FACE_OUTER_BOUND('',#230,.T.);
#153=FACE_OUTER_BOUND('',#231,.T.);
#154=FACE_OUTER_BOUND('',#233,.T.);
#155=FACE_OUTER_BOUND('',#234,.T.);
#156=FACE_OUTER_BOUND('',#235,.T.);
#157=FACE_OUTER_BOUND('',#236,.T.);
#158=FACE_OUTER_BOUND('',#237,.T.);
#159=FACE_OUTER_BOUND('',#239,.T.);
#160=FACE_OUTER_BOUND('',#240,.T.);
#161=FACE_OUTER_BOUND('',#241,.T.);
#162=FACE_OUTER_BOUND('',#242,.T.);
#163=FACE_OUTER_BOUND('',#243,.T.);
#164=FACE_OUTER_BOUND('',#245,.T.);
#165=FACE_OUTER_BOUND('',#246,.T.);
#166=FACE_OUTER_BOUND('',#247,.T.);
#167=FACE_OUTER_BOUND('',#248,.T.);
#168=FACE_OUTER_BOUND('',#250,.T.);
#169=FACE_OUTER_BOUND('',#251,.T.);
#170=FACE_OUTER_BOUND('',#252,.T.);
#171=FACE_OUTER_BOUND('',#253,.T.);
#172=FACE_OUTER_BOUND('',#254,.T.);
#173=FACE_OUTER_BOUND('',#255,.T.);
#174=FACE_OUTER_BOUND('',#257,.T.);
#175=FACE_OUTER_BOUND('',#258,.T.);
#176=FACE_OUTER_BOUND('',#259,.T.);
#177=FACE_OUTER_BOUND('',#260,.T.);
#178=EDGE_LOOP('',(#848,#849,#850,#851));
#179=EDGE_LOOP('',(#852,#853,#854,#855));
#180=EDGE_LOOP('',(#856,#857,#858,#859));
#181=EDGE_LOOP('',(#860,#861,#862,#863));
#182=EDGE_LOOP('',(#864,#865,#866,#867));
#183=EDGE_LOOP('',(#868,#869,#870,#871));
#184=EDGE_LOOP('',(#872,#873,#874,#875,#876,#877));
#185=EDGE_LOOP('',(#878));
#186=EDGE_LOOP('',(#879,#880,#881,#882));
#187=EDGE_LOOP('',(#883,#884,#885,#886));
#188=EDGE_LOOP('',(#887,#888,#889,#890,#891));
#189=EDGE_LOOP('',(#892,#893,#894,#895,#896,#897,#898,#899,#900,#901,#902,
#903));
#190=EDGE_LOOP('',(#904,#905,#906));
#191=EDGE_LOOP('',(#907,#908,#909,#910));
#192=EDGE_LOOP('',(#911,#912,#913,#914));
#193=EDGE_LOOP('',(#915,#916,#917));
#194=EDGE_LOOP('',(#918,#919,#920,#921));
#195=EDGE_LOOP('',(#922,#923,#924));
#196=EDGE_LOOP('',(#925,#926,#927));
#197=EDGE_LOOP('',(#928,#929,#930,#931));
#198=EDGE_LOOP('',(#932,#933,#934,#935));
#199=EDGE_LOOP('',(#936,#937,#938,#939));
#200=EDGE_LOOP('',(#940,#941,#942,#943));
#201=EDGE_LOOP('',(#944,#945,#946,#947));
#202=EDGE_LOOP('',(#948,#949,#950,#951));
#203=EDGE_LOOP('',(#952,#953,#954,#955));
#204=EDGE_LOOP('',(#956,#957,#958,#959));
#205=EDGE_LOOP('',(#960,#961,#962,#963));
#206=EDGE_LOOP('',(#964,#965,#966));
#207=EDGE_LOOP('',(#967,#968,#969,#970));
#208=EDGE_LOOP('',(#971,#972,#973,#974));
#209=EDGE_LOOP('',(#975,#976,#977,#978));
#210=EDGE_LOOP('',(#979,#980,#981));
#211=EDGE_LOOP('',(#982,#983,#984));
#212=EDGE_LOOP('',(#985,#986,#987,#988,#989));
#213=EDGE_LOOP('',(#990,#991,#992,#993,#994,#995,#996,#997,#998,#999,#1000,
#1001,#1002,#1003));
#214=EDGE_LOOP('',(#1004,#1005,#1006,#1007,#1008,#1009,#1010,#1011,#1012));
#215=EDGE_LOOP('',(#1013,#1014,#1015,#1016));
#216=EDGE_LOOP('',(#1017,#1018,#1019,#1020));
#217=EDGE_LOOP('',(#1021,#1022,#1023,#1024));
#218=EDGE_LOOP('',(#1025,#1026,#1027,#1028));
#219=EDGE_LOOP('',(#1029,#1030,#1031,#1032,#1033));
#220=EDGE_LOOP('',(#1034,#1035,#1036,#1037));
#221=EDGE_LOOP('',(#1038,#1039,#1040,#1041,#1042,#1043,#1044,#1045,#1046,
#1047,#1048,#1049));
#222=EDGE_LOOP('',(#1050));
#223=EDGE_LOOP('',(#1051,#1052,#1053,#1054,#1055,#1056));
#224=EDGE_LOOP('',(#1057,#1058,#1059,#1060,#1061,#1062));
#225=EDGE_LOOP('',(#1063,#1064,#1065,#1066));
#226=EDGE_LOOP('',(#1067,#1068,#1069,#1070));
#227=EDGE_LOOP('',(#1071,#1072,#1073,#1074));
#228=EDGE_LOOP('',(#1075,#1076,#1077,#1078));
#229=EDGE_LOOP('',(#1079,#1080,#1081,#1082));
#230=EDGE_LOOP('',(#1083,#1084,#1085,#1086));
#231=EDGE_LOOP('',(#1087,#1088,#1089,#1090,#1091,#1092));
#232=EDGE_LOOP('',(#1093));
#233=EDGE_LOOP('',(#1094,#1095,#1096,#1097));
#234=EDGE_LOOP('',(#1098,#1099,#1100,#1101));
#235=EDGE_LOOP('',(#1102,#1103,#1104,#1105));
#236=EDGE_LOOP('',(#1106,#1107,#1108,#1109));
#237=EDGE_LOOP('',(#1110,#1111,#1112,#1113));
#238=EDGE_LOOP('',(#1114,#1115,#1116,#1117,#1118,#1119));
#239=EDGE_LOOP('',(#1120,#1121,#1122,#1123,#1124,#1125,#1126,#1127));
#240=EDGE_LOOP('',(#1128,#1129,#1130,#1131));
#241=EDGE_LOOP('',(#1132,#1133,#1134,#1135,#1136,#1137,#1138,#1139,#1140));
#242=EDGE_LOOP('',(#1141,#1142,#1143,#1144));
#243=EDGE_LOOP('',(#1145,#1146,#1147,#1148,#1149));
#244=EDGE_LOOP('',(#1150));
#245=EDGE_LOOP('',(#1151,#1152,#1153,#1154));
#246=EDGE_LOOP('',(#1155,#1156,#1157,#1158));
#247=EDGE_LOOP('',(#1159));
#248=EDGE_LOOP('',(#1160,#1161,#1162,#1163));
#249=EDGE_LOOP('',(#1164));
#250=EDGE_LOOP('',(#1165,#1166,#1167,#1168));
#251=EDGE_LOOP('',(#1169,#1170,#1171,#1172));
#252=EDGE_LOOP('',(#1173,#1174,#1175,#1176,#1177,#1178));
#253=EDGE_LOOP('',(#1179,#1180,#1181,#1182,#1183,#1184,#1185,#1186,#1187,
#1188,#1189,#1190,#1191));
#254=EDGE_LOOP('',(#1192,#1193,#1194,#1195,#1196,#1197,#1198,#1199));
#255=EDGE_LOOP('',(#1200,#1201,#1202,#1203));
#256=EDGE_LOOP('',(#1204,#1205,#1206,#1207,#1208,#1209));
#257=EDGE_LOOP('',(#1210,#1211,#1212,#1213));
#258=EDGE_LOOP('',(#1214,#1215,#1216,#1217));
#259=EDGE_LOOP('',(#1218,#1219,#1220,#1221));
#260=EDGE_LOOP('',(#1222,#1223,#1224,#1225));
#261=LINE('',#1882,#401);
#262=LINE('',#1884,#402);
#263=LINE('',#1886,#403);
#264=LINE('',#1887,#404);
#265=LINE('',#1890,#405);
#266=LINE('',#1892,#406);
#267=LINE('',#1893,#407);
#268=LINE('',#1896,#408);
#269=LINE('',#1898,#409);
#270=LINE('',#1899,#410);
#271=LINE('',#1902,#411);
#272=LINE('',#1904,#412);
#273=LINE('',#1905,#413);
#274=LINE('',#1908,#414);
#275=LINE('',#1910,#415);
#276=LINE('',#1911,#416);
#277=LINE('',#1913,#417);
#278=LINE('',#1914,#418);
#279=LINE('',#1920,#419);
#280=LINE('',#1927,#420);
#281=LINE('',#1930,#421);
#282=LINE('',#1933,#422);
#283=LINE('',#1935,#423);
#284=LINE('',#1937,#424);
#285=LINE('',#1938,#425);
#286=LINE('',#1941,#426);
#287=LINE('',#1943,#427);
#288=LINE('',#1945,#428);
#289=LINE('',#1947,#429);
#290=LINE('',#1949,#430);
#291=LINE('',#1951,#431);
#292=LINE('',#1953,#432);
#293=LINE('',#1955,#433);
#294=LINE('',#1957,#434);
#295=LINE('',#1958,#435);
#296=LINE('',#1968,#436);
#297=LINE('',#1972,#437);
#298=LINE('',#1984,#438);
#299=LINE('',#1985,#439);
#300=LINE('',#2004,#440);
#301=LINE('',#2005,#441);
#302=LINE('',#2007,#442);
#303=LINE('',#2008,#443);
#304=LINE('',#2010,#444);
#305=LINE('',#2011,#445);
#306=LINE('',#2017,#446);
#307=LINE('',#2020,#447);
#308=LINE('',#2028,#448);
#309=LINE('',#2029,#449);
#310=LINE('',#2034,#450);
#311=LINE('',#2035,#451);
#312=LINE('',#2037,#452);
#313=LINE('',#2038,#453);
#314=LINE('',#2056,#454);
#315=LINE('',#2057,#455);
#316=LINE('',#2061,#456);
#317=LINE('',#2065,#457);
#318=LINE('',#2072,#458);
#319=LINE('',#2074,#459);
#320=LINE('',#2075,#460);
#321=LINE('',#2078,#461);
#322=LINE('',#2080,#462);
#323=LINE('',#2082,#463);
#324=LINE('',#2084,#464);
#325=LINE('',#2086,#465);
#326=LINE('',#2088,#466);
#327=LINE('',#2090,#467);
#328=LINE('',#2091,#468);
#329=LINE('',#2094,#469);
#330=LINE('',#2098,#470);
#331=LINE('',#2104,#471);
#332=LINE('',#2105,#472);
#333=LINE('',#2107,#473);
#334=LINE('',#2109,#474);
#335=LINE('',#2111,#475);
#336=LINE('',#2113,#476);
#337=LINE('',#2116,#477);
#338=LINE('',#2120,#478);
#339=LINE('',#2123,#479);
#340=LINE('',#2125,#480);
#341=LINE('',#2127,#481);
#342=LINE('',#2129,#482);
#343=LINE('',#2131,#483);
#344=LINE('',#2132,#484);
#345=LINE('',#2133,#485);
#346=LINE('',#2136,#486);
#347=LINE('',#2138,#487);
#348=LINE('',#2139,#488);
#349=LINE('',#2142,#489);
#350=LINE('',#2144,#490);
#351=LINE('',#2149,#491);
#352=LINE('',#2151,#492);
#353=LINE('',#2153,#493);
#354=LINE('',#2154,#494);
#355=LINE('',#2157,#495);
#356=LINE('',#2159,#496);
#357=LINE('',#2160,#497);
#358=LINE('',#2163,#498);
#359=LINE('',#2165,#499);
#360=LINE('',#2166,#500);
#361=LINE('',#2169,#501);
#362=LINE('',#2171,#502);
#363=LINE('',#2172,#503);
#364=LINE('',#2175,#504);
#365=LINE('',#2177,#505);
#366=LINE('',#2178,#506);
#367=LINE('',#2180,#507);
#368=LINE('',#2181,#508);
#369=LINE('',#2187,#509);
#370=LINE('',#2191,#510);
#371=LINE('',#2193,#511);
#372=LINE('',#2194,#512);
#373=LINE('',#2197,#513);
#374=LINE('',#2198,#514);
#375=LINE('',#2201,#515);
#376=LINE('',#2202,#516);
#377=LINE('',#2204,#517);
#378=LINE('',#2208,#518);
#379=LINE('',#2210,#519);
#380=LINE('',#2211,#520);
#381=LINE('',#2215,#521);
#382=LINE('',#2219,#522);
#383=LINE('',#2221,#523);
#384=LINE('',#2222,#524);
#385=LINE('',#2227,#525);
#386=LINE('',#2228,#526);
#387=LINE('',#2231,#527);
#388=LINE('',#2236,#528);
#389=LINE('',#2238,#529);
#390=LINE('',#2240,#530);
#391=LINE('',#2243,#531);
#392=LINE('',#2245,#532);
#393=LINE('',#2247,#533);
#394=LINE('',#2248,#534);
#395=LINE('',#2250,#535);
#396=LINE('',#2251,#536);
#397=LINE('',#2253,#537);
#398=LINE('',#2255,#538);
#399=LINE('',#2257,#539);
#400=LINE('',#2260,#540);
#401=VECTOR('',#1490,10.);
#402=VECTOR('',#1491,10.);
#403=VECTOR('',#1492,10.);
#404=VECTOR('',#1493,10.);
#405=VECTOR('',#1496,10.);
#406=VECTOR('',#1497,10.);
#407=VECTOR('',#1498,10.);
#408=VECTOR('',#1501,10.);
#409=VECTOR('',#1502,10.);
#410=VECTOR('',#1503,10.);
#411=VECTOR('',#1506,10.);
#412=VECTOR('',#1507,10.);
#413=VECTOR('',#1508,10.);
#414=VECTOR('',#1511,10.);
#415=VECTOR('',#1512,10.);
#416=VECTOR('',#1513,10.);
#417=VECTOR('',#1516,10.);
#418=VECTOR('',#1517,10.);
#419=VECTOR('',#1524,1.7);
#420=VECTOR('',#1531,10.);
#421=VECTOR('',#1534,10.);
#422=VECTOR('',#1537,10.);
#423=VECTOR('',#1538,10.);
#424=VECTOR('',#1539,10.);
#425=VECTOR('',#1540,10.);
#426=VECTOR('',#1543,10.);
#427=VECTOR('',#1544,10.);
#428=VECTOR('',#1545,10.);
#429=VECTOR('',#1546,10.);
#430=VECTOR('',#1547,10.);
#431=VECTOR('',#1548,10.);
#432=VECTOR('',#1549,10.);
#433=VECTOR('',#1550,10.);
#434=VECTOR('',#1551,10.);
#435=VECTOR('',#1552,10.);
#436=VECTOR('',#1565,10.);
#437=VECTOR('',#1570,10.);
#438=VECTOR('',#1583,10.);
#439=VECTOR('',#1584,10.);
#440=VECTOR('',#1605,10.);
#441=VECTOR('',#1606,10.);
#442=VECTOR('',#1609,10.);
#443=VECTOR('',#1610,10.);
#444=VECTOR('',#1613,10.);
#445=VECTOR('',#1614,10.);
#446=VECTOR('',#1619,10.);
#447=VECTOR('',#1622,10.);
#448=VECTOR('',#1633,10.);
#449=VECTOR('',#1634,10.);
#450=VECTOR('',#1639,10.);
#451=VECTOR('',#1640,10.);
#452=VECTOR('',#1643,10.);
#453=VECTOR('',#1644,10.);
#454=VECTOR('',#1667,10.);
#455=VECTOR('',#1668,10.);
#456=VECTOR('',#1673,10.);
#457=VECTOR('',#1678,10.);
#458=VECTOR('',#1689,10.);
#459=VECTOR('',#1690,10.);
#460=VECTOR('',#1691,10.);
#461=VECTOR('',#1694,10.);
#462=VECTOR('',#1695,10.);
#463=VECTOR('',#1696,10.);
#464=VECTOR('',#1697,10.);
#465=VECTOR('',#1698,10.);
#466=VECTOR('',#1699,10.);
#467=VECTOR('',#1700,10.);
#468=VECTOR('',#1701,10.);
#469=VECTOR('',#1704,10.);
#470=VECTOR('',#1707,10.);
#471=VECTOR('',#1712,10.);
#472=VECTOR('',#1713,10.);
#473=VECTOR('',#1716,10.);
#474=VECTOR('',#1719,10.);
#475=VECTOR('',#1722,10.);
#476=VECTOR('',#1725,10.);
#477=VECTOR('',#1728,10.);
#478=VECTOR('',#1733,10.);
#479=VECTOR('',#1738,10.);
#480=VECTOR('',#1739,10.);
#481=VECTOR('',#1740,10.);
#482=VECTOR('',#1741,10.);
#483=VECTOR('',#1742,10.);
#484=VECTOR('',#1743,10.);
#485=VECTOR('',#1744,10.);
#486=VECTOR('',#1747,10.);
#487=VECTOR('',#1748,10.);
#488=VECTOR('',#1749,10.);
#489=VECTOR('',#1752,10.);
#490=VECTOR('',#1753,10.);
#491=VECTOR('',#1758,10.);
#492=VECTOR('',#1759,10.);
#493=VECTOR('',#1760,10.);
#494=VECTOR('',#1761,10.);
#495=VECTOR('',#1764,10.);
#496=VECTOR('',#1765,10.);
#497=VECTOR('',#1766,10.);
#498=VECTOR('',#1769,10.);
#499=VECTOR('',#1770,10.);
#500=VECTOR('',#1771,10.);
#501=VECTOR('',#1774,10.);
#502=VECTOR('',#1775,10.);
#503=VECTOR('',#1776,10.);
#504=VECTOR('',#1779,10.);
#505=VECTOR('',#1780,10.);
#506=VECTOR('',#1781,10.);
#507=VECTOR('',#1784,10.);
#508=VECTOR('',#1785,10.);
#509=VECTOR('',#1792,1.7);
#510=VECTOR('',#1797,10.);
#511=VECTOR('',#1798,10.);
#512=VECTOR('',#1799,10.);
#513=VECTOR('',#1802,10.);
#514=VECTOR('',#1803,10.);
#515=VECTOR('',#1806,10.);
#516=VECTOR('',#1807,10.);
#517=VECTOR('',#1810,10.);
#518=VECTOR('',#1815,10.);
#519=VECTOR('',#1816,10.);
#520=VECTOR('',#1817,10.);
#521=VECTOR('',#1822,10.);
#522=VECTOR('',#1827,10.);
#523=VECTOR('',#1828,10.);
#524=VECTOR('',#1829,10.);
#525=VECTOR('',#1834,10.);
#526=VECTOR('',#1835,10.);
#527=VECTOR('',#1838,0.600000000000001);
#528=VECTOR('',#1847,10.);
#529=VECTOR('',#1850,10.);
#530=VECTOR('',#1853,10.);
#531=VECTOR('',#1856,10.);
#532=VECTOR('',#1857,10.);
#533=VECTOR('',#1858,10.);
#534=VECTOR('',#1859,10.);
#535=VECTOR('',#1860,10.);
#536=VECTOR('',#1861,10.);
#537=VECTOR('',#1864,10.);
#538=VECTOR('',#1867,10.);
#539=VECTOR('',#1870,10.);
#540=VECTOR('',#1875,10.);
#541=VERTEX_POINT('',#1880);
#542=VERTEX_POINT('',#1881);
#543=VERTEX_POINT('',#1883);
#544=VERTEX_POINT('',#1885);
#545=VERTEX_POINT('',#1889);
#546=VERTEX_POINT('',#1891);
#547=VERTEX_POINT('',#1895);
#548=VERTEX_POINT('',#1897);
#549=VERTEX_POINT('',#1901);
#550=VERTEX_POINT('',#1903);
#551=VERTEX_POINT('',#1907);
#552=VERTEX_POINT('',#1909);
#553=VERTEX_POINT('',#1916);
#554=VERTEX_POINT('',#1919);
#555=VERTEX_POINT('',#1923);
#556=VERTEX_POINT('',#1924);
#557=VERTEX_POINT('',#1926);
#558=VERTEX_POINT('',#1928);
#559=VERTEX_POINT('',#1932);
#560=VERTEX_POINT('',#1934);
#561=VERTEX_POINT('',#1936);
#562=VERTEX_POINT('',#1940);
#563=VERTEX_POINT('',#1942);
#564=VERTEX_POINT('',#1944);
#565=VERTEX_POINT('',#1946);
#566=VERTEX_POINT('',#1948);
#567=VERTEX_POINT('',#1950);
#568=VERTEX_POINT('',#1952);
#569=VERTEX_POINT('',#1954);
#570=VERTEX_POINT('',#1956);
#571=VERTEX_POINT('',#1960);
#572=VERTEX_POINT('',#1961);
#573=VERTEX_POINT('',#1966);
#574=VERTEX_POINT('',#1970);
#575=VERTEX_POINT('',#1974);
#576=VERTEX_POINT('',#1975);
#577=VERTEX_POINT('',#1977);
#578=VERTEX_POINT('',#1981);
#579=VERTEX_POINT('',#1982);
#580=VERTEX_POINT('',#1987);
#581=VERTEX_POINT('',#1988);
#582=VERTEX_POINT('',#1990);
#583=VERTEX_POINT('',#1994);
#584=VERTEX_POINT('',#1995);
#585=VERTEX_POINT('',#1997);
#586=VERTEX_POINT('',#2001);
#587=VERTEX_POINT('',#2002);
#588=VERTEX_POINT('',#2013);
#589=VERTEX_POINT('',#2014);
#590=VERTEX_POINT('',#2016);
#591=VERTEX_POINT('',#2018);
#592=VERTEX_POINT('',#2022);
#593=VERTEX_POINT('',#2023);
#594=VERTEX_POINT('',#2031);
#595=VERTEX_POINT('',#2032);
#596=VERTEX_POINT('',#2040);
#597=VERTEX_POINT('',#2041);
#598=VERTEX_POINT('',#2043);
#599=VERTEX_POINT('',#2048);
#600=VERTEX_POINT('',#2050);
#601=VERTEX_POINT('',#2054);
#602=VERTEX_POINT('',#2059);
#603=VERTEX_POINT('',#2063);
#604=VERTEX_POINT('',#2071);
#605=VERTEX_POINT('',#2073);
#606=VERTEX_POINT('',#2077);
#607=VERTEX_POINT('',#2079);
#608=VERTEX_POINT('',#2081);
#609=VERTEX_POINT('',#2083);
#610=VERTEX_POINT('',#2085);
#611=VERTEX_POINT('',#2087);
#612=VERTEX_POINT('',#2089);
#613=VERTEX_POINT('',#2093);
#614=VERTEX_POINT('',#2095);
#615=VERTEX_POINT('',#2097);
#616=VERTEX_POINT('',#2099);
#617=VERTEX_POINT('',#2101);
#618=VERTEX_POINT('',#2103);
#619=VERTEX_POINT('',#2115);
#620=VERTEX_POINT('',#2119);
#621=VERTEX_POINT('',#2124);
#622=VERTEX_POINT('',#2126);
#623=VERTEX_POINT('',#2128);
#624=VERTEX_POINT('',#2130);
#625=VERTEX_POINT('',#2135);
#626=VERTEX_POINT('',#2137);
#627=VERTEX_POINT('',#2141);
#628=VERTEX_POINT('',#2143);
#629=VERTEX_POINT('',#2147);
#630=VERTEX_POINT('',#2148);
#631=VERTEX_POINT('',#2150);
#632=VERTEX_POINT('',#2152);
#633=VERTEX_POINT('',#2156);
#634=VERTEX_POINT('',#2158);
#635=VERTEX_POINT('',#2162);
#636=VERTEX_POINT('',#2164);
#637=VERTEX_POINT('',#2168);
#638=VERTEX_POINT('',#2170);
#639=VERTEX_POINT('',#2174);
#640=VERTEX_POINT('',#2176);
#641=VERTEX_POINT('',#2183);
#642=VERTEX_POINT('',#2186);
#643=VERTEX_POINT('',#2190);
#644=VERTEX_POINT('',#2192);
#645=VERTEX_POINT('',#2196);
#646=VERTEX_POINT('',#2200);
#647=VERTEX_POINT('',#2207);
#648=VERTEX_POINT('',#2209);
#649=VERTEX_POINT('',#2214);
#650=VERTEX_POINT('',#2218);
#651=VERTEX_POINT('',#2220);
#652=VERTEX_POINT('',#2223);
#653=VERTEX_POINT('',#2226);
#654=VERTEX_POINT('',#2230);
#655=VERTEX_POINT('',#2242);
#656=VERTEX_POINT('',#2244);
#657=VERTEX_POINT('',#2246);
#658=VERTEX_POINT('',#2249);
#659=EDGE_CURVE('',#541,#542,#261,.T.);
#660=EDGE_CURVE('',#541,#543,#262,.T.);
#661=EDGE_CURVE('',#543,#544,#263,.T.);
#662=EDGE_CURVE('',#542,#544,#264,.T.);
#663=EDGE_CURVE('',#545,#541,#265,.T.);
#664=EDGE_CURVE('',#545,#546,#266,.T.);
#665=EDGE_CURVE('',#546,#543,#267,.T.);
#666=EDGE_CURVE('',#547,#545,#268,.T.);
#667=EDGE_CURVE('',#547,#548,#269,.T.);
#668=EDGE_CURVE('',#548,#546,#270,.T.);
#669=EDGE_CURVE('',#549,#547,#271,.T.);
#670=EDGE_CURVE('',#549,#550,#272,.T.);
#671=EDGE_CURVE('',#550,#548,#273,.T.);
#672=EDGE_CURVE('',#551,#549,#274,.T.);
#673=EDGE_CURVE('',#551,#552,#275,.T.);
#674=EDGE_CURVE('',#552,#550,#276,.T.);
#675=EDGE_CURVE('',#542,#551,#277,.T.);
#676=EDGE_CURVE('',#544,#552,#278,.T.);
#677=EDGE_CURVE('',#553,#553,#53,.T.);
#678=EDGE_CURVE('',#553,#554,#279,.T.);
#679=EDGE_CURVE('',#554,#554,#54,.T.);
#680=EDGE_CURVE('',#555,#556,#55,.T.);
#681=EDGE_CURVE('',#556,#557,#280,.T.);
#682=EDGE_CURVE('',#557,#558,#56,.T.);
#683=EDGE_CURVE('',#558,#555,#281,.T.);
#684=EDGE_CURVE('',#559,#557,#282,.T.);
#685=EDGE_CURVE('',#559,#560,#283,.T.);
#686=EDGE_CURVE('',#561,#560,#284,.F.);
#687=EDGE_CURVE('',#558,#561,#285,.T.);
#688=EDGE_CURVE('',#562,#556,#286,.T.);
#689=EDGE_CURVE('',#563,#562,#287,.T.);
#690=EDGE_CURVE('',#563,#564,#288,.F.);
#691=EDGE_CURVE('',#565,#564,#289,.T.);
#692=EDGE_CURVE('',#566,#565,#290,.T.);
#693=EDGE_CURVE('',#566,#567,#291,.T.);
#694=EDGE_CURVE('',#568,#567,#292,.T.);
#695=EDGE_CURVE('',#569,#568,#293,.T.);
#696=EDGE_CURVE('',#569,#570,#294,.T.);
#697=EDGE_CURVE('',#570,#559,#295,.T.);
#698=EDGE_CURVE('',#571,#572,#57,.F.);
#699=EDGE_CURVE('',#568,#571,#58,.F.);
#700=EDGE_CURVE('',#572,#568,#59,.F.);
#701=EDGE_CURVE('',#573,#569,#60,.T.);
#702=EDGE_CURVE('',#571,#573,#296,.T.);
#703=EDGE_CURVE('',#567,#574,#61,.T.);
#704=EDGE_CURVE('',#574,#572,#297,.T.);
#705=EDGE_CURVE('',#575,#576,#62,.F.);
#706=EDGE_CURVE('',#577,#575,#63,.F.);
#707=EDGE_CURVE('',#576,#577,#64,.F.);
#708=EDGE_CURVE('',#578,#579,#65,.T.);
#709=EDGE_CURVE('',#579,#577,#298,.T.);
#710=EDGE_CURVE('',#575,#578,#299,.T.);
#711=EDGE_CURVE('',#580,#581,#66,.F.);
#712=EDGE_CURVE('',#582,#580,#67,.F.);
#713=EDGE_CURVE('',#581,#582,#68,.F.);
#714=EDGE_CURVE('',#583,#584,#69,.F.);
#715=EDGE_CURVE('',#585,#583,#70,.F.);
#716=EDGE_CURVE('',#584,#585,#71,.F.);
#717=EDGE_CURVE('',#586,#587,#72,.T.);
#718=EDGE_CURVE('',#587,#585,#300,.T.);
#719=EDGE_CURVE('',#583,#586,#301,.T.);
#720=EDGE_CURVE('',#585,#582,#302,.T.);
#721=EDGE_CURVE('',#580,#584,#303,.T.);
#722=EDGE_CURVE('',#584,#576,#304,.T.);
#723=EDGE_CURVE('',#577,#583,#305,.T.);
#724=EDGE_CURVE('',#588,#589,#73,.T.);
#725=EDGE_CURVE('',#589,#590,#306,.T.);
#726=EDGE_CURVE('',#590,#591,#74,.T.);
#727=EDGE_CURVE('',#591,#588,#307,.T.);
#728=EDGE_CURVE('',#592,#593,#75,.T.);
#729=EDGE_CURVE('',#593,#591,#76,.T.);
#730=EDGE_CURVE('',#590,#592,#77,.T.);
#731=EDGE_CURVE('',#582,#593,#308,.T.);
#732=EDGE_CURVE('',#592,#581,#309,.T.);
#733=EDGE_CURVE('',#594,#595,#78,.T.);
#734=EDGE_CURVE('',#595,#580,#310,.T.);
#735=EDGE_CURVE('',#581,#594,#311,.T.);
#736=EDGE_CURVE('',#576,#571,#312,.T.);
#737=EDGE_CURVE('',#572,#575,#313,.T.);
#738=EDGE_CURVE('',#596,#597,#79,.T.);
#739=EDGE_CURVE('',#597,#598,#80,.T.);
#740=EDGE_CURVE('',#598,#588,#81,.T.);
#741=EDGE_CURVE('',#588,#596,#82,.T.);
#742=EDGE_CURVE('',#599,#565,#83,.F.);
#743=EDGE_CURVE('',#600,#599,#84,.F.);
#744=EDGE_CURVE('',#565,#600,#85,.F.);
#745=EDGE_CURVE('',#601,#596,#86,.T.);
#746=EDGE_CURVE('',#596,#600,#314,.T.);
#747=EDGE_CURVE('',#599,#601,#315,.T.);
#748=EDGE_CURVE('',#602,#566,#87,.T.);
#749=EDGE_CURVE('',#600,#602,#316,.T.);
#750=EDGE_CURVE('',#564,#603,#88,.T.);
#751=EDGE_CURVE('',#603,#599,#317,.T.);
#752=EDGE_CURVE('',#601,#597,#89,.T.);
#753=EDGE_CURVE('',#598,#589,#90,.T.);
#754=EDGE_CURVE('',#604,#573,#318,.T.);
#755=EDGE_CURVE('',#605,#604,#319,.F.);
#756=EDGE_CURVE('',#570,#605,#320,.T.);
#757=EDGE_CURVE('',#595,#606,#321,.F.);
#758=EDGE_CURVE('',#606,#607,#322,.F.);
#759=EDGE_CURVE('',#607,#608,#323,.F.);
#760=EDGE_CURVE('',#608,#609,#324,.T.);
#761=EDGE_CURVE('',#609,#610,#325,.F.);
#762=EDGE_CURVE('',#610,#611,#326,.F.);
#763=EDGE_CURVE('',#611,#612,#327,.F.);
#764=EDGE_CURVE('',#612,#604,#328,.F.);
#765=EDGE_CURVE('',#594,#613,#329,.T.);
#766=EDGE_CURVE('',#613,#614,#91,.T.);
#767=EDGE_CURVE('',#614,#615,#330,.T.);
#768=EDGE_CURVE('',#616,#615,#92,.T.);
#769=EDGE_CURVE('',#616,#617,#93,.T.);
#770=EDGE_CURVE('',#618,#617,#331,.T.);
#771=EDGE_CURVE('',#618,#606,#332,.F.);
#772=EDGE_CURVE('',#592,#613,#333,.T.);
#773=EDGE_CURVE('',#590,#614,#334,.T.);
#774=EDGE_CURVE('',#615,#589,#335,.T.);
#775=EDGE_CURVE('',#598,#616,#336,.T.);
#776=EDGE_CURVE('',#619,#597,#337,.T.);
#777=EDGE_CURVE('',#617,#619,#94,.T.);
#778=EDGE_CURVE('',#601,#620,#338,.T.);
#779=EDGE_CURVE('',#620,#619,#95,.T.);
#780=EDGE_CURVE('',#587,#602,#339,.T.);
#781=EDGE_CURVE('',#621,#586,#340,.T.);
#782=EDGE_CURVE('',#621,#622,#341,.T.);
#783=EDGE_CURVE('',#622,#623,#342,.T.);
#784=EDGE_CURVE('',#623,#624,#343,.T.);
#785=EDGE_CURVE('',#579,#624,#344,.T.);
#786=EDGE_CURVE('',#574,#578,#345,.T.);
#787=EDGE_CURVE('',#625,#603,#346,.T.);
#788=EDGE_CURVE('',#626,#625,#347,.T.);
#789=EDGE_CURVE('',#620,#626,#348,.T.);
#790=EDGE_CURVE('',#627,#563,#349,.F.);
#791=EDGE_CURVE('',#627,#628,#350,.F.);
#792=EDGE_CURVE('',#625,#628,#96,.T.);
#793=EDGE_CURVE('',#629,#630,#351,.T.);
#794=EDGE_CURVE('',#629,#631,#352,.F.);
#795=EDGE_CURVE('',#631,#632,#353,.T.);
#796=EDGE_CURVE('',#630,#632,#354,.F.);
#797=EDGE_CURVE('',#633,#629,#355,.T.);
#798=EDGE_CURVE('',#633,#634,#356,.F.);
#799=EDGE_CURVE('',#634,#631,#357,.T.);
#800=EDGE_CURVE('',#635,#633,#358,.T.);
#801=EDGE_CURVE('',#635,#636,#359,.T.);
#802=EDGE_CURVE('',#636,#634,#360,.T.);
#803=EDGE_CURVE('',#637,#635,#361,.T.);
#804=EDGE_CURVE('',#637,#638,#362,.F.);
#805=EDGE_CURVE('',#638,#636,#363,.T.);
#806=EDGE_CURVE('',#639,#637,#364,.T.);
#807=EDGE_CURVE('',#639,#640,#365,.F.);
#808=EDGE_CURVE('',#640,#638,#366,.T.);
#809=EDGE_CURVE('',#630,#639,#367,.T.);
#810=EDGE_CURVE('',#632,#640,#368,.T.);
#811=EDGE_CURVE('',#641,#641,#97,.T.);
#812=EDGE_CURVE('',#641,#642,#369,.T.);
#813=EDGE_CURVE('',#642,#642,#98,.T.);
#814=EDGE_CURVE('',#643,#621,#370,.T.);
#815=EDGE_CURVE('',#644,#643,#371,.T.);
#816=EDGE_CURVE('',#622,#644,#372,.T.);
#817=EDGE_CURVE('',#645,#644,#373,.T.);
#818=EDGE_CURVE('',#623,#645,#374,.T.);
#819=EDGE_CURVE('',#646,#645,#375,.T.);
#820=EDGE_CURVE('',#624,#646,#376,.T.);
#821=EDGE_CURVE('',#646,#643,#377,.T.);
#822=EDGE_CURVE('',#647,#608,#378,.T.);
#823=EDGE_CURVE('',#648,#647,#379,.T.);
#824=EDGE_CURVE('',#648,#609,#380,.F.);
#825=EDGE_CURVE('',#628,#649,#381,.T.);
#826=EDGE_CURVE('',#649,#626,#99,.F.);
#827=EDGE_CURVE('',#650,#555,#382,.F.);
#828=EDGE_CURVE('',#651,#650,#383,.T.);
#829=EDGE_CURVE('',#562,#651,#384,.F.);
#830=EDGE_CURVE('',#652,#652,#100,.T.);
#831=EDGE_CURVE('',#653,#627,#385,.T.);
#832=EDGE_CURVE('',#653,#649,#386,.F.);
#833=EDGE_CURVE('',#652,#654,#387,.T.);
#834=EDGE_CURVE('',#654,#654,#101,.T.);
#835=EDGE_CURVE('',#560,#605,#388,.F.);
#836=EDGE_CURVE('',#561,#650,#389,.F.);
#837=EDGE_CURVE('',#617,#653,#390,.T.);
#838=EDGE_CURVE('',#651,#655,#391,.T.);
#839=EDGE_CURVE('',#655,#656,#392,.T.);
#840=EDGE_CURVE('',#656,#657,#393,.F.);
#841=EDGE_CURVE('',#657,#648,#394,.F.);
#842=EDGE_CURVE('',#647,#658,#395,.F.);
#843=EDGE_CURVE('',#658,#618,#396,.F.);
#844=EDGE_CURVE('',#655,#612,#397,.T.);
#845=EDGE_CURVE('',#656,#611,#398,.T.);
#846=EDGE_CURVE('',#657,#610,#399,.F.);
#847=EDGE_CURVE('',#658,#607,#400,.T.);
#848=ORIENTED_EDGE('',*,*,#659,.F.);
#849=ORIENTED_EDGE('',*,*,#660,.T.);
#850=ORIENTED_EDGE('',*,*,#661,.T.);
#851=ORIENTED_EDGE('',*,*,#662,.F.);
#852=ORIENTED_EDGE('',*,*,#663,.F.);
#853=ORIENTED_EDGE('',*,*,#664,.T.);
#854=ORIENTED_EDGE('',*,*,#665,.T.);
#855=ORIENTED_EDGE('',*,*,#660,.F.);
#856=ORIENTED_EDGE('',*,*,#666,.F.);
#857=ORIENTED_EDGE('',*,*,#667,.T.);
#858=ORIENTED_EDGE('',*,*,#668,.T.);
#859=ORIENTED_EDGE('',*,*,#664,.F.);
#860=ORIENTED_EDGE('',*,*,#669,.F.);
#861=ORIENTED_EDGE('',*,*,#670,.T.);
#862=ORIENTED_EDGE('',*,*,#671,.T.);
#863=ORIENTED_EDGE('',*,*,#667,.F.);
#864=ORIENTED_EDGE('',*,*,#672,.F.);
#865=ORIENTED_EDGE('',*,*,#673,.T.);
#866=ORIENTED_EDGE('',*,*,#674,.T.);
#867=ORIENTED_EDGE('',*,*,#670,.F.);
#868=ORIENTED_EDGE('',*,*,#675,.F.);
#869=ORIENTED_EDGE('',*,*,#662,.T.);
#870=ORIENTED_EDGE('',*,*,#676,.T.);
#871=ORIENTED_EDGE('',*,*,#673,.F.);
#872=ORIENTED_EDGE('',*,*,#676,.F.);
#873=ORIENTED_EDGE('',*,*,#661,.F.);
#874=ORIENTED_EDGE('',*,*,#665,.F.);
#875=ORIENTED_EDGE('',*,*,#668,.F.);
#876=ORIENTED_EDGE('',*,*,#671,.F.);
#877=ORIENTED_EDGE('',*,*,#674,.F.);
#878=ORIENTED_EDGE('',*,*,#677,.F.);
#879=ORIENTED_EDGE('',*,*,#677,.T.);
#880=ORIENTED_EDGE('',*,*,#678,.T.);
#881=ORIENTED_EDGE('',*,*,#679,.F.);
#882=ORIENTED_EDGE('',*,*,#678,.F.);
#883=ORIENTED_EDGE('',*,*,#680,.T.);
#884=ORIENTED_EDGE('',*,*,#681,.T.);
#885=ORIENTED_EDGE('',*,*,#682,.T.);
#886=ORIENTED_EDGE('',*,*,#683,.T.);
#887=ORIENTED_EDGE('',*,*,#682,.F.);
#888=ORIENTED_EDGE('',*,*,#684,.F.);
#889=ORIENTED_EDGE('',*,*,#685,.T.);
#890=ORIENTED_EDGE('',*,*,#686,.F.);
#891=ORIENTED_EDGE('',*,*,#687,.F.);
#892=ORIENTED_EDGE('',*,*,#681,.F.);
#893=ORIENTED_EDGE('',*,*,#688,.F.);
#894=ORIENTED_EDGE('',*,*,#689,.F.);
#895=ORIENTED_EDGE('',*,*,#690,.T.);
#896=ORIENTED_EDGE('',*,*,#691,.F.);
#897=ORIENTED_EDGE('',*,*,#692,.F.);
#898=ORIENTED_EDGE('',*,*,#693,.T.);
#899=ORIENTED_EDGE('',*,*,#694,.F.);
#900=ORIENTED_EDGE('',*,*,#695,.F.);
#901=ORIENTED_EDGE('',*,*,#696,.T.);
#902=ORIENTED_EDGE('',*,*,#697,.T.);
#903=ORIENTED_EDGE('',*,*,#684,.T.);
#904=ORIENTED_EDGE('',*,*,#698,.F.);
#905=ORIENTED_EDGE('',*,*,#699,.F.);
#906=ORIENTED_EDGE('',*,*,#700,.F.);
#907=ORIENTED_EDGE('',*,*,#701,.T.);
#908=ORIENTED_EDGE('',*,*,#695,.T.);
#909=ORIENTED_EDGE('',*,*,#699,.T.);
#910=ORIENTED_EDGE('',*,*,#702,.T.);
#911=ORIENTED_EDGE('',*,*,#703,.T.);
#912=ORIENTED_EDGE('',*,*,#704,.T.);
#913=ORIENTED_EDGE('',*,*,#700,.T.);
#914=ORIENTED_EDGE('',*,*,#694,.T.);
#915=ORIENTED_EDGE('',*,*,#705,.F.);
#916=ORIENTED_EDGE('',*,*,#706,.F.);
#917=ORIENTED_EDGE('',*,*,#707,.F.);
#918=ORIENTED_EDGE('',*,*,#708,.T.);
#919=ORIENTED_EDGE('',*,*,#709,.T.);
#920=ORIENTED_EDGE('',*,*,#706,.T.);
#921=ORIENTED_EDGE('',*,*,#710,.T.);
#922=ORIENTED_EDGE('',*,*,#711,.F.);
#923=ORIENTED_EDGE('',*,*,#712,.F.);
#924=ORIENTED_EDGE('',*,*,#713,.F.);
#925=ORIENTED_EDGE('',*,*,#714,.F.);
#926=ORIENTED_EDGE('',*,*,#715,.F.);
#927=ORIENTED_EDGE('',*,*,#716,.F.);
#928=ORIENTED_EDGE('',*,*,#717,.T.);
#929=ORIENTED_EDGE('',*,*,#718,.T.);
#930=ORIENTED_EDGE('',*,*,#715,.T.);
#931=ORIENTED_EDGE('',*,*,#719,.T.);
#932=ORIENTED_EDGE('',*,*,#716,.T.);
#933=ORIENTED_EDGE('',*,*,#720,.T.);
#934=ORIENTED_EDGE('',*,*,#712,.T.);
#935=ORIENTED_EDGE('',*,*,#721,.T.);
#936=ORIENTED_EDGE('',*,*,#714,.T.);
#937=ORIENTED_EDGE('',*,*,#722,.T.);
#938=ORIENTED_EDGE('',*,*,#707,.T.);
#939=ORIENTED_EDGE('',*,*,#723,.T.);
#940=ORIENTED_EDGE('',*,*,#724,.T.);
#941=ORIENTED_EDGE('',*,*,#725,.T.);
#942=ORIENTED_EDGE('',*,*,#726,.T.);
#943=ORIENTED_EDGE('',*,*,#727,.T.);
#944=ORIENTED_EDGE('',*,*,#728,.T.);
#945=ORIENTED_EDGE('',*,*,#729,.T.);
#946=ORIENTED_EDGE('',*,*,#726,.F.);
#947=ORIENTED_EDGE('',*,*,#730,.T.);
#948=ORIENTED_EDGE('',*,*,#713,.T.);
#949=ORIENTED_EDGE('',*,*,#731,.T.);
#950=ORIENTED_EDGE('',*,*,#728,.F.);
#951=ORIENTED_EDGE('',*,*,#732,.T.);
#952=ORIENTED_EDGE('',*,*,#733,.T.);
#953=ORIENTED_EDGE('',*,*,#734,.T.);
#954=ORIENTED_EDGE('',*,*,#711,.T.);
#955=ORIENTED_EDGE('',*,*,#735,.T.);
#956=ORIENTED_EDGE('',*,*,#705,.T.);
#957=ORIENTED_EDGE('',*,*,#736,.T.);
#958=ORIENTED_EDGE('',*,*,#698,.T.);
#959=ORIENTED_EDGE('',*,*,#737,.T.);
#960=ORIENTED_EDGE('',*,*,#738,.T.);
#961=ORIENTED_EDGE('',*,*,#739,.T.);
#962=ORIENTED_EDGE('',*,*,#740,.T.);
#963=ORIENTED_EDGE('',*,*,#741,.T.);
#964=ORIENTED_EDGE('',*,*,#742,.F.);
#965=ORIENTED_EDGE('',*,*,#743,.F.);
#966=ORIENTED_EDGE('',*,*,#744,.F.);
#967=ORIENTED_EDGE('',*,*,#745,.T.);
#968=ORIENTED_EDGE('',*,*,#746,.T.);
#969=ORIENTED_EDGE('',*,*,#743,.T.);
#970=ORIENTED_EDGE('',*,*,#747,.T.);
#971=ORIENTED_EDGE('',*,*,#748,.T.);
#972=ORIENTED_EDGE('',*,*,#692,.T.);
#973=ORIENTED_EDGE('',*,*,#744,.T.);
#974=ORIENTED_EDGE('',*,*,#749,.T.);
#975=ORIENTED_EDGE('',*,*,#750,.T.);
#976=ORIENTED_EDGE('',*,*,#751,.T.);
#977=ORIENTED_EDGE('',*,*,#742,.T.);
#978=ORIENTED_EDGE('',*,*,#691,.T.);
#979=ORIENTED_EDGE('',*,*,#745,.F.);
#980=ORIENTED_EDGE('',*,*,#752,.T.);
#981=ORIENTED_EDGE('',*,*,#738,.F.);
#982=ORIENTED_EDGE('',*,*,#740,.F.);
#983=ORIENTED_EDGE('',*,*,#753,.T.);
#984=ORIENTED_EDGE('',*,*,#724,.F.);
#985=ORIENTED_EDGE('',*,*,#701,.F.);
#986=ORIENTED_EDGE('',*,*,#754,.F.);
#987=ORIENTED_EDGE('',*,*,#755,.F.);
#988=ORIENTED_EDGE('',*,*,#756,.F.);
#989=ORIENTED_EDGE('',*,*,#696,.F.);
#990=ORIENTED_EDGE('',*,*,#702,.F.);
#991=ORIENTED_EDGE('',*,*,#736,.F.);
#992=ORIENTED_EDGE('',*,*,#722,.F.);
#993=ORIENTED_EDGE('',*,*,#721,.F.);
#994=ORIENTED_EDGE('',*,*,#734,.F.);
#995=ORIENTED_EDGE('',*,*,#757,.T.);
#996=ORIENTED_EDGE('',*,*,#758,.T.);
#997=ORIENTED_EDGE('',*,*,#759,.T.);
#998=ORIENTED_EDGE('',*,*,#760,.T.);
#999=ORIENTED_EDGE('',*,*,#761,.T.);
#1000=ORIENTED_EDGE('',*,*,#762,.T.);
#1001=ORIENTED_EDGE('',*,*,#763,.T.);
#1002=ORIENTED_EDGE('',*,*,#764,.T.);
#1003=ORIENTED_EDGE('',*,*,#754,.T.);
#1004=ORIENTED_EDGE('',*,*,#733,.F.);
#1005=ORIENTED_EDGE('',*,*,#765,.T.);
#1006=ORIENTED_EDGE('',*,*,#766,.T.);
#1007=ORIENTED_EDGE('',*,*,#767,.T.);
#1008=ORIENTED_EDGE('',*,*,#768,.F.);
#1009=ORIENTED_EDGE('',*,*,#769,.T.);
#1010=ORIENTED_EDGE('',*,*,#770,.F.);
#1011=ORIENTED_EDGE('',*,*,#771,.T.);
#1012=ORIENTED_EDGE('',*,*,#757,.F.);
#1013=ORIENTED_EDGE('',*,*,#735,.F.);
#1014=ORIENTED_EDGE('',*,*,#732,.F.);
#1015=ORIENTED_EDGE('',*,*,#772,.T.);
#1016=ORIENTED_EDGE('',*,*,#765,.F.);
#1017=ORIENTED_EDGE('',*,*,#730,.F.);
#1018=ORIENTED_EDGE('',*,*,#773,.T.);
#1019=ORIENTED_EDGE('',*,*,#766,.F.);
#1020=ORIENTED_EDGE('',*,*,#772,.F.);
#1021=ORIENTED_EDGE('',*,*,#725,.F.);
#1022=ORIENTED_EDGE('',*,*,#774,.F.);
#1023=ORIENTED_EDGE('',*,*,#767,.F.);
#1024=ORIENTED_EDGE('',*,*,#773,.F.);
#1025=ORIENTED_EDGE('',*,*,#753,.F.);
#1026=ORIENTED_EDGE('',*,*,#775,.T.);
#1027=ORIENTED_EDGE('',*,*,#768,.T.);
#1028=ORIENTED_EDGE('',*,*,#774,.T.);
#1029=ORIENTED_EDGE('',*,*,#739,.F.);
#1030=ORIENTED_EDGE('',*,*,#776,.F.);
#1031=ORIENTED_EDGE('',*,*,#777,.F.);
#1032=ORIENTED_EDGE('',*,*,#769,.F.);
#1033=ORIENTED_EDGE('',*,*,#775,.F.);
#1034=ORIENTED_EDGE('',*,*,#752,.F.);
#1035=ORIENTED_EDGE('',*,*,#778,.T.);
#1036=ORIENTED_EDGE('',*,*,#779,.T.);
#1037=ORIENTED_EDGE('',*,*,#776,.T.);
#1038=ORIENTED_EDGE('',*,*,#703,.F.);
#1039=ORIENTED_EDGE('',*,*,#693,.F.);
#1040=ORIENTED_EDGE('',*,*,#748,.F.);
#1041=ORIENTED_EDGE('',*,*,#780,.F.);
#1042=ORIENTED_EDGE('',*,*,#717,.F.);
#1043=ORIENTED_EDGE('',*,*,#781,.F.);
#1044=ORIENTED_EDGE('',*,*,#782,.T.);
#1045=ORIENTED_EDGE('',*,*,#783,.T.);
#1046=ORIENTED_EDGE('',*,*,#784,.T.);
#1047=ORIENTED_EDGE('',*,*,#785,.F.);
#1048=ORIENTED_EDGE('',*,*,#708,.F.);
#1049=ORIENTED_EDGE('',*,*,#786,.F.);
#1050=ORIENTED_EDGE('',*,*,#679,.T.);
#1051=ORIENTED_EDGE('',*,*,#747,.F.);
#1052=ORIENTED_EDGE('',*,*,#751,.F.);
#1053=ORIENTED_EDGE('',*,*,#787,.F.);
#1054=ORIENTED_EDGE('',*,*,#788,.F.);
#1055=ORIENTED_EDGE('',*,*,#789,.F.);
#1056=ORIENTED_EDGE('',*,*,#778,.F.);
#1057=ORIENTED_EDGE('',*,*,#750,.F.);
#1058=ORIENTED_EDGE('',*,*,#690,.F.);
#1059=ORIENTED_EDGE('',*,*,#790,.F.);
#1060=ORIENTED_EDGE('',*,*,#791,.T.);
#1061=ORIENTED_EDGE('',*,*,#792,.F.);
#1062=ORIENTED_EDGE('',*,*,#787,.T.);
#1063=ORIENTED_EDGE('',*,*,#793,.F.);
#1064=ORIENTED_EDGE('',*,*,#794,.T.);
#1065=ORIENTED_EDGE('',*,*,#795,.T.);
#1066=ORIENTED_EDGE('',*,*,#796,.F.);
#1067=ORIENTED_EDGE('',*,*,#797,.F.);
#1068=ORIENTED_EDGE('',*,*,#798,.T.);
#1069=ORIENTED_EDGE('',*,*,#799,.T.);
#1070=ORIENTED_EDGE('',*,*,#794,.F.);
#1071=ORIENTED_EDGE('',*,*,#800,.F.);
#1072=ORIENTED_EDGE('',*,*,#801,.T.);
#1073=ORIENTED_EDGE('',*,*,#802,.T.);
#1074=ORIENTED_EDGE('',*,*,#798,.F.);
#1075=ORIENTED_EDGE('',*,*,#803,.F.);
#1076=ORIENTED_EDGE('',*,*,#804,.T.);
#1077=ORIENTED_EDGE('',*,*,#805,.T.);
#1078=ORIENTED_EDGE('',*,*,#801,.F.);
#1079=ORIENTED_EDGE('',*,*,#806,.F.);
#1080=ORIENTED_EDGE('',*,*,#807,.T.);
#1081=ORIENTED_EDGE('',*,*,#808,.T.);
#1082=ORIENTED_EDGE('',*,*,#804,.F.);
#1083=ORIENTED_EDGE('',*,*,#809,.F.);
#1084=ORIENTED_EDGE('',*,*,#796,.T.);
#1085=ORIENTED_EDGE('',*,*,#810,.T.);
#1086=ORIENTED_EDGE('',*,*,#807,.F.);
#1087=ORIENTED_EDGE('',*,*,#810,.F.);
#1088=ORIENTED_EDGE('',*,*,#795,.F.);
#1089=ORIENTED_EDGE('',*,*,#799,.F.);
#1090=ORIENTED_EDGE('',*,*,#802,.F.);
#1091=ORIENTED_EDGE('',*,*,#805,.F.);
#1092=ORIENTED_EDGE('',*,*,#808,.F.);
#1093=ORIENTED_EDGE('',*,*,#811,.F.);
#1094=ORIENTED_EDGE('',*,*,#811,.T.);
#1095=ORIENTED_EDGE('',*,*,#812,.T.);
#1096=ORIENTED_EDGE('',*,*,#813,.F.);
#1097=ORIENTED_EDGE('',*,*,#812,.F.);
#1098=ORIENTED_EDGE('',*,*,#782,.F.);
#1099=ORIENTED_EDGE('',*,*,#814,.F.);
#1100=ORIENTED_EDGE('',*,*,#815,.F.);
#1101=ORIENTED_EDGE('',*,*,#816,.F.);
#1102=ORIENTED_EDGE('',*,*,#783,.F.);
#1103=ORIENTED_EDGE('',*,*,#816,.T.);
#1104=ORIENTED_EDGE('',*,*,#817,.F.);
#1105=ORIENTED_EDGE('',*,*,#818,.F.);
#1106=ORIENTED_EDGE('',*,*,#784,.F.);
#1107=ORIENTED_EDGE('',*,*,#818,.T.);
#1108=ORIENTED_EDGE('',*,*,#819,.F.);
#1109=ORIENTED_EDGE('',*,*,#820,.F.);
#1110=ORIENTED_EDGE('',*,*,#819,.T.);
#1111=ORIENTED_EDGE('',*,*,#817,.T.);
#1112=ORIENTED_EDGE('',*,*,#815,.T.);
#1113=ORIENTED_EDGE('',*,*,#821,.F.);
#1114=ORIENTED_EDGE('',*,*,#659,.T.);
#1115=ORIENTED_EDGE('',*,*,#675,.T.);
#1116=ORIENTED_EDGE('',*,*,#672,.T.);
#1117=ORIENTED_EDGE('',*,*,#669,.T.);
#1118=ORIENTED_EDGE('',*,*,#666,.T.);
#1119=ORIENTED_EDGE('',*,*,#663,.T.);
#1120=ORIENTED_EDGE('',*,*,#709,.F.);
#1121=ORIENTED_EDGE('',*,*,#785,.T.);
#1122=ORIENTED_EDGE('',*,*,#820,.T.);
#1123=ORIENTED_EDGE('',*,*,#821,.T.);
#1124=ORIENTED_EDGE('',*,*,#814,.T.);
#1125=ORIENTED_EDGE('',*,*,#781,.T.);
#1126=ORIENTED_EDGE('',*,*,#719,.F.);
#1127=ORIENTED_EDGE('',*,*,#723,.F.);
#1128=ORIENTED_EDGE('',*,*,#822,.F.);
#1129=ORIENTED_EDGE('',*,*,#823,.F.);
#1130=ORIENTED_EDGE('',*,*,#824,.T.);
#1131=ORIENTED_EDGE('',*,*,#760,.F.);
#1132=ORIENTED_EDGE('',*,*,#718,.F.);
#1133=ORIENTED_EDGE('',*,*,#780,.T.);
#1134=ORIENTED_EDGE('',*,*,#749,.F.);
#1135=ORIENTED_EDGE('',*,*,#746,.F.);
#1136=ORIENTED_EDGE('',*,*,#741,.F.);
#1137=ORIENTED_EDGE('',*,*,#727,.F.);
#1138=ORIENTED_EDGE('',*,*,#729,.F.);
#1139=ORIENTED_EDGE('',*,*,#731,.F.);
#1140=ORIENTED_EDGE('',*,*,#720,.F.);
#1141=ORIENTED_EDGE('',*,*,#792,.T.);
#1142=ORIENTED_EDGE('',*,*,#825,.T.);
#1143=ORIENTED_EDGE('',*,*,#826,.T.);
#1144=ORIENTED_EDGE('',*,*,#788,.T.);
#1145=ORIENTED_EDGE('',*,*,#680,.F.);
#1146=ORIENTED_EDGE('',*,*,#827,.F.);
#1147=ORIENTED_EDGE('',*,*,#828,.F.);
#1148=ORIENTED_EDGE('',*,*,#829,.F.);
#1149=ORIENTED_EDGE('',*,*,#688,.T.);
#1150=ORIENTED_EDGE('',*,*,#830,.T.);
#1151=ORIENTED_EDGE('',*,*,#825,.F.);
#1152=ORIENTED_EDGE('',*,*,#791,.F.);
#1153=ORIENTED_EDGE('',*,*,#831,.F.);
#1154=ORIENTED_EDGE('',*,*,#832,.T.);
#1155=ORIENTED_EDGE('',*,*,#830,.F.);
#1156=ORIENTED_EDGE('',*,*,#833,.T.);
#1157=ORIENTED_EDGE('',*,*,#834,.T.);
#1158=ORIENTED_EDGE('',*,*,#833,.F.);
#1159=ORIENTED_EDGE('',*,*,#834,.F.);
#1160=ORIENTED_EDGE('',*,*,#704,.F.);
#1161=ORIENTED_EDGE('',*,*,#786,.T.);
#1162=ORIENTED_EDGE('',*,*,#710,.F.);
#1163=ORIENTED_EDGE('',*,*,#737,.F.);
#1164=ORIENTED_EDGE('',*,*,#813,.T.);
#1165=ORIENTED_EDGE('',*,*,#835,.F.);
#1166=ORIENTED_EDGE('',*,*,#685,.F.);
#1167=ORIENTED_EDGE('',*,*,#697,.F.);
#1168=ORIENTED_EDGE('',*,*,#756,.T.);
#1169=ORIENTED_EDGE('',*,*,#683,.F.);
#1170=ORIENTED_EDGE('',*,*,#687,.T.);
#1171=ORIENTED_EDGE('',*,*,#836,.T.);
#1172=ORIENTED_EDGE('',*,*,#827,.T.);
#1173=ORIENTED_EDGE('',*,*,#779,.F.);
#1174=ORIENTED_EDGE('',*,*,#789,.T.);
#1175=ORIENTED_EDGE('',*,*,#826,.F.);
#1176=ORIENTED_EDGE('',*,*,#832,.F.);
#1177=ORIENTED_EDGE('',*,*,#837,.F.);
#1178=ORIENTED_EDGE('',*,*,#777,.T.);
#1179=ORIENTED_EDGE('',*,*,#790,.T.);
#1180=ORIENTED_EDGE('',*,*,#689,.T.);
#1181=ORIENTED_EDGE('',*,*,#829,.T.);
#1182=ORIENTED_EDGE('',*,*,#838,.T.);
#1183=ORIENTED_EDGE('',*,*,#839,.T.);
#1184=ORIENTED_EDGE('',*,*,#840,.T.);
#1185=ORIENTED_EDGE('',*,*,#841,.T.);
#1186=ORIENTED_EDGE('',*,*,#823,.T.);
#1187=ORIENTED_EDGE('',*,*,#842,.T.);
#1188=ORIENTED_EDGE('',*,*,#843,.T.);
#1189=ORIENTED_EDGE('',*,*,#770,.T.);
#1190=ORIENTED_EDGE('',*,*,#837,.T.);
#1191=ORIENTED_EDGE('',*,*,#831,.T.);
#1192=ORIENTED_EDGE('',*,*,#755,.T.);
#1193=ORIENTED_EDGE('',*,*,#764,.F.);
#1194=ORIENTED_EDGE('',*,*,#844,.F.);
#1195=ORIENTED_EDGE('',*,*,#838,.F.);
#1196=ORIENTED_EDGE('',*,*,#828,.T.);
#1197=ORIENTED_EDGE('',*,*,#836,.F.);
#1198=ORIENTED_EDGE('',*,*,#686,.T.);
#1199=ORIENTED_EDGE('',*,*,#835,.T.);
#1200=ORIENTED_EDGE('',*,*,#839,.F.);
#1201=ORIENTED_EDGE('',*,*,#844,.T.);
#1202=ORIENTED_EDGE('',*,*,#763,.F.);
#1203=ORIENTED_EDGE('',*,*,#845,.F.);
#1204=ORIENTED_EDGE('',*,*,#793,.T.);
#1205=ORIENTED_EDGE('',*,*,#809,.T.);
#1206=ORIENTED_EDGE('',*,*,#806,.T.);
#1207=ORIENTED_EDGE('',*,*,#803,.T.);
#1208=ORIENTED_EDGE('',*,*,#800,.T.);
#1209=ORIENTED_EDGE('',*,*,#797,.T.);
#1210=ORIENTED_EDGE('',*,*,#840,.F.);
#1211=ORIENTED_EDGE('',*,*,#845,.T.);
#1212=ORIENTED_EDGE('',*,*,#762,.F.);
#1213=ORIENTED_EDGE('',*,*,#846,.F.);
#1214=ORIENTED_EDGE('',*,*,#841,.F.);
#1215=ORIENTED_EDGE('',*,*,#846,.T.);
#1216=ORIENTED_EDGE('',*,*,#761,.F.);
#1217=ORIENTED_EDGE('',*,*,#824,.F.);
#1218=ORIENTED_EDGE('',*,*,#842,.F.);
#1219=ORIENTED_EDGE('',*,*,#822,.T.);
#1220=ORIENTED_EDGE('',*,*,#759,.F.);
#1221=ORIENTED_EDGE('',*,*,#847,.F.);
#1222=ORIENTED_EDGE('',*,*,#843,.F.);
#1223=ORIENTED_EDGE('',*,*,#847,.T.);
#1224=ORIENTED_EDGE('',*,*,#758,.F.);
#1225=ORIENTED_EDGE('',*,*,#771,.F.);
#1226=PLANE('',#1361);
#1227=PLANE('',#1362);
#1228=PLANE('',#1363);
#1229=PLANE('',#1364);
#1230=PLANE('',#1365);
#1231=PLANE('',#1366);
#1232=PLANE('',#1367);
#1233=PLANE('',#1374);
#1234=PLANE('',#1375);
#1235=PLANE('',#1432);
#1236=PLANE('',#1433);
#1237=PLANE('',#1434);
#1238=PLANE('',#1438);
#1239=PLANE('',#1440);
#1240=PLANE('',#1446);
#1241=PLANE('',#1447);
#1242=PLANE('',#1448);
#1243=PLANE('',#1450);
#1244=PLANE('',#1451);
#1245=PLANE('',#1452);
#1246=PLANE('',#1453);
#1247=PLANE('',#1454);
#1248=PLANE('',#1455);
#1249=PLANE('',#1456);
#1250=PLANE('',#1460);
#1251=PLANE('',#1461);
#1252=PLANE('',#1462);
#1253=PLANE('',#1463);
#1254=PLANE('',#1464);
#1255=PLANE('',#1465);
#1256=PLANE('',#1466);
#1257=PLANE('',#1469);
#1258=PLANE('',#1471);
#1259=PLANE('',#1474);
#1260=PLANE('',#1475);
#1261=PLANE('',#1476);
#1262=PLANE('',#1477);
#1263=PLANE('',#1478);
#1264=PLANE('',#1479);
#1265=PLANE('',#1480);
#1266=PLANE('',#1481);
#1267=PLANE('',#1482);
#1268=PLANE('',#1483);
#1269=PLANE('',#1484);
#1270=PLANE('',#1485);
#1271=ADVANCED_FACE('',(#102),#1226,.F.);
#1272=ADVANCED_FACE('',(#103),#1227,.F.);
#1273=ADVANCED_FACE('',(#104),#1228,.F.);
#1274=ADVANCED_FACE('',(#105),#1229,.F.);
#1275=ADVANCED_FACE('',(#106),#1230,.F.);
#1276=ADVANCED_FACE('',(#107),#1231,.F.);
#1277=ADVANCED_FACE('',(#108,#46),#1232,.T.);
#1278=ADVANCED_FACE('',(#109),#24,.F.);
#1279=ADVANCED_FACE('',(#110),#25,.T.);
#1280=ADVANCED_FACE('',(#111),#1233,.F.);
#1281=ADVANCED_FACE('',(#112),#1234,.T.);
#1282=ADVANCED_FACE('',(#113),#17,.T.);
#1283=ADVANCED_FACE('',(#114),#26,.T.);
#1284=ADVANCED_FACE('',(#115),#27,.T.);
#1285=ADVANCED_FACE('',(#116),#18,.T.);
#1286=ADVANCED_FACE('',(#117),#28,.T.);
#1287=ADVANCED_FACE('',(#118),#19,.T.);
#1288=ADVANCED_FACE('',(#119),#20,.T.);
#1289=ADVANCED_FACE('',(#120),#29,.T.);
#1290=ADVANCED_FACE('',(#121),#30,.T.);
#1291=ADVANCED_FACE('',(#122),#31,.T.);
#1292=ADVANCED_FACE('',(#123),#32,.T.);
#1293=ADVANCED_FACE('',(#124),#15,.T.);
#1294=ADVANCED_FACE('',(#125),#33,.T.);
#1295=ADVANCED_FACE('',(#126),#34,.T.);
#1296=ADVANCED_FACE('',(#127),#35,.T.);
#1297=ADVANCED_FACE('',(#128),#16,.T.);
#1298=ADVANCED_FACE('',(#129),#21,.T.);
#1299=ADVANCED_FACE('',(#130),#36,.T.);
#1300=ADVANCED_FACE('',(#131),#37,.T.);
#1301=ADVANCED_FACE('',(#132),#38,.T.);
#1302=ADVANCED_FACE('',(#133),#22,.T.);
#1303=ADVANCED_FACE('',(#134),#23,.T.);
#1304=ADVANCED_FACE('',(#135),#1235,.F.);
#1305=ADVANCED_FACE('',(#136),#1236,.T.);
#1306=ADVANCED_FACE('',(#137),#1237,.T.);
#1307=ADVANCED_FACE('',(#138),#1238,.F.);
#1308=ADVANCED_FACE('',(#139),#39,.F.);
#1309=ADVANCED_FACE('',(#140),#1239,.F.);
#1310=ADVANCED_FACE('',(#141),#40,.T.);
#1311=ADVANCED_FACE('',(#142),#41,.F.);
#1312=ADVANCED_FACE('',(#143),#42,.T.);
#1313=ADVANCED_FACE('',(#144,#47),#1240,.T.);
#1314=ADVANCED_FACE('',(#145),#1241,.F.);
#1315=ADVANCED_FACE('',(#146),#1242,.T.);
#1316=ADVANCED_FACE('',(#147),#1243,.F.);
#1317=ADVANCED_FACE('',(#148),#1244,.F.);
#1318=ADVANCED_FACE('',(#149),#1245,.F.);
#1319=ADVANCED_FACE('',(#150),#1246,.F.);
#1320=ADVANCED_FACE('',(#151),#1247,.F.);
#1321=ADVANCED_FACE('',(#152),#1248,.F.);
#1322=ADVANCED_FACE('',(#153,#48),#1249,.T.);
#1323=ADVANCED_FACE('',(#154),#43,.F.);
#1324=ADVANCED_FACE('',(#155),#1250,.T.);
#1325=ADVANCED_FACE('',(#156),#1251,.T.);
#1326=ADVANCED_FACE('',(#157),#1252,.T.);
#1327=ADVANCED_FACE('',(#158,#49),#1253,.T.);
#1328=ADVANCED_FACE('',(#159),#1254,.T.);
#1329=ADVANCED_FACE('',(#160),#1255,.T.);
#1330=ADVANCED_FACE('',(#161),#1256,.T.);
#1331=ADVANCED_FACE('',(#162),#44,.T.);
#1332=ADVANCED_FACE('',(#163,#50),#1257,.T.);
#1333=ADVANCED_FACE('',(#164),#1258,.T.);
#1334=ADVANCED_FACE('',(#165),#45,.F.);
#1335=ADVANCED_FACE('',(#166),#1259,.T.);
#1336=ADVANCED_FACE('',(#167,#51),#1260,.T.);
#1337=ADVANCED_FACE('',(#168),#1261,.F.);
#1338=ADVANCED_FACE('',(#169),#1262,.T.);
#1339=ADVANCED_FACE('',(#170),#1263,.T.);
#1340=ADVANCED_FACE('',(#171),#1264,.T.);
#1341=ADVANCED_FACE('',(#172),#1265,.T.);
#1342=ADVANCED_FACE('',(#173,#52),#1266,.T.);
#1343=ADVANCED_FACE('',(#174),#1267,.T.);
#1344=ADVANCED_FACE('',(#175),#1268,.T.);
#1345=ADVANCED_FACE('',(#176),#1269,.T.);
#1346=ADVANCED_FACE('',(#177),#1270,.T.);
#1347=CLOSED_SHELL('',(#1271,#1272,#1273,#1274,#1275,#1276,#1277,#1278,
#1279,#1280,#1281,#1282,#1283,#1284,#1285,#1286,#1287,#1288,#1289,#1290,
#1291,#1292,#1293,#1294,#1295,#1296,#1297,#1298,#1299,#1300,#1301,#1302,
#1303,#1304,#1305,#1306,#1307,#1308,#1309,#1310,#1311,#1312,#1313,#1314,
#1315,#1316,#1317,#1318,#1319,#1320,#1321,#1322,#1323,#1324,#1325,#1326,
#1327,#1328,#1329,#1330,#1331,#1332,#1333,#1334,#1335,#1336,#1337,#1338,
#1339,#1340,#1341,#1342,#1343,#1344,#1345,#1346));
#1348=DERIVED_UNIT_ELEMENT(#1350,1.);
#1349=DERIVED_UNIT_ELEMENT(#2267,-3.);
#1350=(
MASS_UNIT()
NAMED_UNIT(*)
SI_UNIT(.KILO.,.GRAM.)
);
#1351=DERIVED_UNIT((#1348,#1349));
#1352=MEASURE_REPRESENTATION_ITEM('density measure',
POSITIVE_RATIO_MEASURE(1117.584),#1351);
#1353=PROPERTY_DEFINITION_REPRESENTATION(#1358,#1355);
#1354=PROPERTY_DEFINITION_REPRESENTATION(#1359,#1356);
#1355=REPRESENTATION('material name',(#1357),#2264);
#1356=REPRESENTATION('density',(#1352),#2264);
#1357=DESCRIPTIVE_REPRESENTATION_ITEM('thigh mount','thigh mount');
#1358=PROPERTY_DEFINITION('material property','material name',#2274);
#1359=PROPERTY_DEFINITION('material property','density of part',#2274);
#1360=AXIS2_PLACEMENT_3D('',#1878,#1486,#1487);
#1361=AXIS2_PLACEMENT_3D('',#1879,#1488,#1489);
#1362=AXIS2_PLACEMENT_3D('',#1888,#1494,#1495);
#1363=AXIS2_PLACEMENT_3D('',#1894,#1499,#1500);
#1364=AXIS2_PLACEMENT_3D('',#1900,#1504,#1505);
#1365=AXIS2_PLACEMENT_3D('',#1906,#1509,#1510);
#1366=AXIS2_PLACEMENT_3D('',#1912,#1514,#1515);
#1367=AXIS2_PLACEMENT_3D('',#1915,#1518,#1519);
#1368=AXIS2_PLACEMENT_3D('',#1917,#1520,#1521);
#1369=AXIS2_PLACEMENT_3D('',#1918,#1522,#1523);
#1370=AXIS2_PLACEMENT_3D('',#1921,#1525,#1526);
#1371=AXIS2_PLACEMENT_3D('',#1922,#1527,#1528);
#1372=AXIS2_PLACEMENT_3D('',#1925,#1529,#1530);
#1373=AXIS2_PLACEMENT_3D('',#1929,#1532,#1533);
#1374=AXIS2_PLACEMENT_3D('',#1931,#1535,#1536);
#1375=AXIS2_PLACEMENT_3D('',#1939,#1541,#1542);
#1376=AXIS2_PLACEMENT_3D('',#1959,#1553,#1554);
#1377=AXIS2_PLACEMENT_3D('',#1962,#1555,#1556);
#1378=AXIS2_PLACEMENT_3D('',#1963,#1557,#1558);
#1379=AXIS2_PLACEMENT_3D('',#1964,#1559,#1560);
#1380=AXIS2_PLACEMENT_3D('',#1965,#1561,#1562);
#1381=AXIS2_PLACEMENT_3D('',#1967,#1563,#1564);
#1382=AXIS2_PLACEMENT_3D('',#1969,#1566,#1567);
#1383=AXIS2_PLACEMENT_3D('',#1971,#1568,#1569);
#1384=AXIS2_PLACEMENT_3D('',#1973,#1571,#1572);
#1385=AXIS2_PLACEMENT_3D('',#1976,#1573,#1574);
#1386=AXIS2_PLACEMENT_3D('',#1978,#1575,#1576);
#1387=AXIS2_PLACEMENT_3D('',#1979,#1577,#1578);
#1388=AXIS2_PLACEMENT_3D('',#1980,#1579,#1580);
#1389=AXIS2_PLACEMENT_3D('',#1983,#1581,#1582);
#1390=AXIS2_PLACEMENT_3D('',#1986,#1585,#1586);
#1391=AXIS2_PLACEMENT_3D('',#1989,#1587,#1588);
#1392=AXIS2_PLACEMENT_3D('',#1991,#1589,#1590);
#1393=AXIS2_PLACEMENT_3D('',#1992,#1591,#1592);
#1394=AXIS2_PLACEMENT_3D('',#1993,#1593,#1594);
#1395=AXIS2_PLACEMENT_3D('',#1996,#1595,#1596);
#1396=AXIS2_PLACEMENT_3D('',#1998,#1597,#1598);
#1397=AXIS2_PLACEMENT_3D('',#1999,#1599,#1600);
#1398=AXIS2_PLACEMENT_3D('',#2000,#1601,#1602);
#1399=AXIS2_PLACEMENT_3D('',#2003,#1603,#1604);
#1400=AXIS2_PLACEMENT_3D('',#2006,#1607,#1608);
#1401=AXIS2_PLACEMENT_3D('',#2009,#1611,#1612);
#1402=AXIS2_PLACEMENT_3D('',#2012,#1615,#1616);
#1403=AXIS2_PLACEMENT_3D('',#2015,#1617,#1618);
#1404=AXIS2_PLACEMENT_3D('',#2019,#1620,#1621);
#1405=AXIS2_PLACEMENT_3D('',#2021,#1623,#1624);
#1406=AXIS2_PLACEMENT_3D('',#2024,#1625,#1626);
#1407=AXIS2_PLACEMENT_3D('',#2025,#1627,#1628);
#1408=AXIS2_PLACEMENT_3D('',#2026,#1629,#1630);
#1409=AXIS2_PLACEMENT_3D('',#2027,#1631,#1632);
#1410=AXIS2_PLACEMENT_3D('',#2030,#1635,#1636);
#1411=AXIS2_PLACEMENT_3D('',#2033,#1637,#1638);
#1412=AXIS2_PLACEMENT_3D('',#2036,#1641,#1642);
#1413=AXIS2_PLACEMENT_3D('',#2039,#1645,#1646);
#1414=AXIS2_PLACEMENT_3D('',#2042,#1647,#1648);
#1415=AXIS2_PLACEMENT_3D('',#2044,#1649,#1650);
#1416=AXIS2_PLACEMENT_3D('',#2045,#1651,#1652);
#1417=AXIS2_PLACEMENT_3D('',#2046,#1653,#1654);
#1418=AXIS2_PLACEMENT_3D('',#2047,#1655,#1656);
#1419=AXIS2_PLACEMENT_3D('',#2049,#1657,#1658);
#1420=AXIS2_PLACEMENT_3D('',#2051,#1659,#1660);
#1421=AXIS2_PLACEMENT_3D('',#2052,#1661,#1662);
#1422=AXIS2_PLACEMENT_3D('',#2053,#1663,#1664);
#1423=AXIS2_PLACEMENT_3D('',#2055,#1665,#1666);
#1424=AXIS2_PLACEMENT_3D('',#2058,#1669,#1670);
#1425=AXIS2_PLACEMENT_3D('',#2060,#1671,#1672);
#1426=AXIS2_PLACEMENT_3D('',#2062,#1674,#1675);
#1427=AXIS2_PLACEMENT_3D('',#2064,#1676,#1677);
#1428=AXIS2_PLACEMENT_3D('',#2066,#1679,#1680);
#1429=AXIS2_PLACEMENT_3D('',#2067,#1681,#1682);
#1430=AXIS2_PLACEMENT_3D('',#2068,#1683,#1684);
#1431=AXIS2_PLACEMENT_3D('',#2069,#1685,#1686);
#1432=AXIS2_PLACEMENT_3D('',#2070,#1687,#1688);
#1433=AXIS2_PLACEMENT_3D('',#2076,#1692,#1693);
#1434=AXIS2_PLACEMENT_3D('',#2092,#1702,#1703);
#1435=AXIS2_PLACEMENT_3D('',#2096,#1705,#1706);
#1436=AXIS2_PLACEMENT_3D('',#2100,#1708,#1709);
#1437=AXIS2_PLACEMENT_3D('',#2102,#1710,#1711);
#1438=AXIS2_PLACEMENT_3D('',#2106,#1714,#1715);
#1439=AXIS2_PLACEMENT_3D('',#2108,#1717,#1718);
#1440=AXIS2_PLACEMENT_3D('',#2110,#1720,#1721);
#1441=AXIS2_PLACEMENT_3D('',#2112,#1723,#1724);
#1442=AXIS2_PLACEMENT_3D('',#2114,#1726,#1727);
#1443=AXIS2_PLACEMENT_3D('',#2117,#1729,#1730);
#1444=AXIS2_PLACEMENT_3D('',#2118,#1731,#1732);
#1445=AXIS2_PLACEMENT_3D('',#2121,#1734,#1735);
#1446=AXIS2_PLACEMENT_3D('',#2122,#1736,#1737);
#1447=AXIS2_PLACEMENT_3D('',#2134,#1745,#1746);
#1448=AXIS2_PLACEMENT_3D('',#2140,#1750,#1751);
#1449=AXIS2_PLACEMENT_3D('',#2145,#1754,#1755);
#1450=AXIS2_PLACEMENT_3D('',#2146,#1756,#1757);
#1451=AXIS2_PLACEMENT_3D('',#2155,#1762,#1763);
#1452=AXIS2_PLACEMENT_3D('',#2161,#1767,#1768);
#1453=AXIS2_PLACEMENT_3D('',#2167,#1772,#1773);
#1454=AXIS2_PLACEMENT_3D('',#2173,#1777,#1778);
#1455=AXIS2_PLACEMENT_3D('',#2179,#1782,#1783);
#1456=AXIS2_PLACEMENT_3D('',#2182,#1786,#1787);
#1457=AXIS2_PLACEMENT_3D('',#2184,#1788,#1789);
#1458=AXIS2_PLACEMENT_3D('',#2185,#1790,#1791);
#1459=AXIS2_PLACEMENT_3D('',#2188,#1793,#1794);
#1460=AXIS2_PLACEMENT_3D('',#2189,#1795,#1796);
#1461=AXIS2_PLACEMENT_3D('',#2195,#1800,#1801);
#1462=AXIS2_PLACEMENT_3D('',#2199,#1804,#1805);
#1463=AXIS2_PLACEMENT_3D('',#2203,#1808,#1809);
#1464=AXIS2_PLACEMENT_3D('',#2205,#1811,#1812);
#1465=AXIS2_PLACEMENT_3D('',#2206,#1813,#1814);
#1466=AXIS2_PLACEMENT_3D('',#2212,#1818,#1819);
#1467=AXIS2_PLACEMENT_3D('',#2213,#1820,#1821);
#1468=AXIS2_PLACEMENT_3D('',#2216,#1823,#1824);
#1469=AXIS2_PLACEMENT_3D('',#2217,#1825,#1826);
#1470=AXIS2_PLACEMENT_3D('',#2224,#1830,#1831);
#1471=AXIS2_PLACEMENT_3D('',#2225,#1832,#1833);
#1472=AXIS2_PLACEMENT_3D('',#2229,#1836,#1837);
#1473=AXIS2_PLACEMENT_3D('',#2232,#1839,#1840);
#1474=AXIS2_PLACEMENT_3D('',#2233,#1841,#1842);
#1475=AXIS2_PLACEMENT_3D('',#2234,#1843,#1844);
#1476=AXIS2_PLACEMENT_3D('',#2235,#1845,#1846);
#1477=AXIS2_PLACEMENT_3D('',#2237,#1848,#1849);
#1478=AXIS2_PLACEMENT_3D('',#2239,#1851,#1852);
#1479=AXIS2_PLACEMENT_3D('',#2241,#1854,#1855);
#1480=AXIS2_PLACEMENT_3D('',#2252,#1862,#1863);
#1481=AXIS2_PLACEMENT_3D('',#2254,#1865,#1866);
#1482=AXIS2_PLACEMENT_3D('',#2256,#1868,#1869);
#1483=AXIS2_PLACEMENT_3D('',#2258,#1871,#1872);
#1484=AXIS2_PLACEMENT_3D('',#2259,#1873,#1874);
#1485=AXIS2_PLACEMENT_3D('',#2261,#1876,#1877);
#1486=DIRECTION('axis',(0.,0.,1.));
#1487=DIRECTION('refdir',(1.,0.,0.));
#1488=DIRECTION('center_axis',(0.5,0.866025403784439,0.));
#1489=DIRECTION('ref_axis',(0.866025403784439,-0.5,0.));
#1490=DIRECTION('',(0.866025403784439,-0.5,0.));
#1491=DIRECTION('',(0.,0.,-1.));
#1492=DIRECTION('',(0.866025403784439,-0.5,0.));
#1493=DIRECTION('',(0.,0.,-1.));
#1494=DIRECTION('center_axis',(-0.5,0.866025403784439,0.));
#1495=DIRECTION('ref_axis',(0.866025403784439,0.5,0.));
#1496=DIRECTION('',(0.866025403784439,0.5,0.));
#1497=DIRECTION('',(0.,0.,-1.));
#1498=DIRECTION('',(0.866025403784439,0.5,0.));
#1499=DIRECTION('center_axis',(-1.,0.,0.));
#1500=DIRECTION('ref_axis',(0.,1.,0.));
#1501=DIRECTION('',(0.,1.,0.));
#1502=DIRECTION('',(0.,0.,-1.));
#1503=DIRECTION('',(0.,1.,0.));
#1504=DIRECTION('center_axis',(-0.5,-0.866025403784439,0.));
#1505=DIRECTION('ref_axis',(-0.866025403784439,0.5,0.));
#1506=DIRECTION('',(-0.866025403784439,0.5,0.));
#1507=DIRECTION('',(0.,0.,-1.));
#1508=DIRECTION('',(-0.866025403784439,0.5,0.));
#1509=DIRECTION('center_axis',(0.5,-0.866025403784439,0.));
#1510=DIRECTION('ref_axis',(-0.866025403784439,-0.5,0.));
#1511=DIRECTION('',(-0.866025403784439,-0.5,0.));
#1512=DIRECTION('',(0.,0.,-1.));
#1513=DIRECTION('',(-0.866025403784439,-0.5,0.));
#1514=DIRECTION('center_axis',(1.,0.,0.));
#1515=DIRECTION('ref_axis',(0.,-1.,0.));
#1516=DIRECTION('',(0.,-1.,0.));
#1517=DIRECTION('',(0.,-1.,0.));
#1518=DIRECTION('center_axis',(0.,0.,1.));
#1519=DIRECTION('ref_axis',(1.,0.,0.));
#1520=DIRECTION('center_axis',(0.,0.,1.));
#1521=DIRECTION('ref_axis',(1.,0.,0.));
#1522=DIRECTION('center_axis',(0.,0.,-1.));
#1523=DIRECTION('ref_axis',(1.,0.,0.));
#1524=DIRECTION('',(0.,0.,-1.));
#1525=DIRECTION('center_axis',(0.,0.,1.));
#1526=DIRECTION('ref_axis',(1.,0.,0.));
#1527=DIRECTION('center_axis',(-7.32820478300433E-17,-1.,0.));
#1528=DIRECTION('ref_axis',(-0.707106781186547,0.,0.707106781186548));
#1529=DIRECTION('center_axis',(0.,-1.,0.));
#1530=DIRECTION('ref_axis',(-0.707106781186547,0.,0.707106781186548));
#1531=DIRECTION('',(-7.32820478300433E-17,-1.,0.));
#1532=DIRECTION('center_axis',(0.,1.,0.));
#1533=DIRECTION('ref_axis',(-0.707106781186547,0.,0.707106781186548));
#1534=DIRECTION('',(7.32820478300433E-17,1.,0.));
#1535=DIRECTION('center_axis',(0.,1.,0.));
#1536=DIRECTION('ref_axis',(0.,0.,1.));
#1537=DIRECTION('',(0.,0.,1.));
#1538=DIRECTION('',(1.,0.,0.));
#1539=DIRECTION('',(0.,0.,1.));
#1540=DIRECTION('',(1.,0.,0.));
#1541=DIRECTION('center_axis',(-1.,7.32820478300433E-17,0.));
#1542=DIRECTION('ref_axis',(-7.32820478300433E-17,-1.,0.));
#1543=DIRECTION('',(0.,0.,1.));
#1544=DIRECTION('',(-7.32820478300433E-17,-1.,0.));
#1545=DIRECTION('',(0.,0.,-1.));
#1546=DIRECTION('',(-7.32820478300433E-17,-1.,0.));
#1547=DIRECTION('',(0.,0.,1.));
#1548=DIRECTION('',(0.,-1.,0.));
#1549=DIRECTION('',(0.,0.,-1.));
#1550=DIRECTION('',(-7.32820478300433E-17,-1.,0.));
#1551=DIRECTION('',(9.67444907232913E-33,1.32016631068584E-16,-1.));
#1552=DIRECTION('',(7.32820478300433E-17,1.,0.));
#1553=DIRECTION('center_axis',(0.408248290463862,-0.816496580927727,-0.408248290463863));
#1554=DIRECTION('ref_axis',(-0.577350269189626,-0.577350269189625,0.577350269189626));
#1555=DIRECTION('center_axis',(-1.,-1.11022302462516E-15,0.));
#1556=DIRECTION('ref_axis',(0.,0.,1.));
#1557=DIRECTION('center_axis',(0.,-1.,0.));
#1558=DIRECTION('ref_axis',(-1.,0.,0.));
#1559=DIRECTION('center_axis',(0.,0.,1.));
#1560=DIRECTION('ref_axis',(0.,-1.,0.));
#1561=DIRECTION('center_axis',(-7.32820478300433E-17,-1.,0.));
#1562=DIRECTION('ref_axis',(-0.707106781186547,0.,0.707106781186548));
#1563=DIRECTION('center_axis',(0.,-1.,-1.32016631068584E-16));
#1564=DIRECTION('ref_axis',(-0.707106781186547,0.,0.707106781186548));
#1565=DIRECTION('',(7.32820478300433E-17,1.,0.));
#1566=DIRECTION('center_axis',(0.,0.,-1.));
#1567=DIRECTION('ref_axis',(-0.707106781186548,-0.707106781186547,0.));
#1568=DIRECTION('center_axis',(0.,0.,1.));
#1569=DIRECTION('ref_axis',(-0.707106781186548,-0.707106781186547,0.));
#1570=DIRECTION('',(0.,0.,1.));
#1571=DIRECTION('center_axis',(-0.408248290463863,-0.816496580927726,-0.408248290463863));
#1572=DIRECTION('ref_axis',(0.577350269189626,-0.577350269189625,0.577350269189626));
#1573=DIRECTION('center_axis',(1.,0.,0.));
#1574=DIRECTION('ref_axis',(0.,-1.,0.));
#1575=DIRECTION('center_axis',(0.,0.,1.));
#1576=DIRECTION('ref_axis',(1.,0.,0.));
#1577=DIRECTION('center_axis',(0.,-1.,0.));
#1578=DIRECTION('ref_axis',(0.,0.,1.));
#1579=DIRECTION('center_axis',(0.,0.,1.));
#1580=DIRECTION('ref_axis',(0.70710678118655,-0.707106781186545,0.));
#1581=DIRECTION('center_axis',(0.,0.,1.));
#1582=DIRECTION('ref_axis',(0.70710678118655,-0.707106781186545,0.));
#1583=DIRECTION('',(0.,0.,1.));
#1584=DIRECTION('',(0.,0.,-1.));
#1585=DIRECTION('center_axis',(-0.408248290463863,-0.816496580927726,0.408248290463863));
#1586=DIRECTION('ref_axis',(-0.577350269189626,0.577350269189626,0.577350269189626));
#1587=DIRECTION('center_axis',(0.,1.,0.));
#1588=DIRECTION('ref_axis',(0.,0.,1.));
#1589=DIRECTION('center_axis',(-1.,0.,0.));
#1590=DIRECTION('ref_axis',(0.,1.,0.));
#1591=DIRECTION('center_axis',(0.,0.,1.));
#1592=DIRECTION('ref_axis',(-1.,0.,0.));
#1593=DIRECTION('center_axis',(0.408248290463862,-0.816496580927725,0.408248290463866));
#1594=DIRECTION('ref_axis',(0.577350269189622,0.577350269189629,0.577350269189627));
#1595=DIRECTION('center_axis',(0.,1.,0.));
#1596=DIRECTION('ref_axis',(1.,0.,0.));
#1597=DIRECTION('center_axis',(0.,0.,1.));
#1598=DIRECTION('ref_axis',(0.,1.,0.));
#1599=DIRECTION('center_axis',(1.,-4.44089209850062E-15,0.));
#1600=DIRECTION('ref_axis',(0.,0.,1.));
#1601=DIRECTION('center_axis',(0.,0.,1.));
#1602=DIRECTION('ref_axis',(0.707106781186548,0.707106781186548,0.));
#1603=DIRECTION('center_axis',(0.,0.,1.));
#1604=DIRECTION('ref_axis',(0.707106781186548,0.707106781186548,0.));
#1605=DIRECTION('',(0.,0.,1.));
#1606=DIRECTION('',(0.,0.,-1.));
#1607=DIRECTION('center_axis',(1.,0.,0.));
#1608=DIRECTION('ref_axis',(0.,0.707106781186546,0.707106781186549));
#1609=DIRECTION('',(-1.,0.,0.));
#1610=DIRECTION('',(1.,0.,0.));
#1611=DIRECTION('center_axis',(0.,1.,0.));
#1612=DIRECTION('ref_axis',(0.707106781186549,0.,0.707106781186546));
#1613=DIRECTION('',(0.,-1.,0.));
#1614=DIRECTION('',(0.,1.,0.));
#1615=DIRECTION('center_axis',(1.,0.,0.));
#1616=DIRECTION('ref_axis',(0.,0.707106781186546,0.707106781186549));
#1617=DIRECTION('center_axis',(1.,0.,0.));
#1618=DIRECTION('ref_axis',(0.,1.,0.));
#1619=DIRECTION('',(1.,0.,0.));
#1620=DIRECTION('center_axis',(-1.,0.,0.));
#1621=DIRECTION('ref_axis',(0.,0.,1.));
#1622=DIRECTION('',(-1.,0.,0.));
#1623=DIRECTION('center_axis',(0.,-1.,0.));
#1624=DIRECTION('ref_axis',(0.,0.,-1.));
#1625=DIRECTION('center_axis',(0.,0.,-1.));
#1626=DIRECTION('ref_axis',(-1.,0.,0.));
#1627=DIRECTION('center_axis',(0.,1.,0.));
#1628=DIRECTION('ref_axis',(0.707106781186548,0.,-0.707106781186548));
#1629=DIRECTION('center_axis',(0.,-1.,0.));
#1630=DIRECTION('ref_axis',(0.707106781186547,0.,-0.707106781186547));
#1631=DIRECTION('center_axis',(0.,0.,1.));
#1632=DIRECTION('ref_axis',(-0.707106781186549,0.707106781186546,0.));
#1633=DIRECTION('',(0.,0.,-1.));
#1634=DIRECTION('',(0.,0.,1.));
#1635=DIRECTION('center_axis',(0.,-1.,0.));
#1636=DIRECTION('ref_axis',(-0.707106781186548,0.,0.707106781186548));
#1637=DIRECTION('center_axis',(0.,1.,0.));
#1638=DIRECTION('ref_axis',(-0.707106781186548,0.,0.707106781186548));
#1639=DIRECTION('',(0.,1.,0.));
#1640=DIRECTION('',(0.,-1.,0.));
#1641=DIRECTION('center_axis',(1.,0.,0.));
#1642=DIRECTION('ref_axis',(0.,-0.707106781186547,0.707106781186548));
#1643=DIRECTION('',(-1.,0.,0.));
#1644=DIRECTION('',(1.,0.,0.));
#1645=DIRECTION('center_axis',(0.,-1.,0.));
#1646=DIRECTION('ref_axis',(0.,0.,-1.));
#1647=DIRECTION('center_axis',(0.567375886524824,0.,-0.823458926352839));
#1648=DIRECTION('ref_axis',(0.,1.,0.));
#1649=DIRECTION('center_axis',(0.,-1.,0.));
#1650=DIRECTION('ref_axis',(-3.67015875909143E-16,0.,-1.));
#1651=DIRECTION('center_axis',(-0.567375886524823,0.,-0.82345892635284));
#1652=DIRECTION('ref_axis',(-0.823458926352839,0.,0.567375886524823));
#1653=DIRECTION('center_axis',(0.,1.,0.));
#1654=DIRECTION('ref_axis',(-3.67015875909143E-16,0.,-1.));
#1655=DIRECTION('center_axis',(-0.408248290463863,0.408248290463863,-0.816496580927726));
#1656=DIRECTION('ref_axis',(-0.577350269189626,0.577350269189626,0.577350269189626));
#1657=DIRECTION('center_axis',(0.,1.,0.));
#1658=DIRECTION('ref_axis',(0.,0.,1.));
#1659=DIRECTION('center_axis',(-1.,0.,0.));
#1660=DIRECTION('ref_axis',(0.,1.,0.));
#1661=DIRECTION('center_axis',(0.,0.,1.));
#1662=DIRECTION('ref_axis',(-1.,0.,0.));
#1663=DIRECTION('center_axis',(1.,0.,0.));
#1664=DIRECTION('ref_axis',(0.,0.707106781186546,0.707106781186549));
#1665=DIRECTION('center_axis',(-1.,0.,0.));
#1666=DIRECTION('ref_axis',(0.,0.,1.));
#1667=DIRECTION('',(-1.,0.,0.));
#1668=DIRECTION('',(1.,0.,0.));
#1669=DIRECTION('center_axis',(0.,0.,1.));
#1670=DIRECTION('ref_axis',(-0.707106781186549,0.707106781186546,0.));
#1671=DIRECTION('center_axis',(0.,0.,1.));
#1672=DIRECTION('ref_axis',(-0.707106781186549,0.707106781186546,0.));
#1673=DIRECTION('',(0.,0.,-1.));
#1674=DIRECTION('center_axis',(7.32820478300433E-17,1.,0.));
#1675=DIRECTION('ref_axis',(-0.707106781186548,0.,0.707106781186547));
#1676=DIRECTION('center_axis',(0.,1.,0.));
#1677=DIRECTION('ref_axis',(-0.707106781186548,0.,0.707106781186547));
#1678=DIRECTION('',(7.32820478300433E-17,1.,0.));
#1679=DIRECTION('center_axis',(0.228726056494189,-0.870716666237929,0.435358333118965));
#1680=DIRECTION('ref_axis',(0.40496474885872,0.491785000925716,0.770811951805553));
#1681=DIRECTION('center_axis',(0.,1.,0.));
#1682=DIRECTION('ref_axis',(0.465093599974875,0.,0.885261511228412));
#1683=DIRECTION('center_axis',(-0.228726056494189,-0.870716666237929,0.435358333118965));
#1684=DIRECTION('ref_axis',(-0.40496474885872,0.491785000925716,0.770811951805554));
#1685=DIRECTION('center_axis',(0.,1.,0.));
#1686=DIRECTION('ref_axis',(-0.465093599974875,0.,0.885261511228412));
#1687=DIRECTION('center_axis',(0.,-1.,-1.32016631068584E-16));
#1688=DIRECTION('ref_axis',(0.,1.32016631068584E-16,-1.));
#1689=DIRECTION('',(-1.,0.,0.));
#1690=DIRECTION('',(0.,1.32016631068584E-16,-1.));
#1691=DIRECTION('',(1.,0.,0.));
#1692=DIRECTION('center_axis',(0.,0.,1.));
#1693=DIRECTION('ref_axis',(1.,0.,0.));
#1694=DIRECTION('',(-1.,0.,0.));
#1695=DIRECTION('',(0.,1.,0.));
#1696=DIRECTION('',(-1.,-7.40148683083437E-16,0.));
#1697=DIRECTION('',(0.,-1.,0.));
#1698=DIRECTION('',(1.,0.,0.));
#1699=DIRECTION('',(0.,1.,0.));
#1700=DIRECTION('',(1.,0.,0.));
#1701=DIRECTION('',(0.,-1.,0.));
#1702=DIRECTION('center_axis',(0.,-1.,0.));
#1703=DIRECTION('ref_axis',(1.,0.,0.));
#1704=DIRECTION('',(0.,0.,-1.));
#1705=DIRECTION('center_axis',(0.,1.,0.));
#1706=DIRECTION('ref_axis',(0.,0.,1.));
#1707=DIRECTION('',(-1.,0.,0.));
#1708=DIRECTION('center_axis',(0.,1.,0.));
#1709=DIRECTION('ref_axis',(-0.465093599974875,0.,0.885261511228412));
#1710=DIRECTION('center_axis',(0.,1.,0.));
#1711=DIRECTION('ref_axis',(0.878015347472998,0.,-0.478632478632479));
#1712=DIRECTION('',(-1.,0.,0.));
#1713=DIRECTION('',(0.,0.,-1.));
#1714=DIRECTION('center_axis',(1.,0.,0.));
#1715=DIRECTION('ref_axis',(0.,0.,1.));
#1716=DIRECTION('',(0.,-1.,0.));
#1717=DIRECTION('center_axis',(0.,-1.,0.));
#1718=DIRECTION('ref_axis',(0.,0.,1.));
#1719=DIRECTION('',(0.,-1.,0.));
#1720=DIRECTION('center_axis',(0.,0.,-1.));
#1721=DIRECTION('ref_axis',(1.,0.,0.));
#1722=DIRECTION('',(0.,1.,0.));
#1723=DIRECTION('center_axis',(0.,-1.,0.));
#1724=DIRECTION('ref_axis',(-0.465093599974875,0.,0.885261511228412));
#1725=DIRECTION('',(0.,-1.,0.));
#1726=DIRECTION('center_axis',(0.,-1.,0.));
#1727=DIRECTION('ref_axis',(0.878015347472998,0.,-0.478632478632479));
#1728=DIRECTION('',(0.,1.,0.));
#1729=DIRECTION('center_axis',(0.,1.,0.));
#1730=DIRECTION('ref_axis',(0.878015347472998,0.,-0.478632478632479));
#1731=DIRECTION('center_axis',(0.,-1.,0.));
#1732=DIRECTION('ref_axis',(0.465093599974875,0.,0.885261511228412));
#1733=DIRECTION('',(0.,-1.,0.));
#1734=DIRECTION('center_axis',(0.,1.,0.));
#1735=DIRECTION('ref_axis',(0.465093599974875,0.,0.885261511228412));
#1736=DIRECTION('center_axis',(0.,0.,-1.));
#1737=DIRECTION('ref_axis',(-1.,0.,0.));
#1738=DIRECTION('',(-1.,0.,0.));
#1739=DIRECTION('',(0.,1.,0.));
#1740=DIRECTION('',(1.,3.32402103181185E-17,0.));
#1741=DIRECTION('',(0.,-1.,0.));
#1742=DIRECTION('',(-1.,0.,0.));
#1743=DIRECTION('',(0.,1.,0.));
#1744=DIRECTION('',(1.,0.,0.));
#1745=DIRECTION('center_axis',(0.,0.,-1.));
#1746=DIRECTION('ref_axis',(-1.,0.,0.));
#1747=DIRECTION('',(-1.,0.,0.));
#1748=DIRECTION('',(0.,-1.,0.));
#1749=DIRECTION('',(-1.,0.,0.));
#1750=DIRECTION('center_axis',(0.,-1.,0.));
#1751=DIRECTION('ref_axis',(1.,0.,0.));
#1752=DIRECTION('',(1.,0.,0.));
#1753=DIRECTION('',(0.,0.,-1.));
#1754=DIRECTION('center_axis',(0.,1.,0.));
#1755=DIRECTION('ref_axis',(0.707106781186547,0.,0.707106781186548));
#1756=DIRECTION('center_axis',(-0.5,0.,0.866025403784439));
#1757=DIRECTION('ref_axis',(-0.866025403784438,0.,-0.5));
#1758=DIRECTION('',(-0.866025403784438,0.,-0.5));
#1759=DIRECTION('',(0.,1.,0.));
#1760=DIRECTION('',(-0.866025403784438,0.,-0.5));
#1761=DIRECTION('',(0.,1.,0.));
#1762=DIRECTION('center_axis',(0.5,0.,0.866025403784439));
#1763=DIRECTION('ref_axis',(-0.866025403784439,0.,0.499999999999999));
#1764=DIRECTION('',(-0.866025403784439,0.,0.499999999999999));
#1765=DIRECTION('',(0.,1.,0.));
#1766=DIRECTION('',(-0.866025403784439,0.,0.499999999999999));
#1767=DIRECTION('center_axis',(1.,0.,6.99259158684932E-16));
#1768=DIRECTION('ref_axis',(-6.99259158684932E-16,0.,1.));
#1769=DIRECTION('',(-6.99259158684932E-16,0.,1.));
#1770=DIRECTION('',(0.,-1.,0.));
#1771=DIRECTION('',(-6.99259158684932E-16,0.,1.));
#1772=DIRECTION('center_axis',(0.500000000000001,0.,-0.866025403784438));
#1773=DIRECTION('ref_axis',(0.866025403784438,0.,0.500000000000001));
#1774=DIRECTION('',(0.866025403784438,0.,0.500000000000001));
#1775=DIRECTION('',(0.,1.,0.));
#1776=DIRECTION('',(0.866025403784438,0.,0.500000000000001));
#1777=DIRECTION('center_axis',(-0.499999999999999,0.,-0.866025403784439));
#1778=DIRECTION('ref_axis',(0.866025403784439,0.,-0.499999999999999));
#1779=DIRECTION('',(0.866025403784439,0.,-0.499999999999999));
#1780=DIRECTION('',(0.,1.,0.));
#1781=DIRECTION('',(0.866025403784439,0.,-0.499999999999999));
#1782=DIRECTION('center_axis',(-1.,0.,-5.24444369013699E-16));
#1783=DIRECTION('ref_axis',(5.24444369013699E-16,0.,-1.));
#1784=DIRECTION('',(5.24444369013699E-16,0.,-1.));
#1785=DIRECTION('',(5.24444369013699E-16,0.,-1.));
#1786=DIRECTION('center_axis',(0.,1.,0.));
#1787=DIRECTION('ref_axis',(-1.,0.,0.));
#1788=DIRECTION('center_axis',(0.,1.,0.));
#1789=DIRECTION('ref_axis',(-1.,0.,0.));
#1790=DIRECTION('center_axis',(0.,-1.,0.));
#1791=DIRECTION('ref_axis',(-1.,0.,0.));
#1792=DIRECTION('',(0.,-1.,0.));
#1793=DIRECTION('center_axis',(0.,1.,0.));
#1794=DIRECTION('ref_axis',(-1.,0.,0.));
#1795=DIRECTION('center_axis',(-3.32402103181185E-17,1.,0.));
#1796=DIRECTION('ref_axis',(-1.,-3.32402103181185E-17,0.));
#1797=DIRECTION('',(0.,0.,-1.));
#1798=DIRECTION('',(-1.,-3.32402103181185E-17,0.));
#1799=DIRECTION('',(0.,0.,1.));
#1800=DIRECTION('center_axis',(1.,0.,0.));
#1801=DIRECTION('ref_axis',(0.,1.,0.));
#1802=DIRECTION('',(0.,1.,0.));
#1803=DIRECTION('',(0.,0.,1.));
#1804=DIRECTION('center_axis',(0.,-1.,0.));
#1805=DIRECTION('ref_axis',(1.,0.,0.));
#1806=DIRECTION('',(1.,0.,0.));
#1807=DIRECTION('',(0.,0.,1.));
#1808=DIRECTION('center_axis',(0.,0.,1.));
#1809=DIRECTION('ref_axis',(1.,0.,0.));
#1810=DIRECTION('',(0.,1.,0.));
#1811=DIRECTION('center_axis',(1.,0.,0.));
#1812=DIRECTION('ref_axis',(0.,1.,0.));
#1813=DIRECTION('center_axis',(-1.,0.,0.));
#1814=DIRECTION('ref_axis',(0.,-1.,0.));
#1815=DIRECTION('',(0.,0.,1.));
#1816=DIRECTION('',(0.,1.,0.));
#1817=DIRECTION('',(0.,0.,-1.));
#1818=DIRECTION('center_axis',(0.,1.,0.));
#1819=DIRECTION('ref_axis',(0.,0.,1.));
#1820=DIRECTION('center_axis',(0.,-1.,0.));
#1821=DIRECTION('ref_axis',(0.707106781186547,0.,0.707106781186548));
#1822=DIRECTION('',(0.,1.,0.));
#1823=DIRECTION('center_axis',(0.,1.,0.));
#1824=DIRECTION('ref_axis',(0.707106781186547,0.,0.707106781186548));
#1825=DIRECTION('center_axis',(0.,1.,0.));
#1826=DIRECTION('ref_axis',(-1.,0.,0.));
#1827=DIRECTION('',(1.,0.,0.));
#1828=DIRECTION('',(0.,0.,1.));
#1829=DIRECTION('',(-1.,0.,0.));
#1830=DIRECTION('center_axis',(0.,-1.,0.));
#1831=DIRECTION('ref_axis',(-1.,0.,0.));
#1832=DIRECTION('center_axis',(1.,0.,0.));
#1833=DIRECTION('ref_axis',(0.,1.,0.));
#1834=DIRECTION('',(0.,-1.,0.));
#1835=DIRECTION('',(0.,0.,-1.));
#1836=DIRECTION('center_axis',(0.,-1.,0.));
#1837=DIRECTION('ref_axis',(-1.,0.,0.));
#1838=DIRECTION('',(0.,-1.,0.));
#1839=DIRECTION('center_axis',(0.,-1.,0.));
#1840=DIRECTION('ref_axis',(-1.,0.,0.));
#1841=DIRECTION('center_axis',(0.,1.,0.));
#1842=DIRECTION('ref_axis',(-1.,0.,0.));
#1843=DIRECTION('center_axis',(0.,-1.,0.));
#1844=DIRECTION('ref_axis',(0.,0.,-1.));
#1845=DIRECTION('center_axis',(0.,0.,-1.));
#1846=DIRECTION('ref_axis',(0.,1.,0.));
#1847=DIRECTION('',(0.,1.,0.));
#1848=DIRECTION('center_axis',(0.,0.,1.));
#1849=DIRECTION('ref_axis',(1.,0.,0.));
#1850=DIRECTION('',(0.,-1.,0.));
#1851=DIRECTION('center_axis',(0.,-1.,0.));
#1852=DIRECTION('ref_axis',(1.,0.,0.));
#1853=DIRECTION('',(-1.,0.,0.));
#1854=DIRECTION('center_axis',(0.,0.,1.));
#1855=DIRECTION('ref_axis',(1.,0.,0.));
#1856=DIRECTION('',(0.,-1.,0.));
#1857=DIRECTION('',(1.,0.,0.));
#1858=DIRECTION('',(0.,-1.,0.));
#1859=DIRECTION('',(-1.,0.,0.));
#1860=DIRECTION('',(1.,7.40148683083437E-16,0.));
#1861=DIRECTION('',(0.,-1.,0.));
#1862=DIRECTION('center_axis',(1.,0.,0.));
#1863=DIRECTION('ref_axis',(0.,1.,0.));
#1864=DIRECTION('',(0.,0.,1.));
#1865=DIRECTION('center_axis',(0.,1.,0.));
#1866=DIRECTION('ref_axis',(-1.,0.,0.));
#1867=DIRECTION('',(0.,0.,1.));
#1868=DIRECTION('center_axis',(-1.,0.,0.));
#1869=DIRECTION('ref_axis',(0.,-1.,0.));
#1870=DIRECTION('',(0.,0.,-1.));
#1871=DIRECTION('center_axis',(0.,1.,0.));
#1872=DIRECTION('ref_axis',(-1.,0.,0.));
#1873=DIRECTION('center_axis',(7.40148683083437E-16,-1.,0.));
#1874=DIRECTION('ref_axis',(1.,7.40148683083437E-16,0.));
#1875=DIRECTION('',(0.,0.,1.));
#1876=DIRECTION('center_axis',(-1.,0.,0.));
#1877=DIRECTION('ref_axis',(0.,-1.,0.));
#1878=CARTESIAN_POINT('',(0.,0.,0.));
#1879=CARTESIAN_POINT('Origin',(46.2,13.5254264805429,7.));
#1880=CARTESIAN_POINT('',(46.2,13.5254264805429,7.));
#1881=CARTESIAN_POINT('',(48.95,11.9377132402715,7.));
#1882=CARTESIAN_POINT('',(53.225,9.46954083948582,7.));
#1883=CARTESIAN_POINT('',(46.2,13.5254264805429,2.));
#1884=CARTESIAN_POINT('',(46.2,13.5254264805429,7.));
#1885=CARTESIAN_POINT('',(48.95,11.9377132402715,2.));
#1886=CARTESIAN_POINT('',(48.95,11.9377132402715,2.));
#1887=CARTESIAN_POINT('',(48.95,11.9377132402715,7.));
#1888=CARTESIAN_POINT('Origin',(43.45,11.9377132402715,7.));
#1889=CARTESIAN_POINT('',(43.45,11.9377132402715,7.));
#1890=CARTESIAN_POINT('',(50.475,15.9935988813286,7.));
#1891=CARTESIAN_POINT('',(43.45,11.9377132402715,2.));
#1892=CARTESIAN_POINT('',(43.45,11.9377132402715,7.));
#1893=CARTESIAN_POINT('',(46.2,13.5254264805429,2.));
#1894=CARTESIAN_POINT('Origin',(43.45,8.76228675972853,7.));
#1895=CARTESIAN_POINT('',(43.45,8.76228675972853,7.));
#1896=CARTESIAN_POINT('',(43.45,9.55614337986427,7.));
#1897=CARTESIAN_POINT('',(43.45,8.76228675972853,2.));
#1898=CARTESIAN_POINT('',(43.45,8.76228675972853,7.));
#1899=CARTESIAN_POINT('',(43.45,11.9377132402715,2.));
#1900=CARTESIAN_POINT('Origin',(46.2,7.17457351945706,7.));
#1901=CARTESIAN_POINT('',(46.2,7.17457351945706,7.));
#1902=CARTESIAN_POINT('',(51.85,3.91254449853567,7.));
#1903=CARTESIAN_POINT('',(46.2,7.17457351945706,2.));
#1904=CARTESIAN_POINT('',(46.2,7.17457351945706,7.));
#1905=CARTESIAN_POINT('',(43.45,8.76228675972853,2.));
#1906=CARTESIAN_POINT('Origin',(48.95,8.76228675972853,7.));
#1907=CARTESIAN_POINT('',(48.95,8.76228675972853,7.));
#1908=CARTESIAN_POINT('',(54.6,12.0243157806499,7.));
#1909=CARTESIAN_POINT('',(48.95,8.76228675972853,2.));
#1910=CARTESIAN_POINT('',(48.95,8.76228675972853,7.));
#1911=CARTESIAN_POINT('',(46.2,7.17457351945706,2.));
#1912=CARTESIAN_POINT('Origin',(48.95,11.9377132402715,7.));
#1913=CARTESIAN_POINT('',(48.95,11.1438566201357,7.));
#1914=CARTESIAN_POINT('',(48.95,8.76228675972853,2.));
#1915=CARTESIAN_POINT('Origin',(46.2,10.35,2.));
#1916=CARTESIAN_POINT('',(44.5,10.35,2.));
#1917=CARTESIAN_POINT('Origin',(46.2,10.35,2.));
#1918=CARTESIAN_POINT('Origin',(46.2,10.35,7.));
#1919=CARTESIAN_POINT('',(44.5,10.35,-3.));
#1920=CARTESIAN_POINT('',(44.5,10.35,7.));
#1921=CARTESIAN_POINT('Origin',(46.2,10.35,-3.));
#1922=CARTESIAN_POINT('Origin',(-4.,17.25,10.7));
#1923=CARTESIAN_POINT('',(-4.,17.2,11.7));
#1924=CARTESIAN_POINT('',(-5.,17.2,10.7));
#1925=CARTESIAN_POINT('Origin',(-4.,17.2,10.7));
#1926=CARTESIAN_POINT('',(-5.,4.8,10.7));
#1927=CARTESIAN_POINT('',(-5.,17.25,10.7));
#1928=CARTESIAN_POINT('',(-4.,4.8,11.7));
#1929=CARTESIAN_POINT('Origin',(-4.,4.8,10.7));
#1930=CARTESIAN_POINT('',(-4.,17.25,11.7));
#1931=CARTESIAN_POINT('Origin',(-5.,4.8,3.29027907591137));
#1932=CARTESIAN_POINT('',(-5.,4.8,3.29027907591137));
#1933=CARTESIAN_POINT('',(-5.,4.8,1.64513953795568));
#1934=CARTESIAN_POINT('',(-0.2,4.8,3.29027907591137));
#1935=CARTESIAN_POINT('',(-5.,4.8,3.29027907591137));
#1936=CARTESIAN_POINT('',(-0.2,4.8,11.7));
#1937=CARTESIAN_POINT('',(-0.2,4.8,1.64513953795568));
#1938=CARTESIAN_POINT('',(3.3,4.8,11.7));
#1939=CARTESIAN_POINT('Origin',(-5.,27.3,0.));
#1940=CARTESIAN_POINT('',(-5.,17.2,-0.2));
#1941=CARTESIAN_POINT('',(-5.,17.2,0.));
#1942=CARTESIAN_POINT('',(-5.,20.2,-0.2));
#1943=CARTESIAN_POINT('',(-5.,19.725,-0.2));
#1944=CARTESIAN_POINT('',(-5.,20.2,1.85));
#1945=CARTESIAN_POINT('',(-5.,20.2,0.));
#1946=CARTESIAN_POINT('',(-5.,27.7,1.85));
#1947=CARTESIAN_POINT('',(-5.,22.25,1.85));
#1948=CARTESIAN_POINT('',(-5.,27.7,-3.));
#1949=CARTESIAN_POINT('',(-5.,27.7,0.));
#1950=CARTESIAN_POINT('',(-5.,-7.,-3.));
#1951=CARTESIAN_POINT('',(-5.,-3.,-3.));
#1952=CARTESIAN_POINT('',(-5.,-7.,10.7));
#1953=CARTESIAN_POINT('',(-5.,-7.,0.));
#1954=CARTESIAN_POINT('',(-5.,2.8,10.7));
#1955=CARTESIAN_POINT('',(-5.,25.475,10.7));
#1956=CARTESIAN_POINT('',(-5.,2.8,3.29027907591137));
#1957=CARTESIAN_POINT('',(-5.,2.8,5.85));
#1958=CARTESIAN_POINT('',(-5.,15.05,3.29027907591137));
#1959=CARTESIAN_POINT('Origin',(-4.,-7.,10.7));
#1960=CARTESIAN_POINT('',(-4.,-7.,11.7));
#1961=CARTESIAN_POINT('',(-4.,-8.,10.7));
#1962=CARTESIAN_POINT('Origin',(-4.,-7.,10.7));
#1963=CARTESIAN_POINT('Origin',(-4.,-7.,10.7));
#1964=CARTESIAN_POINT('Origin',(-4.,-7.,10.7));
#1965=CARTESIAN_POINT('Origin',(-4.,25.475,10.7));
#1966=CARTESIAN_POINT('',(-4.,2.8,11.7));
#1967=CARTESIAN_POINT('Origin',(-4.,2.8,10.7));
#1968=CARTESIAN_POINT('',(-4.,25.475,11.7));
#1969=CARTESIAN_POINT('Origin',(-4.,-7.,0.));
#1970=CARTESIAN_POINT('',(-4.,-8.,-3.));
#1971=CARTESIAN_POINT('Origin',(-4.,-7.,-3.));
#1972=CARTESIAN_POINT('',(-4.,-8.,0.));
#1973=CARTESIAN_POINT('Origin',(30.2,-7.,10.7));
#1974=CARTESIAN_POINT('',(30.2,-8.,10.7));
#1975=CARTESIAN_POINT('',(30.2,-7.,11.7));
#1976=CARTESIAN_POINT('Origin',(30.2,-7.,10.7));
#1977=CARTESIAN_POINT('',(31.2,-7.,10.7));
#1978=CARTESIAN_POINT('Origin',(30.2,-7.,10.7));
#1979=CARTESIAN_POINT('Origin',(30.2,-7.,10.7));
#1980=CARTESIAN_POINT('Origin',(30.2,-7.,-1.5));
#1981=CARTESIAN_POINT('',(30.2,-8.,-3.));
#1982=CARTESIAN_POINT('',(31.2,-7.,-3.));
#1983=CARTESIAN_POINT('Origin',(30.2,-7.,-3.));
#1984=CARTESIAN_POINT('',(31.2,-7.,-1.5));
#1985=CARTESIAN_POINT('',(30.2,-8.,-1.5));
#1986=CARTESIAN_POINT('Origin',(15.9,27.7,10.7));
#1987=CARTESIAN_POINT('',(15.9,27.7,11.7));
#1988=CARTESIAN_POINT('',(14.9,27.7,10.7));
#1989=CARTESIAN_POINT('Origin',(15.9,27.7,10.7));
#1990=CARTESIAN_POINT('',(15.9,28.7,10.7));
#1991=CARTESIAN_POINT('Origin',(15.9,27.7,10.7));
#1992=CARTESIAN_POINT('Origin',(15.9,27.7,10.7));
#1993=CARTESIAN_POINT('Origin',(30.2,27.7,10.7));
#1994=CARTESIAN_POINT('',(31.2,27.7,10.7));
#1995=CARTESIAN_POINT('',(30.2,27.7,11.7));
#1996=CARTESIAN_POINT('Origin',(30.2,27.7,10.7));
#1997=CARTESIAN_POINT('',(30.2,28.7,10.7));
#1998=CARTESIAN_POINT('Origin',(30.2,27.7,10.7));
#1999=CARTESIAN_POINT('Origin',(30.2,27.7,10.7));
#2000=CARTESIAN_POINT('Origin',(30.2,27.7,-1.5));
#2001=CARTESIAN_POINT('',(31.2,27.7,-3.));
#2002=CARTESIAN_POINT('',(30.2,28.7,-3.));
#2003=CARTESIAN_POINT('Origin',(30.2,27.7,-3.));
#2004=CARTESIAN_POINT('',(30.2,28.7,-1.5));
#2005=CARTESIAN_POINT('',(31.2,27.7,-1.5));
#2006=CARTESIAN_POINT('Origin',(18.9,27.7,10.7));
#2007=CARTESIAN_POINT('',(18.9,28.7,10.7));
#2008=CARTESIAN_POINT('',(18.9,27.7,11.7));
#2009=CARTESIAN_POINT('Origin',(30.2,7.825,10.7));
#2010=CARTESIAN_POINT('',(30.2,7.825,11.7));
#2011=CARTESIAN_POINT('',(31.2,7.825,10.7));
#2012=CARTESIAN_POINT('Origin',(18.5931948913585,27.7,1.85));
#2013=CARTESIAN_POINT('',(11.6553854307875,28.7,1.85));
#2014=CARTESIAN_POINT('',(11.6553854307875,27.7,2.85));
#2015=CARTESIAN_POINT('Origin',(11.6553854307875,27.7,1.85));
#2016=CARTESIAN_POINT('',(11.9,27.7,2.85));
#2017=CARTESIAN_POINT('',(18.5931948913585,27.7,2.85));
#2018=CARTESIAN_POINT('',(11.9,28.7,1.85));
#2019=CARTESIAN_POINT('Origin',(11.9,27.7,1.85));
#2020=CARTESIAN_POINT('',(18.5931948913585,28.7,1.85));
#2021=CARTESIAN_POINT('Origin',(11.9,27.7,5.85));
#2022=CARTESIAN_POINT('',(14.9,27.7,5.85));
#2023=CARTESIAN_POINT('',(15.9,28.7,5.85));
#2024=CARTESIAN_POINT('Origin',(15.9,27.7,5.85));
#2025=CARTESIAN_POINT('Origin',(11.9,28.7,5.85));
#2026=CARTESIAN_POINT('Origin',(11.9,27.7,5.85));
#2027=CARTESIAN_POINT('Origin',(15.9,27.7,2.925));
#2028=CARTESIAN_POINT('',(15.9,28.7,2.925));
#2029=CARTESIAN_POINT('',(14.9,27.7,2.925));
#2030=CARTESIAN_POINT('Origin',(15.9,26.175,10.7));
#2031=CARTESIAN_POINT('',(14.9,24.5,10.7));
#2032=CARTESIAN_POINT('',(15.9,24.5,11.7));
#2033=CARTESIAN_POINT('Origin',(15.9,24.5,10.7));
#2034=CARTESIAN_POINT('',(15.9,26.175,11.7));
#2035=CARTESIAN_POINT('',(14.9,26.175,10.7));
#2036=CARTESIAN_POINT('Origin',(4.3,-7.,10.7));
#2037=CARTESIAN_POINT('',(4.3,-7.,11.7));
#2038=CARTESIAN_POINT('',(4.3,-8.,10.7));
#2039=CARTESIAN_POINT('Origin',(5.85,27.7,5.85));
#2040=CARTESIAN_POINT('',(0.0446145692124811,28.7,1.85));
#2041=CARTESIAN_POINT('',(0.86807349556532,27.7,2.41737588652482));
#2042=CARTESIAN_POINT('Origin',(0.0446145692124811,27.7,1.85));
#2043=CARTESIAN_POINT('',(10.8319265044347,27.7,2.41737588652482));
#2044=CARTESIAN_POINT('Origin',(5.85,27.7,5.85));
#2045=CARTESIAN_POINT('Origin',(11.6553854307875,27.7,1.85));
#2046=CARTESIAN_POINT('Origin',(5.85,28.7,5.85));
#2047=CARTESIAN_POINT('Origin',(-4.,27.7,1.85));
#2048=CARTESIAN_POINT('',(-4.,27.7,2.85));
#2049=CARTESIAN_POINT('Origin',(-4.,27.7,1.85));
#2050=CARTESIAN_POINT('',(-4.,28.7,1.85));
#2051=CARTESIAN_POINT('Origin',(-4.,27.7,1.85));
#2052=CARTESIAN_POINT('Origin',(-4.,27.7,1.85));
#2053=CARTESIAN_POINT('Origin',(13.7444312293642,27.7,1.85));
#2054=CARTESIAN_POINT('',(0.04461456921248,27.7,2.85));
#2055=CARTESIAN_POINT('Origin',(0.04461456921248,27.7,1.85));
#2056=CARTESIAN_POINT('',(13.7444312293642,28.7,1.85));
#2057=CARTESIAN_POINT('',(13.7444312293642,27.7,2.85));
#2058=CARTESIAN_POINT('Origin',(-4.,27.7,0.));
#2059=CARTESIAN_POINT('',(-3.99999999999999,28.7,-3.));
#2060=CARTESIAN_POINT('Origin',(-4.,27.7,-3.));
#2061=CARTESIAN_POINT('',(-4.,28.7,0.));
#2062=CARTESIAN_POINT('Origin',(-4.,22.25,1.85));
#2063=CARTESIAN_POINT('',(-4.,20.2,2.85));
#2064=CARTESIAN_POINT('Origin',(-4.,20.2,1.85));
#2065=CARTESIAN_POINT('',(-4.,22.25,2.85));
#2066=CARTESIAN_POINT('Origin',(0.04461456921248,27.7,1.85));
#2067=CARTESIAN_POINT('Origin',(0.04461456921248,27.7,1.85));
#2068=CARTESIAN_POINT('Origin',(11.6553854307875,27.7,1.85));
#2069=CARTESIAN_POINT('Origin',(11.6553854307875,27.7,1.85));
#2070=CARTESIAN_POINT('Origin',(-5.,2.8,11.7));
#2071=CARTESIAN_POINT('',(-0.2,2.8,11.7));
#2072=CARTESIAN_POINT('',(3.3,2.8,11.7));
#2073=CARTESIAN_POINT('',(-0.2,2.8,3.29027907591137));
#2074=CARTESIAN_POINT('',(-0.2,2.8,5.85));
#2075=CARTESIAN_POINT('',(-5.,2.8,3.29027907591137));
#2076=CARTESIAN_POINT('Origin',(11.6,23.65,11.7));
#2077=CARTESIAN_POINT('',(23.4,24.5,11.7));
#2078=CARTESIAN_POINT('',(5.8,24.5,11.7));
#2079=CARTESIAN_POINT('',(23.4,20.2,11.7));
#2080=CARTESIAN_POINT('',(23.4,23.975,11.7));
#2081=CARTESIAN_POINT('',(28.2,20.2,11.7));
#2082=CARTESIAN_POINT('',(17.4,20.2,11.7));
#2083=CARTESIAN_POINT('',(28.2,17.2,11.7));
#2084=CARTESIAN_POINT('',(28.2,28.7,11.7));
#2085=CARTESIAN_POINT('',(23.4,17.2,11.7));
#2086=CARTESIAN_POINT('',(18.9,17.2,11.7));
#2087=CARTESIAN_POINT('',(23.4,-0.2,11.7));
#2088=CARTESIAN_POINT('',(23.4,12.3,11.7));
#2089=CARTESIAN_POINT('',(-0.2,-0.2,11.7));
#2090=CARTESIAN_POINT('',(17.4,-0.2,11.7));
#2091=CARTESIAN_POINT('',(-0.2,3.6,11.7));
#2092=CARTESIAN_POINT('Origin',(0.,24.5,0.));
#2093=CARTESIAN_POINT('',(14.9,24.5,5.85));
#2094=CARTESIAN_POINT('',(14.9,24.5,2.925));
#2095=CARTESIAN_POINT('',(11.9,24.5,2.85));
#2096=CARTESIAN_POINT('Origin',(11.9,24.5,5.85));
#2097=CARTESIAN_POINT('',(11.6553854307875,24.5,2.85));
#2098=CARTESIAN_POINT('',(5.49319489135852,24.5,2.85));
#2099=CARTESIAN_POINT('',(10.8319265044347,24.5,2.41737588652482));
#2100=CARTESIAN_POINT('Origin',(11.6553854307875,24.5,1.85));
#2101=CARTESIAN_POINT('',(5.85,24.5,-0.2));
#2102=CARTESIAN_POINT('Origin',(5.85,24.5,5.85));
#2103=CARTESIAN_POINT('',(23.4,24.5,-0.2));
#2104=CARTESIAN_POINT('',(5.8,24.5,-0.2));
#2105=CARTESIAN_POINT('',(23.4,24.5,0.));
#2106=CARTESIAN_POINT('Origin',(14.9,28.7,5.85));
#2107=CARTESIAN_POINT('',(14.9,28.7,5.85));
#2108=CARTESIAN_POINT('Origin',(11.9,28.7,5.85));
#2109=CARTESIAN_POINT('',(11.9,28.7,2.85));
#2110=CARTESIAN_POINT('Origin',(10.986389782717,28.7,2.85));
#2111=CARTESIAN_POINT('',(11.6553854307875,28.7,2.85));
#2112=CARTESIAN_POINT('Origin',(11.6553854307875,28.7,1.85));
#2113=CARTESIAN_POINT('',(10.8319265044347,28.7,2.41737588652482));
#2114=CARTESIAN_POINT('Origin',(5.85,28.7,5.85));
#2115=CARTESIAN_POINT('',(0.868073495565319,24.5,2.41737588652482));
#2116=CARTESIAN_POINT('',(0.86807349556532,28.7,2.41737588652482));
#2117=CARTESIAN_POINT('Origin',(5.85,24.5,5.85));
#2118=CARTESIAN_POINT('Origin',(0.04461456921248,28.7,1.85));
#2119=CARTESIAN_POINT('',(0.04461456921248,24.5,2.85));
#2120=CARTESIAN_POINT('',(0.04461456921248,28.7,2.85));
#2121=CARTESIAN_POINT('Origin',(0.04461456921248,24.5,1.85));
#2122=CARTESIAN_POINT('Origin',(11.6,12.15,-3.));
#2123=CARTESIAN_POINT('',(31.2,28.7,-3.));
#2124=CARTESIAN_POINT('',(31.2,15.35,-3.));
#2125=CARTESIAN_POINT('',(31.2,-8.,-3.));
#2126=CARTESIAN_POINT('',(95.,15.35,-3.));
#2127=CARTESIAN_POINT('',(28.2,15.35,-3.));
#2128=CARTESIAN_POINT('',(95.,5.35,-3.));
#2129=CARTESIAN_POINT('',(95.,15.35,-3.));
#2130=CARTESIAN_POINT('',(31.2,5.35,-3.));
#2131=CARTESIAN_POINT('',(95.,5.35,-3.));
#2132=CARTESIAN_POINT('',(31.2,-8.,-3.));
#2133=CARTESIAN_POINT('',(-3.,-8.,-3.));
#2134=CARTESIAN_POINT('Origin',(1.28886245872839,17.2,2.85));
#2135=CARTESIAN_POINT('',(-1.2,20.2,2.85));
#2136=CARTESIAN_POINT('',(-0.855568770635804,20.2,2.85));
#2137=CARTESIAN_POINT('',(-1.2,24.5,2.85));
#2138=CARTESIAN_POINT('',(-1.2,18.6,2.85));
#2139=CARTESIAN_POINT('',(0.644431229364195,24.5,2.85));
#2140=CARTESIAN_POINT('Origin',(-3.,20.2,0.));
#2141=CARTESIAN_POINT('',(-0.2,20.2,-0.2));
#2142=CARTESIAN_POINT('',(4.3,20.2,-0.2));
#2143=CARTESIAN_POINT('',(-0.2,20.2,1.85));
#2144=CARTESIAN_POINT('',(-0.2,20.2,0.));
#2145=CARTESIAN_POINT('Origin',(-1.2,20.2,1.85));
#2146=CARTESIAN_POINT('Origin',(5.8,-0.2,9.11202902092139));
#2147=CARTESIAN_POINT('',(5.85,-0.2,9.14089653438087));
#2148=CARTESIAN_POINT('',(3.,-0.2,7.49544826719043));
#2149=CARTESIAN_POINT('',(10.3521878469653,-0.2,11.7402358997685));
#2150=CARTESIAN_POINT('',(5.85,-4.7,9.14089653438087));
#2151=CARTESIAN_POINT('',(5.85,-0.2,9.14089653438087));
#2152=CARTESIAN_POINT('',(3.,-4.7,7.49544826719043));
#2153=CARTESIAN_POINT('',(5.1125,-4.7,8.71510071085352));
#2154=CARTESIAN_POINT('',(3.,-0.2,7.49544826719043));
#2155=CARTESIAN_POINT('Origin',(8.65,-0.2,7.52431578064992));
#2156=CARTESIAN_POINT('',(8.7,-0.2,7.49544826719044));
#2157=CARTESIAN_POINT('',(15.7353121530347,-0.2,3.43360890180279));
#2158=CARTESIAN_POINT('',(8.7,-4.7,7.49544826719044));
#2159=CARTESIAN_POINT('',(8.7,-0.2,7.49544826719044));
#2160=CARTESIAN_POINT('',(7.9625,-4.7,7.92124409071779));
#2161=CARTESIAN_POINT('Origin',(8.7,-0.2,4.26228675972853));
#2162=CARTESIAN_POINT('',(8.7,-0.2,4.20455173280957));
#2163=CARTESIAN_POINT('',(8.7,-0.2,2.13114337986426));
#2164=CARTESIAN_POINT('',(8.7,-4.7,4.20455173280957));
#2165=CARTESIAN_POINT('',(8.7,-0.2,4.20455173280957));
#2166=CARTESIAN_POINT('',(8.7,-4.7,5.05614337986427));
#2167=CARTESIAN_POINT('Origin',(5.9,-0.2,2.58797097907861));
#2168=CARTESIAN_POINT('',(5.85,-0.2,2.55910346561913));
#2169=CARTESIAN_POINT('',(11.8271878469653,-0.2,6.01003447806149));
#2170=CARTESIAN_POINT('',(5.85,-4.7,2.55910346561913));
#2171=CARTESIAN_POINT('',(5.85,-0.2,2.55910346561913));
#2172=CARTESIAN_POINT('',(6.5875,-4.7,2.98489928914648));
#2173=CARTESIAN_POINT('Origin',(3.05,-0.2,4.17568421935008));
#2174=CARTESIAN_POINT('',(3.,-0.2,4.20455173280956));
#2175=CARTESIAN_POINT('',(11.5103121530347,-0.2,-0.70887927963278));
#2176=CARTESIAN_POINT('',(3.,-4.7,4.20455173280956));
#2177=CARTESIAN_POINT('',(3.,-0.2,4.20455173280956));
#2178=CARTESIAN_POINT('',(3.7375,-4.7,3.77875590928222));
#2179=CARTESIAN_POINT('Origin',(3.,-0.2,7.43771324027147));
#2180=CARTESIAN_POINT('',(3.,-0.2,3.71885662013573));
#2181=CARTESIAN_POINT('',(3.,-4.7,6.64385662013573));
#2182=CARTESIAN_POINT('Origin',(5.85,-4.7,5.85));
#2183=CARTESIAN_POINT('',(7.55,-4.7,5.85));
#2184=CARTESIAN_POINT('Origin',(5.85,-4.7,5.85));
#2185=CARTESIAN_POINT('Origin',(5.85,-0.2,5.85));
#2186=CARTESIAN_POINT('',(7.55,-8.,5.85));
#2187=CARTESIAN_POINT('',(7.55,-0.2,5.85));
#2188=CARTESIAN_POINT('Origin',(5.85,-8.,5.85));
#2189=CARTESIAN_POINT('Origin',(95.,15.35,-3.));
#2190=CARTESIAN_POINT('',(31.2,15.35,7.));
#2191=CARTESIAN_POINT('',(31.2,15.35,-3.));
#2192=CARTESIAN_POINT('',(95.,15.35,7.));
#2193=CARTESIAN_POINT('',(28.2,15.35,7.));
#2194=CARTESIAN_POINT('',(95.,15.35,-3.));
#2195=CARTESIAN_POINT('Origin',(95.,5.35,-3.));
#2196=CARTESIAN_POINT('',(95.,5.35,7.));
#2197=CARTESIAN_POINT('',(95.,15.35,7.));
#2198=CARTESIAN_POINT('',(95.,5.35,-3.));
#2199=CARTESIAN_POINT('Origin',(31.2,5.35,-3.));
#2200=CARTESIAN_POINT('',(31.2,5.35,7.));
#2201=CARTESIAN_POINT('',(95.,5.35,7.));
#2202=CARTESIAN_POINT('',(31.2,5.35,-3.));
#2203=CARTESIAN_POINT('Origin',(63.1,10.35,7.));
#2204=CARTESIAN_POINT('',(31.2,1.175,7.));
#2205=CARTESIAN_POINT('Origin',(31.2,-8.,-3.));
#2206=CARTESIAN_POINT('Origin',(28.2,28.7,-3.));
#2207=CARTESIAN_POINT('',(28.2,20.2,-0.2));
#2208=CARTESIAN_POINT('',(28.2,20.2,0.));
#2209=CARTESIAN_POINT('',(28.2,17.2,-0.2));
#2210=CARTESIAN_POINT('',(28.2,16.075,-0.2));
#2211=CARTESIAN_POINT('',(28.2,17.2,0.));
#2212=CARTESIAN_POINT('Origin',(26.2,28.7,0.));
#2213=CARTESIAN_POINT('Origin',(-1.2,18.6,1.85));
#2214=CARTESIAN_POINT('',(-0.2,24.5,1.85));
#2215=CARTESIAN_POINT('',(-0.2,18.6,1.85));
#2216=CARTESIAN_POINT('Origin',(-1.2,24.5,1.85));
#2217=CARTESIAN_POINT('Origin',(0.,17.2,0.));
#2218=CARTESIAN_POINT('',(-0.2,17.2,11.7));
#2219=CARTESIAN_POINT('',(5.8,17.2,11.7));
#2220=CARTESIAN_POINT('',(-0.2,17.2,-0.2));
#2221=CARTESIAN_POINT('',(-0.2,17.2,0.));
#2222=CARTESIAN_POINT('',(5.8,17.2,-0.2));
#2223=CARTESIAN_POINT('',(-0.6,17.2,5.85));
#2224=CARTESIAN_POINT('Origin',(-1.2,17.2,5.85));
#2225=CARTESIAN_POINT('Origin',(-0.2,20.,0.));
#2226=CARTESIAN_POINT('',(-0.2,24.5,-0.2));
#2227=CARTESIAN_POINT('',(-0.2,16.075,-0.2));
#2228=CARTESIAN_POINT('',(-0.2,24.5,0.));
#2229=CARTESIAN_POINT('Origin',(-1.2,17.2,5.85));
#2230=CARTESIAN_POINT('',(-0.6,9.2,5.85));
#2231=CARTESIAN_POINT('',(-0.6,17.2,5.85));
#2232=CARTESIAN_POINT('Origin',(-1.2,9.2,5.85));
#2233=CARTESIAN_POINT('Origin',(-1.2,9.2,5.85));
#2234=CARTESIAN_POINT('Origin',(-3.,-8.,0.));
#2235=CARTESIAN_POINT('Origin',(-5.,2.8,3.29027907591137));
#2236=CARTESIAN_POINT('',(-0.2,1.4,3.29027907591137));
#2237=CARTESIAN_POINT('Origin',(11.6,7.2,11.7));
#2238=CARTESIAN_POINT('',(-0.2,3.6,11.7));
#2239=CARTESIAN_POINT('Origin',(0.,24.5,0.));
#2240=CARTESIAN_POINT('',(5.8,24.5,-0.2));
#2241=CARTESIAN_POINT('Origin',(11.6,12.15,-0.2));
#2242=CARTESIAN_POINT('',(-0.2,-0.2,-0.2));
#2243=CARTESIAN_POINT('',(-0.2,6.075,-0.2));
#2244=CARTESIAN_POINT('',(23.4,-0.2,-0.2));
#2245=CARTESIAN_POINT('',(17.4,-0.2,-0.2));
#2246=CARTESIAN_POINT('',(23.4,17.2,-0.2));
#2247=CARTESIAN_POINT('',(23.4,14.775,-0.2));
#2248=CARTESIAN_POINT('',(18.9,17.2,-0.2));
#2249=CARTESIAN_POINT('',(23.4,20.2,-0.2));
#2250=CARTESIAN_POINT('',(17.4,20.2,-0.2));
#2251=CARTESIAN_POINT('',(23.4,18.225,-0.2));
#2252=CARTESIAN_POINT('Origin',(-0.2,0.,0.));
#2253=CARTESIAN_POINT('',(-0.2,-0.2,0.));
#2254=CARTESIAN_POINT('Origin',(23.2,-0.2,0.));
#2255=CARTESIAN_POINT('',(23.4,-0.2,0.));
#2256=CARTESIAN_POINT('Origin',(23.4,17.4,0.));
#2257=CARTESIAN_POINT('',(23.4,17.2,0.));
#2258=CARTESIAN_POINT('Origin',(26.2,17.2,0.));
#2259=CARTESIAN_POINT('Origin',(23.2,20.2,0.));
#2260=CARTESIAN_POINT('',(23.4,20.2,0.));
#2261=CARTESIAN_POINT('Origin',(23.4,24.3,0.));
#2262=UNCERTAINTY_MEASURE_WITH_UNIT(LENGTH_MEASURE(0.01),#2266,
'DISTANCE_ACCURACY_VALUE',
'Maximum model space distance between geometric entities at asserted c
onnectivities');
#2263=UNCERTAINTY_MEASURE_WITH_UNIT(LENGTH_MEASURE(0.01),#2266,
'DISTANCE_ACCURACY_VALUE',
'Maximum model space distance between geometric entities at asserted c
onnectivities');
#2264=(
GEOMETRIC_REPRESENTATION_CONTEXT(3)
GLOBAL_UNCERTAINTY_ASSIGNED_CONTEXT((#2262))
GLOBAL_UNIT_ASSIGNED_CONTEXT((#2266,#2268,#2269))
REPRESENTATION_CONTEXT('','3D')
);
#2265=(
GEOMETRIC_REPRESENTATION_CONTEXT(3)
GLOBAL_UNCERTAINTY_ASSIGNED_CONTEXT((#2263))
GLOBAL_UNIT_ASSIGNED_CONTEXT((#2266,#2268,#2269))
REPRESENTATION_CONTEXT('','3D')
);
#2266=(
LENGTH_UNIT()
NAMED_UNIT(*)
SI_UNIT(.MILLI.,.METRE.)
);
#2267=(
LENGTH_UNIT()
NAMED_UNIT(*)
SI_UNIT($,.METRE.)
);
#2268=(
NAMED_UNIT(*)
PLANE_ANGLE_UNIT()
SI_UNIT($,.RADIAN.)
);
#2269=(
NAMED_UNIT(*)
SI_UNIT($,.STERADIAN.)
SOLID_ANGLE_UNIT()
);
#2270=SHAPE_DEFINITION_REPRESENTATION(#2271,#2272);
#2271=PRODUCT_DEFINITION_SHAPE('',$,#2274);
#2272=SHAPE_REPRESENTATION('',(#1360),#2264);
#2273=PRODUCT_DEFINITION_CONTEXT('part definition',#2278,'design');
#2274=PRODUCT_DEFINITION('arm R v2','arm R v2 v6',#2275,#2273);
#2275=PRODUCT_DEFINITION_FORMATION('',$,#2280);
#2276=PRODUCT_RELATED_PRODUCT_CATEGORY('arm R v2 v6','arm R v2 v6',(#2280));
#2277=APPLICATION_PROTOCOL_DEFINITION('international standard',
'automotive_design',2009,#2278);
#2278=APPLICATION_CONTEXT(
'Core Data for Automotive Mechanical Design Process');
#2279=PRODUCT_CONTEXT('part definition',#2278,'mechanical');
#2280=PRODUCT('arm R v2','arm R v2 v6',$,(#2279));
#2281=PRESENTATION_STYLE_ASSIGNMENT((#2283));
#2282=PRESENTATION_STYLE_ASSIGNMENT((#2284));
#2283=SURFACE_STYLE_USAGE(.BOTH.,#2285);
#2284=SURFACE_STYLE_USAGE(.BOTH.,#2286);
#2285=SURFACE_SIDE_STYLE('',(#2287));
#2286=SURFACE_SIDE_STYLE('',(#2288));
#2287=SURFACE_STYLE_FILL_AREA(#2289);
#2288=SURFACE_STYLE_FILL_AREA(#2290);
#2289=FILL_AREA_STYLE('ABS(\X2\D770C0C9\X0\)',(#2291));
#2290=FILL_AREA_STYLE('\X2\B098C77CB860\X0\ 6-6(\X2\D770C0C9\X0\)',(#2292));
#2291=FILL_AREA_STYLE_COLOUR('ABS(\X2\D770C0C9\X0\)',#2293);
#2292=FILL_AREA_STYLE_COLOUR('\X2\B098C77CB860\X0\ 6-6(\X2\D770C0C9\X0\)',
#2294);
#2293=COLOUR_RGB('ABS(\X2\D770C0C9\X0\)',0.215686274509804,0.215686274509804,
0.215686274509804);
#2294=COLOUR_RGB('\X2\B098C77CB860\X0\ 6-6(\X2\D770C0C9\X0\)',0.972549019607843,
0.968627450980392,0.929411764705882);
ENDSEC;
END-ISO-10303-21;
