ISO-10303-21;
HEADER;
/* Generated by software containing ST-Developer
 * from STEP Tools, Inc. (www.steptools.com) 
 */

FILE_DESCRIPTION(
/* description */ (''),
/* implementation_level */ '2;1');

FILE_NAME(
/* name */ 'our sg90.step',
/* time_stamp */ '2026-10-07T11:35:24+09:00',
/* author */ (''),
/* organization */ (''),
/* preprocessor_version */ 'ST-DEVELOPER v20.2',
/* originating_system */ 'Autodesk Translation Framework v15.15.0.0',
/* authorisation */ '');

FILE_SCHEMA (('AUTOMOTIVE_DESIGN { 1 0 10303 214 3 1 1 }'));
ENDSEC;

DATA;
#10=MECHANICAL_DESIGN_GEOMETRIC_PRESENTATION_REPRESENTATION('',(#16,#17,
#18),#851);
#11=SHAPE_REPRESENTATION_RELATIONSHIP('SRR','None',#858,#12);
#12=ADVANCED_BREP_SHAPE_REPRESENTATION('',(#13),#850);
#13=MANIFOLD_SOLID_BREP('\X2\BCF8CCB4\X0\1',#510);
#14=FACE_BOUND('',#77,.T.);
#15=FACE_BOUND('',#87,.T.);
#16=STYLED_ITEM('',(#869),#487);
#17=STYLED_ITEM('',(#869),#488);
#18=STYLED_ITEM('',(#868),#13);
#19=CIRCLE('',#526,0.6);
#20=CIRCLE('',#527,0.6);
#21=CIRCLE('',#530,0.599999999999999);
#22=CIRCLE('',#531,0.599999999999999);
#23=CIRCLE('',#534,2.5);
#24=CIRCLE('',#535,2.5);
#25=CIRCLE('',#539,5.85);
#26=CIRCLE('',#540,5.85);
#27=CIRCLE('',#541,5.85);
#28=CIRCLE('',#542,5.85);
#29=CIRCLE('',#543,5.85);
#30=CIRCLE('',#546,2.8);
#31=CIRCLE('',#547,2.8);
#32=CYLINDRICAL_SURFACE('',#525,0.6);
#33=CYLINDRICAL_SURFACE('',#529,0.599999999999999);
#34=CYLINDRICAL_SURFACE('',#533,2.5);
#35=CYLINDRICAL_SURFACE('',#538,5.85);
#36=CYLINDRICAL_SURFACE('',#545,2.8);
#37=FACE_OUTER_BOUND('',#65,.T.);
#38=FACE_OUTER_BOUND('',#66,.T.);
#39=FACE_OUTER_BOUND('',#67,.T.);
#40=FACE_OUTER_BOUND('',#68,.T.);
#41=FACE_OUTER_BOUND('',#69,.T.);
#42=FACE_OUTER_BOUND('',#70,.T.);
#43=FACE_OUTER_BOUND('',#71,.T.);
#44=FACE_OUTER_BOUND('',#72,.T.);
#45=FACE_OUTER_BOUND('',#73,.T.);
#46=FACE_OUTER_BOUND('',#74,.T.);
#47=FACE_OUTER_BOUND('',#75,.T.);
#48=FACE_OUTER_BOUND('',#76,.T.);
#49=FACE_OUTER_BOUND('',#78,.T.);
#50=FACE_OUTER_BOUND('',#79,.T.);
#51=FACE_OUTER_BOUND('',#80,.T.);
#52=FACE_OUTER_BOUND('',#81,.T.);
#53=FACE_OUTER_BOUND('',#82,.T.);
#54=FACE_OUTER_BOUND('',#83,.T.);
#55=FACE_OUTER_BOUND('',#84,.T.);
#56=FACE_OUTER_BOUND('',#85,.T.);
#57=FACE_OUTER_BOUND('',#86,.T.);
#58=FACE_OUTER_BOUND('',#88,.T.);
#59=FACE_OUTER_BOUND('',#89,.T.);
#60=FACE_OUTER_BOUND('',#90,.T.);
#61=FACE_OUTER_BOUND('',#91,.T.);
#62=FACE_OUTER_BOUND('',#92,.T.);
#63=FACE_OUTER_BOUND('',#93,.T.);
#64=FACE_OUTER_BOUND('',#94,.T.);
#65=EDGE_LOOP('',(#321,#322,#323,#324));
#66=EDGE_LOOP('',(#325,#326,#327,#328));
#67=EDGE_LOOP('',(#329,#330,#331,#332));
#68=EDGE_LOOP('',(#333,#334,#335,#336));
#69=EDGE_LOOP('',(#337,#338,#339,#340));
#70=EDGE_LOOP('',(#341,#342,#343,#344));
#71=EDGE_LOOP('',(#345));
#72=EDGE_LOOP('',(#346,#347,#348,#349));
#73=EDGE_LOOP('',(#350,#351,#352,#353,#354,#355,#356));
#74=EDGE_LOOP('',(#357,#358,#359,#360));
#75=EDGE_LOOP('',(#361,#362,#363,#364));
#76=EDGE_LOOP('',(#365,#366,#367,#368));
#77=EDGE_LOOP('',(#369));
#78=EDGE_LOOP('',(#370,#371,#372));
#79=EDGE_LOOP('',(#373,#374,#375));
#80=EDGE_LOOP('',(#376,#377,#378,#379,#380,#381,#382,#383));
#81=EDGE_LOOP('',(#384,#385,#386,#387));
#82=EDGE_LOOP('',(#388,#389,#390,#391));
#83=EDGE_LOOP('',(#392,#393,#394,#395));
#84=EDGE_LOOP('',(#396,#397,#398,#399));
#85=EDGE_LOOP('',(#400,#401,#402,#403));
#86=EDGE_LOOP('',(#404,#405,#406,#407));
#87=EDGE_LOOP('',(#408,#409,#410,#411));
#88=EDGE_LOOP('',(#412,#413,#414,#415));
#89=EDGE_LOOP('',(#416,#417,#418,#419));
#90=EDGE_LOOP('',(#420,#421,#422,#423));
#91=EDGE_LOOP('',(#424,#425,#426,#427,#428));
#92=EDGE_LOOP('',(#429,#430,#431,#432));
#93=EDGE_LOOP('',(#433,#434,#435,#436,#437,#438,#439,#440,#441,#442,#443,
#444,#445));
#94=EDGE_LOOP('',(#446,#447,#448,#449,#450,#451,#452,#453,#454,#455,#456,
#457,#458));
#95=LINE('',#709,#151);
#96=LINE('',#711,#152);
#97=LINE('',#713,#153);
#98=LINE('',#714,#154);
#99=LINE('',#720,#155);
#100=LINE('',#723,#156);
#101=LINE('',#725,#157);
#102=LINE('',#726,#158);
#103=LINE('',#735,#159);
#104=LINE('',#741,#160);
#105=LINE('',#743,#161);
#106=LINE('',#745,#162);
#107=LINE('',#746,#163);
#108=LINE('',#758,#164);
#109=LINE('',#761,#165);
#110=LINE('',#763,#166);
#111=LINE('',#764,#167);
#112=LINE('',#771,#168);
#113=LINE('',#772,#169);
#114=LINE('',#775,#170);
#115=LINE('',#776,#171);
#116=LINE('',#779,#172);
#117=LINE('',#781,#173);
#118=LINE('',#782,#174);
#119=LINE('',#786,#175);
#120=LINE('',#788,#176);
#121=LINE('',#790,#177);
#122=LINE('',#791,#178);
#123=LINE('',#794,#179);
#124=LINE('',#796,#180);
#125=LINE('',#797,#181);
#126=LINE('',#800,#182);
#127=LINE('',#802,#183);
#128=LINE('',#803,#184);
#129=LINE('',#806,#185);
#130=LINE('',#808,#186);
#131=LINE('',#809,#187);
#132=LINE('',#812,#188);
#133=LINE('',#814,#189);
#134=LINE('',#815,#190);
#135=LINE('',#818,#191);
#136=LINE('',#820,#192);
#137=LINE('',#821,#193);
#138=LINE('',#824,#194);
#139=LINE('',#826,#195);
#140=LINE('',#827,#196);
#141=LINE('',#830,#197);
#142=LINE('',#832,#198);
#143=LINE('',#833,#199);
#144=LINE('',#836,#200);
#145=LINE('',#838,#201);
#146=LINE('',#839,#202);
#147=LINE('',#841,#203);
#148=LINE('',#842,#204);
#149=LINE('',#844,#205);
#150=LINE('',#845,#206);
#151=VECTOR('',#569,10.);
#152=VECTOR('',#570,10.);
#153=VECTOR('',#571,10.);
#154=VECTOR('',#572,10.);
#155=VECTOR('',#579,10.);
#156=VECTOR('',#582,10.);
#157=VECTOR('',#583,10.);
#158=VECTOR('',#584,10.);
#159=VECTOR('',#597,2.5);
#160=VECTOR('',#604,10.);
#161=VECTOR('',#605,10.);
#162=VECTOR('',#606,10.);
#163=VECTOR('',#607,10.);
#164=VECTOR('',#620,10.);
#165=VECTOR('',#623,10.);
#166=VECTOR('',#624,10.);
#167=VECTOR('',#625,10.);
#168=VECTOR('',#636,10.);
#169=VECTOR('',#637,10.);
#170=VECTOR('',#640,10.);
#171=VECTOR('',#641,10.);
#172=VECTOR('',#644,10.);
#173=VECTOR('',#645,10.);
#174=VECTOR('',#646,10.);
#175=VECTOR('',#649,10.);
#176=VECTOR('',#650,10.);
#177=VECTOR('',#651,10.);
#178=VECTOR('',#652,10.);
#179=VECTOR('',#655,10.);
#180=VECTOR('',#656,10.);
#181=VECTOR('',#657,10.);
#182=VECTOR('',#660,10.);
#183=VECTOR('',#661,10.);
#184=VECTOR('',#662,10.);
#185=VECTOR('',#665,10.);
#186=VECTOR('',#666,10.);
#187=VECTOR('',#667,10.);
#188=VECTOR('',#670,10.);
#189=VECTOR('',#671,10.);
#190=VECTOR('',#672,10.);
#191=VECTOR('',#675,10.);
#192=VECTOR('',#676,10.);
#193=VECTOR('',#677,10.);
#194=VECTOR('',#680,10.);
#195=VECTOR('',#681,10.);
#196=VECTOR('',#682,10.);
#197=VECTOR('',#685,10.);
#198=VECTOR('',#686,10.);
#199=VECTOR('',#687,10.);
#200=VECTOR('',#690,10.);
#201=VECTOR('',#691,10.);
#202=VECTOR('',#692,10.);
#203=VECTOR('',#695,10.);
#204=VECTOR('',#696,10.);
#205=VECTOR('',#699,10.);
#206=VECTOR('',#700,10.);
#207=VERTEX_POINT('',#707);
#208=VERTEX_POINT('',#708);
#209=VERTEX_POINT('',#710);
#210=VERTEX_POINT('',#712);
#211=VERTEX_POINT('',#716);
#212=VERTEX_POINT('',#718);
#213=VERTEX_POINT('',#722);
#214=VERTEX_POINT('',#724);
#215=VERTEX_POINT('',#732);
#216=VERTEX_POINT('',#734);
#217=VERTEX_POINT('',#739);
#218=VERTEX_POINT('',#740);
#219=VERTEX_POINT('',#742);
#220=VERTEX_POINT('',#744);
#221=VERTEX_POINT('',#748);
#222=VERTEX_POINT('',#749);
#223=VERTEX_POINT('',#751);
#224=VERTEX_POINT('',#753);
#225=VERTEX_POINT('',#756);
#226=VERTEX_POINT('',#760);
#227=VERTEX_POINT('',#762);
#228=VERTEX_POINT('',#770);
#229=VERTEX_POINT('',#774);
#230=VERTEX_POINT('',#778);
#231=VERTEX_POINT('',#780);
#232=VERTEX_POINT('',#784);
#233=VERTEX_POINT('',#785);
#234=VERTEX_POINT('',#787);
#235=VERTEX_POINT('',#789);
#236=VERTEX_POINT('',#793);
#237=VERTEX_POINT('',#795);
#238=VERTEX_POINT('',#799);
#239=VERTEX_POINT('',#801);
#240=VERTEX_POINT('',#805);
#241=VERTEX_POINT('',#807);
#242=VERTEX_POINT('',#811);
#243=VERTEX_POINT('',#813);
#244=VERTEX_POINT('',#817);
#245=VERTEX_POINT('',#819);
#246=VERTEX_POINT('',#823);
#247=VERTEX_POINT('',#825);
#248=VERTEX_POINT('',#829);
#249=VERTEX_POINT('',#831);
#250=VERTEX_POINT('',#835);
#251=VERTEX_POINT('',#837);
#252=EDGE_CURVE('',#207,#208,#95,.T.);
#253=EDGE_CURVE('',#207,#209,#96,.T.);
#254=EDGE_CURVE('',#210,#209,#97,.T.);
#255=EDGE_CURVE('',#208,#210,#98,.T.);
#256=EDGE_CURVE('',#208,#211,#19,.T.);
#257=EDGE_CURVE('',#212,#210,#20,.T.);
#258=EDGE_CURVE('',#211,#212,#99,.T.);
#259=EDGE_CURVE('',#211,#213,#100,.T.);
#260=EDGE_CURVE('',#214,#212,#101,.T.);
#261=EDGE_CURVE('',#213,#214,#102,.T.);
#262=EDGE_CURVE('',#213,#207,#21,.T.);
#263=EDGE_CURVE('',#209,#214,#22,.T.);
#264=EDGE_CURVE('',#215,#215,#23,.T.);
#265=EDGE_CURVE('',#215,#216,#103,.T.);
#266=EDGE_CURVE('',#216,#216,#24,.T.);
#267=EDGE_CURVE('',#217,#218,#104,.T.);
#268=EDGE_CURVE('',#217,#219,#105,.T.);
#269=EDGE_CURVE('',#220,#219,#106,.T.);
#270=EDGE_CURVE('',#218,#220,#107,.T.);
#271=EDGE_CURVE('',#221,#222,#25,.T.);
#272=EDGE_CURVE('',#223,#221,#26,.T.);
#273=EDGE_CURVE('',#224,#223,#27,.T.);
#274=EDGE_CURVE('',#218,#224,#28,.T.);
#275=EDGE_CURVE('',#225,#220,#29,.T.);
#276=EDGE_CURVE('',#222,#225,#108,.T.);
#277=EDGE_CURVE('',#222,#226,#109,.T.);
#278=EDGE_CURVE('',#227,#225,#110,.T.);
#279=EDGE_CURVE('',#226,#227,#111,.T.);
#280=EDGE_CURVE('',#226,#217,#30,.T.);
#281=EDGE_CURVE('',#219,#227,#31,.T.);
#282=EDGE_CURVE('',#223,#228,#112,.T.);
#283=EDGE_CURVE('',#224,#228,#113,.T.);
#284=EDGE_CURVE('',#221,#229,#114,.T.);
#285=EDGE_CURVE('',#229,#223,#115,.T.);
#286=EDGE_CURVE('',#230,#224,#116,.T.);
#287=EDGE_CURVE('',#231,#230,#117,.T.);
#288=EDGE_CURVE('',#231,#221,#118,.T.);
#289=EDGE_CURVE('',#232,#233,#119,.T.);
#290=EDGE_CURVE('',#233,#234,#120,.T.);
#291=EDGE_CURVE('',#235,#234,#121,.T.);
#292=EDGE_CURVE('',#232,#235,#122,.T.);
#293=EDGE_CURVE('',#236,#232,#123,.T.);
#294=EDGE_CURVE('',#237,#235,#124,.T.);
#295=EDGE_CURVE('',#236,#237,#125,.T.);
#296=EDGE_CURVE('',#238,#236,#126,.T.);
#297=EDGE_CURVE('',#239,#237,#127,.T.);
#298=EDGE_CURVE('',#238,#239,#128,.T.);
#299=EDGE_CURVE('',#240,#238,#129,.T.);
#300=EDGE_CURVE('',#241,#239,#130,.T.);
#301=EDGE_CURVE('',#240,#241,#131,.T.);
#302=EDGE_CURVE('',#242,#240,#132,.T.);
#303=EDGE_CURVE('',#243,#241,#133,.T.);
#304=EDGE_CURVE('',#242,#243,#134,.T.);
#305=EDGE_CURVE('',#244,#242,#135,.T.);
#306=EDGE_CURVE('',#245,#243,#136,.T.);
#307=EDGE_CURVE('',#244,#245,#137,.T.);
#308=EDGE_CURVE('',#246,#244,#138,.T.);
#309=EDGE_CURVE('',#247,#245,#139,.T.);
#310=EDGE_CURVE('',#246,#247,#140,.T.);
#311=EDGE_CURVE('',#248,#246,#141,.T.);
#312=EDGE_CURVE('',#249,#247,#142,.T.);
#313=EDGE_CURVE('',#248,#249,#143,.T.);
#314=EDGE_CURVE('',#250,#248,#144,.T.);
#315=EDGE_CURVE('',#251,#249,#145,.T.);
#316=EDGE_CURVE('',#250,#251,#146,.T.);
#317=EDGE_CURVE('',#229,#250,#147,.T.);
#318=EDGE_CURVE('',#228,#251,#148,.T.);
#319=EDGE_CURVE('',#233,#231,#149,.T.);
#320=EDGE_CURVE('',#234,#230,#150,.T.);
#321=ORIENTED_EDGE('',*,*,#252,.F.);
#322=ORIENTED_EDGE('',*,*,#253,.T.);
#323=ORIENTED_EDGE('',*,*,#254,.F.);
#324=ORIENTED_EDGE('',*,*,#255,.F.);
#325=ORIENTED_EDGE('',*,*,#256,.F.);
#326=ORIENTED_EDGE('',*,*,#255,.T.);
#327=ORIENTED_EDGE('',*,*,#257,.F.);
#328=ORIENTED_EDGE('',*,*,#258,.F.);
#329=ORIENTED_EDGE('',*,*,#259,.F.);
#330=ORIENTED_EDGE('',*,*,#258,.T.);
#331=ORIENTED_EDGE('',*,*,#260,.F.);
#332=ORIENTED_EDGE('',*,*,#261,.F.);
#333=ORIENTED_EDGE('',*,*,#262,.F.);
#334=ORIENTED_EDGE('',*,*,#261,.T.);
#335=ORIENTED_EDGE('',*,*,#263,.F.);
#336=ORIENTED_EDGE('',*,*,#253,.F.);
#337=ORIENTED_EDGE('',*,*,#263,.T.);
#338=ORIENTED_EDGE('',*,*,#260,.T.);
#339=ORIENTED_EDGE('',*,*,#257,.T.);
#340=ORIENTED_EDGE('',*,*,#254,.T.);
#341=ORIENTED_EDGE('',*,*,#264,.F.);
#342=ORIENTED_EDGE('',*,*,#265,.T.);
#343=ORIENTED_EDGE('',*,*,#266,.F.);
#344=ORIENTED_EDGE('',*,*,#265,.F.);
#345=ORIENTED_EDGE('',*,*,#264,.T.);
#346=ORIENTED_EDGE('',*,*,#267,.F.);
#347=ORIENTED_EDGE('',*,*,#268,.T.);
#348=ORIENTED_EDGE('',*,*,#269,.F.);
#349=ORIENTED_EDGE('',*,*,#270,.F.);
#350=ORIENTED_EDGE('',*,*,#271,.F.);
#351=ORIENTED_EDGE('',*,*,#272,.F.);
#352=ORIENTED_EDGE('',*,*,#273,.F.);
#353=ORIENTED_EDGE('',*,*,#274,.F.);
#354=ORIENTED_EDGE('',*,*,#270,.T.);
#355=ORIENTED_EDGE('',*,*,#275,.F.);
#356=ORIENTED_EDGE('',*,*,#276,.F.);
#357=ORIENTED_EDGE('',*,*,#277,.F.);
#358=ORIENTED_EDGE('',*,*,#276,.T.);
#359=ORIENTED_EDGE('',*,*,#278,.F.);
#360=ORIENTED_EDGE('',*,*,#279,.F.);
#361=ORIENTED_EDGE('',*,*,#280,.F.);
#362=ORIENTED_EDGE('',*,*,#279,.T.);
#363=ORIENTED_EDGE('',*,*,#281,.F.);
#364=ORIENTED_EDGE('',*,*,#268,.F.);
#365=ORIENTED_EDGE('',*,*,#281,.T.);
#366=ORIENTED_EDGE('',*,*,#278,.T.);
#367=ORIENTED_EDGE('',*,*,#275,.T.);
#368=ORIENTED_EDGE('',*,*,#269,.T.);
#369=ORIENTED_EDGE('',*,*,#266,.T.);
#370=ORIENTED_EDGE('',*,*,#273,.T.);
#371=ORIENTED_EDGE('',*,*,#282,.T.);
#372=ORIENTED_EDGE('',*,*,#283,.F.);
#373=ORIENTED_EDGE('',*,*,#272,.T.);
#374=ORIENTED_EDGE('',*,*,#284,.T.);
#375=ORIENTED_EDGE('',*,*,#285,.T.);
#376=ORIENTED_EDGE('',*,*,#271,.T.);
#377=ORIENTED_EDGE('',*,*,#277,.T.);
#378=ORIENTED_EDGE('',*,*,#280,.T.);
#379=ORIENTED_EDGE('',*,*,#267,.T.);
#380=ORIENTED_EDGE('',*,*,#274,.T.);
#381=ORIENTED_EDGE('',*,*,#286,.F.);
#382=ORIENTED_EDGE('',*,*,#287,.F.);
#383=ORIENTED_EDGE('',*,*,#288,.T.);
#384=ORIENTED_EDGE('',*,*,#289,.T.);
#385=ORIENTED_EDGE('',*,*,#290,.T.);
#386=ORIENTED_EDGE('',*,*,#291,.F.);
#387=ORIENTED_EDGE('',*,*,#292,.F.);
#388=ORIENTED_EDGE('',*,*,#293,.T.);
#389=ORIENTED_EDGE('',*,*,#292,.T.);
#390=ORIENTED_EDGE('',*,*,#294,.F.);
#391=ORIENTED_EDGE('',*,*,#295,.F.);
#392=ORIENTED_EDGE('',*,*,#296,.T.);
#393=ORIENTED_EDGE('',*,*,#295,.T.);
#394=ORIENTED_EDGE('',*,*,#297,.F.);
#395=ORIENTED_EDGE('',*,*,#298,.F.);
#396=ORIENTED_EDGE('',*,*,#299,.T.);
#397=ORIENTED_EDGE('',*,*,#298,.T.);
#398=ORIENTED_EDGE('',*,*,#300,.F.);
#399=ORIENTED_EDGE('',*,*,#301,.F.);
#400=ORIENTED_EDGE('',*,*,#302,.T.);
#401=ORIENTED_EDGE('',*,*,#301,.T.);
#402=ORIENTED_EDGE('',*,*,#303,.F.);
#403=ORIENTED_EDGE('',*,*,#304,.F.);
#404=ORIENTED_EDGE('',*,*,#305,.T.);
#405=ORIENTED_EDGE('',*,*,#304,.T.);
#406=ORIENTED_EDGE('',*,*,#306,.F.);
#407=ORIENTED_EDGE('',*,*,#307,.F.);
#408=ORIENTED_EDGE('',*,*,#252,.T.);
#409=ORIENTED_EDGE('',*,*,#256,.T.);
#410=ORIENTED_EDGE('',*,*,#259,.T.);
#411=ORIENTED_EDGE('',*,*,#262,.T.);
#412=ORIENTED_EDGE('',*,*,#308,.T.);
#413=ORIENTED_EDGE('',*,*,#307,.T.);
#414=ORIENTED_EDGE('',*,*,#309,.F.);
#415=ORIENTED_EDGE('',*,*,#310,.F.);
#416=ORIENTED_EDGE('',*,*,#311,.T.);
#417=ORIENTED_EDGE('',*,*,#310,.T.);
#418=ORIENTED_EDGE('',*,*,#312,.F.);
#419=ORIENTED_EDGE('',*,*,#313,.F.);
#420=ORIENTED_EDGE('',*,*,#314,.T.);
#421=ORIENTED_EDGE('',*,*,#313,.T.);
#422=ORIENTED_EDGE('',*,*,#315,.F.);
#423=ORIENTED_EDGE('',*,*,#316,.F.);
#424=ORIENTED_EDGE('',*,*,#317,.T.);
#425=ORIENTED_EDGE('',*,*,#316,.T.);
#426=ORIENTED_EDGE('',*,*,#318,.F.);
#427=ORIENTED_EDGE('',*,*,#282,.F.);
#428=ORIENTED_EDGE('',*,*,#285,.F.);
#429=ORIENTED_EDGE('',*,*,#319,.T.);
#430=ORIENTED_EDGE('',*,*,#287,.T.);
#431=ORIENTED_EDGE('',*,*,#320,.F.);
#432=ORIENTED_EDGE('',*,*,#290,.F.);
#433=ORIENTED_EDGE('',*,*,#320,.T.);
#434=ORIENTED_EDGE('',*,*,#286,.T.);
#435=ORIENTED_EDGE('',*,*,#283,.T.);
#436=ORIENTED_EDGE('',*,*,#318,.T.);
#437=ORIENTED_EDGE('',*,*,#315,.T.);
#438=ORIENTED_EDGE('',*,*,#312,.T.);
#439=ORIENTED_EDGE('',*,*,#309,.T.);
#440=ORIENTED_EDGE('',*,*,#306,.T.);
#441=ORIENTED_EDGE('',*,*,#303,.T.);
#442=ORIENTED_EDGE('',*,*,#300,.T.);
#443=ORIENTED_EDGE('',*,*,#297,.T.);
#444=ORIENTED_EDGE('',*,*,#294,.T.);
#445=ORIENTED_EDGE('',*,*,#291,.T.);
#446=ORIENTED_EDGE('',*,*,#319,.F.);
#447=ORIENTED_EDGE('',*,*,#289,.F.);
#448=ORIENTED_EDGE('',*,*,#293,.F.);
#449=ORIENTED_EDGE('',*,*,#296,.F.);
#450=ORIENTED_EDGE('',*,*,#299,.F.);
#451=ORIENTED_EDGE('',*,*,#302,.F.);
#452=ORIENTED_EDGE('',*,*,#305,.F.);
#453=ORIENTED_EDGE('',*,*,#308,.F.);
#454=ORIENTED_EDGE('',*,*,#311,.F.);
#455=ORIENTED_EDGE('',*,*,#314,.F.);
#456=ORIENTED_EDGE('',*,*,#317,.F.);
#457=ORIENTED_EDGE('',*,*,#284,.F.);
#458=ORIENTED_EDGE('',*,*,#288,.F.);
#459=PLANE('',#524);
#460=PLANE('',#528);
#461=PLANE('',#532);
#462=PLANE('',#536);
#463=PLANE('',#537);
#464=PLANE('',#544);
#465=PLANE('',#548);
#466=PLANE('',#549);
#467=PLANE('',#550);
#468=PLANE('',#551);
#469=PLANE('',#552);
#470=PLANE('',#553);
#471=PLANE('',#554);
#472=PLANE('',#555);
#473=PLANE('',#556);
#474=PLANE('',#557);
#475=PLANE('',#558);
#476=PLANE('',#559);
#477=PLANE('',#560);
#478=PLANE('',#561);
#479=PLANE('',#562);
#480=PLANE('',#563);
#481=PLANE('',#564);
#482=ADVANCED_FACE('',(#37),#459,.T.);
#483=ADVANCED_FACE('',(#38),#32,.T.);
#484=ADVANCED_FACE('',(#39),#460,.T.);
#485=ADVANCED_FACE('',(#40),#33,.T.);
#486=ADVANCED_FACE('',(#41),#461,.T.);
#487=ADVANCED_FACE('',(#42),#34,.T.);
#488=ADVANCED_FACE('',(#43),#462,.T.);
#489=ADVANCED_FACE('',(#44),#463,.T.);
#490=ADVANCED_FACE('',(#45),#35,.T.);
#491=ADVANCED_FACE('',(#46),#464,.T.);
#492=ADVANCED_FACE('',(#47),#36,.T.);
#493=ADVANCED_FACE('',(#48,#14),#465,.T.);
#494=ADVANCED_FACE('',(#49),#466,.T.);
#495=ADVANCED_FACE('',(#50),#467,.T.);
#496=ADVANCED_FACE('',(#51),#468,.T.);
#497=ADVANCED_FACE('',(#52),#469,.T.);
#498=ADVANCED_FACE('',(#53),#470,.T.);
#499=ADVANCED_FACE('',(#54),#471,.T.);
#500=ADVANCED_FACE('',(#55),#472,.T.);
#501=ADVANCED_FACE('',(#56),#473,.T.);
#502=ADVANCED_FACE('',(#57,#15),#474,.T.);
#503=ADVANCED_FACE('',(#58),#475,.T.);
#504=ADVANCED_FACE('',(#59),#476,.T.);
#505=ADVANCED_FACE('',(#60),#477,.T.);
#506=ADVANCED_FACE('',(#61),#478,.T.);
#507=ADVANCED_FACE('',(#62),#479,.T.);
#508=ADVANCED_FACE('',(#63),#480,.T.);
#509=ADVANCED_FACE('',(#64),#481,.F.);
#510=CLOSED_SHELL('',(#482,#483,#484,#485,#486,#487,#488,#489,#490,#491,
#492,#493,#494,#495,#496,#497,#498,#499,#500,#501,#502,#503,#504,#505,#506,
#507,#508,#509));
#511=DERIVED_UNIT_ELEMENT(#513,1.);
#512=DERIVED_UNIT_ELEMENT(#853,-3.);
#513=(
MASS_UNIT()
NAMED_UNIT(*)
SI_UNIT(.KILO.,.GRAM.)
);
#514=DERIVED_UNIT((#511,#512));
#515=MEASURE_REPRESENTATION_ITEM('density measure',
POSITIVE_RATIO_MEASURE(7850.),#514);
#516=PROPERTY_DEFINITION_REPRESENTATION(#521,#518);
#517=PROPERTY_DEFINITION_REPRESENTATION(#522,#519);
#518=REPRESENTATION('material name',(#520),#850);
#519=REPRESENTATION('density',(#515),#850);
#520=DESCRIPTIVE_REPRESENTATION_ITEM('\X2\AC15CCA0\X0\','\X2\AC15CCA0\X0\');
#521=PROPERTY_DEFINITION('material property','material name',#860);
#522=PROPERTY_DEFINITION('material property','density of part',#860);
#523=AXIS2_PLACEMENT_3D('',#705,#565,#566);
#524=AXIS2_PLACEMENT_3D('',#706,#567,#568);
#525=AXIS2_PLACEMENT_3D('',#715,#573,#574);
#526=AXIS2_PLACEMENT_3D('',#717,#575,#576);
#527=AXIS2_PLACEMENT_3D('',#719,#577,#578);
#528=AXIS2_PLACEMENT_3D('',#721,#580,#581);
#529=AXIS2_PLACEMENT_3D('',#727,#585,#586);
#530=AXIS2_PLACEMENT_3D('',#728,#587,#588);
#531=AXIS2_PLACEMENT_3D('',#729,#589,#590);
#532=AXIS2_PLACEMENT_3D('',#730,#591,#592);
#533=AXIS2_PLACEMENT_3D('',#731,#593,#594);
#534=AXIS2_PLACEMENT_3D('',#733,#595,#596);
#535=AXIS2_PLACEMENT_3D('',#736,#598,#599);
#536=AXIS2_PLACEMENT_3D('',#737,#600,#601);
#537=AXIS2_PLACEMENT_3D('',#738,#602,#603);
#538=AXIS2_PLACEMENT_3D('',#747,#608,#609);
#539=AXIS2_PLACEMENT_3D('',#750,#610,#611);
#540=AXIS2_PLACEMENT_3D('',#752,#612,#613);
#541=AXIS2_PLACEMENT_3D('',#754,#614,#615);
#542=AXIS2_PLACEMENT_3D('',#755,#616,#617);
#543=AXIS2_PLACEMENT_3D('',#757,#618,#619);
#544=AXIS2_PLACEMENT_3D('',#759,#621,#622);
#545=AXIS2_PLACEMENT_3D('',#765,#626,#627);
#546=AXIS2_PLACEMENT_3D('',#766,#628,#629);
#547=AXIS2_PLACEMENT_3D('',#767,#630,#631);
#548=AXIS2_PLACEMENT_3D('',#768,#632,#633);
#549=AXIS2_PLACEMENT_3D('',#769,#634,#635);
#550=AXIS2_PLACEMENT_3D('',#773,#638,#639);
#551=AXIS2_PLACEMENT_3D('',#777,#642,#643);
#552=AXIS2_PLACEMENT_3D('',#783,#647,#648);
#553=AXIS2_PLACEMENT_3D('',#792,#653,#654);
#554=AXIS2_PLACEMENT_3D('',#798,#658,#659);
#555=AXIS2_PLACEMENT_3D('',#804,#663,#664);
#556=AXIS2_PLACEMENT_3D('',#810,#668,#669);
#557=AXIS2_PLACEMENT_3D('',#816,#673,#674);
#558=AXIS2_PLACEMENT_3D('',#822,#678,#679);
#559=AXIS2_PLACEMENT_3D('',#828,#683,#684);
#560=AXIS2_PLACEMENT_3D('',#834,#688,#689);
#561=AXIS2_PLACEMENT_3D('',#840,#693,#694);
#562=AXIS2_PLACEMENT_3D('',#843,#697,#698);
#563=AXIS2_PLACEMENT_3D('',#846,#701,#702);
#564=AXIS2_PLACEMENT_3D('',#847,#703,#704);
#565=DIRECTION('axis',(0.,0.,1.));
#566=DIRECTION('refdir',(1.,0.,0.));
#567=DIRECTION('center_axis',(0.,1.,0.));
#568=DIRECTION('ref_axis',(0.,0.,-1.));
#569=DIRECTION('',(0.,0.,1.));
#570=DIRECTION('',(-1.,0.,0.));
#571=DIRECTION('',(0.,0.,-1.));
#572=DIRECTION('',(-1.,0.,0.));
#573=DIRECTION('center_axis',(-1.,0.,0.));
#574=DIRECTION('ref_axis',(0.,-1.,0.));
#575=DIRECTION('center_axis',(1.,0.,0.));
#576=DIRECTION('ref_axis',(0.,-1.,0.));
#577=DIRECTION('center_axis',(-1.,0.,0.));
#578=DIRECTION('ref_axis',(0.,-1.,0.));
#579=DIRECTION('',(-1.,0.,0.));
#580=DIRECTION('center_axis',(0.,-1.,0.));
#581=DIRECTION('ref_axis',(0.,0.,1.));
#582=DIRECTION('',(0.,0.,-1.));
#583=DIRECTION('',(0.,0.,1.));
#584=DIRECTION('',(-1.,0.,0.));
#585=DIRECTION('center_axis',(-1.,0.,0.));
#586=DIRECTION('ref_axis',(0.,1.8503717077086E-15,-1.));
#587=DIRECTION('center_axis',(1.,0.,0.));
#588=DIRECTION('ref_axis',(0.,1.8503717077086E-15,-1.));
#589=DIRECTION('center_axis',(-1.,0.,0.));
#590=DIRECTION('ref_axis',(0.,1.8503717077086E-15,-1.));
#591=DIRECTION('center_axis',(-1.,0.,0.));
#592=DIRECTION('ref_axis',(0.,0.,1.));
#593=DIRECTION('center_axis',(0.,1.,0.));
#594=DIRECTION('ref_axis',(-1.,0.,0.));
#595=DIRECTION('center_axis',(0.,1.,0.));
#596=DIRECTION('ref_axis',(-1.,0.,0.));
#597=DIRECTION('',(0.,-1.,0.));
#598=DIRECTION('center_axis',(0.,-1.,0.));
#599=DIRECTION('ref_axis',(-1.,0.,0.));
#600=DIRECTION('center_axis',(0.,1.,0.));
#601=DIRECTION('ref_axis',(-1.,0.,0.));
#602=DIRECTION('center_axis',(0.,0.,1.));
#603=DIRECTION('ref_axis',(1.,0.,0.));
#604=DIRECTION('',(-1.,0.,0.));
#605=DIRECTION('',(0.,1.,0.));
#606=DIRECTION('',(1.,0.,0.));
#607=DIRECTION('',(0.,1.,0.));
#608=DIRECTION('center_axis',(0.,1.,0.));
#609=DIRECTION('ref_axis',(-1.,0.,-2.84672570416707E-16));
#610=DIRECTION('center_axis',(0.,-1.,0.));
#611=DIRECTION('ref_axis',(0.878015347472998,0.,-0.478632478632479));
#612=DIRECTION('center_axis',(0.,-1.,0.));
#613=DIRECTION('ref_axis',(0.878015347472998,0.,-0.478632478632479));
#614=DIRECTION('center_axis',(0.,-1.,0.));
#615=DIRECTION('ref_axis',(0.878015347472998,0.,-0.478632478632479));
#616=DIRECTION('center_axis',(0.,-1.,0.));
#617=DIRECTION('ref_axis',(0.878015347472998,0.,-0.478632478632479));
#618=DIRECTION('center_axis',(0.,1.,0.));
#619=DIRECTION('ref_axis',(0.878015347472998,0.,-0.478632478632479));
#620=DIRECTION('',(0.,1.,0.));
#621=DIRECTION('center_axis',(0.,0.,-1.));
#622=DIRECTION('ref_axis',(-1.,0.,0.));
#623=DIRECTION('',(1.,0.,0.));
#624=DIRECTION('',(-1.,0.,0.));
#625=DIRECTION('',(0.,1.,0.));
#626=DIRECTION('center_axis',(0.,1.,0.));
#627=DIRECTION('ref_axis',(0.,0.,1.));
#628=DIRECTION('center_axis',(0.,-1.,0.));
#629=DIRECTION('ref_axis',(0.,0.,1.));
#630=DIRECTION('center_axis',(0.,1.,0.));
#631=DIRECTION('ref_axis',(0.,0.,1.));
#632=DIRECTION('center_axis',(0.,1.,0.));
#633=DIRECTION('ref_axis',(-1.,0.,0.));
#634=DIRECTION('center_axis',(0.,1.,0.));
#635=DIRECTION('ref_axis',(-1.,0.,0.));
#636=DIRECTION('',(0.,0.,1.));
#637=DIRECTION('',(-1.,0.,0.));
#638=DIRECTION('center_axis',(0.,1.,0.));
#639=DIRECTION('ref_axis',(-1.,0.,0.));
#640=DIRECTION('',(-1.,0.,0.));
#641=DIRECTION('',(0.,0.,1.));
#642=DIRECTION('center_axis',(0.,1.,0.));
#643=DIRECTION('ref_axis',(-1.,0.,0.));
#644=DIRECTION('',(-1.,0.,0.));
#645=DIRECTION('',(0.,0.,1.));
#646=DIRECTION('',(-1.,0.,0.));
#647=DIRECTION('center_axis',(0.,1.,0.));
#648=DIRECTION('ref_axis',(-1.,0.,0.));
#649=DIRECTION('',(-1.,0.,0.));
#650=DIRECTION('',(0.,0.,1.));
#651=DIRECTION('',(-1.,0.,0.));
#652=DIRECTION('',(0.,0.,1.));
#653=DIRECTION('center_axis',(1.,0.,0.));
#654=DIRECTION('ref_axis',(0.,1.,0.));
#655=DIRECTION('',(0.,1.,0.));
#656=DIRECTION('',(0.,1.,0.));
#657=DIRECTION('',(0.,0.,1.));
#658=DIRECTION('center_axis',(0.,-1.,0.));
#659=DIRECTION('ref_axis',(1.,0.,0.));
#660=DIRECTION('',(1.,0.,0.));
#661=DIRECTION('',(1.,0.,0.));
#662=DIRECTION('',(0.,0.,1.));
#663=DIRECTION('center_axis',(1.,0.,0.));
#664=DIRECTION('ref_axis',(0.,1.,0.));
#665=DIRECTION('',(0.,1.,0.));
#666=DIRECTION('',(0.,1.,0.));
#667=DIRECTION('',(0.,0.,1.));
#668=DIRECTION('center_axis',(0.,-1.,0.));
#669=DIRECTION('ref_axis',(1.,0.,0.));
#670=DIRECTION('',(1.,0.,0.));
#671=DIRECTION('',(1.,0.,0.));
#672=DIRECTION('',(0.,0.,1.));
#673=DIRECTION('center_axis',(-1.,0.,0.));
#674=DIRECTION('ref_axis',(0.,-1.,0.));
#675=DIRECTION('',(0.,-1.,0.));
#676=DIRECTION('',(0.,-1.,0.));
#677=DIRECTION('',(0.,0.,1.));
#678=DIRECTION('center_axis',(0.,-1.,0.));
#679=DIRECTION('ref_axis',(1.,0.,0.));
#680=DIRECTION('',(1.,0.,0.));
#681=DIRECTION('',(1.,0.,0.));
#682=DIRECTION('',(0.,0.,1.));
#683=DIRECTION('center_axis',(-1.,0.,0.));
#684=DIRECTION('ref_axis',(0.,-1.,0.));
#685=DIRECTION('',(0.,-1.,0.));
#686=DIRECTION('',(0.,-1.,0.));
#687=DIRECTION('',(0.,0.,1.));
#688=DIRECTION('center_axis',(0.,1.,0.));
#689=DIRECTION('ref_axis',(-1.,0.,0.));
#690=DIRECTION('',(-1.,0.,0.));
#691=DIRECTION('',(-1.,0.,0.));
#692=DIRECTION('',(0.,0.,1.));
#693=DIRECTION('center_axis',(-1.,0.,0.));
#694=DIRECTION('ref_axis',(0.,-1.,0.));
#695=DIRECTION('',(0.,-1.,0.));
#696=DIRECTION('',(0.,-1.,0.));
#697=DIRECTION('center_axis',(1.,0.,0.));
#698=DIRECTION('ref_axis',(0.,1.,0.));
#699=DIRECTION('',(0.,1.,0.));
#700=DIRECTION('',(0.,1.,0.));
#701=DIRECTION('center_axis',(0.,0.,1.));
#702=DIRECTION('ref_axis',(1.,0.,0.));
#703=DIRECTION('center_axis',(0.,0.,1.));
#704=DIRECTION('ref_axis',(1.,0.,0.));
#705=CARTESIAN_POINT('',(0.,0.,0.));
#706=CARTESIAN_POINT('Origin',(0.,4.4,7.1));
#707=CARTESIAN_POINT('',(0.,4.4,4.6));
#708=CARTESIAN_POINT('',(0.,4.4,7.1));
#709=CARTESIAN_POINT('',(0.,4.4,3.55));
#710=CARTESIAN_POINT('',(-4.8,4.4,4.6));
#711=CARTESIAN_POINT('',(0.,4.4,4.6));
#712=CARTESIAN_POINT('',(-4.8,4.4,7.1));
#713=CARTESIAN_POINT('',(-4.8,4.4,7.1));
#714=CARTESIAN_POINT('',(0.,4.4,7.1));
#715=CARTESIAN_POINT('Origin',(0.,3.8,7.1));
#716=CARTESIAN_POINT('',(0.,3.2,7.1));
#717=CARTESIAN_POINT('Origin',(0.,3.8,7.1));
#718=CARTESIAN_POINT('',(-4.8,3.2,7.1));
#719=CARTESIAN_POINT('Origin',(-4.8,3.8,7.1));
#720=CARTESIAN_POINT('',(0.,3.2,7.1));
#721=CARTESIAN_POINT('Origin',(0.,3.2,4.6));
#722=CARTESIAN_POINT('',(0.,3.2,4.6));
#723=CARTESIAN_POINT('',(0.,3.2,2.3));
#724=CARTESIAN_POINT('',(-4.8,3.2,4.6));
#725=CARTESIAN_POINT('',(-4.8,3.2,4.));
#726=CARTESIAN_POINT('',(0.,3.2,4.6));
#727=CARTESIAN_POINT('Origin',(0.,3.8,4.6));
#728=CARTESIAN_POINT('Origin',(0.,3.8,4.6));
#729=CARTESIAN_POINT('Origin',(-4.8,3.8,4.6));
#730=CARTESIAN_POINT('Origin',(-4.8,3.8,5.85));
#731=CARTESIAN_POINT('Origin',(5.85,24.3,5.85));
#732=CARTESIAN_POINT('',(8.35,31.7,5.85));
#733=CARTESIAN_POINT('Origin',(5.85,31.7,5.85));
#734=CARTESIAN_POINT('',(8.35,28.7,5.85));
#735=CARTESIAN_POINT('',(8.35,24.3,5.85));
#736=CARTESIAN_POINT('Origin',(5.85,28.7,5.85));
#737=CARTESIAN_POINT('Origin',(23.2,31.7,0.));
#738=CARTESIAN_POINT('Origin',(10.986389782717,24.3,8.65));
#739=CARTESIAN_POINT('',(11.9,24.3,8.65));
#740=CARTESIAN_POINT('',(10.986389782717,24.3,8.65));
#741=CARTESIAN_POINT('',(17.0931948913585,24.3,8.65));
#742=CARTESIAN_POINT('',(11.9,28.7,8.65));
#743=CARTESIAN_POINT('',(11.9,24.3,8.65));
#744=CARTESIAN_POINT('',(10.986389782717,28.7,8.65));
#745=CARTESIAN_POINT('',(11.9,28.7,8.65));
#746=CARTESIAN_POINT('',(10.986389782717,24.3,8.65));
#747=CARTESIAN_POINT('Origin',(5.85,24.3,5.85));
#748=CARTESIAN_POINT('',(5.85,24.3,0.));
#749=CARTESIAN_POINT('',(10.986389782717,24.3,3.05));
#750=CARTESIAN_POINT('Origin',(5.85,24.3,5.85));
#751=CARTESIAN_POINT('',(0.,24.3,5.85));
#752=CARTESIAN_POINT('Origin',(5.85,24.3,5.85));
#753=CARTESIAN_POINT('',(5.85,24.3,11.7));
#754=CARTESIAN_POINT('Origin',(5.85,24.3,5.85));
#755=CARTESIAN_POINT('Origin',(5.85,24.3,5.85));
#756=CARTESIAN_POINT('',(10.986389782717,28.7,3.05));
#757=CARTESIAN_POINT('Origin',(5.85,28.7,5.85));
#758=CARTESIAN_POINT('',(10.986389782717,24.3,3.05));
#759=CARTESIAN_POINT('Origin',(11.9,24.3,3.05));
#760=CARTESIAN_POINT('',(11.9,24.3,3.05));
#761=CARTESIAN_POINT('',(17.55,24.3,3.05));
#762=CARTESIAN_POINT('',(11.9,28.7,3.05));
#763=CARTESIAN_POINT('',(11.9,28.7,3.05));
#764=CARTESIAN_POINT('',(11.9,24.3,3.05));
#765=CARTESIAN_POINT('Origin',(11.9,24.3,5.85));
#766=CARTESIAN_POINT('Origin',(11.9,24.3,5.85));
#767=CARTESIAN_POINT('Origin',(11.9,28.7,5.85));
#768=CARTESIAN_POINT('Origin',(7.35,28.7,5.85));
#769=CARTESIAN_POINT('Origin',(23.2,24.3,0.));
#770=CARTESIAN_POINT('',(0.,24.3,11.7));
#771=CARTESIAN_POINT('',(0.,24.3,0.));
#772=CARTESIAN_POINT('',(23.2,24.3,11.7));
#773=CARTESIAN_POINT('Origin',(23.2,24.3,0.));
#774=CARTESIAN_POINT('',(0.,24.3,0.));
#775=CARTESIAN_POINT('',(23.2,24.3,0.));
#776=CARTESIAN_POINT('',(0.,24.3,0.));
#777=CARTESIAN_POINT('Origin',(23.2,24.3,0.));
#778=CARTESIAN_POINT('',(23.2,24.3,11.7));
#779=CARTESIAN_POINT('',(23.2,24.3,11.7));
#780=CARTESIAN_POINT('',(23.2,24.3,0.));
#781=CARTESIAN_POINT('',(23.2,24.3,0.));
#782=CARTESIAN_POINT('',(23.2,24.3,0.));
#783=CARTESIAN_POINT('Origin',(28.1,20.,0.));
#784=CARTESIAN_POINT('',(28.1,20.,0.));
#785=CARTESIAN_POINT('',(23.2,20.,0.));
#786=CARTESIAN_POINT('',(28.1,20.,0.));
#787=CARTESIAN_POINT('',(23.2,20.,11.7));
#788=CARTESIAN_POINT('',(23.2,20.,0.));
#789=CARTESIAN_POINT('',(28.1,20.,11.7));
#790=CARTESIAN_POINT('',(28.1,20.,11.7));
#791=CARTESIAN_POINT('',(28.1,20.,0.));
#792=CARTESIAN_POINT('Origin',(28.1,17.4,0.));
#793=CARTESIAN_POINT('',(28.1,17.4,0.));
#794=CARTESIAN_POINT('',(28.1,17.4,0.));
#795=CARTESIAN_POINT('',(28.1,17.4,11.7));
#796=CARTESIAN_POINT('',(28.1,17.4,11.7));
#797=CARTESIAN_POINT('',(28.1,17.4,0.));
#798=CARTESIAN_POINT('Origin',(23.2,17.4,0.));
#799=CARTESIAN_POINT('',(23.2,17.4,0.));
#800=CARTESIAN_POINT('',(23.2,17.4,0.));
#801=CARTESIAN_POINT('',(23.2,17.4,11.7));
#802=CARTESIAN_POINT('',(23.2,17.4,11.7));
#803=CARTESIAN_POINT('',(23.2,17.4,0.));
#804=CARTESIAN_POINT('Origin',(23.2,0.,0.));
#805=CARTESIAN_POINT('',(23.2,0.,0.));
#806=CARTESIAN_POINT('',(23.2,0.,0.));
#807=CARTESIAN_POINT('',(23.2,0.,11.7));
#808=CARTESIAN_POINT('',(23.2,0.,11.7));
#809=CARTESIAN_POINT('',(23.2,0.,0.));
#810=CARTESIAN_POINT('Origin',(0.,0.,0.));
#811=CARTESIAN_POINT('',(0.,0.,0.));
#812=CARTESIAN_POINT('',(0.,0.,0.));
#813=CARTESIAN_POINT('',(0.,0.,11.7));
#814=CARTESIAN_POINT('',(0.,0.,11.7));
#815=CARTESIAN_POINT('',(0.,0.,0.));
#816=CARTESIAN_POINT('Origin',(0.,17.4,0.));
#817=CARTESIAN_POINT('',(0.,17.4,0.));
#818=CARTESIAN_POINT('',(0.,17.4,0.));
#819=CARTESIAN_POINT('',(0.,17.4,11.7));
#820=CARTESIAN_POINT('',(0.,17.4,11.7));
#821=CARTESIAN_POINT('',(0.,17.4,0.));
#822=CARTESIAN_POINT('Origin',(-4.9,17.4,0.));
#823=CARTESIAN_POINT('',(-4.9,17.4,0.));
#824=CARTESIAN_POINT('',(-4.9,17.4,0.));
#825=CARTESIAN_POINT('',(-4.9,17.4,11.7));
#826=CARTESIAN_POINT('',(-4.9,17.4,11.7));
#827=CARTESIAN_POINT('',(-4.9,17.4,0.));
#828=CARTESIAN_POINT('Origin',(-4.9,20.,0.));
#829=CARTESIAN_POINT('',(-4.9,20.,0.));
#830=CARTESIAN_POINT('',(-4.9,20.,0.));
#831=CARTESIAN_POINT('',(-4.9,20.,11.7));
#832=CARTESIAN_POINT('',(-4.9,20.,11.7));
#833=CARTESIAN_POINT('',(-4.9,20.,0.));
#834=CARTESIAN_POINT('Origin',(0.,20.,0.));
#835=CARTESIAN_POINT('',(0.,20.,0.));
#836=CARTESIAN_POINT('',(0.,20.,0.));
#837=CARTESIAN_POINT('',(0.,20.,11.7));
#838=CARTESIAN_POINT('',(0.,20.,11.7));
#839=CARTESIAN_POINT('',(0.,20.,0.));
#840=CARTESIAN_POINT('Origin',(0.,24.3,0.));
#841=CARTESIAN_POINT('',(0.,24.3,0.));
#842=CARTESIAN_POINT('',(0.,24.3,11.7));
#843=CARTESIAN_POINT('Origin',(23.2,20.,0.));
#844=CARTESIAN_POINT('',(23.2,20.,0.));
#845=CARTESIAN_POINT('',(23.2,20.,11.7));
#846=CARTESIAN_POINT('Origin',(11.6,12.15,11.7));
#847=CARTESIAN_POINT('Origin',(11.6,12.15,0.));
#848=UNCERTAINTY_MEASURE_WITH_UNIT(LENGTH_MEASURE(0.01),#852,
'DISTANCE_ACCURACY_VALUE',
'Maximum model space distance between geometric entities at asserted c
onnectivities');
#849=UNCERTAINTY_MEASURE_WITH_UNIT(LENGTH_MEASURE(0.01),#852,
'DISTANCE_ACCURACY_VALUE',
'Maximum model space distance between geometric entities at asserted c
onnectivities');
#850=(
GEOMETRIC_REPRESENTATION_CONTEXT(3)
GLOBAL_UNCERTAINTY_ASSIGNED_CONTEXT((#848))
GLOBAL_UNIT_ASSIGNED_CONTEXT((#852,#854,#855))
REPRESENTATION_CONTEXT('','3D')
);
#851=(
GEOMETRIC_REPRESENTATION_CONTEXT(3)
GLOBAL_UNCERTAINTY_ASSIGNED_CONTEXT((#849))
GLOBAL_UNIT_ASSIGNED_CONTEXT((#852,#854,#855))
REPRESENTATION_CONTEXT('','3D')
);
#852=(
LENGTH_UNIT()
NAMED_UNIT(*)
SI_UNIT(.MILLI.,.METRE.)
);
#853=(
LENGTH_UNIT()
NAMED_UNIT(*)
SI_UNIT($,.METRE.)
);
#854=(
NAMED_UNIT(*)
PLANE_ANGLE_UNIT()
SI_UNIT($,.RADIAN.)
);
#855=(
NAMED_UNIT(*)
SI_UNIT($,.STERADIAN.)
SOLID_ANGLE_UNIT()
);
#856=SHAPE_DEFINITION_REPRESENTATION(#857,#858);
#857=PRODUCT_DEFINITION_SHAPE('',$,#860);
#858=SHAPE_REPRESENTATION('',(#523),#850);
#859=PRODUCT_DEFINITION_CONTEXT('part definition',#864,'design');
#860=PRODUCT_DEFINITION('our sg90','our sg90 v2',#861,#859);
#861=PRODUCT_DEFINITION_FORMATION('',$,#866);
#862=PRODUCT_RELATED_PRODUCT_CATEGORY('our sg90 v2','our sg90 v2',(#866));
#863=APPLICATION_PROTOCOL_DEFINITION('international standard',
'automotive_design',2009,#864);
#864=APPLICATION_CONTEXT(
'Core Data for Automotive Mechanical Design Process');
#865=PRODUCT_CONTEXT('part definition',#864,'mechanical');
#866=PRODUCT('our sg90','our sg90 v2',$,(#865));
#867=PRESENTATION_STYLE_ASSIGNMENT((#870));
#868=PRESENTATION_STYLE_ASSIGNMENT((#871));
#869=PRESENTATION_STYLE_ASSIGNMENT((#872));
#870=SURFACE_STYLE_USAGE(.BOTH.,#873);
#871=SURFACE_STYLE_USAGE(.BOTH.,#874);
#872=SURFACE_STYLE_USAGE(.BOTH.,#875);
#873=SURFACE_SIDE_STYLE('',(#876));
#874=SURFACE_SIDE_STYLE('',(#877));
#875=SURFACE_SIDE_STYLE('',(#878));
#876=SURFACE_STYLE_FILL_AREA(#879);
#877=SURFACE_STYLE_FILL_AREA(#880);
#878=SURFACE_STYLE_FILL_AREA(#881);
#879=FILL_AREA_STYLE('\X2\AC15CCA0\X0\ - \X2\C0C8D2F4\X0\',(#882));
#880=FILL_AREA_STYLE('\X2\D50CB77CC2A4D2F1\X0\ - \X2\AD11D0DD\X0\(\X2\D68CC0C9\X0\)',
(#883));
#881=FILL_AREA_STYLE('\X2\B098C77CB860\X0\ 6-6(\X2\D770C0C9\X0\)',(#884));
#882=FILL_AREA_STYLE_COLOUR('\X2\AC15CCA0\X0\ - \X2\C0C8D2F4\X0\',#885);
#883=FILL_AREA_STYLE_COLOUR('\X2\D50CB77CC2A4D2F1\X0\ - \X2\AD11D0DD\X0\(
\X2\D68CC0C9\X0\)',#886);
#884=FILL_AREA_STYLE_COLOUR('\X2\B098C77CB860\X0\ 6-6(\X2\D770C0C9\X0\)',
#887);
#885=COLOUR_RGB('\X2\AC15CCA0\X0\ - \X2\C0C8D2F4\X0\',0.627450980392157,
0.627450980392157,0.627450980392157);
#886=COLOUR_RGB('\X2\D50CB77CC2A4D2F1\X0\ - \X2\AD11D0DD\X0\(\X2\D68CC0C9\X0\)',
0.188235294117647,0.298039215686275,0.752941176470588);
#887=COLOUR_RGB('\X2\B098C77CB860\X0\ 6-6(\X2\D770C0C9\X0\)',0.972549019607843,
0.968627450980392,0.929411764705882);
ENDSEC;
END-ISO-10303-21;
